<?xml version="1.0" encoding="UTF-8"?>
<svg width="228px" height="228px" viewBox="0 0 228 228" version="1.1" xmlns="http://www.w3.org/2000/svg" xmlns:xlink="http://www.w3.org/1999/xlink">
    <!-- Generator: Sketch 53.1 (72631) - https://sketchapp.com -->
    <title>Artboard</title>
    <desc>Created with Sketch.</desc>
    <g id="Artboard" stroke="none" stroke-width="1" fill="none" fill-rule="evenodd">
        <g id="attachment-24px" transform="translate(114.322637, 114.322637) rotate(-45.000000) translate(-114.322637, -114.322637) translate(-36.677363, -37.177363)">
            <polygon id="Path" points="0 0.0437226014 302 0.0437226014 302 302.043723 0 302.043723"></polygon>
            <path d="M26.2071068,156.700577 C26.2071068,118.286031 57.0801068,87.2005769 95.2321068,87.2005769 L227.007107,87.2005769 C254.742607,87.2005769 277.207107,109.819668 277.207107,137.746031 C277.207107,165.672395 254.742607,188.291486 227.007107,188.291486 L120.332107,188.291486 C103.013107,188.291486 88.9571068,174.138759 88.9571068,156.700577 C88.9571068,139.262395 103.013107,125.109668 120.332107,125.109668 L214.457107,125.109668 L214.457107,150.382395 L119.202607,150.382395 C112.300107,150.382395 112.300107,163.018759 119.202607,163.018759 L227.007107,163.018759 C240.812107,163.018759 252.107107,151.646031 252.107107,137.746031 C252.107107,123.846031 240.812107,112.473304 227.007107,112.473304 L95.2321068,112.473304 C71.0106068,112.473304 51.3071068,132.312395 51.3071068,156.700577 C51.3071068,181.088759 71.0106068,200.92785 95.2321068,200.92785 L214.457107,200.92785 L214.457107,226.200577 L95.2321068,226.200577 C57.0801068,226.200577 26.2071068,195.115122 26.2071068,156.700577 Z" id="Path" fill="#6875F5" fill-rule="nonzero"></path>
        </g>
    </g>
</svg>