<?xml version="1.0" encoding="UTF-8"?>
<svg width="213px" height="50px" viewBox="0 0 213 50" version="1.1" xmlns="http://www.w3.org/2000/svg" xmlns:xlink="http://www.w3.org/1999/xlink">
    <!-- Generator: Sketch 53.1 (72631) - https://sketchapp.com -->
    <title>Group</title>
    <desc>Created with Sketch.</desc>
    <g id="Page-1" stroke="none" stroke-width="1" fill="none" fill-rule="evenodd">
        <g id="Artboard" transform="translate(-174.000000, -263.000000)">
            <g id="Group" transform="translate(174.000000, 263.000000)">
                <path d="M2.84217094e-14,31 L2.84217094e-14,8.68 L3.45,8.68 L3.45,21.79 L9.87,15.31 L14.07,15.31 L7.02,22.27 L14.79,31 L10.26,31 L3.45,23.08 L3.45,31 L2.84217094e-14,31 Z M23.7,31.45 C22.5399942,31.45 21.4750049,31.2450021 20.505,30.835 C19.5349952,30.424998 18.6900036,29.8500037 17.97,29.11 C17.2499964,28.3699963 16.695002,27.4950051 16.305,26.485 C15.9149981,25.474995 15.72,24.3600061 15.72,23.14 C15.72,21.9599941 15.9149981,20.870005 16.305,19.87 C16.695002,18.869995 17.2349966,17.9950038 17.925,17.245 C18.6150035,16.4949963 19.4299953,15.9100021 20.37,15.49 C21.3100047,15.0699979 22.3299945,14.86 23.43,14.86 C24.5300055,14.86 25.5349955,15.0549981 26.445,15.445 C27.3550046,15.835002 28.1449967,16.3899964 28.815,17.11 C29.4850034,17.8300036 29.9999982,18.6849951 30.36,19.675 C30.7200018,20.665005 30.9,21.759994 30.9,22.96 L30.9,23.98 L19.29,23.98 C19.3900005,24.9000046 19.6349981,25.6949967 20.025,26.365 C20.415002,27.0350034 20.9199969,27.5499982 21.54,27.91 C22.1600031,28.2700018 22.8799959,28.45 23.7,28.45 C25.3400082,28.45 26.6199954,27.7200073 27.54,26.26 L30.57,27.43 C30.2099982,28.2500041 29.6850035,28.964997 28.995,29.575 C28.3049966,30.1850031 27.5050046,30.6499984 26.595,30.97 C25.6849955,31.2900016 24.7200051,31.45 23.7,31.45 Z M23.43,17.65 C22.7299965,17.65 22.1050028,17.8099984 21.555,18.13 C21.0049973,18.4500016 20.5400019,18.8999971 20.16,19.48 C19.7799981,20.0600029 19.5200007,20.7399961 19.38,21.52 L27.3,21.52 C27.1799994,20.7399961 26.9500017,20.0600029 26.61,19.48 C26.2699983,18.8999971 25.8250028,18.4500016 25.275,18.13 C24.7249973,17.8099984 24.1100034,17.65 23.43,17.65 Z M35.82,37.24 C35.3199975,37.24 34.8550022,37.1900005 34.425,37.09 C33.9949979,36.9899995 33.580002,36.8300011 33.18,36.61 L33.93,33.88 C34.1500011,33.9800005 34.3999986,34.0649997 34.68,34.135 C34.9600014,34.2050004 35.2299987,34.24 35.49,34.24 C36.090003,34.24 36.6149978,34.0700017 37.065,33.73 C37.5150023,33.3899983 37.8899985,32.8400038 38.19,32.08 L38.67,30.85 L32.28,15.31 L36.06,15.31 L40.29,27.04 L44.13,15.31 L47.79,15.31 L41.13,32.89 C40.5499971,34.3900075 39.8250044,35.4899965 38.955,36.19 C38.0849957,36.8900035 37.0400061,37.24 35.82,37.24 Z M56.97,31.45 C55.8499944,31.45 54.8200047,31.2450021 53.88,30.835 C52.9399953,30.424998 52.1200035,29.8550037 51.42,29.125 C50.7199965,28.3949964 50.175002,27.530005 49.785,26.53 C49.3949981,25.529995 49.2,24.4400059 49.2,23.26 C49.2,22.0799941 49.399998,20.9800051 49.8,19.96 C50.200002,18.9399949 50.7499965,18.0500038 51.45,17.29 C52.1500035,16.5299962 52.9749953,15.9350022 53.925,15.505 C54.8750048,15.0749979 55.9099944,14.86 57.03,14.86 C58.1100054,14.86 59.0999955,15.0549981 60,15.445 C60.9000045,15.835002 61.6749968,16.3849965 62.325,17.095 C62.9750033,17.8050036 63.4399986,18.6399952 63.72,19.6 L60.45,20.38 C60.1099983,19.6199962 59.6350031,19.0300021 59.025,18.61 C58.414997,18.1899979 57.7300038,17.98 56.97,17.98 C56.169996,17.98 55.4500032,18.2099977 54.81,18.67 C54.1699968,19.1300023 53.6650019,19.7549961 53.295,20.545 C52.9249982,21.335004 52.74,22.229995 52.74,23.23 C52.74,24.2100049 52.9199982,25.0849962 53.28,25.855 C53.6400018,26.6250039 54.1349969,27.2299978 54.765,27.67 C55.3950032,28.1100022 56.1299958,28.33 56.97,28.33 C57.770004,28.33 58.4999967,28.1250021 59.16,27.715 C59.8200033,27.304998 60.3099984,26.7200038 60.63,25.96 L63.87,26.71 C63.5899986,27.6700048 63.1100034,28.5049965 62.43,29.215 C61.7499966,29.9250036 60.9400047,30.4749981 60,30.865 C59.0599953,31.255002 58.0500054,31.45 56.97,31.45 Z M67.02,31 L67.02,8.68 L70.47,8.68 L70.47,17.2 C70.9500024,16.4799964 71.589996,15.9100021 72.39,15.49 C73.190004,15.0699979 74.089995,14.86 75.09,14.86 C76.2700059,14.86 77.2949957,15.1399972 78.165,15.7 C79.0350044,16.2600028 79.7099976,17.0499949 80.19,18.07 C80.6700024,19.0900051 80.91,20.2899931 80.91,21.67 L80.91,31 L77.46,31 L77.46,22.06 C77.46,20.7799936 77.1750029,19.7800036 76.605,19.06 C76.0349972,18.3399964 75.2400051,17.98 74.22,17.98 C73.4999964,17.98 72.8550029,18.1499983 72.285,18.49 C71.7149972,18.8300017 71.2700016,19.2899971 70.95,19.87 C70.6299984,20.4500029 70.47,21.1199962 70.47,21.88 L70.47,31 L67.02,31 Z M89.7300001,31.45 C88.9299961,31.45 88.1950034,31.3300012 87.5250001,31.09 C86.8549967,30.8499988 86.2700026,30.5100022 85.7700001,30.07 C85.2699976,29.6299978 84.8800015,29.110003 84.6000001,28.51 C84.3199987,27.909997 84.1800001,27.2500036 84.1800001,26.53 C84.1800001,25.529995 84.4449974,24.6550038 84.9750001,23.905 C85.5050027,23.1549963 86.2499953,22.5700021 87.2100001,22.15 C88.1700049,21.7299979 89.2899937,21.52 90.5700001,21.52 C91.2700036,21.52 91.9399969,21.5849994 92.5800001,21.715 C93.2200033,21.8450007 93.8299972,22.0299988 94.4100001,22.27 L94.4100001,21.28 C94.4100001,20.5799965 94.2800014,19.9650027 94.0200001,19.435 C93.7599988,18.9049974 93.3900025,18.4900015 92.9100001,18.19 C92.4299977,17.8899985 91.8500035,17.74 91.1700001,17.74 C90.4499965,17.74 89.800003,17.9299981 89.2200001,18.31 C88.6399972,18.6900019 88.2100015,19.2199966 87.9300001,19.9 L84.7500001,19.18 C84.9900013,18.2999956 85.4249969,17.5400032 86.0550001,16.9 C86.6850032,16.2599968 87.4449956,15.7600018 88.3350001,15.4 C89.2250045,15.0399982 90.1899949,14.86 91.2300001,14.86 C92.210005,14.86 93.104996,15.0199984 93.9150001,15.34 C94.7250041,15.6600016 95.4199972,16.1099971 96.0000001,16.69 C96.580003,17.2700029 97.0299985,17.959996 97.3500001,18.76 C97.6700017,19.560004 97.8300001,20.4499951 97.8300001,21.43 L97.8300001,31 L94.6800001,31 L94.5600001,28.93 C94.139998,29.6900038 93.5100043,30.2999977 92.6700001,30.76 C91.8299959,31.2200023 90.8500057,31.45 89.7300001,31.45 Z M87.6600001,26.38 C87.6600001,26.8200022 87.7799989,27.2149983 88.0200001,27.565 C88.2600013,27.9150018 88.5949979,28.189999 89.0250001,28.39 C89.4550022,28.590001 89.9599972,28.69 90.5400001,28.69 C91.2800038,28.69 91.9399972,28.5300016 92.5200001,28.21 C93.100003,27.8899984 93.5599984,27.4550028 93.9000001,26.905 C94.2400018,26.3549973 94.4100001,25.7300035 94.4100001,25.03 L94.4100001,24.67 C93.8899975,24.4499989 93.3550028,24.2750007 92.8050001,24.145 C92.2549973,24.0149994 91.690003,23.95 91.1100001,23.95 C90.0699949,23.95 89.2350032,24.1699978 88.6050001,24.61 C87.9749969,25.0500022 87.6600001,25.6399963 87.6600001,26.38 Z M107.82,31.45 C106.239992,31.45 105.000005,30.9950046 104.1,30.085 C103.199996,29.1749955 102.75,27.8700085 102.75,26.17 L102.75,18.1 L99.9900001,18.1 L99.9900001,15.31 L102.75,15.31 L102.75,10 L106.2,10 L106.2,15.31 L110.76,15.31 L110.76,18.1 L106.2,18.1 L106.2,25.81 C106.2,26.6500042 106.374998,27.2949978 106.725,27.745 C107.075002,28.1950023 107.589997,28.42 108.27,28.42 C108.630002,28.42 109.019998,28.3650006 109.44,28.255 C109.860002,28.1449995 110.249998,27.990001 110.61,27.79 L111.39,30.4 C110.929998,30.7200016 110.395003,30.9749991 109.785,31.165 C109.174997,31.355001 108.520004,31.45 107.82,31.45 Z" id="keychat" fill="#FFFFFF" fill-rule="nonzero"></path>
                <g id="chatsecureoffline" transform="translate(114.560000, 0.000000)" fill="#04E887" fill-rule="nonzero">
                    <rect id="Rectangle" x="0" y="0" width="98" height="44" rx="22"></rect>
                    <path d="M21,43 L21,47.4876858 C21,48.3713414 21.7163444,49.0876858 22.6,49.0876858 C22.8337971,49.0876858 23.0647537,49.0364483 23.2766167,48.9375789 L36,43 L21,43 Z" id="Path"></path>
                </g>
                <path d="M120.34,31.12 C119.919998,31.12 119.540002,31.020001 119.2,30.82 C118.859998,30.619999 118.585001,30.3450017 118.375,29.995 C118.164999,29.6449983 118.06,29.2600021 118.06,28.84 C118.06,28.4199979 118.164999,28.0350017 118.375,27.685 C118.585001,27.3349983 118.859998,27.060001 119.2,26.86 C119.540002,26.659999 119.919998,26.56 120.34,26.56 C120.760002,26.56 121.139998,26.659999 121.48,26.86 C121.820002,27.060001 122.094999,27.3349983 122.305,27.685 C122.515001,28.0350017 122.62,28.4199979 122.62,28.84 C122.62,29.2600021 122.515001,29.6449983 122.305,29.995 C122.094999,30.3450017 121.820002,30.619999 121.48,30.82 C121.139998,31.020001 120.760002,31.12 120.34,31.12 Z M133.3,31.45 C132.159994,31.45 131.105005,31.245002 130.135,30.835 C129.164995,30.4249979 128.320004,29.8450037 127.6,29.095 C126.879996,28.3449963 126.320002,27.4650051 125.92,26.455 C125.519998,25.444995 125.32,24.340006 125.32,23.14 C125.32,21.9599941 125.519998,20.865005 125.92,19.855 C126.320002,18.844995 126.884996,17.9650037 127.615,17.215 C128.345004,16.4649963 129.204995,15.8850021 130.195,15.475 C131.185005,15.064998 132.259994,14.86 133.42,14.86 C134.560006,14.86 135.614995,15.064998 136.585,15.475 C137.555005,15.8850021 138.399996,16.4649963 139.12,17.215 C139.840004,17.9650037 140.399998,18.839995 140.8,19.84 C141.200002,20.840005 141.4,21.939994 141.4,23.14 C141.4,24.340006 141.200002,25.444995 140.8,26.455 C140.399998,27.4650051 139.835004,28.3449963 139.105,29.095 C138.374996,29.8450037 137.515005,30.4249979 136.525,30.835 C135.534995,31.245002 134.460006,31.45 133.3,31.45 Z M133.36,28.33 C134.220004,28.33 134.989997,28.1050022 135.67,27.655 C136.350003,27.2049978 136.884998,26.5900039 137.275,25.81 C137.665002,25.0299961 137.86,24.140005 137.86,23.14 C137.86,22.139995 137.665002,21.2550038 137.275,20.485 C136.884998,19.7149961 136.350003,19.1050022 135.67,18.655 C134.989997,18.2049978 134.220004,17.98 133.36,17.98 C132.499996,17.98 131.730003,18.2049978 131.05,18.655 C130.369997,19.1050022 129.835002,19.7149961 129.445,20.485 C129.054998,21.2550038 128.86,22.139995 128.86,23.14 C128.86,24.140005 129.054998,25.0299961 129.445,25.81 C129.835002,26.5900039 130.369997,27.2049978 131.05,27.655 C131.730003,28.1050022 132.499996,28.33 133.36,28.33 Z M144.43,31 L144.43,15.31 L147.58,15.31 L147.7,17.47 C148.160002,16.669996 148.804996,16.0350024 149.635,15.565 C150.465004,15.0949976 151.419995,14.86 152.5,14.86 C153.680006,14.86 154.704996,15.1399972 155.575,15.7 C156.445004,16.2600028 157.119998,17.0499949 157.6,18.07 C158.080002,19.0900051 158.32,20.2899931 158.32,21.67 L158.32,31 L154.87,31 L154.87,22.06 C154.87,20.7799936 154.585003,19.7800036 154.015,19.06 C153.444997,18.3399964 152.650005,17.98 151.63,17.98 C150.909996,17.98 150.265003,18.1499983 149.695,18.49 C149.124997,18.8300017 148.680002,19.2899971 148.36,19.87 C148.039998,20.4500029 147.88,21.1199962 147.88,21.88 L147.88,31 L144.43,31 Z M162.04,31 L162.04,8.68 L165.49,8.68 L165.49,31 L162.04,31 Z M173.02,10.93 C173.02,11.3100019 172.925001,11.6599984 172.735,11.98 C172.544999,12.3000016 172.290002,12.554999 171.97,12.745 C171.649998,12.935001 171.300002,13.03 170.92,13.03 C170.539998,13.03 170.190002,12.935001 169.87,12.745 C169.549998,12.554999 169.295001,12.3000016 169.105,11.98 C168.914999,11.6599984 168.82,11.3100019 168.82,10.93 C168.82,10.5499981 168.914999,10.2000016 169.105,9.88 C169.295001,9.5599984 169.549998,9.30500095 169.87,9.115 C170.190002,8.92499905 170.539998,8.83 170.92,8.83 C171.300002,8.83 171.649998,8.92499905 171.97,9.115 C172.290002,9.30500095 172.544999,9.5599984 172.735,9.88 C172.925001,10.2000016 173.02,10.5499981 173.02,10.93 Z M169.21,31 L169.21,15.31 L172.66,15.31 L172.66,31 L169.21,31 Z M176.38,31 L176.38,15.31 L179.53,15.31 L179.65,17.47 C180.110002,16.669996 180.754996,16.0350024 181.585,15.565 C182.415004,15.0949976 183.369995,14.86 184.45,14.86 C185.630006,14.86 186.654996,15.1399972 187.525,15.7 C188.395004,16.2600028 189.069998,17.0499949 189.55,18.07 C190.030002,19.0900051 190.27,20.2899931 190.27,21.67 L190.27,31 L186.82,31 L186.82,22.06 C186.82,20.7799936 186.535003,19.7800036 185.965,19.06 C185.394997,18.3399964 184.600005,17.98 183.58,17.98 C182.859996,17.98 182.215003,18.1499983 181.645,18.49 C181.074997,18.8300017 180.630002,19.2899971 180.31,19.87 C179.989998,20.4500029 179.83,21.1199962 179.83,21.88 L179.83,31 L176.38,31 Z M201.28,31.45 C200.119994,31.45 199.055005,31.245002 198.085,30.835 C197.114995,30.4249979 196.270004,29.8500037 195.55,29.11 C194.829996,28.3699963 194.275002,27.495005 193.885,26.485 C193.494998,25.4749949 193.3,24.3600061 193.3,23.14 C193.3,21.9599941 193.494998,20.870005 193.885,19.87 C194.275002,18.869995 194.814997,17.9950038 195.505,17.245 C196.195004,16.4949962 197.009995,15.9100021 197.95,15.49 C198.890005,15.0699979 199.909995,14.86 201.01,14.86 C202.110006,14.86 203.114996,15.054998 204.025,15.445 C204.935005,15.8350019 205.724997,16.3899964 206.395,17.11 C207.065003,17.8300036 207.579998,18.684995 207.94,19.675 C208.300002,20.665005 208.48,21.759994 208.48,22.96 L208.48,23.98 L196.87,23.98 C196.970001,24.9000046 197.214998,25.6949967 197.605,26.365 C197.995002,27.0350034 198.499997,27.5499982 199.12,27.91 C199.740003,28.2700018 200.459996,28.45 201.28,28.45 C202.920008,28.45 204.199995,27.7200073 205.12,26.26 L208.15,27.43 C207.789998,28.2500041 207.265004,28.9649969 206.575,29.575 C205.884997,30.185003 205.085005,30.6499984 204.175,30.97 C203.264996,31.2900016 202.300005,31.45 201.28,31.45 Z M201.01,17.65 C200.309997,17.65 199.685003,17.8099984 199.135,18.13 C198.584997,18.4500016 198.120002,18.8999971 197.74,19.48 C197.359998,20.0600029 197.100001,20.7399961 196.96,21.52 L204.88,21.52 C204.759999,20.7399961 204.530002,20.0600029 204.19,19.48 C203.849998,18.8999971 203.405003,18.4500016 202.855,18.13 C202.304997,17.8099984 201.690003,17.65 201.01,17.65 Z" id=".online" fill="#141318" fill-rule="nonzero"></path>
                <rect id="Rectangle" fill="#04E887" x="167.56" y="8" width="7" height="6"></rect>
            </g>
        </g>
    </g>
</svg>