<svg width="76" height="168" xmlns="http://www.w3.org/2000/svg"><g fill="none" fill-rule="evenodd"><path d="M38.87 156.93H47c0-1.36 0-3.11.06-5.2.06-4.83.14-11.38.2-18.6a178.68 178.68 0 01-5.61-37.3.44.44 0 01.42-.44.47.47 0 01.45.42c.34 11.22 2.18 23.39 5.61 37.21 2.16 8.74 4.67 17 6.85 23.91h8.43v-2.65c.12-13.5.31-36.05.21-55.28-4.22-1.33-6.57-4.31-6.46-8.24a.43.43 0 11.86.02c-.13 4.67 3.52 6.59 5.6 7.31 0-3.49 0-6.86-.09-10L26.55 88c.7 28.75 7.33 53.05 12.32 68.93zM45.3 53.47a10.32 10.32 0 00-3.86-.54 10.36 10.36 0 00-3.86.54c1.24.428 2.55.611 3.86.54a10.1 10.1 0 003.86-.54zM40.68 3.68c-6.78-2.75-7.64-2-7.74-1.76a.46.46 0 000 .48c.73 1.34 5.41 2.45 6.63 2.66a14.8 14.8 0 011.11-1.38zM47.93 3.24a3.56 3.56 0 00-2.58-1.39 4.63 4.63 0 00-3.17 1.51c3 1.26 5.83 2.64 7.31 3.37a8 8 0 00-1.56-3.49zM41.34 68.59a11.69 11.69 0 002.42-.3l.21-1.85a15.47 15.47 0 01-2.22.18 11.31 11.31 0 01-2.8-.33l.23 2a8.38 8.38 0 002.16.3zM60.88 55.71l2-.49c-1.23-1.44-2-2.46-2.76-3.44l-.07-.08c.11.76.26 1.84.44 3.21h.17l.22.8zM25.02 165.35h15.29v1H25.02zM47.62 64.59a5.69 5.69 0 01-.41-4.72h-.06a.28.28 0 000-.12.52.52 0 00-.1-.56.41.41 0 00-.16-.19 2.58 2.58 0 00-1.21-.75l-.07.62V59c-.45 1.19-2 1.48-3.36 1.48a12.73 12.73 0 01-2-.17 5.39 5.39 0 01-2.82-1.42.42.42 0 00-.22.13.63.63 0 00-.19.48c.104.54.45 1 .94 1.25a6.66 6.66 0 004.45.77.435.435 0 11.13.86 8.79 8.79 0 01-1.26.09 7.2 7.2 0 01-3.64-.92.64.64 0 00-.5.15.35.35 0 00-.14.3c0 .35.35.73.9 1a7.12 7.12 0 004.4.7.42.42 0 01.48.37.43.43 0 01-.37.48 8.86 8.86 0 01-1.25.09 7.53 7.53 0 01-3.55-.82.53.53 0 00-.44.07.38.38 0 00-.13.26c0 .18.41.69 1.61 1.1a11.3 11.3 0 005.69.22 19 19 0 003-.85l.25-.09.03.06zM12 23.67l-.11-.38a.43.43 0 00-.46-.35c-.22 0-.32.31-.28.69v.18c.13 1.31.27 2.54-.34 3.21a.4.4 0 01-.38.21 2 2 0 00-1.41.58.72.72 0 00-.11.7.43.43 0 01-.29.54H8.5a.44.44 0 01-.42-.31 1.62 1.62 0 01.25-1.48 2.67 2.67 0 011.53-.86c-1-2.47-3-5.59-4.39-6.07a.6.6 0 00-.53 0c-.13.08-.17.15-.11.33a2.7 2.7 0 00.69.92A9.29 9.29 0 018 25.17a.43.43 0 01-.24.56.44.44 0 01-.56-.25 8.49 8.49 0 00-2.3-3.24 3.72 3.72 0 01-.8-1h-.06a1.45 1.45 0 00-1.17-.6c-.33 0-.38.09-.47.37-.09.28 0 .41.43.77a22 22 0 013.45 4.5.43.43 0 01-.2.57.45.45 0 01-.19 0 .44.44 0 01-.39-.24 20.62 20.62 0 00-3.13-4.11.37.37 0 00-.32 0 .51.51 0 00-.3.32c0 .42.52 1 .89 1.44l.24.28a13.75 13.75 0 012.76 4.35v.09c.89 2.56 1.7 3.93 2.41 4.08l4.08-1.78a.36.36 0 010-.09c1.47-2.11.38-5.76-.13-7.52zM41.22 166.33h22.21v-.88l-22.21-.1z"/><path d="M37.62 54.41l.44 3.86c.24.58 1.74 1.13 2.34 1.23 1.85.29 4 .24 4.41-.76l.51-4.38a13.14 13.14 0 01-3.88.52 13.59 13.59 0 01-3.82-.47zM50.78 14a2.1 2.1 0 00.45.19 1.81 1.81 0 001.94-.39c.45-.59.15-2.41-.7-3.22-.48-.45-1-.41-1.6.1a4.73 4.73 0 00-.78.92.43.43 0 01-.6.11.42.42 0 01-.11-.6 6.06 6.06 0 01.72-.88v-.09c-.1-.72-.21-1.54-.37-2.37l-.5-.24c-1.49-.73-4.56-2.23-7.69-3.54a17.88 17.88 0 00-1.41 1.75 24.81 24.81 0 00-3.34 6.87C35.92 16 40.85 23.51 41.93 24c.14.05.284.09.43.12 1.84.34 4.3-1.38 5.1-3a.42.42 0 01.58-.2.43.43 0 01.2.57A6.71 6.71 0 0142.86 25h-.22c-.13.64-.25 1.32-.36 2a23.7 23.7 0 01-.91 4.17 26.16 26.16 0 019.46.15v-4.53c.06-4 .12-7.79-.21-11.86-.11-.05-.22-.08-.31-.13a.43.43 0 01-.17-.59.44.44 0 01.64-.21zm-.06-2.14a.44.44 0 01.61 0 2 2 0 001.26.51.43.43 0 01.43.43.48.48 0 01-.44.44 2.84 2.84 0 01-1.85-.75.44.44 0 01-.01-.6v-.03zm-11.17 2.46a.42.42 0 11-.054-.838.42.42 0 01.054.838zm.84 2.44l.16-.66c.26-1.12.66-2.81.35-3.56a.51.51 0 00-.28-.21 2.51 2.51 0 00-1.56 0 .43.43 0 01-.36-.78 3.22 3.22 0 012.23 0c.34.11.62.356.77.68.41 1 0 2.72-.31 4.09-.06.23-.11.45-.15.64-.25 1.15-.12 1.47 0 1.56.12.09.27.07.51 0a.43.43 0 01.54.3.42.42 0 01-.29.53 2.21 2.21 0 01-.58.1 1.12 1.12 0 01-.77-.28c-.57-.51-.45-1.49-.26-2.38v-.03zm3.79 4.58a2.31 2.31 0 01-1.65.68 2 2 0 01-.48 0 1.71 1.71 0 01-1.31-1 .44.44 0 01.81-.32.9.9 0 00.67.44 1.52 1.52 0 001.34-.39.43.43 0 01.61 0 .44.44 0 01.01.62v-.03zM45 14.5a.42.42 0 01-.38-.45.4.4 0 01.44-.38.42.42 0 01.39.44.43.43 0 01-.45.39zm2-2a.47.47 0 01-.33.14.42.42 0 01-.29-.11 2.31 2.31 0 00-2-.36.43.43 0 01-.57-.21.44.44 0 01.21-.58 3.16 3.16 0 012.89.51.44.44 0 01.15.65L47 12.5z"/><path d="M45.1 13.67a.4.4 0 00-.44.38.42.42 0 00.38.45.43.43 0 00.45-.39.42.42 0 00-.39-.44zM39.61 13.52a.42.42 0 10-.174.822.42.42 0 00.174-.822zM44.13 11.42a.44.44 0 00-.21.58c.1.215.355.31.57.21a2.31 2.31 0 012 .36.42.42 0 00.29.11.47.47 0 00.33-.14.44.44 0 000-.61 3.16 3.16 0 00-2.98-.51zM52.59 13.25a.48.48 0 00.44-.44.43.43 0 00-.43-.43 2 2 0 01-1.26-.51.432.432 0 10-.59.63 2.84 2.84 0 001.84.75z" fill="#FFF" fill-rule="nonzero"/><path d="M42 19.35a.42.42 0 00.29-.53.43.43 0 00-.54-.3c-.24.08-.43.08-.51 0-.08-.08-.22-.41 0-1.56 0-.19.09-.41.15-.64.32-1.37.72-3.08.31-4.09a1.28 1.28 0 00-.77-.68 3.22 3.22 0 00-2.23 0 .43.43 0 00.36.78 2.51 2.51 0 011.56 0 .51.51 0 01.28.21c.31.75-.09 2.44-.35 3.56l-.16.66c-.19.89-.31 1.87.23 2.38.212.187.487.287.77.28.206.005.41-.018.61-.07zM43.56 20.77a1.52 1.52 0 01-1.34.39.9.9 0 01-.67-.44.44.44 0 00-.81.32c.237.536.73.913 1.31 1a2 2 0 00.48 0 2.31 2.31 0 001.65-.68.44.44 0 000-.61.43.43 0 00-.62.02z" fill="#FFF" fill-rule="nonzero"/><path d="M44.34 65.52a11.3 11.3 0 01-5.69-.22c-1.2-.41-1.61-.92-1.61-1.1a.38.38 0 01.13-.26.53.53 0 01.44-.07 7.53 7.53 0 003.55.82c.418 0 .836-.03 1.25-.09a.43.43 0 00.37-.48.42.42 0 00-.48-.37 7.12 7.12 0 01-4.4-.7c-.55-.32-.88-.7-.9-1a.35.35 0 01.12-.26.64.64 0 01.5-.15 7.2 7.2 0 003.64.92c.422 0 .843-.03 1.26-.09a.435.435 0 10-.13-.86 6.66 6.66 0 01-4.45-.77 1.78 1.78 0 01-.94-1.3.63.63 0 01.19-.48.42.42 0 01.22-.13 5.39 5.39 0 002.82 1.42c.661.11 1.33.166 2 .17 1.39 0 2.91-.29 3.36-1.48v-.06-.07l.07-.62a2.58 2.58 0 011.21.75c3.23-1.76 8.31-2.91 11.67-3.68l1.65-.38.25-.06c-.18-1.37-.33-2.45-.44-3.21l.07.08c.75 1 1.53 2 2.76 3.44l-2 .49-.42.1-1.66.38c-3.32.76-8.33 1.9-11.45 3.6l-.14.08a5.69 5.69 0 00.41 4.72c1.89.55 8.61.43 14.33-.52 4.25-.77 9.12-1.87 10.68-2.76 2.66-1.53 3.21-3.57 1.79-6.6C70.8 47 63.53 37 63.46 36.88l-.08-.08c-2.24-1.85-9.1-3-10.53-3.23v-.11a3.73 3.73 0 00-1.11-1.74V26.8c.06-3.93.11-7.64-.2-11.64h.42a2.3 2.3 0 001.89-.83c.75-1 .32-3.32-.8-4.38a1.81 1.81 0 00-2.17-.32c-.1-.7-.2-1.45-.36-2.24a9.82 9.82 0 00-2-4.76 4.41 4.41 0 00-3.2-1.68 5.83 5.83 0 00-4.06 2c-7.23-3-8.69-2.35-9.14-1.47-.224.4-.224.89 0 1.29.89 1.62 5.17 2.66 6.86 3a25.69 25.69 0 00-3.11 6.6C35 16.09 40 24.11 41.61 24.75h.18c-.14.67-.25 1.37-.36 2.05a19.07 19.07 0 01-1.13 4.69 3.48 3.48 0 00-1.55 2c-1.28 0-5.16.08-7.73 1.49a81.64 81.64 0 00-13 9.75c-1.77-4-4.41-10.89-5.14-13.08 1.69-2.46.52-6.37 0-8.25l-.11-.37a1.3 1.3 0 00-1.46-1 1.36 1.36 0 00-1 1.63v.18c.067.55.1 1.105.1 1.66-1-2.39-3.06-5.43-4.67-6a1.41 1.41 0 00-1.27.09c-.17.1-.308.246-.4.42a2.13 2.13 0 00-1.28-.37 1.33 1.33 0 00-1.09 2h-.09a1.34 1.34 0 00-.77 1 3.2 3.2 0 001.1 2.08l.23.25a13.1 13.1 0 012.6 4.08v.1c.67 1.95 1.61 4.17 2.92 4.59.54 3.4 1.28 7.37 2.07 11.56.58 3.11 1.18 6.29 1.71 9.36a.45.45 0 00.18.27 2.71 2.71 0 001.83.46c4.17 0 13.39-3.3 16-4.26-1.57 9.9-4.4 29.25-4.53 36.31a.42.42 0 00.12.31.44.44 0 00.31.13h.33c.69 28.79 7.33 53.15 12.33 69.09l-1.08.46a34.62 34.62 0 01-8.8 2.83 4.86 4.86 0 00-3.41 1.69 3.59 3.59 0 00-.57 2.81v1.87c0 .237.193.43.43.43h39.27a.43.43 0 00.43-.43v-1.91-10.57c.12-13.45.32-35.88.22-55.07a14.7 14.7 0 002.76.42.44.44 0 00.43-.41.44.44 0 00-.41-.46 12.79 12.79 0 01-2.81-.44c0-3.57 0-7-.1-10.24h.14a.41.41 0 00.31-.14.41.41 0 00.12-.32c-.09-1.7-1.08-8.49-2.23-16.36-.3-2.08-.61-4.21-.91-6.32a67 67 0 01-10.09.83 15.14 15.14 0 01-4.85-.51.37.37 0 01-.23-.39l-2.32.78zM12.09 31.29L8 33.07c-.71-.15-1.52-1.52-2.41-4.08v-.09a13.75 13.75 0 00-2.76-4.35l-.24-.28c-.37-.41-.92-1-.89-1.44a.51.51 0 01.3-.32.37.37 0 01.32 0 20.62 20.62 0 013.13 4.11.44.44 0 00.39.24.45.45 0 00.19 0 .43.43 0 00.2-.57 22 22 0 00-3.45-4.5c-.38-.36-.5-.57-.43-.77.07-.2.14-.35.47-.37a1.45 1.45 0 011.17.6h.06c.207.377.478.715.8 1a8.49 8.49 0 012.3 3.24.44.44 0 00.56.25.43.43 0 00.24-.56 9.29 9.29 0 00-2.49-3.54 2.7 2.7 0 01-.69-.92c-.06-.18 0-.25.11-.33a.6.6 0 01.53 0c1.34.48 3.43 3.6 4.39 6.07a2.67 2.67 0 00-1.53.86A1.62 1.62 0 008 28.78a.44.44 0 00.42.31h.12a.43.43 0 00.29-.54.72.72 0 01.11-.7 2 2 0 011.41-.58.4.4 0 00.38-.21c.61-.67.47-1.9.34-3.21v-.18c0-.38.06-.65.28-.69a.43.43 0 01.46.35l.11.38c.53 1.76 1.62 5.41.15 7.53a.36.36 0 00.02.05zm28.23 135H25v-1h15.3l.02 1zm23.11 0H41.22v-1h-.89v-.26c0-3.82 2-4.57 4-4.8a20.35 20.35 0 003.57-.81v-2.11c0-1.41 0-3.33.06-5.63.06-4.12.12-9.48.18-15.44 2 7.52 4.11 14.6 6 20.71l.27.81c-.27.1-.55.23-1 .44a34.68 34.68 0 01-9 2.89c-2 .23-3.24 1-3.21 3.92v.28l22.21.1.02.9zM41.75 66.62a15.47 15.47 0 002.22-.18l-.21 1.85a11.69 11.69 0 01-2.42.3 8.38 8.38 0 01-2.16-.29l-.23-2c.916.223 1.857.33 2.8.32zm21.87 21.47c0 3.14.07 6.51.09 10-2.08-.72-5.73-2.64-5.6-7.31a.43.43 0 10-.86-.02c-.11 3.93 2.24 6.91 6.46 8.24.1 19.23-.09 41.78-.21 55.28v2.65h-8.43c-2.18-6.93-4.69-15.17-6.85-23.91-3.43-13.82-5.27-26-5.61-37.21a.47.47 0 00-.45-.42.44.44 0 00-.42.44 178.68 178.68 0 005.61 37.3c-.06 7.22-.14 13.77-.2 18.6 0 2.09 0 3.84-.06 5.2h-8.17c-5-15.88-11.62-40.18-12.32-68.91l37.02.07zM45.35 1.85a3.56 3.56 0 012.58 1.39 8 8 0 011.56 3.49c-1.48-.73-4.33-2.11-7.31-3.37a4.63 4.63 0 013.17-1.51zM33 2.4a.46.46 0 010-.48c.1-.2 1-1 7.74 1.76a14.8 14.8 0 00-1.1 1.38C38.36 4.85 33.68 3.74 33 2.4zm7.71 41.33a.431.431 0 01.61.61c-1.14 1.12-1.4 2-.94 3 .1.204.214.401.34.59a4 4 0 01.55 1.12 3 3 0 01-.82 2.4.41.41 0 01-.32.15.46.46 0 01-.29-.11.43.43 0 010-.61 2.16 2.16 0 00.62-1.63 3.29 3.29 0 00-.43-.86 5.64 5.64 0 01-.4-.7c-.87-1.77.1-3.05 1.03-3.96h.05zm.78 9.2a10.32 10.32 0 013.86.54 10.1 10.1 0 01-3.86.54 10.14 10.14 0 01-3.86-.54 10.36 10.36 0 013.81-.54h.05zm1.43-5.59c.097.204.207.4.33.59.242.341.428.72.55 1.12a3 3 0 01-.81 2.4.44.44 0 01-.33.15.44.44 0 01-.32-.72 2.16 2.16 0 00.62-1.63 3.19 3.19 0 00-.44-.86 5.52 5.52 0 01-.39-.7c-.78-1.77.18-3 1.11-4a.431.431 0 01.61.61c-1.18 1.16-1.44 2-.98 3.04h.05zm1.94 11.4c-.45 1-2.56 1.05-4.41.76-.6-.1-2.1-.65-2.34-1.23l-.44-3.86a13.59 13.59 0 003.82.47 13.14 13.14 0 003.88-.52l-.51 4.38zm5.55-43.95c.09.05.2.08.31.13.33 4.07.27 7.86.21 11.86v4.53a26.16 26.16 0 00-9.46-.15 23.7 23.7 0 00.91-4.17c.11-.71.23-1.39.36-2h.22a6.71 6.71 0 005.38-3.57.43.43 0 00-.2-.57.42.42 0 00-.58.2c-.8 1.65-3.26 3.37-5.1 3a3.45 3.45 0 01-.43-.12c-1.08-.44-6-7.92-5.15-11.31a24.81 24.81 0 013.34-6.87c.4-.61.838-1.194 1.31-1.75 3.13 1.31 6.2 2.81 7.69 3.54l.5.24c.16.83.27 1.65.37 2.37v.09a6.06 6.06 0 00-.72.88.42.42 0 00.11.6.43.43 0 00.6-.11 4.73 4.73 0 01.78-.92c.6-.51 1.12-.55 1.6-.1.85.81 1.15 2.63.7 3.22a1.81 1.81 0 01-1.94.39 2.1 2.1 0 01-.45-.19.44.44 0 00-.59.17.43.43 0 00.18.61h.05z" fill="#FFF" fill-rule="nonzero"/></g></svg>