<svg width="1228" height="986" xmlns="http://www.w3.org/2000/svg"><g transform="translate(0 -4)" fill="none" fill-rule="evenodd"><path d="M544.249 60.817A350.906 350.906 0 00627.86 46.37c35.446-10.319 62.934-24.187 57.437-34.423-5.498-10.236-38.811 1.073-72.289 15.189-17.231-18.16-37.58-26.333-56.534-5.035a62.062 62.062 0 00-13.21 37.56.764.764 0 00-.083 1.072c.272.32.75.356 1.067.083z"/><path d="M1097.658 707a68.954 68.954 0 015.342-4.604c-17.915-13.071-172-125.451-229.198-159.404-63.935-37.816-135.349-47.352-311.458 15.867a3.536 3.536 0 002.383 6.659c173.48-62.233 243.332-53.19 305.377-16.442C925 581.96 1069.471 686.612 1096.261 706.178l1.397.822zM1057.345 762.684L807.326 658.121a54.37 54.37 0 00-44.86-2.388 3.535 3.535 0 00-2.07 1.745 3.547 3.547 0 00-.23 2.701 3.614 3.614 0 004.518 2.305c18.487-6.092 26.128-3.128 40.588 2.47L1058.66 771h1.069a4.598 4.598 0 003.533-1.894l.739-1.07c-2.136-1.729-4.355-3.54-6.655-5.352z" fill="#FFF" fill-rule="nonzero"/><path d="M558.78 561.231a266.535 266.535 0 00-5.67-10.863c-15.617-29.132-37.069-69.127-33.699-165a3.62 3.62 0 012.451-3.185 3.613 3.613 0 013.878 1.045c.904 1.07 89.342 105.913 131.507 88.137 39.37-16.459 82.191-169.445 89.753-197.507l-43.562-1.481C671.795 349.98 640.233 401.003 633 401.003c-2.466 0-2.466 0-18.164-21.89-20.877-29.05-64.357-89.537-82.192-97.684-14.137-6.419-63.123-8.23-63.617-8.23a3.368 3.368 0 01-2.548-1.152 3.87 3.87 0 01-.904-2.55 19.413 19.413 0 00-11.67-13.168h-1.398a208.513 208.513 0 00-81.534 3.868 19.341 19.341 0 00-7.644 11.85l-.987 2.798a3.617 3.617 0 01-3.37 2.305c-16.438 0-62.465 1.646-74.876 15.965l-3.617 4.197c-98.712 114.307-100.191 114.307-102.986 114.39-2.794.082-4.85 0-65.753-124.019L69 288.835c7.48 28.392 51.205 187.057 91.562 200.8 28.027 9.628 100.931-65.013 126.657-94.557a3.368 3.368 0 012.63-1.234 4.433 4.433 0 011.726 0 3.623 3.623 0 011.726 4.114c0 .906-23.917 88.22-4.52 241.042l270-77.769z"/><path d="M711.992 776.391a113.132 113.132 0 00-69.93-16.424c-82.914 8.212-196.397 19.627-249.975 3.696a124.325 124.325 0 01-62.781-46.07A242.191 242.191 0 01292.492 645l-5.424 1.56H286a240.549 240.549 0 0037.8 74.893 130.98 130.98 0 0066.315 48.533c54.893 16.424 169.28 4.927 252.687-3.45a105.733 105.733 0 0165.164 15.357L930.33 943.34a3.124 3.124 0 002.054.657 3.452 3.452 0 002.548-1.067l1.068-1.068a79.414 79.414 0 00-5.341-7.062L711.992 776.39zM793.254 678.695a170.892 170.892 0 00-27.382-22.871c-38.73-26.902-123.344-68.86-252.938-46.482a3.536 3.536 0 00-2.878 4.113 3.538 3.538 0 004.112 2.88c127.455-21.884 209.85 19.004 247.592 45.33a179.69 179.69 0 0126.314 21.801L978.846 887c2.385-.823 4.77-1.81 7.154-2.797L793.254 678.695z" fill="#FFF" fill-rule="nonzero"/><circle fill="#FFF" fill-rule="nonzero" cx="465.5" cy="105.5" r="3.5"/><circle fill="#FFF" fill-rule="nonzero" cx="419.5" cy="104.5" r="3.5"/><path d="M437.587 198.953c-18.667-1.574-35.241-12.598-43.955-29.235a3.46 3.46 0 01-.211-2.738c.31-.903.98-1.636 1.848-2.025a3.515 3.515 0 014.666 1.642c6.63 13.55 26.684 27.757 41.745 24.636a17.227 17.227 0 003.52-.985c8.84-3.531 49.111-64.958 42.154-92.879-5.403-21.351-27.176-65.04-55.005-73.909a37.81 37.81 0 00-37.162 9.198c-12.36 10.1-14.16 24.636-16.37 41.06l-.819 5.831a3.604 3.604 0 01-4.01 3.039 3.53 3.53 0 01-2.947-4.024l.737-5.749c2.046-16.424 4.256-33.505 18.744-45.413a44.424 44.424 0 0143.873-10.43c32.25 10.594 54.514 58.882 59.67 79.248 7.613 30.138-33.395 95.999-46.41 101.173a20.249 20.249 0 01-4.83 1.396c-1.737.207-3.49.262-5.238.164z" fill="#FFF" fill-rule="nonzero"/><path d="M362.806 117.973c-6.03.319-11.854-2.196-15.695-6.776-6.228-8.164-2.657-27.103 6.726-35.675a15.838 15.838 0 0111.502-4.517c4.301.108 8.369 1.948 11.251 5.088a45.29 45.29 0 017.806 8.899 3.496 3.496 0 01-.996 4.898c-1.651 1.082-3.882.643-4.983-.98a38.381 38.381 0 00-6.477-7.51c-4.9-4.164-9.217-4.409-13.203-.735-7.142 6.53-9.633 21.47-5.896 26.287 4.29 4.042 10.585 5.254 16.11 3.102 1.32-.362 2.6-.854 3.82-1.47 1.711-.875 3.82-.255 4.763 1.4a3.477 3.477 0 01-1.276 4.723 23.9 23.9 0 01-5.314 2.123 28.348 28.348 0 01-8.138 1.143zM544.199 62.975a3.604 3.604 0 01-3.189-3.853 65.2 65.2 0 0114.062-39.35A36.272 36.272 0 01580.826 6c11.038 0 23.138 6.066 35.156 18.691a143.07 143.07 0 0114.39 18.035 3.533 3.533 0 01-.9 4.92 3.427 3.427 0 01-4.905-.903c-4.084-6.07-8.65-11.8-13.654-17.133a44.607 44.607 0 00-30.005-16.396 29.247 29.247 0 00-21.175 11.395 58.309 58.309 0 00-11.61 35.087 3.528 3.528 0 01-1.258 2.487 3.51 3.51 0 01-2.666.792z" fill="#FFF" fill-rule="nonzero"/><path d="M541.794 64l-1.48-2.71a4.018 4.018 0 01.987-4.516l1.07-.739c5.922-3.038 37.675-19.132 69.674-32.844C673.247-2.346 685.339 2.58 689.04 9.807a9.263 9.263 0 010 8.21c-6.088 14.042-44.174 26.358-60.215 31.039a364.192 364.192 0 01-84.728 14.451l-2.304.493zm134.332-52.469c-8.226 0-24.678 3.285-61.284 18.64-21.553 8.95-42.94 19.131-56.349 25.782a378.267 378.267 0 0068.523-13.302c34.714-10.1 52.976-20.856 55.608-27.014.38-.69.38-1.527 0-2.217-.082-.41-1.234-1.889-6.498-1.889zM407.522 91a3.528 3.528 0 01-1.966-.555c-1.6-1.068-2.035-3.169-.983-4.75 3.025-4.105 7.892-6.575 13.108-6.649 4.728-.363 9.361 1.422 12.534 4.83.595.71.87 1.622.762 2.53a3.378 3.378 0 01-1.336 2.298 3.525 3.525 0 01-2.58.73 3.47 3.47 0 01-2.335-1.284 9.455 9.455 0 00-6.718-2.296c-2.965 0-5.757 1.35-7.537 3.641A3.642 3.642 0 01407.522 91zM451.596 92a3.666 3.666 0 01-1.954-.672 3.618 3.618 0 01-1.59-2.44 3.7 3.7 0 01.695-2.853c3.022-4.326 7.855-6.914 13.021-6.973 4.705-.439 9.33 1.465 12.452 5.125 1.206 1.564.99 3.834-.488 5.125-.73.61-1.668.892-2.602.782a3.475 3.475 0 01-2.362-1.37c-1.748-1.821-4.206-2.718-6.674-2.437-2.94.026-5.703 1.452-7.487 3.865-.624 1.115-1.764 1.815-3.011 1.848zM425.549 155.005a3.632 3.632 0 00-3.038 1.832 3.834 3.834 0 00-.112 3.616c3.454 5.454 9.416 8.677 15.748 8.512 4.967.362 9.72-2.128 12.35-6.469a3.746 3.746 0 00.393-2.776 3.652 3.652 0 00-1.636-2.246 3.482 3.482 0 00-2.722-.367 3.58 3.58 0 00-2.168 1.729c-1.478 1.897-3.776 2.917-6.134 2.724-3.786.117-7.373-1.741-9.531-4.937a3.535 3.535 0 00-3.15-1.618zM357.559 102a3.576 3.576 0 01-3.082-1.736 3.397 3.397 0 010-3.47 3.576 3.576 0 013.082-1.736 16.779 16.779 0 0010.428-4.117c1.44-1.315 3.7-1.243 5.048.161a3.424 3.424 0 01-.165 4.925c-4.209 3.71-9.64 5.83-15.311 5.973z" fill="#FFF" fill-rule="nonzero"/><path d="M448.666 146a15.673 15.673 0 01-5.374-1.154c-1.805-.695-2.734-2.75-2.086-4.616.709-1.822 2.7-2.735 4.492-2.06 1.925.742 3.45.824 4.091 0 .642-.824 2.005-3.215.642-12.776 0-2.307-.802-4.862-1.284-7.582a59.227 59.227 0 01-.641-30.579c.709-1.82 2.72-2.706 4.492-1.978 1.772.728 2.634 2.795 1.925 4.616a56.269 56.269 0 001.043 26.622c.48 2.802 1.042 5.44 1.363 7.83 1.043 7.418 1.444 15.578-3.208 19.452a8.3 8.3 0 01-5.455 2.225zM304.555 726c-1.898.002-3.462-1.474-3.55-3.35-.095-1.957 1.41-3.628 3.385-3.76a115.604 115.604 0 0022.051-3.105c16.517-4.168 55.829-18.469 54.508-62.188a3.494 3.494 0 01.981-2.51 3.569 3.569 0 012.487-1.086 3.489 3.489 0 012.506.976 3.415 3.415 0 011.045 2.456c.991 33.832-21.39 59.737-59.958 69.217a128.78 128.78 0 01-23.372 3.35h-.083zM92.176 243a3.541 3.541 0 01-3.38-2.532C75.02 225.664 57.34 214.97 37.751 209.593c-7.587-1.307-10.803-.571-11.792 2.614a3.435 3.435 0 01-1.654 2.154 3.493 3.493 0 01-2.717.296c-1.874-.589-2.959-2.523-2.473-4.41 3.133-10.619 15.585-8.168 19.708-7.596 23.089 4.165 54.754 28.097 57.063 35.938.48 1.867-.611 3.776-2.474 4.33l-1.237.081z" fill="#FFF" fill-rule="nonzero"/><path d="M64.592 239a3.34 3.34 0 01-2.705-1.333c-10.738-11.143-24.742-18.449-39.911-20.82-8.933-1.5-14.26 0-14.916 1.915a5.47 5.47 0 001.23 3.664 3.504 3.504 0 011.463 2.32 3.541 3.541 0 01-.644 2.677 3.516 3.516 0 01-2.343 1.448c-.942.141-1.9-.11-2.656-.698-3.364-2.823-4.831-7.36-3.77-11.66 2.131-6.413 10.244-8.828 22.783-6.83 16.812 2.716 32.293 10.933 44.091 23.404a3.622 3.622 0 01-.573 5.08 3.169 3.169 0 01-2.05.833zM725.571 228.995h-1.062c-1.854-.593-2.903-2.566-2.37-4.453 2.37-8.247 34.327-31.339 57.211-34.967 4.25-.66 16.347-2.64 19.534 8.247a3.603 3.603 0 01-.938 3.453 3.527 3.527 0 01-3.432.907 3.565 3.565 0 01-2.495-2.546c-.818-3.216-4.005-4.124-11.36-2.887-19.708 4.926-37.64 15.36-51.737 30.102a3.431 3.431 0 01-3.35 2.144z" fill="#FFF" fill-rule="nonzero"/><path d="M753.324 224.977a3.527 3.527 0 01-2.31-.918 3.699 3.699 0 010-5.088c12.136-12.233 27.902-20.114 44.886-22.437 12.707-1.752 20.793.834 22.856 7.34.892 4.366-.7 8.87-4.126 11.678a3.558 3.558 0 01-4.992-.876c-1.139-1.636-.75-3.895.867-5.047a5.034 5.034 0 001.402-3.586c-.66-2.085-6.023-3.587-15.017-2.336-15.24 2.1-29.411 9.088-40.43 19.935a3.448 3.448 0 01-3.136 1.335z" fill="#FFF" fill-rule="nonzero"/><path d="M559.222 546.533c2.896 5.348 5.544 10.202 7.778 14.973a1.064 1.064 0 000 .494v-.494c-2.234-4.771-4.882-9.625-7.778-14.973-14.81-27.48-35-64.83-33.097-152.533-1.903 87.867 18.286 125.218 33.097 152.533zM472.746 266.85c11.113.576 50.048 2.711 63.382 8.87 17.945 8.213 53.34 55.766 85.031 99.787C626.345 382.652 631.366 389.55 634 393c-2.634-3.45-7.655-10.348-12.841-17.493-31.691-44.021-67.086-91.656-84.948-99.868-13.417-6.16-52.27-8.213-63.465-8.87A28.025 28.025 0 00459 251a28.353 28.353 0 0113.746 15.85zM526.47 383.229c.824.983 78.73 92.728 123.53 89.698-44.47 3.03-122.706-88.715-123.53-89.698zM166 497.977c33.93 1.322 95.118-61.708 119-87.977-23.882 26.27-85.07 89.381-119 87.977zM178 403c-8.152-14.19-39.293-77.266-60-120 20.707 42.734 51.766 105.81 60 120zM1057 763.367l3.62 2.55.494.41c2.632 1.975 9.955 8.225 17.112 13.653 11.93 9.54 25.423 20.477 28.138 22.368l2.88 2.056 2.056 1.48L1126.11 816 1238 653.826l-15.303-10.445a29.213 29.213 0 00-22.049-9.375 39.495 39.495 0 00-27.314 15.297c-17.113 19.737-47.8 39.227-64.255 49.343l-9.38 6.168a31.015 31.015 0 00-3.126 2.549L1057 763.367zm170.634-108.061L1124.71 806.214l-6.005-4.112 102.84-151.155 6.089 4.359zm-126.124 56.58c1.07-.987 5.923-4.03 11.024-7.32 16.455-10.69 47.965-30.51 65.818-50.987a32.912 32.912 0 0122.296-12.912 21.972 21.972 0 0114.48 5.346l-103.252 151.401-.987-.74c-2.55-1.727-16.455-12.994-27.809-22.122-8.803-7.073-13.492-10.856-16.454-12.912l34.884-49.754zM400.68 248h-1.36 1.36zM394.6 248h-1.2 1.2zM449.4 248h1.2zM439.8 247h-1.6 1.6zM754.286 268.739c.671.859.885 1.99.574 3.036-1.966 7.633-48.476 186.393-94.66 205.763 46.184-19.37 92.694-198.13 94.66-205.763a3.371 3.371 0 00-.574-3.036 2.54 2.54 0 010 0zM178 412c2.548 0 4.027 0 102.97-114.376l3.616-4.19C296.174 279.957 337.263 277 356 277c-18.737 0-59.826 2.547-71.414 16.433l-3.616 4.19C182.273 411.919 180.794 411.919 178 412zM1094.397 835.145a39.869 39.869 0 00-29.729 9.79c-20.613 16.452-54.366 29.285-72.515 36.442-4.927 1.892-8.212 3.208-10.512 4.278a24.13 24.13 0 00-3.367 1.81L929 934.764l3.039 3.127 1.478 1.727 13.222 15.63c9.855 11.846 21.105 25.255 23.405 27.64l1.232 1.234 1.232 1.234.903.905.821.823L986.98 1000 1127 861.634l-12.73-13.162a29.727 29.727 0 00-19.873-13.327zm-119.08 142.89c-2.135-2.22-13.714-16.452-23.076-27.228-7.145-8.226-11.005-13.08-13.304-15.63l43.936-42.119c3.96-1.91 8.017-3.612 12.154-5.1 18.478-7.24 52.806-20.73 73.912-37.43a32.815 32.815 0 0124.226-8.226 21.183 21.183 0 0113.222 8.226l-130.248 128.66-.821-1.152zm11.827 12.011l-5.092-5.182 129.345-128.906 5.666 5.758-129.92 128.33zM363.355 274.733l.981-2.752a19.009 19.009 0 000 0l-.981 2.752a3.6 3.6 0 000 0zM70 289.153L112.601 288 70 289.153c7.455 28.412 51.04 187.188 91.265 200.94 1.85.614 3.787.92 5.735.907a18.194 18.194 0 01-5.735-.906C121.04 476.34 77.455 317.564 70 289.153zM567.941 564.403a3.787 3.787 0 01-2.303 1.898L287.988 647H287h1.07l2.056-.578 275.512-80.121a3.375 3.375 0 002.303-1.898zM289.457 639c-18.955-152.671 4.177-239.9 4.418-240.805.428-1.604-.268-3.3-1.687-4.11a4.24 4.24 0 010 0c1.419.81 2.115 2.506 1.687 4.11 0 .905-23.373 88.134-4.418 240.805zM704 273c-31.447 77.226-62.812 128-70 128 7.351 0 38.716-50.774 70-128z"/><path d="M454.883 249.56l-3.883-.72 3.883.72 2.02.64 2.097.96c-.699 0-1.398-.72-2.097-.96l-2.02-.64z" fill="#FFF" fill-rule="nonzero"/><path d="M224.376 239.37l-3.312 6.978s0 .581.414.498l7.204-2.908h.414L232.49 251l2.319-7.477 7.535 1.662-4.389-6.397 6.045-4.902-7.7-.581V224l-5.3 5.65-6.127-4.82h-.497l1.159 7.727-7.535 1.828v.581l6.376 4.403zM752.163 267.344c.66.018 1.295.248 1.811.656a122.412 122.412 0 0134.826-32.07c8.233-4.592 17.124-7.545 22.229-11.072a6.143 6.143 0 002.783-5.806 6.155 6.155 0 00-3.936-5.102l2.305-.82a8.185 8.185 0 002.717-7.464c-1.482-4.757-9.138-6.07-18.853-4.757v-1.886c-2.058-7.71-11.444-6.07-15.643-5.414-22.805 3.61-53.02 26.656-54.749 32.234l-2.305.574c-3.376-2.707-6.998-3.691-7.245-4.347-.906-1.969 10.209-24.606 0-26.984-4.034-.903-8.233 3.444-9.386 6.561-3.046 5.823-10.126 28.378-4.775 64.056l50.221 1.64zM368.217 114.295l2.051-.494v.658h3.529a973.915 973.915 0 00-1.887 98.714V252a146.147 146.147 0 0116.41-3.126h.575l4.103-.493H399.727l4.349-.412h.738c4.924 0 10.093-.658 15.18-.74h23.715l6.155-.494a192.488 192.488 0 01-7.303-32.904c-1.067-6.746-2.134-13.08-3.447-19.085l-.492-1.892 6.893-1.727.41 1.892h.82c11.406-4.525 51.614-68.688 44.393-97.15-8.205-30.52-48.085-108.256-98.468-67.126-14.934 12.34-15.673 30.355-18.299 49.357-19.201-16.452-31.92 20.072-23.96 30.519a16.386 16.386 0 0016.411 5.1l1.395.576z"/><path d="M367.36 114h1.28-1.28zM371.987 213.465a993.887 993.887 0 011.84-98.465h-3.44c-3.92 47.756-1.44 91.244-1.44 139l3.44-1.313c0-13.62-.16-26.668-.4-39.222zM439 193.07l.5 1.894c1.333 6.01 2.417 12.35 3.5 19.102A190.286 190.286 0 00450.417 247H454c-5.833-15.726-7.167-35.651-11-52.118a23.297 23.297 0 003.417-.988L446 192l-7 1.07z" fill="#FFF" fill-rule="nonzero"/><path d="M544.249 60.817A350.906 350.906 0 00627.86 46.37c35.446-10.319 62.934-24.187 57.437-34.423-5.498-10.236-38.811 1.073-72.289 15.189-17.231-18.16-37.58-26.333-56.534-5.035a62.062 62.062 0 00-13.21 37.56.764.764 0 00-.083 1.072c.272.32.75.356 1.067.083zM591 170.565v-.504l-6.5-1.176.667-6.633h-.5l-4.917 4.366-4.667-4.618h-.5v6.634l-6.583.84v.503l5.333 3.863-3.5 5.71s0 .503 0 0l6.334-1.764 2.25 6.214 2.583-6.13 6.25 2.1-3.083-5.794 6.833-3.611zM83.113 941.013a.981.981 0 01-.899-.66l-4.003-17.823a.898.898 0 00-.817-.53.898.898 0 00-.817.53l-10.294 14.935a.895.895 0 01-1.062.413l-17.239-5.447a.975.975 0 00-.967.311.998.998 0 00-.176 1.01l7.68 16.503a.998.998 0 010 1.155l-13.236 12.377a.914.914 0 00-.228.975.9.9 0 00.8.593l17.974 1.568c.419.046.771.337.898.743l3.922 17.823c.173.315.501.511.858.511a.979.979 0 00.858-.51l10.294-15.019a.892.892 0 011.062 0l17.238 5.364a.975.975 0 00.967-.31.998.998 0 00.177-1.01l-7.68-16.504a.999.999 0 010-1.072l13.317-12.378a.998.998 0 00.205-.998.983.983 0 00-.777-.652l-18.055-1.898zM597.449 850.003a.585.585 0 010-.496l.898-9.259s0-.496-.571 0l-6.94 6.2a.485.485 0 01-.57 0L583.734 840l.408 9.341L575 850.5l7.429 5.456-4.735 8.266v.579l8.816-2.48 3.184 8.68h.653l3.673-8.267 8.735 2.976s.653 0 .49-.496l-4.408-8.266v-.496l8.163-5.043v-.661l-9.551-.744zM130.721 645.258a.66.66 0 01-.659-.58l-3.214-14.273a.741.741 0 00-1.32 0l-8.241 12.032a.738.738 0 01-.824 0l-13.847-4.315a.739.739 0 00-.836.213.75.75 0 00-.07.866l6.18 13.193a.918.918 0 010 .913l-10.714 9.875a.834.834 0 00-.124.803c.102.272.336.47.618.524l14.424 1.245a.66.66 0 01.66.58l3.214 14.273a.823.823 0 001.401 0l8.242-12.032a.901.901 0 01.907 0l13.847 4.315c.295.116.631.03.836-.213a.75.75 0 00.07-.866l-6.181-13.193a.75.75 0 010-.913l10.632-9.875a.75.75 0 00-.412-1.327l-14.589-1.245zM371.652 947.345a.654.654 0 010-.822l4.313-13.819a.736.736 0 00-.213-.834.751.751 0 00-.865-.07l-13.187 6.169a1.17 1.17 0 01-.912 0l-9.87-10.693a.75.75 0 00-.843-.229.74.74 0 00-.484.722l-1.244 14.395a.66.66 0 01-.58.658l-14.266 3.207a.74.74 0 00-.501.7.74.74 0 00.501.699l12.026 8.225a.817.817 0 010 .823l-4.313 13.9a.736.736 0 00.209.766c.213.193.52.247.787.14l13.27-6.17a.668.668 0 01.829 0l9.953 10.61a.75.75 0 00.805.244c.293-.09.5-.35.522-.655l1.244-14.476a.66.66 0 01.58-.658l14.183-3.208a.74.74 0 000-1.316l-11.944-8.308zM826.471 985.032v-.411l.996-9.21s0-.575-.664 0l-7.054 6.085h-.498L812.529 975v9.21l-9.295 1.15a.41.41 0 000 .74l7.552 5.428-4.896 8.223 9.046-2.467 3.236 8.716h.747l3.652-8.223 8.796 2.96c.16.051.334.002.442-.123a.408.408 0 00.056-.452l-4.398-8.223 8.299-5.016a.41.41 0 000-.74l-9.295-1.151zM28.543 443.74l-1.625-7.507a.406.406 0 00-.365-.233.406.406 0 00-.366.233l-4.304 6.352h-.406l-7.634-2.64a.402.402 0 00-.433.124.418.418 0 00-.055.454l3.168 6.93L11 452.65l7.553.66 1.706 7.507s.487.412.65 0l4.304-6.27h.487l7.228 2.31c.156.05.327.002.433-.124a.418.418 0 00.055-.454l-3.249-6.93a.586.586 0 010-.494l5.604-5.198a.413.413 0 00.229-.37.413.413 0 00-.23-.372l-7.227.825zM114.702 280.355h.41c6.72-36.684 0-58.892-2.95-64.897-1.476-3.125-5.164-7.567-9.18-6.745-10.656 2.139 0 24.676-1.066 27.061a54.88 54.88 0 00-8.196 5.018l-1.312-1.48c-1.639-5.594-31.145-29.447-53.685-33.56-4.18-.74-13.523-2.632-15.736 5.1v1.892c-9.59-1.563-17.294 0-18.852 4.36a8.243 8.243 0 002.541 7.566l.984 1.399a6.34 6.34 0 00-2.683 5.182c0 2.062 1.001 3.995 2.683 5.181 5 3.62 13.933 6.827 21.884 11.598 15.244 9.294 32.784 26.896 35.161 33.97.378-.082.77-.082 1.148 0l48.85-1.645zM19.683 57.562l-3.26 6.863v.49l7.091-2.86h.408L27.263 69l2.282-7.271h.408l7.417 1.634-4.32-6.291 5.95-4.82-7.58-.572V44l-5.216 5.556h-.408l-6.031-4.739h-.49l1.142 7.598L13 54.212v.572l6.683 2.778zM1186.323 504.88l-9.142 1.152s-.408.493 0 .658l7.428 5.427v.493l-4.816 8.223 8.897-2.55 3.184 8.717h.734l3.592-8.223 8.652 2.96c.408 0 .653 0 .49-.575l-4.326-8.223 7.754-5.016a.411.411 0 000-.74l-9.06-1.645.979-9.21s-.408-.575-.653 0l-6.938 6.086h-.49l-6.611-6.414.408 9.292a.413.413 0 01-.082-.411zM1239.833 849.759V842l-5.333 5.613-6.083-4.788 1.166 7.677-7.583 1.733 6.75 3.88v.412l-3.417 6.933v.496l7.25-2.89h.417l3.417 6.934 2.25-7.429 7.583 1.651-4.333-6.355 6.083-4.87-8.167-1.238zM1200.096 277.793c.273 0 .495.22.495.493l.66 12.418a.495.495 0 00.909 0l8.257-9.54a.497.497 0 01.66 0l10.156 7.32c.16.162.412.193.608.076a.493.493 0 00.218-.57l-2.394-12.253v-.576l12.055-3.372a.575.575 0 000-.986l-11.147-5.757v-.658l4.871-11.513a.574.574 0 00-.183-.54.58.58 0 00-.56-.118l-11.394 5.099a.497.497 0 01-.66 0l-6.028-11.02a.496.496 0 00-.909 0l-3.055 12.582a.497.497 0 01-.578 0l-12.303-2.138a.496.496 0 00-.572.217.492.492 0 00.077.606l7.431 9.95a.656.656 0 010 .74l-9.413 8.224a.493.493 0 000 .905l12.799.41zM932.624 938.121l-3.042-3.126 49.325-47.297a24.165 24.165 0 013.37-1.81L790.403 681.238a171.591 171.591 0 00-26.8-22.291v-.494a51.765 51.765 0 0143.077 2.55l253.613 105.945h.822l.74-.987-.657.987-.576-.411.74-.987-3.617-2.55 39.131-55.851a30.996 30.996 0 013.124-2.55c-21.456-15.629-171.487-125.029-228.21-158.671-63.877-37.838-134.658-44.418-304.172 16.04.046.382.046.769 0 1.151.078.463.078.936 0 1.398a3.371 3.371 0 01-2.302 1.892L290 646.278a242.049 242.049 0 0037.076 73.455 129.565 129.565 0 0064.37 47.214c53.846 16.04 167.787 4.771 251.475-3.619a109.698 109.698 0 0167.658 16.04L932.87 941l1.151-1.152-1.48-1.727h.083zM825.423 57.8a.495.495 0 010 .741l-5.736 12.107c-.136.218-.11.5.06.691a.572.572 0 00.677.133l12.455-4.942a.653.653 0 01.738 0l5.817 12.107a.574.574 0 001.065 0l3.934-12.848a.734.734 0 01.655 0l13.11 2.965c.227.16.539.104.697-.123a.504.504 0 00-.123-.7l-7.538-11.12a.662.662 0 010-.823l10.488-8.236a.577.577 0 000-.988l-13.438-1.73a.574.574 0 01-.574-.494V31.28a.573.573 0 00-.983 0l-9.095 9.883a.653.653 0 01-.82 0l-10.488-8.236a.571.571 0 00-.647-.021c-.199.127-.3.364-.254.597l1.966 13.343a.413.413 0 010 .576l-13.028 3.048a.577.577 0 000 1.07l11.062 6.26zM929.693 433.062a.9.9 0 01.57.496l2.685 12.078a.57.57 0 00.53.364.57.57 0 00.528-.364l6.917-10.092a.642.642 0 01.733 0l11.556 3.64a.563.563 0 00.672-.134.587.587 0 00.06-.694l-5.127-11.167a.67.67 0 010-.745l8.87-8.272a.583.583 0 00.275-.725.568.568 0 00-.681-.35l-12.045-1.076a.736.736 0 01-.57-.497l-2.766-12.16a.57.57 0 00-.53-.364.57.57 0 00-.528.364l-6.917 10.092a.642.642 0 01-.733 0l-11.556-3.64a.645.645 0 00-.638.229.67.67 0 00-.094.682l5.127 11.167a.67.67 0 010 .745l-8.87 8.272a.67.67 0 00-.132.63c.066.219.24.387.457.445l12.207 1.076zM1137.813 44.094c.41.063.755.345.899.736l3.923 17.664a.98.98 0 001.716 0l10.298-14.884a.899.899 0 011.062 0l17.245 5.316a.899.899 0 001.145-1.227l-7.683-16.355a1.064 1.064 0 010-1.064l13.322-12.266a.982.982 0 00-.572-1.636l-17.98-1.472a1.144 1.144 0 01-.9-.736L1156.365.506a.98.98 0 00-1.716 0l-10.298 14.884a.899.899 0 01-1.062 0l-17.245-5.316a.899.899 0 00-1.145 1.227l7.683 16.355c.204.355.204.791 0 1.145l-13.322 12.267a.982.982 0 00.572 1.636l17.98 1.39zM987.376 219.37l-3.312 6.978s0 .581.414.498l7.204-2.908 3.394 7.062 2.319-7.394h.414l7.535 1.662-4.389-6.397 6.045-4.902-7.7-.581V204l-5.3 5.65-6.127-4.82h-.497l1.159 7.727-7.535 1.828v.581l6.376 4.403z"/><path fill="#FFF" fill-rule="nonzero" d="M1060.4 767.28l.56.4.64-.96-.48-.4zM367.88 114.32h2.24v-.64zM368.451 253.788c0-47.683-2.48-91.105 1.44-138.788H366.371a1000.93 1000.93 0 00-1.76 98.97V256c.633-.613 1.301-1.188 2-1.72l1.84-.492zM453.613 247.134h-3.457l.563 1.48 4.02.741 2.09.658c.724 0 1.447.658 2.171.987a147.568 147.568 0 01-9.166-37.506c-1.045-6.58-2.17-13.407-3.538-19.494a21.892 21.892 0 01-3.296.987c3.698 16.532 4.985 36.437 10.613 52.147zM1083.326 774.1c11.24 9.144 25.186 20.429 27.73 22.159l.984.741L1215 645.354a21.853 21.853 0 00-14.439-5.354 32.789 32.789 0 00-22.233 12.933c-17.72 20.51-49.224 40.362-65.632 51.07-5.086 3.295-9.927 6.342-10.993 7.33L1067 760.758c2.871 2.47 7.548 6.26 16.326 13.344zM982 984.82l5.091 5.18L1117 861.755l-5.666-5.755zM1125.01 806L1228 655.508l-6.668-4.508L1119 801.902zM292.628 394.277a3.615 3.615 0 011.725 4.108c0 .903-23.897 88.064-4.517 240.615l269.108-78.042a265.978 265.978 0 00-5.666-10.844c-15.603-29.08-37.036-69.005-33.67-164.709a3.533 3.533 0 011.315-2.547 3.284 3.284 0 012.545-.821 3.777 3.777 0 012.464 1.232c.821.986 78.507 92.993 123.18 89.954 2.827-.206 5.6-.872 8.213-1.972 39.335-16.43 82.12-169.145 89.675-197.158l-43.524-1.479c-31.616 77.467-63.15 128.4-70.377 128.4-2.464 0-2.464 0-18.148-21.852-20.86-28.999-64.3-89.379-82.12-97.512-14.043-6.407-62.987-8.215-63.48-8.215a3.366 3.366 0 01-2.546-1.15 3.451 3.451 0 01-.903-2.546 19.303 19.303 0 00-11.743-13.144h-1.314a137.422 137.422 0 00-30.22-2.547c-17.29-.154-34.523 2-51.243 6.408a19.306 19.306 0 00-7.638 11.83l-.985 2.792a3.613 3.613 0 01-3.367 2.3h-3.531c-18.724 0-59.784 2.547-71.363 16.43l-3.613 4.19C181.93 411.611 180.452 411.611 177.66 411.693c-2.792 0-6.406-3.615-64.957-123.881L70 288.962c7.473 28.341 51.161 186.725 91.482 200.444 1.856.606 3.796.91 5.748.904 31.124 0 96.656-67.61 120.8-95.294a3.366 3.366 0 012.627-1.232c.687.01 1.361.178 1.971.493zM1093.794 842.088a32.709 32.709 0 00-24.197 8.243c-21.408 16.485-55.694 30.25-73.821 37.504a126.058 126.058 0 00-12.14 5.11L940 935.15c2.297 2.555 6.152 7.088 13.288 15.66 9.35 11.129 20.916 24.73 23.048 27.284l.903.907L1107 850.33a21.148 21.148 0 00-13.206-8.242zM1114.32 803.24l-.64-.48zM701 265.2l51 1.6zM752.12 266.68zM420 246.64c-5.027 0-10.135 0-15 .72 4.865-.4 9.973-.64 15-.72zM438 247h-4 4zM444 248h-4 4zM421.92 247.03a36.08 36.08 0 014.16 0c-1.36 0-2.72-.08-4.16 0zM373 252.56a121.44 121.44 0 0116-3.12 142.8 142.8 0 00-16 3.04v.08zM393 248.76l-4 .48 4-.48zM404.12 247.8l-4.24.4 4.24-.4zM399 248h-4 4zM369.28 253.6a27.76 27.76 0 013.44-1.2l-3.44 1.2zM65.14 281.64l48.86-1.28-48.86 1.28a2.734 2.734 0 010 0zM566.983 562.44z"/><path d="M526 394c19.111 21.478 80.317 86.653 122 85.995-41.683.576-102.889-64.517-122-85.995zM275.161 292.482l3.702-4.2c15.302-17.706 65.816-18.364 77.91-18.447a28.664 28.664 0 000 0c-12.176 0-62.608.741-77.91 18.447l-3.702 4.2C251.303 319.906 191.492 389.33 178 403c13.492-13.67 73.303-83.094 97.161-110.518zM698.856 268.223C667.917 343.993 641.942 383.806 634 393c7.942-9.112 33.917-49.008 64.856-124.777zM62.03 286.861a3.612 3.612 0 01.822-2.793 2.961 2.961 0 000 0 3.611 3.611 0 00-.658 3.04c2.057 8.215 49.353 193.475 97.39 209.742-47.872-16.513-95.498-202.102-97.554-209.989zM117.44 281.32a3.12 3.12 0 011.12 1.36 3.68 3.68 0 00-1.12-1.36zM115.16 280.721a3.04 3.04 0 011.68.56 2.48 2.48 0 00-1.68-.56zM449.6 248.36l-5.2-.72 5.2.72zM283.457 643.882C267.01 521.935 278.65 440.528 284.638 410c-6.073 30.528-17.63 111.935-1.18 233.882a3.272 3.272 0 001.602 2.544 4.13 4.13 0 010 0 3.272 3.272 0 01-1.603-2.544zM367.44 254.4l1.12-.48-1.12.48a22.08 22.08 0 00-2 1.68c1.04-.56 1.04-1.12 2-1.68zM454.683 256.595a19.316 19.316 0 0111.768 13.142c-.058.937.269 1.856.905 2.547a3.377 3.377 0 002.551 1.15c.494 0 49.376 1.889 63.613 8.214 17.775 8.214 61.308 68.506 82.293 97.502C631.531 401 631.531 401 634 401c-2.469 0-2.469 0-18.187-21.85-20.902-28.996-64.435-89.37-82.293-97.502-14.155-6.407-63.201-8.214-63.695-8.214a3.377 3.377 0 01-2.551-1.15 3.856 3.856 0 01-.905-2.547 19.397 19.397 0 00-11.686-13.142h-1.4 1.4zM288.381 395.238C264.321 423.058 199.016 490.588 168 491c31.016 0 96.321-67.941 120.381-95.762a3.344 3.344 0 000 0zM657.221 471.025c39.381-16.462 82.215-169.476 89.779-197.543L703.426 272 747 273.482c-7.564 28.067-50.398 180.998-89.779 197.543zM520.994 382.84a3.534 3.534 0 00-1.314 2.547c-3.365 95.71 18.06 135.638 33.656 164.721 2.08 3.78 3.968 7.394 5.664 10.845L290 639l269-78.047a266.042 266.042 0 00-5.664-10.845c-15.597-29.083-37.021-69.01-33.656-164.72a3.534 3.534 0 011.314-2.548zM178 412c-2.794-.001-6.41-3.701-65-124 58.508 120.38 62.124 124.081 65 124z" fill="#FFF" fill-rule="nonzero"/><path d="M704.364 279.244h-.986a3.616 3.616 0 01-2.218-.74c-30.806 74.464-61.12 123.149-68.185 123.149-2.464 0-2.464 0-18.155-21.838-20.866-28.981-64.323-89.324-82.15-97.451-14.13-6.404-63.091-8.21-63.584-8.21a3.37 3.37 0 01-2.547-1.15 3.857 3.857 0 01-.904-2.545 19.38 19.38 0 00-11.665-13.136h-1.396a208.79 208.79 0 00-81.493 3.86 19.292 19.292 0 00-7.64 11.821l-.986 2.792a3.615 3.615 0 01-3.368 2.298c-16.43 0-62.435 1.642-74.84 15.928l-3.614 4.187C181.89 411.915 180.41 411.915 177.617 411.997c-2.793.082-4.765 0-62.599-118.058v1.314a3.532 3.532 0 01-3.286 2.217 4.192 4.192 0 01-1.396 0 3.53 3.53 0 01-1.89-4.598l1.479-4.269L70 289.67c7.476 28.324 51.18 186.61 91.515 200.321 28.014 9.606 100.88-64.858 126.594-94.331a3.369 3.369 0 012.629-1.232 4.439 4.439 0 011.725 0 3.611 3.611 0 011.725 4.105c0 .903-23.906 88.01-4.518 240.467l269.206-77.994a265.721 265.721 0 00-5.668-10.837c-15.609-29.063-37.05-68.963-33.682-164.607a3.616 3.616 0 016.326-2.135c.903 1.067 89.297 105.66 131.44 87.928 39.35-16.42 82.15-169.041 89.708-197.037l-40.418-1.396a8.205 8.205 0 000 1.478 3.692 3.692 0 01-2.218 4.844z"/><path d="M62.873 283.429a3.556 3.556 0 012.729-1.406H68v-.496c-2.48-8.27-21.253-26.63-37.131-36.306a124.044 124.044 0 00-11.743-6.12 63.676 63.676 0 01-10.254-5.292 3.473 3.473 0 01-1.24-2.812 1.82 1.82 0 01.992-1.654 10.006 10.006 0 015.871-.745 97.168 97.168 0 0140.108 20.345 3.473 3.473 0 005.045 0 3.556 3.556 0 000-5.045 101.054 101.054 0 00-43.5-22.66 17.118 17.118 0 00-10.667 1.654 8.849 8.849 0 00-4.466 7.443 10.503 10.503 0 004.135 8.932 66.157 66.157 0 0011.164 6.037c3.639 1.82 7.526 3.639 11.082 5.789 15.878 9.593 32.417 26.877 33.988 32.253A3.97 3.97 0 0062.542 285a3.225 3.225 0 01.33-1.571zM117.996 282.259l.41.741c6.073-27.662 0-63.64-3.2-69.485-4.84-8.233-9.764-9.138-12.882-8.233a9.026 9.026 0 00-5.99 4.117c-3.282 5.351-1.313 13.584 1.149 22.228.147.787.367 1.559.656 2.305a24.031 24.031 0 00-6.893 4.364 18.477 18.477 0 00-5.908 17.371 3.572 3.572 0 002.19 2.819c1.18.48 2.526.291 3.53-.494a3.58 3.58 0 001.337-3.313c-.88-4.087.5-8.332 3.61-11.114a20.008 20.008 0 015.744-3.458 6.075 6.075 0 003.447-2.717c.738-1.729 0-3.458-.903-7.739-.902-4.28-3.774-13.42-1.887-16.465a1.559 1.559 0 011.23-.823c.985 0 3.037.987 5.498 5.104a146.107 146.107 0 012.872 62.899h3.036a3.118 3.118 0 012.954 1.893zM110.005 296.943c.45.076.91.076 1.36 0a3.44 3.44 0 003.2-2.156v-1.277l-2.64-5.51h-2.72l-1.44 4.152a3.428 3.428 0 00-.008 2.921 3.438 3.438 0 002.248 1.87zM810.795 210.989a19.542 19.542 0 00-8.72-.818 100.225 100.225 0 00-43.355 21.325 3.509 3.509 0 00-.164 4.983 3.568 3.568 0 005.018.164 95.77 95.77 0 0139.57-19.527 12.504 12.504 0 015.43.49c1.398.49 1.645 1.226 1.645 1.716.099 1.146-.36 2.27-1.234 3.023a67.641 67.641 0 01-10.119 5.066 111.702 111.702 0 00-11.764 5.8A119.382 119.382 0 00750 267.363h1.81a3.545 3.545 0 012.715 1.389c.674.855.888 1.982.575 3.022V273s.576-.49.659-.817a106.642 106.642 0 0134.798-32.68 108.573 108.573 0 0111.188-5.475 65.154 65.154 0 0011.27-5.8 10.666 10.666 0 003.867-9.886 9.33 9.33 0 00-6.087-7.353zM702.198 278.12a3.52 3.52 0 002.16.72h.8a3.6 3.6 0 002.56-4.24 8 8 0 010-1.44h-3.52l-2 4.96zM701.927 265.68h3.894a116.037 116.037 0 013.812-62.848c1.325-2.557 3.894-5.196 5.468-4.784a2.073 2.073 0 011.326.825c1.822 3.217-.912 12.207-2.32 16.496-1.409 4.289-1.823 6.02-1.077 7.753a6.21 6.21 0 003.48 2.722 25.872 25.872 0 014.888 2.969 11.6 11.6 0 014.143 11.877 3.534 3.534 0 00.617 2.688 3.565 3.565 0 002.365 1.435 3.492 3.492 0 002.669-.619 3.461 3.461 0 001.391-2.35 18.759 18.759 0 00-6.711-18.64 29.025 29.025 0 00-5.634-3.381c0-.743.497-1.485.746-2.392a30.39 30.39 0 001.657-22.187 9.03 9.03 0 00-5.966-4.206c-5.796-.434-11.214 2.895-13.422 8.248A122.034 122.034 0 00698.86 267a2.822 2.822 0 013.066-1.32z" fill="#FFF" fill-rule="nonzero"/></g></svg>