<?xml version="1.0" encoding="UTF-8"?>
<svg width="101px" height="106px" viewBox="0 0 101 106" version="1.1" xmlns="http://www.w3.org/2000/svg" xmlns:xlink="http://www.w3.org/1999/xlink">
    <!-- Generator: Sketch 53.1 (72631) - https://sketchapp.com -->
    <title>Group 12</title>
    <desc>Created with Sketch.</desc>
    <g id="Page-1" stroke="none" stroke-width="1" fill="none" fill-rule="evenodd">
        <g id="Group-12" fill-rule="nonzero">
            <rect id="Rectangle" fill="#181818" x="0" y="0" width="101" height="106" rx="8"></rect>
            <g id="icons8-imessage" transform="translate(20.000000, 23.000000)">
                <path d="M49.1388889,0 L11.8611111,0 C5.31038889,0 0,5.31038889 0,11.8611111 L0,49.1388889 C0,55.6896111 5.31038889,61 11.8611111,61 L49.1388889,61 C55.6896111,61 61,55.6896111 61,49.1388889 L61,11.8611111 C61,5.31038889 55.6896111,0 49.1388889,0 Z" id="Path" fill="#40C351"></path>
                <path d="M31,10 C18.8492308,10 9,18.4135417 9,28.7916667 C9,35.7514167 13.4406154,41.8125833 20.022,45.060125 C19.0370769,47.1955417 17.6087692,49.2045417 15.7692308,51 C19.428,50.3508333 22.8616923,48.9927083 25.8164615,47.0366667 C27.4816923,47.38175 29.2112308,47.5833333 31,47.5833333 C43.1507692,47.5833333 53,39.1697917 53,28.7916667 C53,18.4135417 43.1507692,10 31,10 Z" id="Path" fill="#FFFFFF"></path>
            </g>
        </g>
    </g>
</svg>