<?xml version="1.0" encoding="UTF-8"?>
<svg width="101px" height="106px" viewBox="0 0 101 106" version="1.1" xmlns="http://www.w3.org/2000/svg" xmlns:xlink="http://www.w3.org/1999/xlink">
    <!-- Generator: Sketch 53.1 (72631) - https://sketchapp.com -->
    <title>Group 9</title>
    <desc>Created with Sketch.</desc>
    <defs>
        <linearGradient x1="65.574359%" y1="-1.60510753%" x2="31.8948718%" y2="103.508288%" id="linearGradient-1">
            <stop stop-color="#33BEF0" offset="0%"></stop>
            <stop stop-color="#0A85D9" offset="100%"></stop>
        </linearGradient>
    </defs>
    <g id="Page-1" stroke="none" stroke-width="1" fill="none" fill-rule="evenodd">
        <g id="Group-9">
            <rect id="Rectangle" fill="#181818" fill-rule="nonzero" x="0" y="0" width="101" height="106" rx="8"></rect>
            <g id="icons8-facebook-messenger(1)" transform="translate(21.000000, 24.000000)">
                <path d="M29.9508197,0 C13.6577427,0 0.450819672,12.1778095 0.450819672,27.1994752 C0.450819672,35.3381626 4.33271711,42.6351774 10.4762812,47.6202368 C10.8287684,47.9073423 11.0405633,48.3304453 11.0405633,48.7837699 L11.0405633,56.4872657 C11.0405633,57.6099996 12.2235889,58.3413633 13.2296145,57.838173 L21.6333325,53.6418984 C21.9479992,53.4847459 22.303512,53.4469688 22.6454094,53.5285672 C24.9842299,54.0816232 27.4244094,54.3989504 29.9508197,54.3989504 C46.2438966,54.3989504 59.4508197,42.2211409 59.4508197,27.1994752 C59.4508197,12.1778095 46.2438966,0 29.9508197,0 Z" id="Path" fill="url(#linearGradient-1)" fill-rule="nonzero"></path>
                <path d="M14.652137,31.585804 L26.0212743,19.2413919 C26.3084568,18.9299029 26.8020517,18.9180929 27.1041917,19.2162957 L33.6465685,25.6734181 C33.8739214,25.8978083 34.2224293,25.9539059 34.5096119,25.8121858 L45.362718,20.4563466 C46.1046062,20.0902363 46.8091008,21.011417 46.2481975,21.6152038 L33.1095971,35.7606422 C32.8029699,36.0898462 32.2734771,36.0780362 31.9833031,35.7340697 L25.448405,27.9940849 C25.2180606,27.7209785 24.8246804,27.6486422 24.5105745,27.8213636 L15.5675313,32.7254698 C14.8286346,33.1329151 14.0822592,32.2028769 14.652137,31.585804 Z" id="Path" fill="#FFFFFF"></path>
            </g>
        </g>
    </g>
</svg>