<svg width="126" height="169" xmlns="http://www.w3.org/2000/svg"><g transform="translate(.375 1)" fill="none" fill-rule="evenodd"><path d="M50.956 160.666c2.092.265 4.084 1.494 3.594 4.334H38.342c.53-2.797-1.471-4.069-3.594-4.334a19.066 19.066 0 01-3.123-.7v-.137V157h8.95c.79.19 6.016 3.083 10.38 3.666z" fill="#FFF" fill-rule="nonzero"/><path d="M38.536 164.895L14.687 165c0-.324 0-3.273-.062-8h9.486c.64.136 3.957 1.872 7.502 2.918 1.054.316 2.132.547 3.224.69 2.18.272 4.246 1.527 3.699 4.287zM24.553 74.926c3.445.322 6.116-1.75 7.563-3.119l.061.06c3.059.172 5.943.886 7.136 2.707h.082c2.517-2.827 8.216-3.693 10.846-1.419h.163c.234-.764.683-2.304 1.233-4.155h.133c1.02 7.617 1.794 14.58 1.855 17.819l-40 .181c.092-1.841.57-7.667 1.02-14.197l.05-.13a53.29 53.29 0 009.857 2.254z" fill="#FFF" fill-rule="nonzero"/><path d="M15.87 54.509a62.022 62.022 0 00-3.962 4.937c-.882 1.478.75 3.278 3.354 5.027v-.06c.325-4.444.527-7.984.608-9.904zm3.395 12.197v.16s-2.847 1.569-2.716 5.873l-.08.261a52.667 52.667 0 01-1.52-.483C8.735 70.416 1.701 66.545.688 59.667c-.395-2.735 1.125-4.907 2.33-7.36 1.51-3.097 10.267-14.369 12.405-16.088 2.423-2.011 10.702-3.178 10.702-3.178a3.496 3.496 0 011.318-2.06c1.013-.453 6.891-.624 10.246-.252.195.021.384.08.557.17a2.845 2.845 0 011.42 2.122l17.228-3.257c-3.375-6.486-5.746-10.327-10.135-17.868v-.08A4.67 4.67 0 0150.672 9c1.926 2.081 18.82 20.492 16.783 23.388-2.432 3.479-19.256 10.97-19.256 10.97a4336.41 4336.41 0 011.713 10.86v.07c-3.669 0-7.459 1.206-8.584 3.82h-.101c-1.865-5.7-16.418-5.48-17.138-3.468-.202.543-.263 6.193-.223 10.98h-.07a3.037 3.037 0 00-2.666 2.01c-.598-.321-1.236-.623-1.865-.924z" fill="#FFF" fill-rule="nonzero"/><path stroke="#FFF" stroke-width=".86" stroke-linecap="round" stroke-linejoin="round" d="M37.625 167h-23v-2h23zM38.625 165h16v2h-16z"/><path stroke="#FFF" stroke-width=".86" stroke-linecap="round" d="M51.625 161v-19h35v11.266M86.625 163v4h-35M115.625 148a25.223 25.223 0 00-14-6M116.625 160.16a19.765 19.765 0 011.212 6.84h6.788a26.315 26.315 0 00-3.394-13M102.625 149a16.691 16.691 0 0110 5M105.625 143l-1 6M111.625 145l-3 6M115.625 148l-4 5M117.625 159l5-1M117.625 163.775l7-.55"/><path d="M78.625 154.764c7.376 11.226 22.557 14.594 34.14 7.574 11.584-7.02 15.307-21.843 8.374-33.338l-5.878 3.558a17.45 17.45 0 01.82 17.947c-3.064 5.686-9.025 9.3-15.58 9.445-6.554.146-12.675-3.2-15.998-8.744l-5.878 3.558zM122.625 135l-6 2M123.625 141.375l-6 .25M123.625 147l-7-2M121.625 153l-6-3M117.625 159l-5-5M112.625 163l-3-6M106.625 166l-2-6M101.51 167l-.77-7M96.815 167l.62-7M90.625 165l2-6M89.625 157l-5 5M86.625 154l-5 4M70.625 115a36.39 36.39 0 00-22 14M65.625 127a27.429 27.429 0 015-2M52.625 142a25.589 25.589 0 019-12M48.625 159.9l3-.8M41.625 152.685l9-.37M44.625 144l7 2M46.625 136l7 3M50.625 127l7 7M57.625 121l4 7M66.625 117l3 9M59.625 151l-3 3M56.625 151l3 3" stroke="#FFF" stroke-width=".86" stroke-linecap="round"/><path d="M85.125 80a5.5 5.5 0 105.5 5.49 5.49 5.49 0 00-5.5-5.49zm3.03 8.511a.416.416 0 01-.6 0l-2.43-2.44-2.43 2.43a.378.378 0 01-.29.127.426.426 0 01-.301-.717l2.43-2.43-2.42-2.421a.418.418 0 11.571-.61l2.44 2.44 2.44-2.44a.426.426 0 01.59 0 .416.416 0 010 .59l-2.43 2.421 2.44 2.43a.436.436 0 01-.029.61l.02.01z" fill="#FFF" fill-rule="nonzero"/><path d="M74.625 151c-.1.09-3 3-3 3M71.625 151l3 3M70.625 142.675V116h33v44M119.35 129.98c1.24-.474 3.362-4.034 1.609-7.09-1.896-3.322-5.043-3.154-6.334-2.53 1.025 2.293 3.597 7.603 4.643 9.64M110.9 122.01c-1.24.485-3.362 4.037-1.609 7.095 1.896 3.324 5.043 3.156 6.334 2.543-1.025-2.296-3.597-7.62-4.643-9.648M55.625 159c.952 0 .952 6 1.903 6 .952 0 .952-6 1.914-6s.952 6 1.904 6c.951 0 .951-6 1.903-6 .952 0 .952 6 1.904 6 .951 0 .962-6 1.913-6 .952 0 .952 6 1.914 6s.952-6 1.904-6c.951 0 .962 6 1.913 6 .952 0 .962-6 1.914-6s.962 6 1.914 6M76.625 142l6-11" stroke="#FFF" stroke-width=".86" stroke-linecap="round"/><circle stroke="#FFF" stroke-width=".86" stroke-linecap="round" cx="83.125" cy="129.5" r="2.5"/><path d="M57.625 142l6-11" stroke="#FFF" stroke-width=".86" stroke-linecap="round"/><circle stroke="#FFF" stroke-width=".86" stroke-linecap="round" cx="64.125" cy="129.5" r="2.5"/><path stroke="#FFF" stroke-width=".86" stroke-linecap="round" d="M89.625 156v-29h14M82.625 116s-13.31-16.72-13.576-16.957c-.42-.455-5.651 2.699-4.156 9.047 1.495 6.349 5.324 7.858 5.324 7.858M80.625 112.296c.835-.507 1.965-.348 2.589.363.623.71.528 1.732-.218 2.341"/><path d="M78.625 110.296c.835-.507 1.965-.348 2.589.363.623.71.528 1.732-.218 2.341M76.625 107.296c.835-.507 1.965-.348 2.589.363.623.71.528 1.732-.218 2.341M73.625 104.296c.835-.507 1.965-.348 2.589.363.623.71.528 1.732-.218 2.341M71.625 101.375c.791-.586 1.951-.473 2.59.252.64.725.517 1.787-.274 2.373M69.625 98.325c.82-.537 1.965-.395 2.593.323.629.719.517 1.756-.252 2.352M100.43 113c-.663-1.6-4.842-8.559-1.565-9.608 2.136-.693 7.705 6.53 5.932 7.6-1.38.836-4.75-7.407-3.702-9.037 1.845-2.863 7.258 3.974 7.487 5.696.3 1.895-1.037 1.019-1.701-.072-1.452-2.292-2.873-6.317-.726-8.579M62.625 113.449c-1.31.138-7.282 1.668-7.353-1.063 0-1.743 6.412-4.25 6.821-2.699.317 1.222-6.423 1.86-7.384.712-1.698-2.019 4.439-4.473 5.758-4.25 1.32.223.48.988-.42 1.243-1.983.563-5.225.712-6.422-1.392" stroke="#FFF" stroke-width=".86" stroke-linecap="round"/><path d="M89.201 94.996H76.98c-1.23.07-2.284-.888-2.354-2.141v-15.71c.076-1.25 1.126-2.206 2.354-2.142H94.27c1.228-.064 2.278.891 2.354 2.142v15.71c-.07 1.253-1.124 2.211-2.354 2.141h-2.344" stroke="#FFF" stroke-width=".86" stroke-linecap="round" stroke-linejoin="round"/><path d="M91.625 93.964s-.716 5.003-1.98 5.956c-1.265.953-.996-6.92-.996-6.92" stroke="#FFF" stroke-width=".86" stroke-linecap="round" stroke-linejoin="round"/><path d="M39.103 12.085a.41.41 0 01.41.42.41.41 0 01-.42.41.42.42 0 010-.83h.01zM33.13 12.08a.42.42 0 01.41.43.41.41 0 01-.42.41.42.42 0 01-.41-.43.41.41 0 01.42-.41z" fill="#FFF" fill-rule="nonzero"/><path d="M30.99 133c.09 10.7.22 19.934.27 24.32V160" stroke="#FFF" stroke-width=".86"/><path d="M21.62 90c.135 4.607-2.963 7.368-6.784 8.467a14.669 14.669 0 01-3.211.533" stroke="#FFF" stroke-width=".86" stroke-linecap="round"/><path d="M37.102 95.365a178.32 178.32 0 01-5.725 37.555c-2.149 8.556-4.654 16.74-7.058 24.29v.1h0c.631.13 3.9 1.801 7.395 2.808 1.04.305 2.102.527 3.178.664 2.139.252 4.155 1.42 3.656 4.117L15.04 165c0-.312 0-3.15-.062-7.7-.132-12.532-.427-37.999-.336-59.046 0-3.946 0-7.731.092-11.254" stroke="#FFF" stroke-width=".86" stroke-linecap="round" stroke-linejoin="round"/><path d="M52.978 87c-.65 27.876-6.887 51.832-12.854 70.382h0c.826.172 6.195 2.97 10.717 3.486 2.158.252 4.212 1.424 3.706 4.132H37.625" stroke="#FFF" stroke-width=".86" stroke-linecap="round" stroke-linejoin="round"/><path stroke="#FFF" stroke-width=".86" d="M40.625 157.5h-9M23.625 157.5h-9"/><path d="M42.516 11c.91 3.362-4.132 11.273-5.61 11.808-.18.067-.366.116-.558.145-2.128.36-4.814-1.419-5.723-3.178M28.625 9c.073-.494.145-1.008.238-1.603.13-.887.313-1.766.55-2.632a7.905 7.905 0 011.636-3.217c3.014-3.277 6.308-.837 8.743 2.541.676.952 1.289 1.946 1.833 2.975" stroke="#FFF" stroke-width=".86" stroke-linecap="round"/><path d="M28.083 31c0-6.117-.31-11.893.18-18M36.625 23v.244a25.155 25.155 0 002 7.756" stroke="#FFF" stroke-width=".86"/><path d="M29.625 10.539a5.047 5.047 0 00-.843-1.02c-2.295-2.037-3.815 2.487-2.874 3.781.61.66 1.54.876 2.364.55.182-.058.36-.133.53-.223" stroke="#FFF" stroke-width=".86" stroke-linecap="round"/><path d="M29.112 6.897l-.217.075c-1.344.392-8.187 2.103-8.27 0 0-1.29 4.27-2.01 8.787-2.411 4.714-.43 9.665-.514 10.213-.561" stroke="#FFF" stroke-width=".86"/><path d="M27.625 11.185c-.547.392-1.257.616-2 .63" stroke="#FFF" stroke-width=".86" stroke-linecap="round"/><path d="M14.643 72.675c-.417 6.589-.896 12.467-1.018 14.325l40-.02c-.061-3.27-.855-10.295-1.853-17.98M16.4 55c-.08 1.945-.28 5.53-.55 10" stroke="#FFF" stroke-width=".86" stroke-linecap="round" stroke-linejoin="round"/><path d="M21.234 68l-.345-.164a62.389 62.389 0 01-1.857-.904 37.527 37.527 0 01-3.902-2.311c-2.54-1.756-4.13-3.595-3.27-5.135a62.931 62.931 0 013.862-5.043A76.982 76.982 0 0123.625 46" stroke="#FFF" stroke-width=".86" stroke-linejoin="round"/><path d="M46.625 4.818a14.3 14.3 0 00-.473-.746c-.594-.858-1.53-2.14-1.711-2.392-.634-.888-1.369-.787-2.305-.373-.614.272-2.707.888-2.496 1.877.292 1.322 2.687 0 3.15.07.463.071.916 1.16 1.268 1.746" stroke="#FFF" stroke-width=".86" stroke-linecap="round"/><path d="M45.625 5.324a9.916 9.916 0 00-1-.241c-1.728-.294-2.476.24-2.806.902-.176.336-.33.65-.473.955a5.373 5.373 0 00-.715 2.098.852.852 0 00.486.868.936.936 0 001.021-.134M49.565 54c-.671-4.475-1.302-8.144-1.746-10.886 0 0 17.185-7.51 19.634-10.997C69.52 29.215 52.303 10.76 50.34 8.673l-.175-.192s-3.028-5.372-2.511-6.985c.63-2.016-1.127-2.016-1.747.131a4.539 4.539 0 00-.227 2.278M19.625 67s-3.14 1.603-2.995 6" stroke="#FFF" stroke-width=".86" stroke-linecap="round"/><path d="M24.663 75h0a51.944 51.944 0 01-9.784-2.29C8.697 70.595 1.697 66.695.69 59.767c-.394-2.755 1.12-4.943 2.32-7.414 1.502-3.12 10.216-14.474 12.344-16.206 2.411-2.026 10.651-3.2 10.651-3.2a3.527 3.527 0 011.311-2.077h0c1.009-.456 6.859-.628 10.197-.253.194.021.383.08.555.172a2.867 2.867 0 011.412 2.177l17.146-3.281c-3.359-6.533-5.719-10.403-10.086-18v-.08c-.232-.446-1.422-2.705-1.472-2.725-.05-.02-1.453 0-1.453 0l-.323.902a1.009 1.009 0 01-1.008.719c-.414 0-.787-.223-.787-.537a1.76 1.76 0 010-.375 4.263 4.263 0 011.009-2.31c.534-.414 1.503-.262 2.3-.192" stroke="#FFF" stroke-width=".86" stroke-linecap="round" stroke-linejoin="round"/><path d="M50.625 9c-1.769.154-3.31 1.31-4 3" stroke="#FFF" stroke-width=".86" stroke-linecap="round"/><path d="M34.625 19.69a1.62 1.62 0 012-.07" stroke="#FFF" stroke-width=".86" stroke-linecap="round" stroke-linejoin="round"/><path d="M33.625 9.624c-.279-.32-.655-.48-1.036-.442-.382.038-.732.271-.964.642M39.625 9.626c-.277-.322-.655-.485-1.037-.446-.382.038-.733.273-.963.646M37.408 10c-.4 1.31 0 3.374.164 4.738.087.935.212 2.73-.947 2.149" stroke="#FFF" stroke-width=".86" stroke-linecap="round"/><path d="M41.625 59a.613.613 0 01.052-.122c1.159-2.649 5.063-3.85 8.842-3.871a13.493 13.493 0 016.106 1.243M24.625 55.298c.718-2.037 15.24-2.23 17 3.535L39.977 75" stroke="#FFF" stroke-width=".86" stroke-linecap="round" stroke-linejoin="round"/><path d="M55.625 56c-.43.864-2.49 8.496-3.871 13.68-.504 1.893-.933 3.466-1.129 4.248a.158.158 0 010 .072M50.625 73.433c-2.667-2.51-8.446-1.555-11 1.567M24.015 70h0v-2.298-1.498c0-4.884 0-10.65.22-11.204M39.625 75c-1.16-2.019-4-2.81-7-3" stroke="#FFF" stroke-width=".86" stroke-linecap="round" stroke-linejoin="round"/><path d="M30.318 68.689c.796-.895-.087-2.307-1.154-1.393-1.523 1.312-3.521 2.714-4.967 2.704h-.359l-.213-.05" stroke="#FFF" stroke-width=".86" stroke-linejoin="round"/><path d="M27.19 73a26.646 26.646 0 005.059-3.912l.119-.142c.399-.534.474-2.18-.82-1.918-.503.23-.954.56-1.327.97a16.59 16.59 0 01-4.596 3.062" stroke="#FFF" stroke-width=".86" stroke-linecap="round" stroke-linejoin="round"/><path d="M24.625 74.965h.072c3.474.335 6.167-1.821 7.626-3.245.504-.503.843-.921 1.028-1.047.627-.775.134-1.979-1.028-1.602M24.009 70a.977.977 0 010-.182c-.204-.617-.084-1.277.33-1.818h0M21.625 68c0-.06.076-.157.141-.26.432-.986 1.557-1.67 2.859-1.74" stroke="#FFF" stroke-width=".86" stroke-linejoin="round"/><path d="M21.234 68l-.345-.164a62.389 62.389 0 01-1.857-.904 37.527 37.527 0 01-3.902-2.311c-2.54-1.756-4.13-3.595-3.27-5.135a62.931 62.931 0 013.862-5.043A76.982 76.982 0 0123.625 46" stroke="#FFF" stroke-width=".86" stroke-linecap="round" stroke-linejoin="round"/><path d="M30.625 159c1.157.56 3.208 1.803 4.396 1.903 2.132.18 3.563 1.212 3.604 4.097" stroke="#FFF" stroke-width=".86" stroke-linecap="square" stroke-linejoin="round"/></g></svg>