<svg width="257" height="50" xmlns="http://www.w3.org/2000/svg"><g transform="translate(.595)" fill="none" fill-rule="evenodd"><rect fill="#04E887" x="158.405" width="98" height="44" rx="22"/><path d="M179.405 43v5.382a1 1 0 001.447.894L193.405 43h-14z" fill="#04E887"/><path d="M7.77 31.45c-1.12 0-2.15-.205-3.09-.615a7.56 7.56 0 01-2.46-1.71A7.794 7.794 0 01.585 26.53c-.39-1-.585-2.09-.585-3.27 0-1.18.2-2.28.6-3.3.4-1.02.95-1.91 1.65-2.67a7.577 7.577 0 012.475-1.785c.95-.43 1.985-.645 3.105-.645 1.08 0 2.07.195 2.97.585.9.39 1.675.94 2.325 1.65A6.242 6.242 0 0114.52 19.6l-3.27.78c-.34-.76-.815-1.35-1.425-1.77a3.54 3.54 0 00-2.055-.63c-.8 0-1.52.23-2.16.69-.64.46-1.145 1.085-1.515 1.875-.37.79-.555 1.685-.555 2.685 0 .98.18 1.855.54 2.625.36.77.855 1.375 1.485 1.815.63.44 1.365.66 2.205.66.8 0 1.53-.205 2.19-.615.66-.41 1.15-.995 1.47-1.755l3.24.75c-.28.96-.76 1.795-1.44 2.505-.68.71-1.49 1.26-2.43 1.65-.94.39-1.95.585-3.03.585zm9.737-.45V8.68h3.45v8.52c.48-.72 1.12-1.29 1.92-1.71.8-.42 1.7-.63 2.7-.63 1.18 0 2.205.28 3.075.84.87.56 1.545 1.35 2.025 2.37s.72 2.22.72 3.6V31h-3.45v-8.94c0-1.28-.285-2.28-.855-3-.57-.72-1.365-1.08-2.385-1.08-.72 0-1.365.17-1.935.51-.57.34-1.015.8-1.335 1.38-.32.58-.48 1.25-.48 2.01V31h-3.45zm22.397.45c-.8 0-1.535-.12-2.205-.36a5.363 5.363 0 01-1.755-1.02c-.5-.44-.89-.96-1.17-1.56-.28-.6-.42-1.26-.42-1.98 0-1 .265-1.875.795-2.625s1.275-1.335 2.235-1.755c.96-.42 2.08-.63 3.36-.63a9.958 9.958 0 013.84.75v-.99c0-.7-.13-1.315-.39-1.845s-.63-.945-1.11-1.245c-.48-.3-1.06-.45-1.74-.45-.72 0-1.37.19-1.95.57-.58.38-1.01.91-1.29 1.59l-3.18-.72c.24-.88.675-1.64 1.305-2.28.63-.64 1.39-1.14 2.28-1.5.89-.36 1.855-.54 2.895-.54.98 0 1.875.16 2.685.48.81.32 1.505.77 2.085 1.35.58.58 1.03 1.27 1.35 2.07.32.8.48 1.69.48 2.67V31h-3.15l-.12-2.07c-.42.76-1.05 1.37-1.89 1.83-.84.46-1.82.69-2.94.69zm-2.07-5.07c0 .44.12.835.36 1.185.24.35.575.625 1.005.825.43.2.935.3 1.515.3.74 0 1.4-.16 1.98-.48.58-.32 1.04-.755 1.38-1.305.34-.55.51-1.175.51-1.875v-.36c-.52-.22-1.055-.395-1.605-.525a7.344 7.344 0 00-1.695-.195c-1.04 0-1.875.22-2.505.66-.63.44-.945 1.03-.945 1.77zm19.847 5.07c-1.58 0-2.82-.455-3.72-1.365-.9-.91-1.35-2.215-1.35-3.915V18.1h-2.76v-2.79h2.76V10h3.45v5.31h4.56v2.79h-4.56v7.71c0 .84.175 1.485.525 1.935.35.45.865.675 1.545.675.36 0 .75-.055 1.17-.165.42-.11.81-.265 1.17-.465l.78 2.61c-.46.32-.995.575-1.605.765-.61.19-1.265.285-1.965.285zm11.657 0c-1.02 0-1.965-.17-2.835-.51a6.17 6.17 0 01-2.22-1.455 5.417 5.417 0 01-1.305-2.235l3.12-.81c.26.68.68 1.21 1.26 1.59.58.38 1.25.57 2.01.57.78 0 1.42-.185 1.92-.555.5-.37.75-.845.75-1.425 0-.5-.2-.92-.6-1.26-.4-.34-1.05-.59-1.95-.75l-.99-.18c-1.68-.3-2.945-.84-3.795-1.62-.85-.78-1.275-1.78-1.275-3 0-.98.25-1.84.75-2.58s1.19-1.32 2.07-1.74c.88-.42 1.89-.63 3.03-.63.98 0 1.88.17 2.7.51.82.34 1.51.82 2.07 1.44.56.62.96 1.35 1.2 2.19l-3.09.75c-.24-.64-.615-1.145-1.125-1.515-.51-.37-1.105-.555-1.785-.555-.7 0-1.28.175-1.74.525-.46.35-.69.795-.69 1.335 0 .46.205.84.615 1.14.41.3 1.105.54 2.085.72l.99.18c1.6.28 2.83.83 3.69 1.65.86.82 1.29 1.84 1.29 3.06 0 .74-.15 1.425-.45 2.055-.3.63-.725 1.18-1.275 1.65-.55.47-1.2.83-1.95 1.08-.75.25-1.575.375-2.475.375zm16.277 0c-1.16 0-2.225-.205-3.195-.615a7.657 7.657 0 01-2.535-1.725 7.688 7.688 0 01-1.665-2.625c-.39-1.01-.585-2.125-.585-3.345 0-1.18.195-2.27.585-3.27.39-1 .93-1.875 1.62-2.625a7.373 7.373 0 012.445-1.755c.94-.42 1.96-.63 3.06-.63s2.105.195 3.015.585c.91.39 1.7.945 2.37 1.665a7.456 7.456 0 011.545 2.565c.36.99.54 2.085.54 3.285v1.02h-11.61c.1.92.345 1.715.735 2.385.39.67.895 1.185 1.515 1.545.62.36 1.34.54 2.16.54 1.64 0 2.92-.73 3.84-2.19l3.03 1.17a6.121 6.121 0 01-1.575 2.145 7.177 7.177 0 01-2.4 1.395c-.91.32-1.875.48-2.895.48zm-.27-13.8c-.7 0-1.325.16-1.875.48-.55.32-1.015.77-1.395 1.35-.38.58-.64 1.26-.78 2.04h7.92c-.12-.78-.35-1.46-.69-2.04a3.68 3.68 0 00-1.335-1.35 3.601 3.601 0 00-1.845-.48zm17.627 13.8c-1.12 0-2.15-.205-3.09-.615a7.56 7.56 0 01-2.46-1.71 7.794 7.794 0 01-1.635-2.595c-.39-1-.585-2.09-.585-3.27 0-1.18.2-2.28.6-3.3.4-1.02.95-1.91 1.65-2.67a7.577 7.577 0 012.475-1.785c.95-.43 1.985-.645 3.105-.645 1.08 0 2.07.195 2.97.585.9.39 1.675.94 2.325 1.65a6.242 6.242 0 011.395 2.505l-3.27.78c-.34-.76-.815-1.35-1.425-1.77a3.54 3.54 0 00-2.055-.63c-.8 0-1.52.23-2.16.69-.64.46-1.145 1.085-1.515 1.875-.37.79-.555 1.685-.555 2.685 0 .98.18 1.855.54 2.625.36.77.855 1.375 1.485 1.815.63.44 1.365.66 2.205.66.8 0 1.53-.205 2.19-.615.66-.41 1.15-.995 1.47-1.755l3.24.75c-.28.96-.76 1.795-1.44 2.505-.68.71-1.49 1.26-2.43 1.65-.94.39-1.95.585-3.03.585zm16.637 0c-1.4 0-2.615-.3-3.645-.9-1.03-.6-1.83-1.455-2.4-2.565-.57-1.11-.855-2.415-.855-3.915v-8.76h3.45v8.82c0 1.3.31 2.325.93 3.075.62.75 1.47 1.125 2.55 1.125 1.08 0 1.93-.375 2.55-1.125.62-.75.93-1.775.93-3.075v-8.82h3.45v8.76c0 1.48-.285 2.775-.855 3.885-.57 1.11-1.375 1.97-2.415 2.58-1.04.61-2.27.915-3.69.915zm10.667-.45V15.31h3.15l.15 2.58c.4-.88.955-1.565 1.665-2.055.71-.49 1.545-.735 2.505-.735.3 0 .59.02.87.06.28.04.53.11.75.21l-.39 3.36c-.22-.08-.45-.135-.69-.165a5.8 5.8 0 00-.72-.045c-1.2 0-2.14.4-2.82 1.2-.68.8-1.02 1.91-1.02 3.33V31h-3.45zm18.437.45c-1.16 0-2.225-.205-3.195-.615a7.657 7.657 0 01-2.535-1.725 7.688 7.688 0 01-1.665-2.625c-.39-1.01-.585-2.125-.585-3.345 0-1.18.195-2.27.585-3.27.39-1 .93-1.875 1.62-2.625a7.373 7.373 0 012.445-1.755c.94-.42 1.96-.63 3.06-.63s2.105.195 3.015.585c.91.39 1.7.945 2.37 1.665a7.456 7.456 0 011.545 2.565c.36.99.54 2.085.54 3.285v1.02h-11.61c.1.92.345 1.715.735 2.385.39.67.895 1.185 1.515 1.545.62.36 1.34.54 2.16.54 1.64 0 2.92-.73 3.84-2.19l3.03 1.17a6.121 6.121 0 01-1.575 2.145 7.177 7.177 0 01-2.4 1.395c-.91.32-1.875.48-2.895.48zm-.27-13.8c-.7 0-1.325.16-1.875.48-.55.32-1.015.77-1.395 1.35-.38.58-.64 1.26-.78 2.04h7.92c-.12-.78-.35-1.46-.69-2.04a3.68 3.68 0 00-1.335-1.35 3.601 3.601 0 00-1.845-.48z" fill="#FFF" fill-rule="nonzero"/><path d="M164.47 31.12c-.42 0-.8-.1-1.14-.3-.34-.2-.614-.475-.824-.825a2.203 2.203 0 01-.315-1.155c0-.42.105-.805.315-1.155.21-.35.485-.625.825-.825.34-.2.72-.3 1.14-.3.42 0 .8.1 1.14.3.34.2.615.475.825.825.21.35.315.735.315 1.155 0 .42-.105.805-.315 1.155-.21.35-.485.625-.825.825-.34.2-.72.3-1.14.3zm12.498.33c-1.14 0-2.195-.205-3.165-.615a7.55 7.55 0 01-2.535-1.74 8.045 8.045 0 01-1.68-2.64c-.4-1.01-.6-2.115-.6-3.315 0-1.18.2-2.275.6-3.285.4-1.01.965-1.89 1.695-2.64.73-.75 1.59-1.33 2.58-1.74.99-.41 2.065-.615 3.225-.615 1.14 0 2.195.205 3.165.615.97.41 1.815.99 2.535 1.74.72.75 1.28 1.625 1.68 2.625.4 1 .6 2.1.6 3.3 0 1.2-.2 2.305-.6 3.315a7.924 7.924 0 01-1.695 2.64c-.73.75-1.59 1.33-2.58 1.74-.99.41-2.065.615-3.225.615zm.06-3.12c.86 0 1.63-.225 2.31-.675.68-.45 1.215-1.065 1.605-1.845.39-.78.585-1.67.585-2.67s-.195-1.885-.585-2.655a4.683 4.683 0 00-1.605-1.83c-.68-.45-1.45-.675-2.31-.675-.86 0-1.63.225-2.31.675a4.683 4.683 0 00-1.605 1.83c-.39.77-.585 1.655-.585 2.655 0 1 .195 1.89.585 2.67.39.78.925 1.395 1.605 1.845.68.45 1.45.675 2.31.675zM188.085 31V15.31h3.15l.12 2.16a5.06 5.06 0 011.935-1.905c.83-.47 1.785-.705 2.865-.705 1.18 0 2.205.28 3.075.84.87.56 1.545 1.35 2.025 2.37s.72 2.22.72 3.6V31h-3.45v-8.94c0-1.28-.285-2.28-.855-3-.57-.72-1.365-1.08-2.385-1.08-.72 0-1.365.17-1.935.51-.57.34-1.015.8-1.335 1.38-.32.58-.48 1.25-.48 2.01V31h-3.45zm17.597 0V8.68h3.45V31h-3.45zm10.967-20.07c0 .38-.095.73-.285 1.05-.19.32-.445.575-.765.765-.32.19-.67.285-1.05.285s-.73-.095-1.05-.285a2.157 2.157 0 01-.765-.765 2.02 2.02 0 01-.285-1.05c0-.38.095-.73.285-1.05.19-.32.445-.575.765-.765.32-.19.67-.285 1.05-.285s.73.095 1.05.285c.32.19.575.445.765.765.19.32.285.67.285 1.05zM212.839 31V15.31h3.45V31h-3.45zm7.157 0V15.31h3.15l.12 2.16a5.06 5.06 0 011.935-1.905c.83-.47 1.785-.705 2.865-.705 1.18 0 2.205.28 3.075.84.87.56 1.545 1.35 2.025 2.37s.72 2.22.72 3.6V31h-3.45v-8.94c0-1.28-.285-2.28-.855-3-.57-.72-1.365-1.08-2.385-1.08-.72 0-1.365.17-1.935.51-.57.34-1.015.8-1.335 1.38-.32.58-.48 1.25-.48 2.01V31h-3.45zm24.887.45c-1.16 0-2.225-.205-3.195-.615a7.657 7.657 0 01-2.535-1.725 7.688 7.688 0 01-1.665-2.625c-.39-1.01-.585-2.125-.585-3.345 0-1.18.195-2.27.585-3.27.39-1 .93-1.875 1.62-2.625a7.373 7.373 0 012.445-1.755c.94-.42 1.96-.63 3.06-.63s2.105.195 3.015.585c.91.39 1.7.945 2.37 1.665a7.456 7.456 0 011.545 2.565c.36.99.54 2.085.54 3.285v1.02h-11.61c.1.92.345 1.715.735 2.385.39.67.895 1.185 1.515 1.545.62.36 1.34.54 2.16.54 1.64 0 2.92-.73 3.84-2.19l3.03 1.17a6.121 6.121 0 01-1.575 2.145 7.177 7.177 0 01-2.4 1.395c-.91.32-1.875.48-2.895.48zm-.27-13.8c-.7 0-1.325.16-1.875.48-.55.32-1.015.77-1.395 1.35-.38.58-.64 1.26-.78 2.04h7.92c-.12-.78-.35-1.46-.69-2.04a3.68 3.68 0 00-1.335-1.35 3.601 3.601 0 00-1.845-.48z" fill="#333" fill-rule="nonzero"/><path fill="#04E887" d="M211.405 8h6v6h-6z"/></g></svg>