<?xml version="1.0" encoding="UTF-8"?>
<svg width="257px" height="50px" viewBox="0 0 257 50" version="1.1" xmlns="http://www.w3.org/2000/svg" xmlns:xlink="http://www.w3.org/1999/xlink">
    <!-- Generator: Sketch 53.1 (72631) - https://sketchapp.com -->
    <title>Group 2</title>
    <desc>Created with Sketch.</desc>
    <g id="Page-1" stroke="none" stroke-width="1" fill="none" fill-rule="evenodd">
        <g id="Group-2" transform="translate(0.594800, 0.000000)">
            <g id="Group" transform="translate(0.000000, 0.000000)">
                <rect id="Rectangle" fill="#04E887" x="158.4052" y="0" width="98" height="44" rx="22"></rect>
                <path d="M179.4052,43 L179.4052,48.381966 C179.4052,48.9342508 179.852915,49.381966 180.4052,49.381966 C180.560445,49.381966 180.713558,49.3458209 180.852414,49.2763932 L193.4052,43 L179.4052,43 Z" id="Path" fill="#04E887"></path>
                <path d="M7.77,31.45 C6.6499944,31.45 5.6200047,31.245002 4.68,30.835 C3.7399953,30.4249979 2.9200035,29.8550037 2.22,29.125 C1.5199965,28.3949963 0.97500195,27.530005 0.585,26.53 C0.19499805,25.529995 1.42108547e-14,24.4400059 1.42108547e-14,23.26 C1.42108547e-14,22.0799941 0.199998,20.9800051 0.6,19.96 C1.000002,18.9399949 1.5499965,18.0500038 2.25,17.29 C2.9500035,16.5299962 3.77499525,15.9350022 4.725,15.505 C5.67500475,15.0749978 6.7099944,14.86 7.83,14.86 C8.9100054,14.86 9.8999955,15.054998 10.8,15.445 C11.7000045,15.8350019 12.4749968,16.3849965 13.125,17.095 C13.7750033,17.8050035 14.2399986,18.6399952 14.52,19.6 L11.25,20.38 C10.9099983,19.6199962 10.4350031,19.0300021 9.825,18.61 C9.21499695,18.1899979 8.5300038,17.98 7.77,17.98 C6.969996,17.98 6.2500032,18.2099977 5.61,18.67 C4.9699968,19.1300023 4.46500185,19.754996 4.095,20.545 C3.72499815,21.3350039 3.54,22.229995 3.54,23.23 C3.54,24.2100049 3.7199982,25.0849961 4.08,25.855 C4.4400018,26.6250038 4.93499685,27.2299978 5.565,27.67 C6.19500315,28.1100022 6.9299958,28.33 7.77,28.33 C8.570004,28.33 9.2999967,28.125002 9.96,27.715 C10.6200033,27.304998 11.1099984,26.7200038 11.43,25.96 L14.67,26.71 C14.3899986,27.6700048 13.9100034,28.5049965 13.23,29.215 C12.5499966,29.9250035 11.7400047,30.4749981 10.8,30.865 C9.8599953,31.255002 8.8500054,31.45 7.77,31.45 Z M17.50704,31 L17.50704,8.68 L20.95704,8.68 L20.95704,17.2 C21.4370424,16.4799964 22.077036,15.9100021 22.87704,15.49 C23.677044,15.0699979 24.577035,14.86 25.57704,14.86 C26.7570459,14.86 27.7820356,15.1399972 28.65204,15.7 C29.5220443,16.2600028 30.1970376,17.0499949 30.67704,18.07 C31.1570424,19.0900051 31.39704,20.2899931 31.39704,21.67 L31.39704,31 L27.94704,31 L27.94704,22.06 C27.94704,20.7799936 27.6620428,19.7800036 27.09204,19.06 C26.5220371,18.3399964 25.7270451,17.98 24.70704,17.98 C23.9870364,17.98 23.3420428,18.1499983 22.77204,18.49 C22.2020371,18.8300017 21.7570416,19.2899971 21.43704,19.87 C21.1170384,20.4500029 20.95704,21.1199962 20.95704,21.88 L20.95704,31 L17.50704,31 Z M39.90408,31.45 C39.104076,31.45 38.3690833,31.3300012 37.69908,31.09 C37.0290766,30.8499988 36.4440825,30.5100022 35.94408,30.07 C35.4440775,29.6299978 35.0540814,29.110003 34.77408,28.51 C34.4940786,27.909997 34.35408,27.2500036 34.35408,26.53 C34.35408,25.529995 34.6190773,24.6550037 35.14908,23.905 C35.6790826,23.1549963 36.4240752,22.5700021 37.38408,22.15 C38.3440848,21.7299979 39.4640736,21.52 40.74408,21.52 C41.4440835,21.52 42.1140768,21.5849993 42.75408,21.715 C43.3940832,21.8450006 44.0040771,22.0299988 44.58408,22.27 L44.58408,21.28 C44.58408,20.5799965 44.4540813,19.9650026 44.19408,19.435 C43.9340787,18.9049974 43.5640824,18.4900015 43.08408,18.19 C42.6040776,17.8899985 42.0240834,17.74 41.34408,17.74 C40.6240764,17.74 39.9740829,17.9299981 39.39408,18.31 C38.8140771,18.6900019 38.3840814,19.2199966 38.10408,19.9 L34.92408,19.18 C35.1640812,18.2999956 35.5990768,17.5400032 36.22908,16.9 C36.8590831,16.2599968 37.6190755,15.7600018 38.50908,15.4 C39.3990844,15.0399982 40.3640748,14.86 41.40408,14.86 C42.3840849,14.86 43.2790759,15.0199984 44.08908,15.34 C44.899084,15.6600016 45.5940771,16.1099971 46.17408,16.69 C46.7540829,17.2700029 47.2040784,17.959996 47.52408,18.76 C47.8440816,19.560004 48.00408,20.4499951 48.00408,21.43 L48.00408,31 L44.85408,31 L44.73408,28.93 C44.3140779,29.6900038 43.6840842,30.2999977 42.84408,30.76 C42.0040758,31.2200023 41.0240856,31.45 39.90408,31.45 Z M37.83408,26.38 C37.83408,26.8200022 37.9540788,27.2149983 38.19408,27.565 C38.4340812,27.9150017 38.7690778,28.189999 39.19908,28.39 C39.6290821,28.590001 40.1340771,28.69 40.71408,28.69 C41.4540837,28.69 42.1140771,28.5300016 42.69408,28.21 C43.2740829,27.8899984 43.7340783,27.4550028 44.07408,26.905 C44.4140817,26.3549972 44.58408,25.7300035 44.58408,25.03 L44.58408,24.67 C44.0640774,24.4499989 43.5290827,24.2750006 42.97908,24.145 C42.4290772,24.0149993 41.8640829,23.95 41.28408,23.95 C40.2440748,23.95 39.4090831,24.1699978 38.77908,24.61 C38.1490768,25.0500022 37.83408,25.6399963 37.83408,26.38 Z M57.68112,31.45 C56.1011121,31.45 54.8611245,30.9950045 53.96112,30.085 C53.0611155,29.1749954 52.61112,27.8700085 52.61112,26.17 L52.61112,18.1 L49.85112,18.1 L49.85112,15.31 L52.61112,15.31 L52.61112,10 L56.06112,10 L56.06112,15.31 L60.62112,15.31 L60.62112,18.1 L56.06112,18.1 L56.06112,25.81 C56.06112,26.6500042 56.2361182,27.2949977 56.58612,27.745 C56.9361217,28.1950023 57.4511166,28.42 58.13112,28.42 C58.4911218,28.42 58.8811179,28.3650005 59.30112,28.255 C59.7211221,28.1449995 60.1111182,27.990001 60.47112,27.79 L61.25112,30.4 C60.7911177,30.7200016 60.256123,30.9749991 59.64612,31.165 C59.0361169,31.3550009 58.3811235,31.45 57.68112,31.45 Z M69.33816,31.45 C68.3181549,31.45 67.3731643,31.2800017 66.50316,30.94 C65.6331556,30.5999983 64.893163,30.1150032 64.28316,29.485 C63.6731569,28.8549969 63.2381613,28.1100043 62.97816,27.25 L66.09816,26.44 C66.3581613,27.1200034 66.7781571,27.6499981 67.35816,28.03 C67.9381629,28.4100019 68.6081562,28.6 69.36816,28.6 C70.1481639,28.6 70.7881575,28.4150019 71.28816,28.045 C71.7881625,27.6749982 72.03816,27.2000029 72.03816,26.62 C72.03816,26.1199975 71.838162,25.7000017 71.43816,25.36 C71.038158,25.0199983 70.3881645,24.7700008 69.48816,24.61 L68.49816,24.43 C66.8181516,24.1299985 65.5531642,23.5900039 64.70316,22.81 C63.8531557,22.0299961 63.42816,21.0300061 63.42816,19.81 C63.42816,18.8299951 63.6781575,17.9700037 64.17816,17.23 C64.6781625,16.4899963 65.3681556,15.9100021 66.24816,15.49 C67.1281644,15.0699979 68.1381543,14.86 69.27816,14.86 C70.2581649,14.86 71.1581559,15.0299983 71.97816,15.37 C72.7981641,15.7100017 73.4881572,16.1899969 74.04816,16.81 C74.6081628,17.4300031 75.0081588,18.1599958 75.24816,19 L72.15816,19.75 C71.9181588,19.1099968 71.5431625,18.6050019 71.03316,18.235 C70.5231574,17.8649982 69.9281634,17.68 69.24816,17.68 C68.5481565,17.68 67.9681623,17.8549982 67.50816,18.205 C67.0481577,18.5550017 66.81816,18.9999973 66.81816,19.54 C66.81816,20.0000023 67.0231579,20.3799985 67.43316,20.68 C67.843162,20.9800015 68.5381551,21.2199991 69.51816,21.4 L70.50816,21.58 C72.108168,21.8600014 73.3381557,22.4099959 74.19816,23.23 C75.0581643,24.0500041 75.48816,25.0699939 75.48816,26.29 C75.48816,27.0300037 75.3381615,27.7149968 75.03816,28.345 C74.7381585,28.9750032 74.3131627,29.5249976 73.76316,29.995 C73.2131572,30.4650024 72.5631637,30.8249988 71.81316,31.075 C71.0631562,31.3250013 70.2381645,31.45 69.33816,31.45 Z M85.6152,31.45 C84.4551942,31.45 83.3902048,31.245002 82.4202,30.835 C81.4501951,30.4249979 80.6052036,29.8500037 79.8852,29.11 C79.1651964,28.3699963 78.6102019,27.495005 78.2202,26.485 C77.830198,25.4749949 77.6352,24.3600061 77.6352,23.14 C77.6352,21.9599941 77.830198,20.870005 78.2202,19.87 C78.6102019,18.869995 79.1501965,17.9950038 79.8402,17.245 C80.5302034,16.4949962 81.3451953,15.9100021 82.2852,15.49 C83.2252047,15.0699979 84.2451945,14.86 85.3452,14.86 C86.4452055,14.86 87.4501954,15.054998 88.3602,15.445 C89.2702045,15.8350019 90.0601966,16.3899964 90.7302,17.11 C91.4002033,17.8300036 91.9151982,18.684995 92.2752,19.675 C92.6352018,20.665005 92.8152,21.759994 92.8152,22.96 L92.8152,23.98 L81.2051999,23.98 C81.3052005,24.9000046 81.550198,25.6949967 81.9402,26.365 C82.3302019,27.0350034 82.8351969,27.5499982 83.4551999,27.91 C84.0752031,28.2700018 84.7951959,28.45 85.6152,28.45 C87.2552082,28.45 88.5351954,27.7200073 89.4551999,26.26 L92.4852,27.43 C92.1251982,28.2500041 91.6002034,28.9649969 90.9102,29.575 C90.2201965,30.185003 89.4202045,30.6499984 88.5102,30.97 C87.6001954,31.2900016 86.6352051,31.45 85.6152,31.45 Z M85.3452,17.65 C84.6451965,17.65 84.0202027,17.8099984 83.4702,18.13 C82.9201972,18.4500016 82.4552019,18.8999971 82.0751999,19.48 C81.6951981,20.0600029 81.4352006,20.7399961 81.2952,21.52 L89.2152,21.52 C89.0951994,20.7399961 88.8652017,20.0600029 88.5252,19.48 C88.1851983,18.8999971 87.7402027,18.4500016 87.1902,18.13 C86.6401972,17.8099984 86.0252034,17.65 85.3452,17.65 Z M102.97224,31.45 C101.852234,31.45 100.822245,31.245002 99.8822399,30.835 C98.9422352,30.4249979 98.1222434,29.8550037 97.4222399,29.125 C96.7222364,28.3949963 96.1772419,27.530005 95.7872399,26.53 C95.397238,25.529995 95.2022399,24.4400059 95.2022399,23.26 C95.2022399,22.0799941 95.4022379,20.9800051 95.8022399,19.96 C96.2022419,18.9399949 96.7522364,18.0500038 97.4522399,17.29 C98.1522434,16.5299962 98.9772352,15.9350022 99.9272399,15.505 C100.877245,15.0749978 101.912234,14.86 103.03224,14.86 C104.112245,14.86 105.102235,15.054998 106.00224,15.445 C106.902244,15.8350019 107.677237,16.3849965 108.32724,17.095 C108.977243,17.8050035 109.442239,18.6399952 109.72224,19.6 L106.45224,20.38 C106.112238,19.6199962 105.637243,19.0300021 105.02724,18.61 C104.417237,18.1899979 103.732244,17.98 102.97224,17.98 C102.172236,17.98 101.452243,18.2099977 100.81224,18.67 C100.172237,19.1300023 99.6672418,19.754996 99.2972399,20.545 C98.9272381,21.3350039 98.7422399,22.229995 98.7422399,23.23 C98.7422399,24.2100049 98.9222381,25.0849961 99.2822399,25.855 C99.6422417,26.6250038 100.137237,27.2299978 100.76724,27.67 C101.397243,28.1100022 102.132236,28.33 102.97224,28.33 C103.772244,28.33 104.502237,28.125002 105.16224,27.715 C105.822243,27.304998 106.312238,26.7200038 106.63224,25.96 L109.87224,26.71 C109.592239,27.6700048 109.112243,28.5049965 108.43224,29.215 C107.752237,29.9250035 106.942245,30.4749981 106.00224,30.865 C105.062235,31.255002 104.052245,31.45 102.97224,31.45 Z M119.60928,31.45 C118.209273,31.45 116.994285,31.150003 115.96428,30.55 C114.934275,29.949997 114.134283,29.0950055 113.56428,27.985 C112.994277,26.8749945 112.70928,25.5700075 112.70928,24.07 L112.70928,15.31 L116.15928,15.31 L116.15928,24.13 C116.15928,25.4300065 116.469277,26.4549963 117.08928,27.205 C117.709283,27.9550038 118.559275,28.33 119.63928,28.33 C120.719285,28.33 121.569277,27.9550038 122.18928,27.205 C122.809283,26.4549963 123.11928,25.4300065 123.11928,24.13 L123.11928,15.31 L126.56928,15.31 L126.56928,24.07 C126.56928,25.5500074 126.284283,26.8449945 125.71428,27.955 C125.144277,29.0650056 124.339285,29.9249969 123.29928,30.535 C122.259275,31.1450031 121.029287,31.45 119.60928,31.45 Z M130.27632,31 L130.27632,15.31 L133.42632,15.31 L133.57632,17.89 C133.976322,17.0099956 134.531316,16.3250024 135.24132,15.835 C135.951323,15.3449976 136.786315,15.1 137.74632,15.1 C138.046321,15.1 138.336319,15.1199998 138.61632,15.16 C138.896321,15.2000002 139.146319,15.2699995 139.36632,15.37 L138.97632,18.73 C138.756319,18.6499996 138.526321,18.5950001 138.28632,18.565 C138.046319,18.5349999 137.806321,18.52 137.56632,18.52 C136.366314,18.52 135.426323,18.919996 134.74632,19.72 C134.066317,20.520004 133.72632,21.6299929 133.72632,23.05 L133.72632,31 L130.27632,31 Z M148.71336,31.45 C147.553354,31.45 146.488365,31.245002 145.51836,30.835 C144.548355,30.4249979 143.703364,29.8500037 142.98336,29.11 C142.263356,28.3699963 141.708362,27.495005 141.31836,26.485 C140.928358,25.4749949 140.73336,24.3600061 140.73336,23.14 C140.73336,21.9599941 140.928358,20.870005 141.31836,19.87 C141.708362,18.869995 142.248356,17.9950038 142.93836,17.245 C143.628363,16.4949962 144.443355,15.9100021 145.38336,15.49 C146.323365,15.0699979 147.343354,14.86 148.44336,14.86 C149.543365,14.86 150.548355,15.054998 151.45836,15.445 C152.368364,15.8350019 153.158357,16.3899964 153.82836,17.11 C154.498363,17.8300036 155.013358,18.684995 155.37336,19.675 C155.733362,20.665005 155.91336,21.759994 155.91336,22.96 L155.91336,23.98 L144.30336,23.98 C144.40336,24.9000046 144.648358,25.6949967 145.03836,26.365 C145.428362,27.0350034 145.933357,27.5499982 146.55336,27.91 C147.173363,28.2700018 147.893356,28.45 148.71336,28.45 C150.353368,28.45 151.633355,27.7200073 152.55336,26.26 L155.58336,27.43 C155.223358,28.2500041 154.698363,28.9649969 154.00836,29.575 C153.318356,30.185003 152.518364,30.6499984 151.60836,30.97 C150.698355,31.2900016 149.733365,31.45 148.71336,31.45 Z M148.44336,17.65 C147.743356,17.65 147.118363,17.8099984 146.56836,18.13 C146.018357,18.4500016 145.553362,18.8999971 145.17336,19.48 C144.793358,20.0600029 144.533361,20.7399961 144.39336,21.52 L152.31336,21.52 C152.193359,20.7399961 151.963362,20.0600029 151.62336,19.48 C151.283358,18.8999971 150.838363,18.4500016 150.28836,18.13 C149.738357,17.8099984 149.123363,17.65 148.44336,17.65 Z" id="chatsecure" fill="#FFFFFF" fill-rule="nonzero"></path>
                <path d="M164.47056,31.12 C164.050558,31.12 163.670562,31.020001 163.33056,30.82 C162.990558,30.619999 162.715561,30.3450017 162.50556,29.995 C162.295559,29.6449983 162.19056,29.2600021 162.19056,28.84 C162.19056,28.4199979 162.295559,28.0350017 162.50556,27.685 C162.715561,27.3349983 162.990558,27.060001 163.33056,26.86 C163.670562,26.659999 164.050558,26.56 164.47056,26.56 C164.890562,26.56 165.270558,26.659999 165.61056,26.86 C165.950562,27.060001 166.225559,27.3349983 166.43556,27.685 C166.645561,28.0350017 166.75056,28.4199979 166.75056,28.84 C166.75056,29.2600021 166.645561,29.6449983 166.43556,29.995 C166.225559,30.3450017 165.950562,30.619999 165.61056,30.82 C165.270558,31.020001 164.890562,31.12 164.47056,31.12 Z M176.9676,31.45 C175.827594,31.45 174.772605,31.245002 173.8026,30.835 C172.832595,30.4249979 171.987604,29.8450037 171.2676,29.095 C170.547596,28.3449963 169.987602,27.4650051 169.5876,26.455 C169.187598,25.444995 168.9876,24.340006 168.9876,23.14 C168.9876,21.9599941 169.187598,20.865005 169.5876,19.855 C169.987602,18.844995 170.552596,17.9650037 171.2826,17.215 C172.012604,16.4649963 172.872595,15.8850021 173.8626,15.475 C174.852605,15.064998 175.927594,14.86 177.0876,14.86 C178.227606,14.86 179.282595,15.064998 180.2526,15.475 C181.222605,15.8850021 182.067596,16.4649963 182.7876,17.215 C183.507604,17.9650037 184.067598,18.839995 184.4676,19.84 C184.867602,20.840005 185.0676,21.939994 185.0676,23.14 C185.0676,24.340006 184.867602,25.444995 184.4676,26.455 C184.067598,27.4650051 183.502604,28.3449963 182.7726,29.095 C182.042596,29.8450037 181.182605,30.4249979 180.1926,30.835 C179.202595,31.245002 178.127606,31.45 176.9676,31.45 Z M177.0276,28.33 C177.887604,28.33 178.657597,28.1050022 179.3376,27.655 C180.017603,27.2049978 180.552598,26.5900039 180.9426,25.81 C181.332602,25.0299961 181.5276,24.140005 181.5276,23.14 C181.5276,22.139995 181.332602,21.2550038 180.9426,20.485 C180.552598,19.7149961 180.017603,19.1050022 179.3376,18.655 C178.657597,18.2049978 177.887604,17.98 177.0276,17.98 C176.167596,17.98 175.397603,18.2049978 174.7176,18.655 C174.037597,19.1050022 173.502602,19.7149961 173.1126,20.485 C172.722598,21.2550038 172.5276,22.139995 172.5276,23.14 C172.5276,24.140005 172.722598,25.0299961 173.1126,25.81 C173.502602,26.5900039 174.037597,27.2049978 174.7176,27.655 C175.397603,28.1050022 176.167596,28.33 177.0276,28.33 Z M188.08464,31 L188.08464,15.31 L191.23464,15.31 L191.35464,17.47 C191.814642,16.669996 192.459636,16.0350024 193.28964,15.565 C194.119644,15.0949976 195.074635,14.86 196.15464,14.86 C197.334646,14.86 198.359636,15.1399972 199.22964,15.7 C200.099644,16.2600028 200.774638,17.0499949 201.25464,18.07 C201.734642,19.0900051 201.97464,20.2899931 201.97464,21.67 L201.97464,31 L198.52464,31 L198.52464,22.06 C198.52464,20.7799936 198.239643,19.7800036 197.66964,19.06 C197.099637,18.3399964 196.304645,17.98 195.28464,17.98 C194.564636,17.98 193.919643,18.1499983 193.34964,18.49 C192.779637,18.8300017 192.334642,19.2899971 192.01464,19.87 C191.694638,20.4500029 191.53464,21.1199962 191.53464,21.88 L191.53464,31 L188.08464,31 Z M205.68168,31 L205.68168,8.68 L209.13168,8.68 L209.13168,31 L205.68168,31 Z M216.64872,10.93 C216.64872,11.3100019 216.553721,11.6599984 216.36372,11.98 C216.173719,12.3000016 215.918722,12.554999 215.59872,12.745 C215.278718,12.935001 214.928722,13.03 214.54872,13.03 C214.168718,13.03 213.818722,12.935001 213.49872,12.745 C213.178718,12.554999 212.923721,12.3000016 212.73372,11.98 C212.543719,11.6599984 212.44872,11.3100019 212.44872,10.93 C212.44872,10.5499981 212.543719,10.2000016 212.73372,9.88 C212.923721,9.5599984 213.178718,9.30500095 213.49872,9.115 C213.818722,8.92499905 214.168718,8.83 214.54872,8.83 C214.928722,8.83 215.278718,8.92499905 215.59872,9.115 C215.918722,9.30500095 216.173719,9.5599984 216.36372,9.88 C216.553721,10.2000016 216.64872,10.5499981 216.64872,10.93 Z M212.83872,31 L212.83872,15.31 L216.28872,15.31 L216.28872,31 L212.83872,31 Z M219.99576,31 L219.99576,15.31 L223.14576,15.31 L223.26576,17.47 C223.725762,16.669996 224.370756,16.0350024 225.20076,15.565 C226.030764,15.0949976 226.985755,14.86 228.06576,14.86 C229.245766,14.86 230.270756,15.1399972 231.14076,15.7 C232.010764,16.2600028 232.685758,17.0499949 233.16576,18.07 C233.645762,19.0900051 233.88576,20.2899931 233.88576,21.67 L233.88576,31 L230.43576,31 L230.43576,22.06 C230.43576,20.7799936 230.150763,19.7800036 229.58076,19.06 C229.010757,18.3399964 228.215765,17.98 227.19576,17.98 C226.475756,17.98 225.830763,18.1499983 225.26076,18.49 C224.690757,18.8300017 224.245762,19.2899971 223.92576,19.87 C223.605758,20.4500029 223.44576,21.1199962 223.44576,21.88 L223.44576,31 L219.99576,31 Z M244.8828,31.45 C243.722794,31.45 242.657805,31.245002 241.6878,30.835 C240.717795,30.4249979 239.872804,29.8500037 239.1528,29.11 C238.432796,28.3699963 237.877802,27.495005 237.4878,26.485 C237.097798,25.4749949 236.9028,24.3600061 236.9028,23.14 C236.9028,21.9599941 237.097798,20.870005 237.4878,19.87 C237.877802,18.869995 238.417796,17.9950038 239.1078,17.245 C239.797803,16.4949962 240.612795,15.9100021 241.5528,15.49 C242.492805,15.0699979 243.512794,14.86 244.6128,14.86 C245.712805,14.86 246.717795,15.054998 247.6278,15.445 C248.537804,15.8350019 249.327797,16.3899964 249.9978,17.11 C250.667803,17.8300036 251.182798,18.684995 251.5428,19.675 C251.902802,20.665005 252.0828,21.759994 252.0828,22.96 L252.0828,23.98 L240.4728,23.98 C240.5728,24.9000046 240.817798,25.6949967 241.2078,26.365 C241.597802,27.0350034 242.102797,27.5499982 242.7228,27.91 C243.342803,28.2700018 244.062796,28.45 244.8828,28.45 C246.522808,28.45 247.802795,27.7200073 248.7228,26.26 L251.7528,27.43 C251.392798,28.2500041 250.867803,28.9649969 250.1778,29.575 C249.487796,30.185003 248.687804,30.6499984 247.7778,30.97 C246.867795,31.2900016 245.902805,31.45 244.8828,31.45 Z M244.6128,17.65 C243.912796,17.65 243.287803,17.8099984 242.7378,18.13 C242.187797,18.4500016 241.722802,18.8999971 241.3428,19.48 C240.962798,20.0600029 240.702801,20.7399961 240.5628,21.52 L248.4828,21.52 C248.362799,20.7399961 248.132802,20.0600029 247.7928,19.48 C247.452798,18.8999971 247.007803,18.4500016 246.4578,18.13 C245.907797,17.8099984 245.292803,17.65 244.6128,17.65 Z" id=".online" fill="#333333" fill-rule="nonzero"></path>
                <rect id="Rectangle" fill="#04E887" x="211.4052" y="8" width="6" height="6"></rect>
            </g>
        </g>
    </g>
</svg>