<?xml version="1.0" encoding="UTF-8"?>
<svg width="101px" height="106px" viewBox="0 0 101 106" version="1.1" xmlns="http://www.w3.org/2000/svg" xmlns:xlink="http://www.w3.org/1999/xlink">
    <!-- Generator: Sketch 53.1 (72631) - https://sketchapp.com -->
    <title>Group</title>
    <desc>Created with Sketch.</desc>
    <g id="Page-1" stroke="none" stroke-width="1" fill="none" fill-rule="evenodd">
        <g id="Artboard" transform="translate(-1326.000000, -334.000000)">
            <g id="Group" transform="translate(1326.000000, 334.000000)">
                <rect id="Rectangle" fill="#242424" x="0" y="0" width="101" height="106" rx="8"></rect>
                <g id="copy" transform="translate(24.000000, 21.000000)" fill="#6875F5" fill-rule="nonzero">
                    <path d="M46.5507077,0 L19.572396,0 C15.6536014,0 12.4652638,3.22729263 12.4652638,7.19396691 L12.4652638,8.07689379 L7.76466639,8.07689379 C3.84587185,8.07689379 0.657534247,11.3041864 0.657534247,15.2708607 L0.657534247,57.8060331 C0.657534247,61.7727074 3.84587185,65 7.76466639,65 L34.7429782,65 C38.6617727,65 41.8498047,61.7727074 41.8498047,57.8060331 L41.8498047,56.9231062 L46.5504021,56.9231062 C50.4691966,56.9231062 53.6575342,53.6958136 53.6575342,49.7291393 L53.6575342,7.19396691 C53.6578399,3.22729263 50.4695023,0 46.5507077,0 Z M37.2656525,57.8060331 C37.2656525,59.2139519 36.1339027,60.3595294 34.7432838,60.3595294 L7.76466639,60.3595294 C6.37374189,60.3595294 5.24199207,59.2139519 5.24199207,57.8060331 L5.24199207,15.2705513 C5.24199207,13.8626326 6.37374189,12.717055 7.76466639,12.717055 L34.7429782,12.717055 C36.1339027,12.717055 37.2653469,13.8626326 37.2653469,15.2705513 L37.2653469,57.8060331 L37.2656525,57.8060331 Z M49.0733821,49.7291393 C49.0733821,51.1370581 47.9416322,52.2826356 46.5507077,52.2826356 L41.8501103,52.2826356 L41.8501103,15.2705513 C41.8501103,11.3038771 38.6617727,8.07658442 34.7432838,8.07658442 L17.0497216,8.07658442 L17.0497216,7.19365755 C17.0497216,5.78573876 18.1814715,4.64016125 19.572396,4.64016125 L46.5507077,4.64016125 C47.9416322,4.64016125 49.0733821,5.78573876 49.0733821,7.19365755 L49.0733821,49.7291393 Z" id="Shape"></path>
                </g>
            </g>
        </g>
    </g>
</svg>