<svg width="101" height="106" xmlns="http://www.w3.org/2000/svg"><g fill="none" fill-rule="evenodd"><rect fill="#242424" width="101" height="106" rx="8"/><path d="M70.55 21H43.573c-3.918 0-7.107 3.227-7.107 7.194v.883h-4.7c-3.92 0-7.107 3.227-7.107 7.194v42.535c0 3.967 3.188 7.194 7.107 7.194h26.978c3.919 0 7.107-3.227 7.107-7.194v-.883h4.7c3.92 0 7.108-3.227 7.108-7.194V28.194c0-3.967-3.188-7.194-7.107-7.194zm-9.284 57.806c0 1.408-1.132 2.554-2.523 2.554H31.765c-1.391 0-2.523-1.146-2.523-2.554V36.271c0-1.408 1.132-2.554 2.523-2.554h26.978c1.39 0 2.522 1.146 2.522 2.554v42.535zm11.807-8.077c0 1.408-1.131 2.554-2.522 2.554h-4.7V36.27c0-3.967-3.19-7.194-7.108-7.194H41.05v-.883c0-1.408 1.131-2.554 2.522-2.554h26.979c1.39 0 2.522 1.146 2.522 2.554v42.535z" fill="#6875F5" fill-rule="nonzero"/></g></svg>