<?xml version="1.0" encoding="UTF-8"?>
<svg width="92px" height="160px" viewBox="0 0 92 160" version="1.1" xmlns="http://www.w3.org/2000/svg" xmlns:xlink="http://www.w3.org/1999/xlink">
    <!-- Generator: Sketch 53.1 (72631) - https://sketchapp.com -->
    <title>Larry__Searching</title>
    <desc>Created with Sketch.</desc>
    <g id="Page-1" stroke="none" stroke-width="1" fill="none" fill-rule="evenodd">
        <g id="Larry__Searching" fill="#FFFFFF" fill-rule="nonzero">
            <path d="M47.42,13.92 C47.1333179,14.1728797 47.0902762,14.6040992 47.3213185,14.9086549 C47.5523608,15.2132107 47.9792302,15.2879459 48.3,15.08 C48.5296506,14.9311241 48.6567353,14.6663006 48.6291988,14.3940045 C48.6016622,14.1217084 48.4241309,13.8876899 48.1693239,13.7878059 C47.914517,13.6879218 47.625246,13.7389544 47.42,13.92 L47.42,13.92 Z" id="Path"></path>
            <path d="M41.8,14.13 C41.9927129,14.0025765 42.046329,13.7434322 41.92,13.55 C41.8606647,13.4580959 41.7670624,13.393715 41.660015,13.3711787 C41.5529676,13.3486424 41.441353,13.3698198 41.35,13.43 C41.2557854,13.4896199 41.1891427,13.5842544 41.1647577,13.6930491 C41.1403726,13.8018439 41.1602466,13.91587 41.22,14.01 C41.3505789,14.1979961 41.6055432,14.2507473 41.8,14.13 L41.8,14.13 Z" id="Path"></path>
            <path d="M92,149.61 L91.38,147.81 C91.3519673,147.734849 91.3034739,147.669036 91.24,147.62 C91.1092666,146.653722 90.5889819,145.782968 89.8,145.21 C88.6724293,144.543156 87.3212997,144.366137 86.06,144.72 C83.2817647,145.179085 80.462428,145.339999 77.65,145.2 C76.6499084,145.144851 75.6470868,145.164907 74.65,145.26 C74.49,141.9 71.95,127.91 69.28,113.13 L68.64,109.61 C68.44,108.51 62.17,95.16 57.18,85.61 L58.18,85.61 C58.29873,85.6104207 58.4118122,85.5593513 58.49,85.47 C58.574669,85.3858835 58.6184822,85.2690483 58.61,85.15 C58.39,81.68 53.91,54.01 52.97,48.21 C57.66,51.51 66.79,57.57 68.31,55.96 C71.89,52.18 69.99,32.96 69.19,26.13 C69.2907502,26.1763726 69.3992804,26.2035051 69.51,26.21 C69.6185142,26.2087856 69.7262876,26.191946 69.83,26.16 C70.0894321,26.074521 70.3026066,25.8866384 70.42,25.64 L70.85,24.78 C70.9802033,24.5374521 71.0046603,24.2519568 70.9176073,23.9907976 C70.8305542,23.7296384 70.6396914,23.5159163 70.39,23.4 L69.24,22.84 L68.7,22.6 C68.6885757,21.3005172 67.9776862,20.1080574 66.84,19.48 C66.4743152,19.2995462 66.0577578,19.2501241 65.66,19.34 C65.6344279,19.1815008 65.5728497,19.0309765 65.48,18.9 C65.0856298,18.4616237 64.4852482,18.2704194 63.91,18.4 C63.5902583,17.999148 63.1206608,17.7462878 62.61,17.7 C61.951796,17.6527644 61.3035255,17.8809267 60.82,18.33 C60.726369,18.4237453 60.6394856,18.5239954 60.56,18.63 L59.06,17.88 C58.7879724,17.7504385 58.4720276,17.7504385 58.2,17.88 C58.1523919,17.8259536 58.094632,17.7817843 58.03,17.75 L56.48,17 L56.48,17 C57.0728521,15.3990761 56.9861586,13.6254733 56.24,12.09 C55.3487147,10.2850493 53.6520669,9.01163528 51.67,8.66 L51.67,8.66 C51.0961036,8.58006173 50.5138964,8.58006173 49.94,8.66 C49.4790069,7.4097808 48.9378845,6.1905852 48.32,5.01 C47.9185556,4.22880552 47.4571742,3.47989665 46.94,2.77 C45.48,0.77 43.94,-0.11 42.47,0.12 C40.56,0.42 38.98,1.82 37.77,4.27 C29.89,4.22 28.77,5.27 28.66,6.12 C28.6051223,6.51585556 28.7297963,6.91554597 29,7.21 C30.0229125,7.82037114 31.2145571,8.08673876 32.4,7.97 C33.7401097,7.95153324 35.0770477,7.83455117 36.4,7.62 C36.3533333,7.80666667 36.3133333,7.97666667 36.28,8.13 C35.6146818,7.66530366 34.719981,7.70634498 34.1,8.23 C32.87,9.17 32.21,11.45 32.86,12.5 C33.3543631,13.184101 34.1682988,13.5626758 35.01,13.5 L35.08,13.5 C34.34,17.56 34,21.24 33.65,25.13 C33.53,26.44 33.4,27.77 33.26,29.13 C32.4106184,29.5296423 31.8334973,30.345965 31.74,31.28 L24,32.67 C23.9672647,32.6610707 23.9327353,32.6610707 23.9,32.67 C4.58,41.29 -1.33,63.15 4.14,79.31 C4.18745756,79.4309017 4.28097459,79.5280155 4.4,79.58 C4.2678478,80.4665813 4.31202575,81.3705302 4.53,82.24 C5.03025958,84.0174517 4.87772507,85.9152648 4.1,87.59 C3.67767428,88.2920207 3.7500932,89.1851874 4.28,89.81 C4.49782993,90.0258019 4.79340953,90.1447546 5.1,90.14 C5.36676221,90.1336598 5.62782784,90.0615232 5.86,89.93 C5.96107394,90.201245 6.12973474,90.442189 6.35,90.63 C6.54480713,90.7729028 6.77849688,90.8531246 7.02,90.86 C7.56299344,90.796567 8.05361217,90.50583 8.37,90.06 C8.59645795,90.1635433 8.84114461,90.2213165 9.09,90.23 C9.55165997,90.2234672 9.99684098,90.0574077 10.35,89.76 C11.4332051,88.6859042 12.0294481,87.2151714 12,85.69 C12.3817053,85.6389034 12.7345114,85.4589723 13,85.18 C13.3803791,84.7353061 13.5547644,84.1503889 13.48,83.57 L13.48,83.44 C13.3762083,82.4936532 13.1160032,81.5711076 12.71,80.71 C12.2729413,79.6245444 11.6312993,78.6332245 10.82,77.79 C11.33,77.52 11.3,77.33 11.28,77.14 C8.72,57.64 20.28,47.98 23.43,45.75 C21.17,60.55 18.53,79.09 18.43,85.44 C18.4256653,85.555439 18.4690697,85.6675668 18.55,85.75 C18.633069,85.829939 18.7447584,85.8731736 18.86,85.87 L19.77,85.87 C19.77,85.87 19.77,85.87 19.77,85.87 C19.77,88.63 19.77,91.58 19.77,94.56 C18.458571,94.5948562 17.1488351,94.4433444 15.88,94.11 C15.7711575,94.0765526 15.6533076,94.0898751 15.5546787,94.1467764 C15.4560497,94.2036777 15.3855261,94.2990322 15.36,94.41 C15.326418,94.5201242 15.3395149,94.6392059 15.3962281,94.7393992 C15.4529413,94.8395925 15.5482979,94.912112 15.66,94.94 C16.8768407,95.2654638 18.1304025,95.4335016 19.39,95.44 L19.76,95.44 C19.58,105.7 18.9,111.92 17.68,114.44 C13.78,122.44 4.87,144.91 4.45,145.97 C4.45,145.97 4.45,146.02 4.39,146.06 L1.17,152.47 L1.17,152.47 L0.08,154.47 C0.0355377775,154.578973 0.0355377775,154.701027 0.08,154.81 C0.115589401,154.925777 0.199429348,155.020553 0.31,155.07 L10.71,159.88 C10.7694632,159.891351 10.8305368,159.891351 10.89,159.88 L23.45,159.88 L23.45,159.88 C23.6874824,159.88 23.88,159.687482 23.88,159.45 L23.88,157.55 C23.8890014,157.510506 23.8890014,157.469494 23.88,157.43 C23.8953274,157.37437 23.8953274,157.31563 23.88,157.26 C23.61,155.39 20.96,152.76 17.43,152.88 C16.75,152.88 16.38,152.5 15.65,151.65 C14.8682674,150.672043 13.9327285,149.827694 12.88,149.15 C16,146.5 30,131.16 35.78,123.32 C37.96,120.38 39.93,112.97 41.78,105.45 C44.22,108.64 52.37,119.56 52.71,120.23 C53.98,122.96 57.63,130.54 60.85,137.23 C63.56,142.84 65.85,147.69 66.3,148.59 L66.42,148.78 L68.7,155.45 L68.7,155.45 C68.6851228,155.51246 68.6851228,155.57754 68.7,155.64 L68.7,155.64 L69.3,157.4 C69.3418984,157.506462 69.4197294,157.594906 69.52,157.65 C69.5829028,157.660444 69.6470972,157.660444 69.71,157.65 C69.7561904,157.659429 69.8038096,157.659429 69.85,157.65 L91.59,150.12 C91.7134304,150.110153 91.8273492,150.04988 91.9049311,149.953376 C91.982513,149.856872 92.0169019,149.732664 92,149.61 Z M47.7,20.34 C48.1910612,20.6014004 48.7160901,20.7932379 49.26,20.91 C49.6933602,21.0060043 50.1361429,21.0529661 50.58,21.05 C52.3779479,21.0458166 54.0855357,20.2613478 55.26,18.9 C55.3098522,18.954375 55.3670748,19.0014994 55.43,19.04 L56.97,19.82 C57.0362675,19.8303178 57.1037325,19.8303178 57.17,19.82 C57.2242792,20.1243171 57.4162457,20.3864253 57.69,20.53 L59.14,21.27 C58.8867826,21.9189751 58.9769755,22.6517931 59.38,23.22 C59.2842922,24.1774274 59.621765,25.1274867 60.3,25.81 C60.9493082,26.3316175 61.7683456,26.5951339 62.6,26.55 C62.82,26.55 63.04,26.55 63.25,26.55 C63.33,33.73 63.13,40.45 62.97,42.76 C62.59,42.27 62.06,41.55 61.54,40.84 C59.89,38.58 57.64,35.49 55.46,33.08 C53.51,30.9 47.39,31.08 45.9,31.13 L45.9,31.08 C45.6903529,30.2954752 45.2036778,29.6134196 44.53,29.16 C44.4198646,29.1007822 44.3020883,29.0570368 44.18,29.03 C43.7286061,27.699365 43.5950413,26.2815233 43.79,24.89 C43.79,24.65 43.79,24.38 43.79,24.11 L44.03,24.11 C44.9,23.83 46.47,22.06 47.7,20.34 Z M62.15,20.94 L62.26,20.94 C62.41,20.94 62.55,21.04 62.56,21.32 C62.4675286,21.4608846 62.3565342,21.5886963 62.23,21.7 C61.9077976,21.9874312 61.6342583,22.325134 61.42,22.7 C61.22961,23.0948293 61.146821,23.5329214 61.18,23.97 C61.1851827,24.0840866 61.2355369,24.1914252 61.3199563,24.2683406 C61.4043757,24.3452561 61.5159249,24.3854295 61.63,24.38 C61.7586321,24.3722683 61.8765954,24.305914 61.95,24.2 C62.1793472,24.3774332 62.460062,24.4756833 62.75,24.48 L62.94,24.48 C63.1356531,24.8023481 63.4663658,25.0191486 63.84,25.07 L64.04,25.07 C64.5590271,25.0714203 65.0314634,24.770779 65.25,24.3 L66.62,24.92 C66.0260008,25.1407297 65.4025541,25.2721591 64.77,25.31 L64.63,25.31 C64.3032842,25.420372 63.9691001,25.5072599 63.63,25.57 C62.7094797,25.8107781 61.7301849,25.6548163 60.93,25.14 C60.4068483,24.5789605 60.1740612,23.8066984 60.3,23.05 C60.3847964,22.2900434 60.7745753,21.5971032 61.38,21.13 C61.6118546,20.9910017 61.8800993,20.9248114 62.15,20.94 Z M70,24.17 C70.08,24.17 70.11,24.3 70,24.45 L69.6,25.25 C69.5789307,25.2852791 69.547506,25.3132122 69.51,25.33 C69.4713299,25.344587 69.4286701,25.344587 69.39,25.33 L65.45,23.52 C65.55,23.11 65.69,22.64 65.92,22.52 C65.92,22.52 66.05,22.45 66.31,22.52 L66.31,22.52 L68.01,23.25 L70,24.17 Z M66.47,20.26 C67.2017759,20.681918 67.6939246,21.4219911 67.8,22.26 L66.59,21.73 L66.59,21.73 C66.2697806,21.5977682 65.9102194,21.5977682 65.59,21.73 C64.97,22.07 64.78,22.91 64.59,23.59 L64.51,23.95 C64.4201405,24.1612125 64.1957057,24.2817424 63.97,24.24 C63.74,24.24 63.63,24.03 63.63,23.73 C63.9405093,22.6516211 64.4380733,21.6361843 65.1,20.73 C65.63,20.06 66,20.05 66.46,20.26 L66.47,20.26 Z M64.77,19.41 C64.87,19.54 64.77,19.73 64.66,19.88 L64.42,20.22 L64.42,20.22 C63.6683621,21.2374679 63.1153639,22.3875685 62.79,23.61 L62.79,23.61 L62.79,23.61 C62.6844027,23.5909157 62.5829049,23.5536998 62.49,23.5 C62.3355947,23.371083 62.2693889,23.1646769 62.32,22.97 L62.32,22.97 C62.4800487,22.7137977 62.6715372,22.4786364 62.89,22.27 C63.2089249,22.0287883 63.4149588,21.6673254 63.46,21.27 C63.4708182,20.81465 63.2229081,20.3924281 62.82,20.18 C63.0262598,19.8083172 63.3306715,19.5004463 63.7,19.29 L63.85,19.23 C64.162899,19.112274 64.5154832,19.1820159 64.76,19.41 L64.77,19.41 Z M61.42,18.93 C61.7211655,18.661447 62.1172886,18.5246044 62.52,18.55 C62.6998604,18.5708224 62.8717008,18.6361218 63.02,18.74 C62.5317146,19.0807205 62.1447086,19.547201 61.9,20.09 C61.5168548,20.1314656 61.1513239,20.2728502 60.84,20.5 C60.5192721,20.7311535 60.2473955,21.0234209 60.04,21.36 C60.2770503,20.6711797 60.6139787,20.0209079 61.04,19.43 C61.1528369,19.2558159 61.2764093,19.0888262 61.41,18.93 L61.42,18.93 Z M58.66,18.65 L60.05,19.33 C59.8187456,19.7013281 59.6148719,20.0890225 59.44,20.49 L58.09,19.8 C58.02,19.8 57.98,19.66 58.09,19.51 L58.09,19.45 L58.39,18.86 L58.44,18.74 L58.44,18.74 C58.4530026,18.6979902 58.4837851,18.6638024 58.5242054,18.6464794 C58.5646258,18.6291564 58.6106118,18.6304434 58.65,18.65 L58.66,18.65 Z M57.6,18.49 L57.33,19.03 L55.84,18.31 L56.09,17.74 L57.6,18.49 Z M55.42,12.42 C56.1802047,13.9682568 56.1504431,15.7874389 55.34,17.31 C54.8119058,18.324941 53.9701238,19.1421711 52.94,19.64 C52.0354487,20.0742799 51.027631,20.2474445 50.03,20.14 C51.2,18.4 53.27,14.92 52.9,12.52 C52.72693,11.5383247 52.476141,10.571951 52.15,9.63 C53.5759667,10.0687406 54.7562972,11.0789008 55.41,12.42 L55.42,12.42 Z M50.57,9.42 C50.7742629,9.42215629 50.9781124,9.43886527 51.18,9.47 C51.5586167,10.5139904 51.8496226,11.5877018 52.05,12.68 C52.29,14.26 51.19,16.99 49.05,19.99 C48.5902263,19.8674654 48.1494464,19.6824051 47.74,19.44 C46.8435847,18.910086 46.1235054,18.1273911 45.67,17.19 C45.0392142,15.9040531 44.9462061,14.4199206 45.4115108,13.0652835 C45.8768155,11.7106464 46.8621634,10.5969187 48.15,9.97 C48.5327622,9.78248161 48.9352521,9.63825605 49.35,9.54 L49.58,9.54 C49.9007553,9.45699649 50.2291022,9.40673932 50.56,9.39 L50.57,9.42 Z M42.57,0.93 C43.74,0.75 44.96,1.53 46.22,3.24 C46.5514521,3.70370671 46.8585345,4.1843574 47.14,4.68 C43.79,4.43 40.95,4.28 38.7,4.23 C39.7,2.25 41,1.13 42.52,0.9 L42.57,0.93 Z M29.61,6.56 C29.4783964,6.45896592 29.4130637,6.29371263 29.44,6.13 C29.44,6.08 29.65,5.06 37.31,5.06 C37.22,5.27 37.12,5.49 37.04,5.7 C36.96,5.91 36.8,6.39 36.7,6.7 C35.19,7 30.67,7.52 29.61,6.56 Z M36,13.38 C36.1085812,13.3572792 36.2154939,13.32721 36.32,13.29 C36.4269247,13.2459164 36.5115832,13.1606184 36.5548609,13.0533649 C36.5981386,12.9461115 36.5963865,12.825946 36.55,12.72 C36.453917,12.501335 36.2009332,12.3992538 35.98,12.49 C35.8264862,12.5565617 35.6652264,12.6035958 35.5,12.63 C34.8137945,12.8238662 34.0777094,12.5967761 33.62,12.05 C33.23,11.42 33.72,9.63 34.62,8.92 C35.14,8.52 35.62,8.6 36.19,9.17 C36.4568855,9.47631572 36.6883501,9.8117717 36.88,10.17 C36.9328887,10.2709575 37.0245355,10.3460862 37.1339063,10.3781432 C37.2432771,10.4102002 37.3609798,10.3964325 37.46,10.34 C37.6696014,10.2293213 37.7501115,9.96989988 37.64,9.76 C37.461435,9.40565198 37.2469783,9.0705635 37,8.76 L37,8.7 C37.07,8.41 37.19,7.85 37.39,7.15 C37.5,6.78 37.63,6.37 37.79,5.95 C37.95,5.53 38.04,5.33 38.18,5.01 C40.5933333,5.01 43.71,5.17666667 47.53,5.51 C48.0588634,6.53808987 48.5263492,7.59661121 48.93,8.68 C48.5230648,8.78282444 48.1276837,8.92690398 47.75,9.11 C45.2316506,10.3441614 43.8391474,13.1005825 44.34,15.86 L44.34,15.86 C44.34,17.03 44.11,17.32 43.99,17.38 C43.87,17.44 43.72,17.38 43.49,17.25 C43.3926099,17.1887141 43.2743402,17.1700699 43.1628193,17.1984226 C43.0512984,17.2267754 42.9562942,17.2996418 42.9,17.4 C42.8423614,17.4993151 42.8268402,17.6175583 42.8568948,17.7283845 C42.8869493,17.8392106 42.9600825,17.933412 43.06,17.99 C43.3144623,18.1536027 43.6077717,18.2467716 43.91,18.26 C44.0838971,18.2608378 44.255425,18.2196711 44.41,18.14 C44.6367209,18.0033251 44.8123627,17.7960678 44.91,17.55 C45.3765831,18.4645658 46.0640173,19.2482408 46.91,19.83 C45.4,21.93 44.15,23.07 43.76,23.18 C43.6129416,23.2211631 43.462235,23.2479554 43.31,23.26 C41.44,23.41 39.18,21.45 38.55,19.73 C38.5118539,19.622667 38.4317474,19.5354316 38.3280476,19.4882953 C38.2243477,19.441159 38.1059497,19.4381651 38,19.48 C37.8925584,19.5184176 37.8047914,19.5979635 37.7560259,19.7011213 C37.7072604,19.8042792 37.7014953,19.9225896 37.74,20.03 C38.6163667,22.2035402 40.5736116,23.7541342 42.89,24.11 C42.89,24.34 42.89,24.57 42.89,24.78 C42.7225065,26.1183064 42.814174,27.4763426 43.16,28.78 C40.1639426,28.5136999 37.1486539,28.5505534 34.16,28.89 C34.2866667,27.6166667 34.4066667,26.3766667 34.52,25.17 C34.91,21.27 35.25,17.52 36,13.38 Z M10,78.21 C10.8244637,79.0195269 11.4685362,79.9941551 11.89,81.07 C12.2626173,81.850863 12.4993438,82.6895512 12.59,83.55 L12.59,83.68 C12.6356462,84.0048248 12.5451898,84.3340862 12.34,84.59 C12.2271666,84.7082722 12.0804235,84.7886315 11.92,84.82 C11.8693082,83.9350029 11.7011682,83.0606747 11.42,82.22 C11.3836093,82.1107285 11.3049045,82.0206227 11.2015186,81.9698696 C11.0981326,81.9191165 10.9787079,81.9119587 10.87,81.95 C10.64617,82.0302589 10.5265997,82.273828 10.6,82.5 C11.6,85.37 10.93,88.15 9.76,89.08 C9.51721333,89.2951224 9.18929161,89.3872352 8.87,89.33 C10.084714,87.4870789 10.4042968,85.1948985 9.74,83.09 C9.67648725,82.8608018 9.43919817,82.7264873 9.21,82.79 C8.98080183,82.8535127 8.84648725,83.0908018 8.91,83.32 C9.53338937,85.2792321 9.19612237,87.4177273 8,89.09 L7.86,89.28 C7.6,89.62 7.12,90.15 6.86,89.93 C6.77,89.87 6.45,89.43 6.69,89.09 C6.69811823,89.0470469 6.69811823,89.0029531 6.69,88.96 C7.54,87.5 8.1,84.89 7.69,83.56 C7.6138828,83.3372413 7.37592004,83.2138532 7.15,83.28 C7.03889478,83.3143073 6.94642054,83.3921496 6.89366565,83.4957752 C6.84091075,83.5994009 6.83237322,83.7199746 6.87,83.83 C7.35,85.34 6.18,88.83 5.44,89.15 C5.25,89.26 4.99,89.35 4.83,89.15 C4.59515059,88.7844714 4.59515059,88.3155286 4.83,87.95 C5.69222432,86.1058015 5.87635891,84.0165821 5.35,82.05 C5.0652928,81.1827692 5.0652928,80.2472308 5.35,79.38 C6.92002183,79.049821 8.47206324,78.639281 10,78.15 L10,78.21 Z M23,159.13 L11,159.13 L1.11,154.56 L1.79,153.29 L11.18,157.85 C11.2391792,157.864036 11.3008208,157.864036 11.36,157.85 L23.05,158.08 L23,159.13 Z M53.5,119.86 C53.14,119.09 43.66,106.44 42.05,104.38 L42.68,101.78 C43.59,97.99 44.45,94.42 45.29,91.45 C45.3328719,91.3017348 45.2933886,91.1418602 45.1864231,91.0305994 C45.0794576,90.9193387 44.9212604,90.8735949 44.771423,90.9105994 C44.6215857,90.9476039 44.5028719,91.0617348 44.46,91.21 C43.61,94.21 42.75,97.78 41.84,101.57 L41.27,103.94 C41.2230097,103.954299 41.1812726,103.982124 41.15,104.02 C41.0117912,104.181084 41.0117912,104.418916 41.15,104.58 C39.37,111.91 37.3,119.9 35.15,122.81 C28.83,131.35 14.26,147.1 12.15,148.81 L11.91,148.68 L5.35,146 C6.47,143.19 14.74,122.44 18.45,114.8 C19.74,112.12 20.45,105.94 20.61,95.36 C24.38,95 27,93 28,89.58 C28.0341128,89.4699328 28.022621,89.3507793 27.9681015,89.2492603 C27.9135821,89.1477413 27.8205974,89.0723524 27.71,89.04 C27.4789479,88.9811517 27.2420997,89.112734 27.17,89.34 C26.3295285,92.2817283 23.7150435,94.3660873 20.66,94.53 C20.66,91.53 20.66,88.63 20.66,85.89 L20.66,85.89 L56.15,85.64 C61.15,95.23 67.57,108.87 67.74,109.8 L68.38,113.32 C71,127.78 73.7,142.72 73.74,145.56 C72.97,145.9 69.93,146.93 66.91,147.91 C66.23,146.45 64.08,141.98 61.62,136.91 C58.4,130.17 54.75,122.59 53.48,119.86 L53.5,119.86 Z M70.1,156.74 L69.76,155.74 L90.68,148.48 L91.02,149.48 L70.1,156.74 Z" id="Shape"></path>
            <path d="M46.61,11.35 C46.4608781,11.4156133 46.3441994,11.5381524 46.2859669,11.6903083 C46.2277344,11.8424642 46.2327875,12.011592 46.3,12.16 C46.4408821,12.4719882 46.8079569,12.6107604 47.12,12.47 C47.7118117,12.284153 48.3545798,12.3567822 48.89,12.67 C49.0045334,12.7748448 49.1547387,12.8320659 49.31,12.83 C49.4839165,12.8275642 49.6496015,12.7555272 49.77,12.63 C50.0023817,12.3865528 50.0023817,12.0034472 49.77,11.76 C48.8575358,11.0883247 47.6636614,10.9334233 46.61,11.35 L46.61,11.35 Z" id="Path"></path>
            <path d="M35.67,10.29 C35.2913516,10.5662572 34.827704,10.7007504 34.36,10.67 C34.2453109,10.6530231 34.1287054,10.68421 34.0378041,10.7561736 C33.9469027,10.8281371 33.8897921,10.9344754 33.88,11.05 C33.8688832,11.1641479 33.9038271,11.2780069 33.9770637,11.3662663 C34.0503002,11.4545258 34.1557602,11.5098714 34.27,11.52 L34.51,11.52 C35.1101311,11.5234285 35.6967433,11.341858 36.19,11 C36.2826564,10.9305468 36.3433846,10.8266587 36.3584421,10.7118449 C36.3734997,10.597031 36.3416138,10.4809968 36.27,10.39 C36.2054905,10.2948646 36.1048091,10.2303252 35.9914286,10.2114285 C35.8780481,10.1925317 35.7618772,10.2209291 35.67,10.29 Z" id="Path"></path>
            <path d="M40.21,11.4 C40.8434,11.102156 41.5766,11.102156 42.21,11.4 C42.2811854,11.4555154 42.3698096,11.4838751 42.46,11.48 C42.6469938,11.480087 42.8126075,11.3593149 42.8696815,11.1812441 C42.9267555,11.0031732 42.8622043,10.8086303 42.71,10.7 C41.7901005,10.2146198 40.6898995,10.2146198 39.77,10.7 C39.6378117,10.7803847 39.5585495,10.9251849 39.5620706,11.0798557 C39.5655917,11.2345265 39.6513612,11.3755697 39.7870706,11.4498557 C39.92278,11.5241418 40.0878117,11.5203848 40.22,11.44 L40.21,11.4 Z" id="Path"></path>
            <path d="M41.53,20 C41.4668223,19.9039443 41.3678092,19.837189 41.2550717,19.8146415 C41.1423342,19.792094 41.0252624,19.8156323 40.93,19.88 C40.7347219,20.0149009 40.6816283,20.2803691 40.81,20.48 C41.2639693,21.1309037 42.0168955,21.5073668 42.81,21.48 L42.81,21.48 C43.3825622,21.5028599 43.9292949,21.2407278 44.27,20.78 C44.3890294,20.5743999 44.3277303,20.3116895 44.13,20.18 C44.0338483,20.1178882 43.9165109,20.0977125 43.8051351,20.1241406 C43.6937592,20.1505688 43.5979955,20.2213109 43.54,20.32 C43.3509989,20.526194 43.07923,20.6363705 42.8,20.62 C42.2981821,20.6456438 41.8184391,20.4114385 41.53,20 L41.53,20 Z" id="Path"></path>
        </g>
    </g>
</svg>