<?xml version="1.0" encoding="UTF-8"?>
<svg width="76px" height="168px" viewBox="0 0 76 168" version="1.1" xmlns="http://www.w3.org/2000/svg" xmlns:xlink="http://www.w3.org/1999/xlink">
    <!-- Generator: Sketch 53.1 (72631) - https://sketchapp.com -->
    <title>Larry__Hello</title>
    <desc>Created with Sketch.</desc>
    <g id="Page-1" stroke="none" stroke-width="1" fill="none" fill-rule="evenodd">
        <g id="Larry__Hello">
            <path d="M38.87,156.93 L47,156.93 C47,155.57 47,153.82 47.06,151.73 C47.12,146.9 47.2,140.35 47.26,133.13 L47.26,133.13 C44.0792176,120.929423 42.1987425,108.426442 41.65,95.83 C41.6497567,95.5945957 41.8348388,95.4007001 42.07,95.39 C42.3035646,95.3986364 42.4952953,95.5775851 42.52,95.81 C42.86,107.03 44.7,119.2 48.13,133.02 C50.29,141.76 52.8,150.02 54.98,156.93 L63.41,156.93 L63.41,154.28 C63.53,140.78 63.72,118.23 63.62,99 C59.4,97.67 57.05,94.69 57.16,90.76 C57.1626215,90.6459467 57.210459,90.53761 57.2929819,90.4588382 C57.3755047,90.3800664 57.4859482,90.3373168 57.6,90.34 C57.7140533,90.3426215 57.82239,90.390459 57.9011618,90.4729819 C57.9799336,90.5555047 58.0226832,90.6659482 58.02,90.78 C57.89,95.45 61.54,97.37 63.62,98.09 C63.62,94.6 63.62,91.23 63.53,88.09 L26.55,88 C27.25,116.75 33.88,141.05 38.87,156.93 Z" id="Path"></path>
            <path d="M45.3,53.47 C44.0593121,53.0464585 42.7492862,52.8631907 41.44,52.93 C40.130757,52.8641674 38.8209144,53.0474096 37.58,53.47 C38.8196413,53.897916 40.1305197,54.0813031 41.44,54.01 C42.7495233,54.0823243 44.0605975,53.8989097 45.3,53.47 L45.3,53.47 Z" id="Path"></path>
            <path d="M40.68,3.68 C33.9,0.93 33.04,1.68 32.94,1.92 C32.8499044,2.06731686 32.8499044,2.25268314 32.94,2.4 C33.67,3.74 38.35,4.85 39.57,5.06 C39.912121,4.57825486 40.2827845,4.11743003 40.68,3.68 L40.68,3.68 Z" id="Path"></path>
            <path d="M47.93,3.24 C47.3094346,2.42775915 46.369672,1.92145294 45.35,1.85 C44.1360593,1.9175947 42.9974202,2.45997485 42.18,3.36 C45.18,4.62 48.01,6 49.49,6.73 C49.2596733,5.45769417 48.7243918,4.26017358 47.93,3.24 L47.93,3.24 Z" id="Path"></path>
            <path d="M41.34,68.59 C42.1549193,68.5746385 42.9659976,68.4740916 43.76,68.29 L43.97,66.44 C43.235286,66.5532618 42.4933637,66.6134177 41.75,66.62 C40.8065558,66.6272175 39.8659158,66.5163564 38.95,66.29 L39.18,68.29 C39.8838594,68.4836561 40.6100064,68.5845099 41.34,68.59 L41.34,68.59 Z" id="Path"></path>
            <path d="M60.88,55.71 L62.88,55.22 C61.65,53.78 60.88,52.76 60.12,51.78 L60.05,51.7 C60.16,52.46 60.31,53.54 60.49,54.91 L60.66,54.91 L60.88,55.71 Z" id="Path"></path>
            <rect id="Rectangle" x="25.02" y="165.35" width="15.29" height="1"></rect>
            <path d="M47.62,64.59 L47.62,64.59 C46.8036682,63.1510825 46.6540045,61.4281239 47.21,59.87 L47.15,59.87 C47.1586722,59.83047 47.1586722,59.78953 47.15,59.75 C47.2307752,59.5600315 47.1915322,59.3402707 47.05,59.19 C47.0175962,59.1116459 46.9616968,59.0452653 46.89,59 L46.89,59 C46.5649855,58.64147 46.1456888,58.3815754 45.68,58.25 L45.61,58.87 C45.61,58.87 45.61,58.87 45.61,58.94 L45.61,58.94 L45.61,59 C45.16,60.19 43.61,60.48 42.25,60.48 C41.579898,60.4760622 40.9111531,60.4192188 40.25,60.31 C39.1893313,60.1287655 38.2071849,59.6342095 37.43,58.89 C37.3449442,58.9094311 37.2680508,58.9548681 37.21,59.02 C37.0810109,59.1455152 37.0118626,59.3202056 37.02,59.5 C37.1236949,60.0393787 37.4705918,60.5006778 37.96,60.75 C39.3083845,61.5171042 40.8822588,61.7894375 42.41,61.52 C42.5636242,61.4967777 42.7179678,61.557277 42.8148909,61.6787083 C42.9118141,61.8001397 42.936592,61.9640548 42.8798909,62.1087083 C42.8231899,62.2533619 42.6936242,62.3567777 42.54,62.38 C42.122702,62.4401793 41.7016149,62.470257 41.28,62.47 C40.0066557,62.4906455 38.7506178,62.1731854 37.64,61.55 C37.4595896,61.526668 37.2777745,61.5812126 37.14,61.7 C37.0459995,61.7702132 36.9934332,61.8828554 37,62 C37,62.35 37.35,62.73 37.9,63 C39.2540174,63.6980237 40.7962149,63.9433733 42.3,63.7 C42.413114,63.682991 42.5282721,63.712853 42.6188667,63.7826864 C42.7094614,63.8525197 42.7676543,63.9562825 42.78,64.07 C42.8095408,64.3044946 42.6442895,64.5188746 42.41,64.55 C41.9959801,64.6094678 41.5782687,64.639543 41.16,64.64 C39.9273833,64.6613886 38.7083673,64.379813 37.61,63.82 L37.61,63.82 C37.4601718,63.7775606 37.299261,63.8031601 37.17,63.89 C37.0939205,63.956012 37.0471619,64.0495291 37.04,64.15 C37.04,64.33 37.45,64.84 38.65,65.25 C40.4967902,65.8078464 42.4556501,65.8835844 44.34,65.47 C45.3615993,65.2693389 46.3649771,64.9850484 47.34,64.62 L47.59,64.53 L47.62,64.59 Z" id="Path"></path>
            <path d="M12,23.67 L11.89,23.29 C11.8496389,23.0723062 11.6505734,22.9208433 11.43,22.94 C11.21,22.94 11.11,23.25 11.15,23.63 L11.15,23.81 C11.28,25.12 11.42,26.35 10.81,27.02 L10.81,27.02 C10.7356484,27.1586336 10.586941,27.2408139 10.43,27.23 C9.90185496,27.2295785 9.39498293,27.4380791 9.02,27.81 C8.86310718,28.0078945 8.82136562,28.2735226 8.91,28.51 C8.94411284,28.6200672 8.93262097,28.7392207 8.87810152,28.8407397 C8.82358206,28.9422587 8.73059745,29.0176476 8.62,29.05 L8.5,29.05 C8.30720257,29.0498436 8.13696283,28.9241904 8.08,28.74 C7.91597858,28.2354911 8.00936536,27.6826413 8.33,27.26 C8.72851514,26.8091094 9.26765911,26.5060611 9.86,26.4 C8.86,23.93 6.86,20.81 5.47,20.33 C5.30290808,20.2477434 5.10709192,20.2477434 4.94,20.33 C4.81,20.41 4.77,20.48 4.83,20.66 C4.99126491,21.0126582 5.22660226,21.3264414 5.52,21.58 C6.6199531,22.5628097 7.47006598,23.7934167 8,25.17 C8.04266016,25.2760677 8.04132529,25.3947573 7.9962904,25.4998387 C7.95125551,25.6049202 7.86622844,25.6877417 7.76,25.73 C7.53643846,25.8119061 7.28828132,25.7011216 7.2,25.48 C6.70040633,24.2332762 5.91215429,23.122869 4.9,22.24 C4.57753127,21.9554186 4.30685462,21.6170727 4.1,21.24 C4.1,21.24 4.1,21.24 4.04,21.24 C3.76830651,20.8645035 3.33347889,20.641515 2.87,20.64 C2.54,20.64 2.49,20.73 2.4,21.01 C2.31,21.29 2.4,21.42 2.83,21.78 C4.16930083,23.1248979 5.32893038,24.6374582 6.28,26.28 C6.38048684,26.4927201 6.29136989,26.7467034 6.08,26.85 C6.0173885,26.8635228 5.9526115,26.8635228 5.89,26.85 C5.72533221,26.8492813 5.57484814,26.7566757 5.5,26.61 C4.63309095,25.114202 3.58150644,23.7333674 2.37,22.5 L2.37,22.5 C2.26884898,22.4514887 2.15115102,22.4514887 2.05,22.5 C1.90689446,22.5560188 1.79667936,22.6735816 1.75,22.82 C1.75,23.24 2.27,23.82 2.64,24.26 L2.88,24.54 C4.06584499,25.8031627 5.00227803,27.2790626 5.64,28.89 L5.64,28.98 C6.53,31.54 7.34,32.91 8.05,33.06 L12.13,31.28 C12.1262352,31.2501181 12.1262352,31.2198819 12.13,31.19 C13.6,29.08 12.51,25.43 12,23.67 Z" id="Path"></path>
            <polygon id="Path" points="41.22 166.33 63.43 166.33 63.43 165.45 41.22 165.35"></polygon>
            <path d="M37.62,54.41 L38.06,58.27 C38.3,58.85 39.8,59.4 40.4,59.5 C42.25,59.79 44.4,59.74 44.81,58.74 L45.32,54.36 C44.0598867,54.7260977 42.7520428,54.9013758 41.44,54.88 C40.1508176,54.9053492 38.8645884,54.7470959 37.62,54.41 Z" id="Path"></path>
            <path d="M50.78,14 C50.9220985,14.0806224 51.0731198,14.1443869 51.23,14.19 C51.8967816,14.4562838 52.6579227,14.3032709 53.17,13.8 C53.62,13.21 53.32,11.39 52.47,10.58 C51.99,10.13 51.47,10.17 50.87,10.68 C50.5718051,10.9521243 50.3096744,11.261304 50.09,11.6 C50.0252532,11.6944437 49.9255114,11.7591622 49.812882,11.7798109 C49.7002526,11.8004596 49.5840391,11.7753329 49.49,11.71 C49.3932822,11.647087 49.3267051,11.5471563 49.305899,11.4336685 C49.2850929,11.3201807 49.3118903,11.2031313 49.38,11.11 C49.5918903,10.79475 49.8329511,10.5001202 50.1,10.23 L50.1,10.14 C50,9.42 49.89,8.6 49.73,7.77 L49.23,7.53 C47.74,6.8 44.67,5.3 41.54,3.99 C41.0337689,4.54318962 40.5628389,5.12767719 40.13,5.74 C38.6686885,7.84384588 37.5420036,10.1613086 36.79,12.61 C35.92,16 40.85,23.51 41.93,24 C42.0705923,24.0492414 42.2142263,24.0893253 42.36,24.12 C44.2,24.46 46.66,22.74 47.46,21.12 C47.5073964,21.0138283 47.596685,20.9320549 47.706604,20.8941517 C47.8165231,20.8562486 47.9372366,20.8656075 48.04,20.92 C48.2513699,21.0232966 48.3404868,21.2772799 48.24,21.49 C47.1595982,23.4981717 45.1332554,24.8201909 42.86,25 L42.64,25 C42.51,25.64 42.39,26.32 42.28,27 C42.1027015,28.4145402 41.7981334,29.8101983 41.37,31.17 C44.5062408,30.6446178 47.7119928,30.6954489 50.83,31.32 C50.83,29.78 50.83,28.32 50.83,26.79 C50.89,22.79 50.95,19 50.62,14.93 C50.51,14.88 50.4,14.85 50.31,14.8 C50.2083754,14.7451237 50.1330983,14.6516733 50.1011212,14.5406939 C50.0691441,14.4297145 50.0831555,14.3105369 50.14,14.21 C50.1884333,14.0894537 50.2876623,13.9964724 50.4110994,13.9559696 C50.5345365,13.9154668 50.6695631,13.931583 50.78,14 L50.78,14 Z M50.72,11.86 C50.8903374,11.6961808 51.1596626,11.6961808 51.33,11.86 C51.6775773,12.1718902 52.1233387,12.3523174 52.59,12.37 L52.59,12.37 C52.8274824,12.37 53.02,12.5625176 53.02,12.8 C53.0011318,13.0347463 52.8147463,13.2211318 52.58,13.24 C51.8928934,13.2221064 51.2355909,12.9556324 50.73,12.49 C50.5696465,12.3236481 50.5652791,12.0616032 50.72,11.89 L50.72,11.86 Z M39.55,14.32 C39.3865301,14.3305614 39.2318362,14.245117 39.1537334,14.1011243 C39.0756306,13.9571315 39.0883724,13.7808687 39.1863732,13.6496063 C39.284374,13.5183439 39.4497487,13.4560371 39.61,13.49 C39.8152857,13.5335073 39.9569583,13.7218569 39.9418282,13.9311563 C39.9266981,14.1404556 39.7594089,14.3064706 39.55,14.32 L39.55,14.32 Z M40.39,16.76 L40.55,16.1 C40.81,14.98 41.21,13.29 40.9,12.54 C40.8343603,12.4391627 40.7351829,12.3647796 40.62,12.33 C40.1131995,12.1643045 39.5668005,12.1643045 39.06,12.33 C38.8471845,12.4164555 38.6039969,12.3203778 38.5077367,12.1118139 C38.4114764,11.9032499 38.496139,11.6558568 38.7,11.55 C39.4196057,11.2843873 40.2103943,11.2843873 40.93,11.55 C41.2703546,11.6592105 41.549539,11.905763 41.7,12.23 C42.11,13.23 41.7,14.95 41.39,16.32 C41.33,16.55 41.28,16.77 41.24,16.96 C40.99,18.11 41.12,18.43 41.24,18.52 C41.36,18.61 41.51,18.59 41.75,18.52 C41.8614186,18.4862341 41.9817671,18.4990902 42.0835388,18.5556301 C42.1853106,18.6121699 42.2598065,18.7075607 42.29,18.82 C42.3238829,18.928754 42.312139,19.0466062 42.2574609,19.1465352 C42.2027828,19.2464642 42.1098607,19.3198981 42,19.35 C41.8119898,19.4090432 41.6169271,19.4426747 41.42,19.45 C41.1371814,19.4572675 40.8620906,19.3572345 40.65,19.17 C40.08,18.66 40.2,17.68 40.39,16.79 L40.39,16.76 Z M44.18,21.34 C43.7433002,21.7785487 43.1488855,22.0235196 42.53,22.02 C42.3705802,22.0392696 42.2094198,22.0392696 42.05,22.02 C41.4709128,21.932961 40.9766358,21.5556503 40.74,21.02 C40.6896296,20.8072302 40.8031406,20.5897531 41.0064972,20.5094147 C41.2098537,20.4290763 41.4413517,20.5102536 41.55,20.7 C41.6920878,20.9435134 41.940077,21.106372 42.22,21.14 C42.703476,21.2348571 43.2029388,21.0894911 43.56,20.75 C43.6407162,20.6687802 43.7504935,20.6231089 43.865,20.6231089 C43.9795065,20.6231089 44.0892838,20.6687802 44.17,20.75 C44.3431317,20.918809 44.3475976,21.1956953 44.18,21.37 L44.18,21.34 Z M45,14.5 C44.7717587,14.4788272 44.6026471,14.2785634 44.62,14.05 C44.6249371,13.9401183 44.674904,13.8371184 44.7581489,13.765225 C44.8413938,13.6933317 44.95057,13.6588899 45.06,13.67 C45.2881016,13.6860463 45.4614525,13.8816216 45.45,14.11 C45.4288451,14.3396349 45.2303103,14.5116983 45,14.5 Z M47,12.5 C46.9128147,12.5884299 46.7941756,12.6387616 46.67,12.64 C46.5628393,12.6416768 46.4590914,12.6023242 46.38,12.53 C45.804753,12.1074582 45.066482,11.9745694 44.38,12.17 C44.164598,12.2691338 43.9095996,12.175187 43.81,11.96 C43.7100752,11.7417505 43.8035122,11.4836864 44.02,11.38 C45.0086426,11.0652479 46.088808,11.2558654 46.91,11.89 C47.0234605,11.9496006 47.1052956,12.055709 47.1341141,12.1805891 C47.1629326,12.3054691 47.1358699,12.4367077 47.06,12.54 L47,12.5 Z" id="Shape"></path>
            <path d="M45.1,13.67 C44.99057,13.6588899 44.8813938,13.6933317 44.7981489,13.765225 C44.714904,13.8371184 44.6649371,13.9401183 44.66,14.05 C44.6426471,14.2785634 44.8117587,14.4788272 45.04,14.5 C45.2703103,14.5116983 45.4688451,14.3396349 45.49,14.11 C45.5014525,13.8816216 45.3281016,13.6860463 45.1,13.67 L45.1,13.67 Z" id="Path" fill="#FFFFFF" fill-rule="nonzero"></path>
            <path d="M39.61,13.52 C39.4497487,13.4860371 39.284374,13.5483439 39.1863732,13.6796063 C39.0883724,13.8108687 39.0756306,13.9871315 39.1537334,14.1311243 C39.2318362,14.275117 39.3865301,14.3605614 39.55,14.35 C39.7594089,14.3364706 39.9266981,14.1704556 39.9418282,13.9611563 C39.9569583,13.7518569 39.8152857,13.5635073 39.61,13.52 L39.61,13.52 Z" id="Path" fill="#FFFFFF" fill-rule="nonzero"></path>
            <path d="M44.13,11.42 C43.9135122,11.5236864 43.8200752,11.7817505 43.92,12 C44.0195996,12.215187 44.274598,12.3091338 44.49,12.21 C45.176482,12.0145694 45.914753,12.1474582 46.49,12.57 C46.5690914,12.6423242 46.6728393,12.6816768 46.78,12.68 C46.9041756,12.6787616 47.0228147,12.6284299 47.11,12.54 C47.2738192,12.3696626 47.2738192,12.1003374 47.11,11.93 C46.2677079,11.2650161 45.145491,11.0729589 44.13,11.42 L44.13,11.42 Z" id="Path" fill="#FFFFFF" fill-rule="nonzero"></path>
            <path d="M52.59,13.25 C52.8247463,13.2311318 53.0111318,13.0447463 53.03,12.81 C53.03,12.5725176 52.8374824,12.38 52.6,12.38 L52.6,12.38 C52.1333387,12.3623174 51.6875773,12.1818902 51.34,11.87 C51.1660303,11.707076 50.892924,11.7160303 50.73,11.89 C50.567076,12.0639697 50.5760303,12.337076 50.75,12.5 C51.2530168,12.9634006 51.9063668,13.2297117 52.59,13.25 Z" id="Path" fill="#FFFFFF" fill-rule="nonzero"></path>
            <path d="M42,19.35 C42.1098607,19.3198981 42.2027828,19.2464642 42.2574609,19.1465352 C42.312139,19.0466062 42.3238829,18.928754 42.29,18.82 C42.2598065,18.7075607 42.1853106,18.6121699 42.0835388,18.5556301 C41.9817671,18.4990902 41.8614186,18.4862341 41.75,18.52 C41.51,18.6 41.32,18.6 41.24,18.52 C41.16,18.44 41.02,18.11 41.24,16.96 C41.24,16.77 41.33,16.55 41.39,16.32 C41.71,14.95 42.11,13.24 41.7,12.23 C41.549539,11.905763 41.2703546,11.6592105 40.93,11.55 C40.2103943,11.2843873 39.4196057,11.2843873 38.7,11.55 C38.496139,11.6558568 38.4114764,11.9032499 38.5077367,12.1118139 C38.6039969,12.3203778 38.8471845,12.4164555 39.06,12.33 C39.5668005,12.1643045 40.1131995,12.1643045 40.62,12.33 C40.7351829,12.3647796 40.8343603,12.4391627 40.9,12.54 C41.21,13.29 40.81,14.98 40.55,16.1 L40.39,16.76 C40.2,17.65 40.08,18.63 40.62,19.14 C40.8320906,19.3272345 41.1071814,19.4272675 41.39,19.42 C41.5955999,19.4251639 41.8009143,19.4016033 42,19.35 L42,19.35 Z" id="Path" fill="#FFFFFF" fill-rule="nonzero"></path>
            <path d="M43.56,20.77 C43.2029388,21.1094911 42.703476,21.2548571 42.22,21.16 C41.940077,21.126372 41.6920878,20.9635134 41.55,20.72 C41.4413517,20.5302536 41.2098537,20.4490763 41.0064972,20.5294147 C40.8031406,20.6097531 40.6896296,20.8272302 40.74,21.04 C40.9766358,21.5756503 41.4709128,21.952961 42.05,22.04 C42.2094198,22.0592696 42.3705802,22.0592696 42.53,22.04 C43.1488855,22.0435196 43.7433002,21.7985487 44.18,21.36 C44.3438192,21.1896626 44.3438192,20.9203374 44.18,20.75 C44.0962356,20.6682157 43.9827467,20.6241197 43.8657385,20.6278942 C43.7487304,20.6316686 43.6383193,20.6829872 43.56,20.77 L43.56,20.77 Z" id="Path" fill="#FFFFFF" fill-rule="nonzero"></path>
            <path d="M44.34,65.52 C42.4556501,65.9335844 40.4967902,65.8578464 38.65,65.3 C37.45,64.89 37.04,64.38 37.04,64.2 C37.0471619,64.0995291 37.0939205,64.006012 37.17,63.94 C37.299261,63.8531601 37.4601718,63.8275606 37.61,63.87 L37.61,63.87 C38.7083673,64.429813 39.9273833,64.7113886 41.16,64.69 C41.5782687,64.689543 41.9959801,64.6594678 42.41,64.6 C42.6442895,64.5688746 42.8095408,64.3544946 42.78,64.12 C42.7676543,64.0062825 42.7094614,63.9025197 42.6188667,63.8326864 C42.5282721,63.762853 42.413114,63.732991 42.3,63.75 C40.7962149,63.9933733 39.2540174,63.7480237 37.9,63.05 C37.35,62.73 37.02,62.35 37,62.05 C37.0010941,61.9501867 37.0447544,61.8555896 37.12,61.79 C37.2577745,61.6712126 37.4395896,61.616668 37.62,61.64 C38.7306178,62.2631854 39.9866557,62.5806455 41.26,62.56 C41.6816149,62.560257 42.102702,62.5301793 42.52,62.47 C42.6736242,62.4467778 42.8031899,62.343362 42.859891,62.1987084 C42.916592,62.0540548 42.8918141,61.8901397 42.794891,61.7687083 C42.6979678,61.647277 42.5436242,61.5867777 42.39,61.61 C40.8622588,61.8794375 39.2883845,61.6071042 37.94,60.84 C37.4380858,60.5804318 37.0892295,60.097971 37,59.54 C36.9918626,59.3602056 37.0610109,59.1855152 37.19,59.06 C37.2480508,58.9948681 37.3249442,58.9494311 37.41,58.93 C38.1871849,59.6742095 39.1693313,60.1687655 40.23,60.35 C40.8911531,60.4592188 41.559898,60.5160622 42.23,60.52 C43.62,60.52 45.14,60.23 45.59,59.04 L45.59,58.98 L45.59,58.98 C45.59,58.98 45.59,58.98 45.59,58.91 L45.66,58.29 C46.1256888,58.4215754 46.5449855,58.68147 46.87,59.04 C50.1,57.28 55.18,56.13 58.54,55.36 L60.19,54.98 L60.44,54.92 C60.26,53.55 60.11,52.47 60,51.71 L60.07,51.79 C60.82,52.79 61.6,53.79 62.83,55.23 L60.83,55.72 L60.83,55.72 L60.41,55.82 L58.75,56.2 C55.43,56.96 50.42,58.1 47.3,59.8 L47.16,59.88 C46.6040045,61.4381239 46.7536682,63.1610825 47.57,64.6 L47.57,64.6 C49.46,65.15 56.18,65.03 61.9,64.08 C66.15,63.31 71.02,62.21 72.58,61.32 C75.24,59.79 75.79,57.75 74.37,54.72 C70.8,47 63.53,37 63.46,36.88 L63.38,36.8 C61.14,34.95 54.28,33.8 52.85,33.57 L52.85,33.46 C52.6510233,32.7871421 52.2662936,32.1840523 51.74,31.72 C51.74,30.05 51.74,28.41 51.74,26.8 C51.8,22.87 51.85,19.16 51.54,15.16 C51.68,15.16 51.82,15.16 51.96,15.16 C52.6857462,15.1974535 53.386502,14.8897142 53.85,14.33 C54.6,13.33 54.17,11.01 53.05,9.95 C52.4810366,9.36727695 51.5929499,9.23631486 50.88,9.63 C50.78,8.93 50.68,8.18 50.52,7.39 C50.2898486,5.6533417 49.5993133,4.00986759 48.52,2.63 C47.7423278,1.63855353 46.5776933,1.02712042 45.32,0.95 C43.7525579,1.04272908 42.288786,1.76379895 41.26,2.95 C34.03,-0.05 32.57,0.6 32.12,1.48 C31.8955781,1.8807179 31.8955781,2.3692821 32.12,2.77 C33.01,4.39 37.29,5.43 38.98,5.77 C37.6346186,7.81083852 36.5873933,10.0332459 35.87,12.37 C35,16.09 40,24.11 41.61,24.75 L41.79,24.75 C41.65,25.42 41.54,26.12 41.43,26.8 C41.2533905,28.4048654 40.8736864,29.9808056 40.3,31.49 C39.5506829,31.9385613 38.9974105,32.6524611 38.75,33.49 C37.47,33.49 33.59,33.57 31.02,34.98 C26.3731979,37.7895759 22.0182974,41.0557512 18.02,44.73 C16.25,40.73 13.61,33.84 12.88,31.65 C14.57,29.19 13.4,25.28 12.88,23.4 L12.77,23.03 C12.6203197,22.3657509 11.983453,21.9295409 11.31,22.03 C10.5864608,22.2076996 10.1405856,22.9344761 10.31,23.66 L10.31,23.84 C10.3769912,24.3907911 10.4103863,24.94515 10.41,25.5 C9.41,23.11 7.35,20.07 5.74,19.5 C5.32644998,19.3262837 4.85491889,19.3596993 4.47,19.59 C4.30054193,19.6905038 4.16212295,19.8358437 4.07,20.01 C3.69387962,19.7529575 3.24525568,19.6232771 2.79,19.64 C2.32436955,19.6603845 1.90338354,19.9230185 1.68034522,20.3322631 C1.45730691,20.7415078 1.46476363,21.2376431 1.7,21.64 L1.61,21.64 C1.20259646,21.8240253 0.913793098,22.1990946 0.84,22.64 C0.929207303,23.4478699 1.32248553,24.1915233 1.94,24.72 L2.17,24.97 C3.28246177,26.1567805 4.16416176,27.5403712 4.77,29.05 L4.77,29.15 C5.44,31.1 6.38,33.32 7.69,33.74 C8.23,37.14 8.97,41.11 9.76,45.3 C10.34,48.41 10.94,51.59 11.47,54.66 C11.4943326,54.769254 11.5585088,54.8655183 11.65,54.93 L11.65,54.93 C12.1851983,55.297606 12.8345909,55.4608413 13.48,55.39 C17.65,55.39 26.87,52.09 29.48,51.13 C27.91,61.03 25.08,80.38 24.95,87.44 C24.9456653,87.555439 24.9890697,87.6675668 25.07,87.75 C25.1520553,87.8326539 25.2635338,87.8794029 25.38,87.88 L25.71,87.88 C26.4,116.67 33.04,141.03 38.04,156.97 L36.96,157.43 C34.1663606,158.762466 31.2066505,159.714282 28.16,160.26 C26.8408549,160.336349 25.6096624,160.946529 24.75,161.95 C24.1779677,162.766846 23.9714746,163.784821 24.18,164.76 L24.18,164.76 L24.18,166.63 C24.18,166.867482 24.3725176,167.06 24.61,167.06 L63.88,167.06 C64.1174824,167.06 64.31,166.867482 64.31,166.63 L64.31,164.72 L64.31,164.72 C64.31,164.01 64.31,161.17 64.31,157.23 L64.31,154.15 C64.43,140.7 64.63,118.27 64.53,99.08 C65.4345924,99.3072424 66.3587591,99.4478765 67.29,99.5 L67.29,99.5 C67.5178963,99.4953467 67.7045059,99.3174166 67.72,99.09 C67.731434,98.8505895 67.5491441,98.6460692 67.31,98.63 C66.3598878,98.5882613 65.417395,98.4406824 64.5,98.19 C64.5,94.62 64.5,91.19 64.4,87.95 L64.54,87.95 C64.65873,87.9504207 64.7718122,87.8993513 64.85,87.81 C64.934669,87.7258835 64.9784822,87.6090483 64.97,87.49 C64.88,85.79 63.89,79 62.74,71.13 C62.44,69.05 62.13,66.92 61.83,64.81 C58.492413,65.3407438 55.1194528,65.6182023 51.74,65.64 C50.1063959,65.7331996 48.4684857,65.5609658 46.89,65.13 C46.7334574,65.0675557 46.638895,64.9072108 46.66,64.74 L44.34,65.52 Z M12.09,31.29 L8,33.07 C7.29,32.92 6.48,31.55 5.59,28.99 L5.59,28.9 C4.95227803,27.2890626 4.01584499,25.8131627 2.83,24.55 L2.59,24.27 C2.22,23.86 1.67,23.27 1.7,22.83 C1.74667936,22.6835816 1.85689446,22.5660188 2,22.51 C2.10115102,22.4614887 2.21884898,22.4614887 2.32,22.51 L2.32,22.51 C3.53150644,23.7433674 4.58309095,25.124202 5.45,26.62 C5.52484814,26.7666757 5.67533221,26.8592813 5.84,26.86 C5.9026115,26.8735228 5.9673885,26.8735228 6.03,26.86 C6.24136989,26.7567034 6.33048684,26.5027201 6.23,26.29 C5.27893038,24.6474582 4.11930083,23.1348979 2.78,21.79 C2.4,21.43 2.28,21.22 2.35,21.02 C2.42,20.82 2.49,20.67 2.82,20.65 C3.28347889,20.651515 3.71830651,20.8745035 3.99,21.25 C3.99,21.25 3.99,21.25 4.05,21.25 C4.25685462,21.6270727 4.52753127,21.9654186 4.85,22.25 C5.86215429,23.132869 6.65040633,24.2432762 7.15,25.49 C7.23828132,25.7111216 7.48643846,25.8219061 7.71,25.74 C7.81622844,25.6977417 7.90125551,25.6149202 7.9462904,25.5098387 C7.99132529,25.4047573 7.99266016,25.2860677 7.95,25.18 C7.41027716,23.8204205 6.55712648,22.6075075 5.46,21.64 C5.16660226,21.3864414 4.93126491,21.0726582 4.77,20.72 C4.71,20.54 4.77,20.47 4.88,20.39 C5.04709192,20.3077434 5.24290808,20.3077434 5.41,20.39 C6.75,20.87 8.84,23.99 9.8,26.46 C9.20765911,26.5660611 8.66851514,26.8691094 8.27,27.32 C7.94915128,27.7343493 7.84855601,28.2783089 8,28.78 C8.05696283,28.9641904 8.22720257,29.0898436 8.42,29.09 L8.54,29.09 C8.65059745,29.0576476 8.74358206,28.9822587 8.79810152,28.8807397 C8.85262097,28.7792207 8.86411284,28.6600672 8.83,28.55 C8.74136562,28.3135226 8.78310718,28.0478945 8.94,27.85 C9.31498293,27.4780791 9.82185496,27.2695785 10.35,27.27 C10.506941,27.2808139 10.6556484,27.1986336 10.73,27.06 L10.73,27.06 C11.34,26.39 11.2,25.16 11.07,23.85 L11.07,23.67 C11.07,23.29 11.13,23.02 11.35,22.98 C11.5705734,22.9608433 11.7696389,23.1123062 11.81,23.33 L11.92,23.71 C12.45,25.47 13.54,29.12 12.07,31.24 C12.075409,31.2571426 12.0820944,31.273856 12.09,31.29 L12.09,31.29 Z M40.32,166.29 L25,166.29 L25,165.29 L40.3,165.29 L40.32,166.29 Z M63.43,166.29 L41.22,166.29 L41.22,165.29 L40.33,165.29 L40.33,165.03 C40.33,161.21 42.33,160.46 44.33,160.23 C45.5419177,160.0678 46.7367509,159.796703 47.9,159.42 C47.9,158.77 47.9,157.73 47.9,157.31 C47.9,155.9 47.9,153.98 47.96,151.68 C48.02,147.56 48.08,142.2 48.14,136.24 C50.14,143.76 52.25,150.84 54.14,156.95 L54.41,157.76 C54.14,157.86 53.86,157.99 53.41,158.2 C50.5559626,159.569585 47.527841,160.541949 44.41,161.09 C42.41,161.32 41.17,162.09 41.2,165.01 L41.2,165.29 L63.41,165.39 L63.43,166.29 Z M41.75,66.62 C42.4933637,66.6134177 43.235286,66.5532618 43.97,66.44 L43.76,68.29 C42.9659976,68.4740916 42.1549193,68.5746385 41.34,68.59 C40.610446,68.5877696 39.8843068,68.4902786 39.18,68.3 L38.95,66.3 C39.8663414,66.5229883 40.8069754,66.6304893 41.75,66.62 Z M63.62,88.09 C63.62,91.23 63.69,94.6 63.71,98.09 C61.63,97.37 57.98,95.45 58.11,90.78 C58.1126832,90.6659482 58.0699336,90.5555047 57.9911618,90.4729819 C57.91239,90.390459 57.8040533,90.3426215 57.69,90.34 C57.5759482,90.3373168 57.4655047,90.3800664 57.3829819,90.4588382 C57.300459,90.53761 57.2526215,90.6459467 57.25,90.76 C57.14,94.69 59.49,97.67 63.71,99 C63.81,118.23 63.62,140.78 63.5,154.28 L63.5,156.93 L55.07,156.93 C52.89,150 50.38,141.76 48.22,133.02 C44.79,119.2 42.95,107.02 42.61,95.81 C42.5852953,95.5775851 42.3935646,95.3986364 42.16,95.39 C41.9248388,95.4007001 41.7397567,95.5945957 41.74,95.83 C42.2887425,108.426442 44.1692176,120.929423 47.35,133.13 L47.35,133.13 C47.29,140.35 47.21,146.9 47.15,151.73 C47.15,153.82 47.15,155.57 47.09,156.93 L38.92,156.93 C33.92,141.05 27.3,116.75 26.6,88.02 L63.62,88.09 Z M45.35,1.85 C46.369672,1.92145294 47.3094346,2.42775915 47.93,3.24 C48.7243918,4.26017358 49.2596733,5.45769417 49.49,6.73 C48.01,6 45.16,4.62 42.18,3.36 C42.9974202,2.45997485 44.1360593,1.9175947 45.35,1.85 Z M33,2.4 C32.9099044,2.25268314 32.9099044,2.06731686 33,1.92 C33.1,1.72 34,0.92 40.74,3.68 C40.3462099,4.11771019 39.9788904,4.5785292 39.64,5.06 C38.36,4.85 33.68,3.74 33,2.4 Z M40.71,43.73 C40.8784468,43.5615532 41.1515532,43.5615532 41.32,43.73 C41.4884468,43.8984468 41.4884468,44.1715532 41.32,44.34 C40.18,45.46 39.92,46.34 40.38,47.34 C40.480346,47.5438706 40.5939219,47.7409581 40.72,47.93 C40.9607918,48.2722643 41.1463826,48.6501947 41.27,49.05 C41.3648964,49.9318837 41.0646833,50.8105561 40.45,51.45 C40.3714639,51.5457656 40.2538473,51.6008983 40.13,51.6 C40.023514,51.5980111 39.9210175,51.5591331 39.84,51.49 C39.7587802,51.4092838 39.7131089,51.2995065 39.7131089,51.185 C39.7131089,51.0704935 39.7587802,50.9607162 39.84,50.88 C40.2665669,50.4479506 40.4916033,49.8563228 40.46,49.25 C40.3595556,48.9438224 40.2146754,48.6540621 40.03,48.39 C39.8801388,48.1665075 39.746464,47.9325766 39.63,47.69 C38.76,45.92 39.73,44.64 40.66,43.73 L40.71,43.73 Z M41.49,52.93 C42.7992862,52.8631907 44.1093121,53.0464585 45.35,53.47 C44.1105975,53.8989097 42.7995233,54.0823243 41.49,54.01 C40.1805197,54.0813031 38.8696413,53.897916 37.63,53.47 C38.8551334,53.0536479 40.1474214,52.870489 41.44,52.93 L41.49,52.93 Z M42.92,47.34 C43.0167514,47.5437893 43.1269964,47.740894 43.25,47.93 C43.4924043,48.2713067 43.6781263,48.6495042 43.8,49.05 C43.8975325,49.9303479 43.6010548,50.8088004 42.99,51.45 C42.9066626,51.5450936 42.7864431,51.5997389 42.66,51.6 C42.4931692,51.5927627 42.3448128,51.4917097 42.2769927,51.3391144 C42.2091725,51.186519 42.2335782,51.0086829 42.34,50.88 C42.7665669,50.4479506 42.9916033,49.8563228 42.96,49.25 C42.8578408,48.9426593 42.7094733,48.6526683 42.52,48.39 C42.3732134,48.166423 42.24287,47.9324734 42.13,47.69 C41.35,45.92 42.31,44.69 43.24,43.69 C43.4084468,43.5215532 43.6815532,43.5215532 43.85,43.69 C44.0184468,43.8584468 44.0184468,44.1315532 43.85,44.3 C42.67,45.46 42.41,46.3 42.87,47.34 L42.92,47.34 Z M44.86,58.74 C44.41,59.74 42.3,59.79 40.45,59.5 C39.85,59.4 38.35,58.85 38.11,58.27 L37.67,54.41 C38.9145884,54.7470959 40.2008176,54.9053492 41.49,54.88 C42.8020428,54.9013758 44.1098867,54.7260977 45.37,54.36 L44.86,58.74 Z M50.41,14.79 C50.5,14.84 50.61,14.87 50.72,14.92 C51.05,18.99 50.99,22.78 50.93,26.78 C50.93,28.27 50.93,29.78 50.93,31.31 C47.8119928,30.6854489 44.6062408,30.6346178 41.47,31.16 C41.8981334,29.8001983 42.2027015,28.4045402 42.38,26.99 C42.49,26.28 42.61,25.6 42.74,24.99 L42.96,24.99 C45.2456339,24.7977497 47.2747129,23.4513163 48.34,21.42 C48.4404868,21.2072799 48.3513699,20.9532966 48.14,20.85 C48.0372366,20.7956075 47.9165231,20.7862486 47.806604,20.8241517 C47.696685,20.8620549 47.6073964,20.9438283 47.56,21.05 C46.76,22.7 44.3,24.42 42.46,24.05 C42.3142263,24.0193253 42.1705923,23.9792414 42.03,23.93 C40.95,23.49 36.03,16.01 36.88,12.62 C37.6320036,10.1713086 38.7586885,7.85384588 40.22,5.75 C40.6205655,5.14049432 41.0580496,4.55606903 41.53,4 C44.66,5.31 47.73,6.81 49.22,7.54 L49.72,7.78 C49.88,8.61 49.99,9.43 50.09,10.15 L50.09,10.24 C49.8229511,10.5101202 49.5818903,10.80475 49.37,11.12 C49.3018903,11.2131313 49.2750929,11.3301807 49.295899,11.4436685 C49.3167051,11.5571563 49.3832822,11.657087 49.48,11.72 C49.5740391,11.7853329 49.6902526,11.8104596 49.802882,11.7898109 C49.9155114,11.7691622 50.0152532,11.7044437 50.08,11.61 C50.2996744,11.271304 50.5618051,10.9621243 50.86,10.69 C51.46,10.18 51.98,10.14 52.46,10.59 C53.31,11.4 53.61,13.22 53.16,13.81 C52.6479227,14.3132709 51.8867816,14.4662838 51.22,14.2 C51.0631198,14.1543869 50.9120985,14.0906224 50.77,14.01 C50.5597618,13.8974051 50.2980941,13.9728009 50.18,14.18 C50.1171936,14.2834946 50.1009236,14.4086698 50.135186,14.5247812 C50.1694484,14.6408926 50.2510687,14.7371821 50.36,14.79 L50.41,14.79 Z" id="Shape" fill="#FFFFFF" fill-rule="nonzero"></path>
        </g>
    </g>
</svg>