<?xml version="1.0" encoding="UTF-8"?>
<svg width="1228px" height="986px" viewBox="0 0 1228 986" version="1.1" xmlns="http://www.w3.org/2000/svg" xmlns:xlink="http://www.w3.org/1999/xlink">
    <!-- Generator: Sketch 53.1 (72631) - https://sketchapp.com -->
    <title>Group 4</title>
    <desc>Created with Sketch.</desc>
    <g id="Page-1" stroke="none" stroke-width="1" fill="none" fill-rule="evenodd">
        <g id="Group-4" transform="translate(0.000000, -4.000000)">
            <path d="M544.24882,60.8167664 C572.595512,59.4021644 600.668999,54.5517884 627.860628,46.3707976 C663.30744,36.0522485 690.795129,22.1841184 685.297591,11.9481177 C679.800053,1.71211695 646.486615,13.0212468 613.00907,27.137022 C595.777981,8.97637554 575.428886,0.804084628 556.474688,22.10157 C548.072393,32.8120042 543.42764,46.0177645 543.264186,59.6610889 L543.264186,59.6610889 C542.946971,59.9346302 542.910234,60.4150865 543.182134,60.734218 C543.454033,61.0533495 543.931604,61.0903077 544.24882,60.8167664 Z" id="Path"></path>
            <path d="M1097.65836,707 C1099.35925,705.375297 1101.14213,703.838715 1103,702.396277 C1085.08495,689.324993 930.999117,576.944834 873.802454,542.99238 C809.867105,505.176086 738.453456,495.639804 562.343617,558.858781 C561.154546,559.284654 560.282917,560.312772 560.057063,561.555853 C559.831209,562.798934 560.285443,564.068124 561.24866,564.885331 C562.211877,565.702539 563.537741,565.94361 564.726811,565.517737 C738.206918,503.285272 808.059164,512.328298 870.104394,549.07587 C925.000042,581.959604 1069.47092,686.612085 1096.26131,706.177907 L1097.65836,707 Z" id="Path" fill="#FFFFFF" fill-rule="nonzero"></path>
            <path d="M1057.34489,762.684305 L807.326422,658.12062 C793.411905,650.895236 777.066066,650.025236 762.466059,655.732945 C761.572491,656.016597 760.828032,656.644459 760.396563,657.478318 C759.965094,658.312177 759.881984,659.283677 760.165528,660.17896 C760.791313,662.054679 762.802688,663.080793 764.684429,662.484301 C783.170842,656.391614 790.811893,659.355624 805.272376,664.954309 L1058.65948,771 L1059.72758,771 C1061.13207,770.942712 1062.43338,770.245209 1063.26054,769.106327 L1064,768.03599 C1061.86379,766.306984 1059.64542,764.495645 1057.34489,762.684305 Z" id="Path" fill="#FFFFFF" fill-rule="nonzero"></path>
            <path d="M558.780822,561.231384 C557.082192,557.775001 555.191781,554.154029 553.109589,550.368467 C537.493151,521.236096 516.041096,481.240808 519.410959,385.36733 L519.410959,385.36733 C519.5102,383.907343 520.477369,382.650683 521.862091,382.182528 C523.246813,381.714373 524.776852,382.126764 525.739726,383.227664 C526.643836,384.297497 615.082192,489.141112 657.246575,471.365429 C696.616438,454.906462 739.438356,301.920371 747,273.857833 L703.438356,272.376526 C671.794521,349.980552 640.232877,401.003348 633,401.003348 L633,401.003348 C630.534247,401.003348 630.534247,401.003348 614.835616,379.112923 C593.958904,350.062847 550.479452,289.576146 532.643836,281.428958 C518.506849,275.009961 469.520548,273.199475 469.027397,273.199475 C468.051534,273.202937 467.122092,272.782662 466.479452,272.047347 C465.881014,271.333766 465.559968,270.427865 465.575342,269.496207 C464.009177,263.492334 459.671978,258.599221 453.90411,256.329034 L452.506849,256.329034 C425.33934,252.234106 397.631742,253.548511 370.972603,260.196891 C367.025304,263.042484 364.295584,267.274447 363.328767,272.047347 L362.342466,274.845371 C361.800594,276.235245 360.46275,277.15004 358.972603,277.149627 L358.972603,277.149627 C342.534247,277.149627 296.506849,278.795523 284.09589,293.114824 L280.479452,297.31186 C181.767123,411.619381 180.287671,411.619381 177.493151,411.701676 C174.69863,411.783971 172.643836,411.701676 111.739726,287.683365 L69,288.835493 C76.4794521,317.227209 120.205479,475.891644 160.561644,489.634881 C188.589041,499.263376 261.493151,424.621964 287.219178,395.07812 C287.864681,394.290019 288.831392,393.836305 289.849315,393.843697 C290.419114,393.730606 291.005544,393.730606 291.575342,393.843697 C293.026833,394.655059 293.73894,396.352678 293.30137,397.958439 C293.30137,398.863682 269.383562,486.178498 288.780822,639 L558.780822,561.231384 Z" id="Path"></path>
            <path d="M711.992415,776.39121 C691.088436,763.465769 666.538868,757.700047 642.061947,759.967309 C559.147914,768.179259 445.664981,779.593871 392.087231,763.662686 C366.762694,755.422507 344.755273,739.273415 329.305942,717.593643 C313.025948,695.643518 300.578958,671.099365 292.491783,645 L287.068268,646.560271 L286,646.560271 L286,646.560271 C294.114925,673.543791 306.909388,698.893241 323.800253,721.45326 C340.121785,744.322283 363.371873,761.337911 390.115044,769.985888 C445.007585,786.40979 559.394437,774.913059 642.801517,766.536869 C665.61434,764.462364 688.48401,769.851731 707.965866,781.893217 L930.329962,943.340166 C930.914924,943.796055 931.643189,944.028944 932.384324,943.997122 C933.345149,944.011178 934.268337,943.624294 934.931732,942.929568 L936,941.862015 C934.352345,939.410501 932.569128,937.052746 930.65866,934.799737 L711.992415,776.39121 Z" id="Path" fill="#FFFFFF" fill-rule="nonzero"></path>
            <path d="M793.254227,678.694654 C784.949277,670.136166 775.771818,662.470808 765.871828,655.823846 C727.141768,628.921853 642.52769,586.964615 512.934115,609.341808 C512.005617,609.502245 511.179528,610.026819 510.639187,610.799107 C510.098846,611.571396 509.888951,612.527514 510.056085,613.455263 C510.216445,614.384208 510.740766,615.210696 511.512682,615.751298 C512.284598,616.2919 513.240254,616.501896 514.167556,616.334681 C641.623166,594.451102 724.01705,635.338842 761.760357,661.664952 C771.203745,668.079338 780.014707,675.379436 788.073773,683.466262 L978.84604,887 C981.230693,886.177309 983.615347,885.19008 986,884.202851 L793.254227,678.694654 Z" id="Path" fill="#FFFFFF" fill-rule="nonzero"></path>
            <circle id="Oval" fill="#FFFFFF" fill-rule="nonzero" cx="465.5" cy="105.5" r="3.5"></circle>
            <circle id="Oval" fill="#FFFFFF" fill-rule="nonzero" cx="419.5" cy="104.5" r="3.5"></circle>
            <path d="M437.587121,198.952848 C418.920362,197.378997 402.34556,186.354855 393.63222,169.717801 C393.187003,168.873899 393.110398,167.882589 393.420645,166.979923 C393.730893,166.077257 394.40023,165.344012 395.269274,164.954788 C397.010445,164.129581 399.089367,164.861417 399.934878,166.597206 C406.564947,180.147158 426.618859,194.354076 441.679756,191.233481 C442.884411,191.030793 444.064235,190.700461 445.199422,190.24803 C454.039514,186.716831 494.311043,125.290385 487.353564,97.3692733 C481.951285,76.0178348 460.178467,32.329507 432.348548,23.460448 C419.214984,19.5643521 405.007997,23.0806438 395.187422,32.6579907 C382.827664,42.7588635 381.026904,57.2942658 378.816881,73.7184492 L377.998354,79.5490343 C377.703136,81.4850144 375.924336,82.8325913 373.987572,82.5875082 C372.066464,82.2924623 370.747312,80.4910657 371.040875,78.5635833 L371.777549,72.8151191 C373.823866,56.3909357 376.033889,39.309785 390.521818,27.402252 C402.181394,16.2053593 418.967319,12.2150644 434.394866,16.9728956 C466.64483,27.5664938 488.908765,75.853593 494.065485,96.2195804 C501.677786,126.357957 460.669583,192.218932 447.655003,197.39255 C446.109088,198.056805 444.486889,198.52575 442.825694,198.788606 C441.087576,198.995953 439.334752,199.050908 437.587121,198.952848 L437.587121,198.952848 Z" id="Path" fill="#FFFFFF" fill-rule="nonzero"></path>
            <path d="M362.805715,117.972941 C356.776652,118.291864 350.951793,115.777093 347.111097,111.197092 C340.883073,103.033418 344.453807,84.0936952 353.837362,75.5218378 C356.879224,72.5299202 361.037189,70.8970047 365.338686,71.0050396 C369.640183,71.1130744 373.707911,72.9525833 376.590407,76.093295 C379.576229,78.711795 382.200463,81.7033549 384.396196,84.9916994 C385.496882,86.6148215 385.050741,88.8078222 383.399712,89.8899036 C381.748684,90.971985 379.517979,90.5333849 378.417294,88.9102628 C376.596814,86.1425541 374.41969,83.618067 371.94015,81.3996829 C367.040771,77.2362093 362.722675,76.9912991 358.73674,80.6649523 C351.595273,87.1958913 349.104064,102.135414 352.840878,106.951982 C357.131884,110.993808 363.42569,112.205778 368.950698,110.054178 C370.271087,109.692119 371.550875,109.199797 372.770553,108.584716 C374.482074,107.709342 376.591381,108.328812 377.534039,109.983678 C378.476697,111.638543 377.911766,113.730275 376.258246,114.707472 C374.580815,115.62422 372.796182,116.336973 370.943666,116.830027 C368.303295,117.60392 365.560887,117.989071 362.805715,117.972941 L362.805715,117.972941 Z" id="Path" fill="#FFFFFF" fill-rule="nonzero"></path>
            <path d="M544.198668,62.9752521 L544.198668,62.9752521 C542.275176,62.7600946 540.866213,61.0575288 541.010106,59.1222495 C541.255633,44.8121646 546.198043,30.9821436 555.072481,19.772435 C561.357239,11.7708475 570.69803,6.77563904 580.826248,6 C591.863577,6 603.96376,12.0664297 615.982185,24.6911619 C621.255342,30.3044621 626.067473,36.3358698 630.371592,42.7264935 C630.905741,43.4974148 631.111172,44.4501188 630.942352,45.3734407 C630.773532,46.2967627 630.244407,47.1144342 629.472254,47.6452203 C628.710831,48.2035754 627.753859,48.4232573 626.826005,48.2526914 C625.898152,48.0821255 625.081138,47.5363347 624.566775,46.7434537 C620.482707,40.6732418 615.916688,34.9434512 610.91319,29.6098887 C603.476068,20.3705708 592.682603,14.4726891 580.908006,13.2141326 C572.54817,13.7978146 564.838805,17.9464463 559.732686,24.6091831 C552.163098,34.7290838 548.08758,47.0462125 548.123051,59.6961009 C548.062409,60.6631909 547.607416,61.5626059 546.865014,62.1829443 C546.122613,62.8032828 545.158277,63.0898362 544.198668,62.9752521 L544.198668,62.9752521 Z" id="Path" fill="#FFFFFF" fill-rule="nonzero"></path>
            <path d="M541.794477,64 L540.31379,61.2903384 C539.65727,59.7276762 540.051971,57.9219159 541.300914,56.7742358 L542.370299,56.0352372 C548.293045,52.9971319 580.045544,36.9033844 612.044824,23.1908547 L612.044824,23.1908547 C673.246532,-2.34565265 685.338805,2.58100472 689.040521,9.80676887 C690.319826,12.3948546 690.319826,15.4297788 689.040521,18.0178645 C682.953255,32.058838 644.866708,44.3754815 628.825938,49.055806 C601.255019,57.2001156 572.813596,62.0511824 544.097767,63.5073343 L541.794477,64 Z M676.125645,11.531099 C667.899609,11.531099 651.447537,14.8155372 614.841676,30.170286 L614.841676,30.170286 C593.289462,39.1203803 571.901768,49.3021388 558.49333,55.9531263 C581.696724,53.6403051 604.635652,49.1872955 627.01621,42.6511514 C661.730082,32.5515038 679.991882,21.7949685 682.624213,15.6366468 C683.004739,14.9464557 683.004739,14.1098421 682.624213,13.4196509 C682.541953,13.0090962 681.390308,11.531099 676.125645,11.531099 Z" id="Shape" fill="#FFFFFF" fill-rule="nonzero"></path>
            <path d="M407.522261,90.9994368 C406.823874,91.0118577 406.138115,90.8185882 405.556146,90.4453204 C403.956399,89.3774518 403.521448,87.2760191 404.573088,85.6957516 C407.597797,81.5895919 412.4651,79.1204115 417.680524,79.0463552 C422.408559,78.6832513 427.041957,80.4682714 430.21451,83.8750835 C430.810088,84.585472 431.084886,85.497505 430.977019,86.4057922 C430.869153,87.3140794 430.387691,88.1422544 429.64106,88.7038118 C428.91936,89.275176 427.988472,89.5388388 427.061759,89.4343675 C426.135046,89.3298961 425.291971,88.8662487 424.725771,88.1496955 C422.893248,86.5490779 420.474685,85.7225706 418.00821,85.8540705 C415.042891,85.8540705 412.250626,87.2031324 410.471434,89.4954066 C409.801903,90.432429 408.700646,90.994052 407.522261,90.9994368 L407.522261,90.9994368 Z" id="Path" fill="#FFFFFF" fill-rule="nonzero"></path>
            <path d="M451.595522,92 C450.896397,91.9688171 450.219734,91.7359806 449.64231,91.327909 C448.800947,90.7840686 448.22292,89.8969518 448.052176,88.8874795 C447.881431,87.8780073 448.134038,86.8411768 448.747088,86.0351925 C451.769402,81.709141 456.601925,79.1213328 461.768499,79.0622484 C466.473248,78.6230186 471.098777,80.5267247 474.220224,84.1869422 C475.426403,85.7505133 475.210097,88.0206245 473.731921,89.311636 C473.001571,89.9224076 472.06391,90.2042159 471.130101,90.0935977 C470.196291,89.9829795 469.344845,89.4892353 468.767508,88.7235564 C467.01954,86.9030485 464.562089,86.0058905 462.094035,86.2872266 C459.154153,86.3131108 456.390712,87.7394415 454.606723,90.1517498 C453.983381,91.2672189 452.842604,91.9674184 451.595522,92 L451.595522,92 Z" id="Path" fill="#FFFFFF" fill-rule="nonzero"></path>
            <path d="M425.548853,168.994834 C424.297208,168.96024 423.150351,168.26864 422.511106,167.162955 C421.871862,166.057269 421.829615,164.692103 422.399203,163.546961 C425.852524,158.092824 431.814674,154.870141 438.147451,155.034659 C443.113576,154.673005 447.866905,157.162972 450.497393,161.504008 C450.98205,162.339061 451.123342,163.337817 450.890104,164.279985 C450.656866,165.222154 450.068259,166.030333 449.25411,166.526266 C448.430931,167.016904 447.450866,167.149024 446.532278,166.893191 C445.61369,166.637358 444.832897,166.014826 444.363864,165.164298 C442.886086,163.267392 440.588286,162.246926 438.230336,162.440362 C434.444172,162.323079 430.857278,164.180956 428.698502,167.377496 C427.999372,168.448817 426.802859,169.063224 425.548853,168.994834 Z" id="Path" fill="#FFFFFF" fill-rule="nonzero" transform="translate(436.500000, 162.000000) scale(1, -1) translate(-436.500000, -162.000000) "></path>
            <path d="M357.558766,102 L357.558766,102 C356.287341,102 355.112497,101.338416 354.476784,100.264459 C353.841072,99.1905029 353.841072,97.867334 354.476784,96.7933776 C355.112497,95.7194211 356.287341,95.0578368 357.558766,95.0578369 L357.558766,95.0578369 C361.420948,94.9150981 365.110157,93.4586387 367.986776,90.9409728 C369.426584,89.6258042 371.686866,89.6980859 373.035257,91.1024184 C374.383648,92.506751 374.309541,94.7113423 372.869733,96.0265108 C368.661234,99.7371962 363.230039,101.856147 357.558766,102 L357.558766,102 Z" id="Path" fill="#FFFFFF" fill-rule="nonzero"></path>
            <path d="M448.6662,146 C446.823574,145.935548 445.00555,145.545196 443.291982,144.846091 C441.486658,144.151065 440.558131,142.096062 441.206465,140.230453 C441.914589,138.407922 443.905112,137.494814 445.698348,138.169901 C447.623441,138.9117 449.147473,138.994122 449.78917,138.169901 C450.430868,137.34568 451.794475,134.955439 450.430868,125.394475 C450.430868,123.086657 449.628746,120.531572 449.147473,117.811642 C446.260291,107.863707 446.038602,97.2996178 448.505775,87.2330437 C449.214575,85.4122249 451.225659,84.5265858 452.997658,85.2549133 C454.769657,85.9832408 455.63155,88.0497321 454.922751,89.8705508 C453.134039,98.6977144 453.492207,107.841987 455.965509,116.492889 C456.446782,119.29524 457.008268,121.932747 457.329117,124.322988 C458.371875,131.740977 458.772936,139.900765 454.120629,143.774603 C452.620933,145.164357 450.685191,145.954136 448.6662,146 Z" id="Path" fill="#FFFFFF" fill-rule="nonzero"></path>
            <path d="M304.555454,725.999998 C302.656891,726.002031 301.092514,724.526088 301.00421,722.649503 C300.90978,720.693055 302.415259,719.021728 304.39028,718.890412 C311.825073,718.567043 319.210277,717.527008 326.441033,715.785075 C342.958451,711.617387 382.269905,697.316495 380.948511,653.596627 C380.926351,652.664603 381.279408,651.762066 381.929961,651.087694 C382.580515,650.413322 383.475236,650.022397 384.417169,650.000974 L384.417169,650.000974 C385.351339,649.97896 386.254972,650.330825 386.923445,650.976891 C387.591917,651.622958 387.968679,652.508571 387.968414,653.433188 C388.959459,687.265012 366.578358,713.170055 328.010188,722.649503 C320.34099,724.479322 312.516727,725.600963 304.638041,725.999998 L304.555454,725.999998 Z" id="Path" fill="#FFFFFF" fill-rule="nonzero"></path>
            <path d="M92.1763412,243 C90.6080568,242.989453 89.2330582,241.959684 88.7954235,240.46795 C75.0195175,225.664175 57.3395363,214.97011 37.7518122,209.593274 C30.1653627,208.286409 26.9493678,209.021521 25.959831,212.207003 C25.7298629,213.119375 25.1318566,213.898239 24.3056484,214.361466 C23.4794401,214.824694 22.4974761,214.931669 21.5893764,214.657374 C19.715309,214.068471 18.6302625,212.133918 19.1155341,210.246706 C22.2490676,199.628431 34.7007402,202.078803 38.8238105,202.650556 C61.9130047,206.816187 93.5781852,230.748144 95.8871046,238.589332 C96.3667938,240.455802 95.2757467,242.365031 93.4132623,242.918321 L92.1763412,243 Z" id="Path" fill="#FFFFFF" fill-rule="nonzero"></path>
            <path d="M64.5916982,238.999744 C63.5340777,239.012891 62.5320981,238.519194 61.8872384,237.667199 C51.148749,226.523927 37.1450804,219.218458 21.9759677,216.846185 C13.0430549,215.347072 7.71608859,216.846185 7.06046196,218.761718 C7.01170713,220.095452 7.44949428,221.40048 8.28976188,222.426217 C9.06942798,222.963478 9.59835004,223.801994 9.75321515,224.746272 C9.90808026,225.690551 9.67535436,226.658069 9.10929516,227.42326 C8.55251108,228.207758 7.70713676,228.730014 6.76552356,228.871196 C5.82391036,229.012379 4.86614159,228.76048 4.11014215,228.172817 C0.745796751,225.350434 -0.72117552,220.813239 0.340289063,216.513049 C2.47107559,210.100176 10.5844551,207.684939 23.1233143,209.683756 C39.935424,212.398729 55.4162236,220.615718 67.2142047,233.086576 C67.810014,233.833979 68.0849189,234.793533 67.9770105,235.749146 C67.8691022,236.704759 67.3874533,237.576086 66.6405314,238.166903 C66.0765357,238.682893 65.3502782,238.978113 64.5916982,238.999744 Z" id="Path" fill="#FFFFFF" fill-rule="nonzero"></path>
            <path d="M725.571324,228.995452 L724.508819,228.995452 C722.655461,228.401727 721.60552,226.428978 722.138617,224.542043 C724.508819,216.29499 756.465687,193.203241 779.350401,189.574537 C783.600419,188.914773 795.696625,186.93548 798.884139,197.82159 C799.205336,199.059074 798.847864,200.375462 797.946379,201.274885 C797.044894,202.174308 795.736353,202.520121 794.513672,202.182061 C793.29099,201.844 792.339921,200.873425 792.018725,199.635942 C791.201414,196.419591 788.0139,195.512415 780.658099,196.749473 C760.950967,201.67543 743.019655,212.10851 728.9223,226.851218 C728.369298,228.21097 727.02604,229.070499 725.571324,228.995452 Z" id="Path" fill="#FFFFFF" fill-rule="nonzero"></path>
            <path d="M753.324107,224.976999 C752.469834,224.962342 751.649483,224.636551 751.013776,224.059484 C749.662075,222.638692 749.662075,220.392236 751.013776,218.971444 C763.150368,206.737509 778.915561,198.856947 795.9002,196.534023 C808.607019,194.782403 816.693176,197.368128 818.755971,203.874146 C819.647597,208.240153 818.056279,212.744374 814.630381,215.551614 C813.012645,216.703272 810.777667,216.311159 809.638417,214.675804 C808.499166,213.040449 808.887055,210.781128 810.50479,209.62947 C811.427588,208.671371 811.932709,207.379796 811.907491,206.042819 C811.247397,203.957557 805.884129,202.456168 796.890342,203.707325 C781.650396,205.8076 767.47902,212.795045 756.459556,223.642431 C755.717184,224.610956 754.528209,225.117029 753.324107,224.976999 Z" id="Path" fill="#FFFFFF" fill-rule="nonzero"></path>
            <path d="M559.222212,546.532811 C562.118197,551.880509 564.765954,556.734574 567,561.506366 C566.961289,561.66866 566.961289,561.837706 567,562 L567,561.506366 C564.765954,556.734574 562.118197,551.880509 559.222212,546.532811 C544.411317,519.053869 524.222164,481.702253 526.12524,394 L526.12524,394 C524.222164,481.866797 544.411317,519.218413 559.222212,546.532811 Z" id="Path"></path>
            <path d="M472.746472,266.850781 C483.85889,267.42568 522.793509,269.561018 536.12841,275.720648 C554.072907,283.933488 589.468015,331.48583 621.158984,375.506651 C626.344779,382.651822 631.365945,389.550607 634,393 L634,393 C631.365945,389.550607 626.344779,382.651822 621.158984,375.506651 C589.468015,331.48583 554.072907,283.851359 536.210724,275.638519 C522.793509,269.47889 483.941204,267.42568 472.746472,266.768652 C470.375222,259.939611 465.449764,254.289592 459,251 L459,251 C465.444457,254.336118 470.363542,260.008217 472.746472,266.850781 L472.746472,266.850781 Z" id="Path"></path>
            <path d="M526.470588,383.228737 C525.831879,382.524466 524.949649,382.085692 524,382 C524.949649,382.085692 525.831879,382.524466 526.470588,383.228737 C527.294118,384.211726 605.2,475.957413 650,472.926529 C605.529412,475.957413 527.294118,384.211726 526.470588,383.228737 Z" id="Path"></path>
            <path d="M166,497.976942 C199.929412,499.298661 261.117647,436.269171 285,410 L285,410 C261.117647,436.269171 199.929412,499.381268 166,497.976942 Z" id="Path"></path>
            <path d="M178,403 L178,403 C169.847826,388.809979 138.706522,325.734108 118,283 L118,283 C138.706522,325.734108 169.766304,388.809979 178,403 Z" id="Path"></path>
            <path d="M1057,763.367341 L1060.62,765.916735 L1060.62,765.916735 L1060.62,765.916735 L1061.11364,766.327928 L1061.11364,766.327928 C1063.74636,768.301653 1071.06864,774.551781 1078.22636,779.979524 C1090.15591,789.519193 1103.64864,800.456918 1106.36364,802.348404 L1109.24318,804.404367 L1109.24318,804.404367 L1111.3,805.884661 L1111.3,805.884661 L1126.10909,816 L1238,653.825619 L1222.69727,643.381326 C1217.0273,637.247835 1209.00104,633.8351 1200.64818,634.006134 C1189.82381,635.125305 1179.94118,640.659658 1173.33364,649.3025 C1156.22091,669.039747 1125.53318,688.530279 1109.07864,698.645618 L1099.69955,704.813508 C1098.60318,705.594581 1097.55885,706.446181 1096.57318,707.362902 L1057,763.367341 Z M1227.63364,655.305913 L1124.71045,806.213615 L1118.70455,802.101688 L1221.54545,650.947271 L1227.63364,655.305913 Z M1101.50955,711.886021 C1102.57909,710.899159 1107.43318,707.856333 1112.53409,704.566792 C1128.98864,693.875783 1160.49909,674.056298 1178.35227,653.578904 C1183.71963,646.424751 1191.76947,641.763131 1200.64818,640.667455 C1205.96285,640.639674 1211.10737,642.538849 1215.12818,646.012959 L1111.87591,797.414092 L1110.88864,796.673946 C1108.33818,794.946936 1094.43409,783.680258 1083.08045,774.551781 C1074.27727,767.479267 1069.58773,763.696295 1066.62591,761.640332 L1101.50955,711.886021 Z" id="Shape"></path>
            <path d="M400.68,248 L399.32,248 L400.68,248 Z" id="Path"></path>
            <path d="M394.6,248 L393.4,248 L394.6,248 Z" id="Path"></path>
            <polygon id="Path" points="449.4 248 450.6 248 450.6 248"></polygon>
            <path d="M439.8,247 L438.2,247 L439.8,247 Z" id="Path"></path>
            <path d="M754.286449,268.738676 C754.957418,269.597922 755.171082,270.729916 754.859643,271.775455 C752.894408,279.40844 706.383851,458.168022 660.200833,477.537747 C656.323655,479.117235 652.184911,479.952476 648,480 C652.184911,479.952476 656.323655,479.117235 660.200833,477.537747 C706.383851,458.168022 752.894408,279.40844 754.859643,271.775455 C755.171082,270.729916 754.957418,269.597922 754.286449,268.738676 C754.047329,268.425855 753.738982,268.172985 753.385716,268 L753.385716,268 C753.738982,268.172985 754.047329,268.425855 754.286449,268.738676 L754.286449,268.738676 Z" id="Path"></path>
            <path d="M178,412 C180.547553,412 182.026777,412 280.970452,297.623859 L284.586334,293.433354 C296.173592,279.958004 337.263158,277 356,277 C337.263158,277 296.173592,279.54717 284.586334,293.433354 L280.970452,297.623859 C182.273315,411.917833 180.79409,411.917833 178,412 L178,412 Z" id="Path"></path>
            <path d="M1094.39693,835.145277 C1083.57019,834.218583 1072.83428,837.753776 1064.66819,844.934554 C1044.05516,861.387122 1010.30236,874.220124 992.153049,881.376991 C987.225633,883.269036 983.940689,884.585241 981.641228,885.654658 C980.472903,886.167867 979.347022,886.773023 978.27416,887.464441 L929,934.765571 L932.038573,937.891559 L932.038573,937.891559 L933.516798,939.619078 L946.738698,955.249017 C956.59353,967.094866 967.844463,980.503708 970.143924,982.88933 L971.375778,984.123273 L971.375778,984.123273 L972.607632,985.357215 L972.607632,985.357215 L973.510991,986.262106 L974.332227,987.084735 L974.332227,987.084735 L986.979262,1000 L1127,861.63391 L1114.27084,848.471856 C1109.80075,841.438664 1102.5919,836.604723 1094.39693,835.145277 L1094.39693,835.145277 Z M975.31771,978.035823 C973.182497,975.814726 961.603069,961.583256 952.240979,950.806824 C945.096226,942.580541 941.236416,937.727033 938.936956,935.176885 L982.873082,893.058313 C986.833339,891.147933 990.890268,889.445527 995.027375,887.958018 C1013.50518,880.718888 1047.83285,867.227783 1068.93861,850.528427 C1075.57274,844.619987 1084.31168,841.652612 1093.16508,842.302144 C1098.45465,843.264649 1103.18118,846.205354 1106.38698,850.528427 L976.138946,979.187503 L975.31771,978.035823 Z M987.143509,990.046197 L982.051846,984.863638 L1111.39652,855.957774 L1117.06304,861.716173 L987.143509,990.046197 Z" id="Shape"></path>
            <path d="M363.354545,274.733148 L364.336364,271.980542 C365.298786,267.285117 368.016098,263.121848 371.945455,260.322446 C388.603864,255.979049 405.773666,253.855361 423,254.007644 C405.773666,253.855361 388.603864,255.979049 371.945455,260.322446 C368.016098,263.121848 365.298786,267.285117 364.336364,271.980542 L363.354545,274.733148 C362.815137,276.100461 361.483374,277.000407 360,277 L360,277 C361.483374,277.000407 362.815137,276.100461 363.354545,274.733148 Z" id="Path"></path>
            <path d="M70,289.152939 L112.601351,288 L112.601351,288 L70,289.152939 C77.4552365,317.564648 121.039696,476.340809 161.265203,490.093724 C163.115208,490.706611 165.052156,491.012575 167,491 C165.052588,491.006817 163.116553,490.700997 161.265203,490.093724 C121.039696,476.340809 77.4552365,317.564648 70,289.152939 Z" id="Path"></path>
            <path d="M567.941317,564.40275 C568.019561,563.93846 568.019561,563.46429 567.941317,563 C568.019561,563.46429 568.019561,563.93846 567.941317,564.40275 C567.464709,565.324823 566.632207,566.010724 565.637845,566.300589 L287.987202,647 L287,647 L287,647 L288.069469,647 L290.126141,646.422397 L565.637845,566.300589 C566.657839,566.061086 567.508985,565.359823 567.941317,564.40275 L567.941317,564.40275 Z" id="Path"></path>
            <path d="M289.457398,639 C270.501765,486.328752 293.634063,399.099784 293.875024,398.195431 C294.302632,396.591249 293.606738,394.895299 292.188294,394.084735 C291.631468,393.971755 291.05839,393.971755 290.501564,394.084735 L290.501564,394.084735 C291.05839,393.971755 291.631468,393.971755 292.188294,394.084735 C293.606738,394.895299 294.302632,396.591249 293.875024,398.195431 C293.875024,399.099784 270.501765,486.328752 289.457398,639 L289.457398,639 Z" id="Path"></path>
            <path d="M704,273 L704,273 C672.553092,350.225848 641.187865,401 634,401 L634,401 C641.351225,401 672.716453,350.225848 704,273 Z" id="Path"></path>
            <path d="M454.883495,249.56 L451,248.84 L451,248.84 L454.883495,249.56 L456.902913,250.2 L459,251.16 L459,251.16 C458.300971,251.16 457.601942,250.44 456.902913,250.2 L454.883495,249.56 Z" id="Path" fill="#FFFFFF" fill-rule="nonzero"></path>
            <path d="M224.375796,239.369231 C224.375796,239.369231 224.375796,239.369231 224.375796,239.369231 L221.063694,246.347692 C221.063694,246.347692 221.063694,246.929231 221.477707,246.846154 L228.681529,243.938462 C228.681529,243.938462 228.681529,243.938462 229.095541,243.938462 L232.490446,251 L234.808917,243.523077 C234.808917,243.523077 234.808917,243.523077 234.808917,243.523077 L242.343949,245.184615 L237.955414,238.787692 L244,233.886154 L236.299363,233.304615 L236.299363,224 L231,229.649231 C231,229.649231 231,229.649231 231,229.649231 L224.872611,224.830769 C224.872611,224.830769 224.375796,224.830769 224.375796,224.830769 L225.535032,232.556923 C225.535032,232.556923 225.535032,232.556923 225.535032,232.556923 L218,234.384615 C218,234.384615 218,234.384615 218,234.966154 L224.375796,239.369231 Z" id="Path"></path>
            <path d="M752.163236,267.343853 L752.163236,267.343853 C752.822355,267.36152 753.457926,267.591764 753.974482,268 L753.974482,268 C763.376935,255.15393 775.206692,244.260393 788.799787,235.930811 C797.03272,231.337781 805.924287,228.385119 811.028706,224.858328 C812.979695,223.599096 814.055424,221.354954 813.812067,219.051792 C813.568709,216.74863 812.047514,214.776817 809.876095,213.949883 L812.181316,213.129699 C814.31582,211.273319 815.342119,208.453912 814.898184,205.666026 C813.416256,200.908959 805.759629,199.596665 796.044768,200.908959 L796.044768,199.022536 C793.986535,191.312808 784.600992,192.953176 780.402196,193.609323 C757.596972,197.218132 727.382109,220.265299 725.653193,225.842549 L723.347972,226.416678 C719.972469,223.710071 716.349979,222.72585 716.102991,222.069703 C715.197368,220.101262 726.311827,197.464187 716.102991,195.085654 C712.068854,194.183451 707.870058,198.530426 706.717447,201.647125 C703.671262,207.47043 696.59094,230.025487 701.942346,265.703485 L701.942346,265.703485 L752.163236,267.343853 Z" id="Path"></path>
            <path d="M368.216997,114.294927 L370.26842,113.80136 L370.26842,114.459449 L373.796869,114.459449 C371.499247,147.310552 370.86933,180.257525 371.909559,213.172763 C371.909559,225.923233 371.909559,238.838225 371.909559,252 C377.316249,250.645893 382.795621,249.602222 388.320948,248.874078 L388.895347,248.874078 L392.998194,248.380512 L394.229048,248.380512 L398.331895,248.380512 L399.726863,248.380512 L404.075882,247.969206 L404.814394,247.969206 C409.737811,247.969206 414.907398,247.311118 419.994929,247.228856 L421.389897,247.228856 C422.866922,247.228856 424.26189,247.228856 425.656858,247.228856 L433.862552,247.228856 L437.9654,247.228856 L439.606538,247.228856 L443.709386,247.228856 L449.863657,246.73529 C446.472109,236.002893 444.028344,224.992358 442.560588,213.830852 C441.493848,207.085442 440.427108,200.751338 439.114197,194.746278 L438.621855,192.854273 L445.514638,191.12679 L445.924923,193.018795 L446.745493,193.018795 C458.151408,188.494435 498.359311,124.33078 491.1383,95.8684413 C482.932605,65.349575 443.05293,-12.38716 392.669966,28.7433876 C377.735602,41.0825519 376.99709,59.0977318 374.371268,78.1000447 C355.169943,61.6478257 342.451116,98.171752 350.41064,108.618911 C354.485421,113.28327 360.829947,115.254966 366.822029,113.719099 L368.216997,114.294927 Z" id="Path"></path>
            <path d="M367.36,114 L368.64,114 L367.36,114 Z" id="Path" fill="#FFFFFF" fill-rule="nonzero"></path>
            <path d="M371.986865,213.465171 C370.972711,180.632675 371.586837,147.768523 373.826865,115 L370.386865,115 L370.386865,115 C366.466865,162.755608 368.946865,206.244392 368.946865,254 L372.386865,252.687131 C372.386865,239.066116 372.226865,226.019481 371.986865,213.465171 Z" id="Path" fill="#FFFFFF" fill-rule="nonzero"></path>
            <path d="M439,193.070359 L439.5,194.964072 C440.833333,200.974551 441.916667,207.314371 443,214.065868 C444.490587,225.237447 446.972363,236.257918 450.416667,247 L454,247 C448.166667,231.273952 446.833333,211.348802 443,194.881737 C444.162933,194.639786 445.305218,194.309462 446.416667,193.893713 L446,192 L439,193.070359 Z" id="Path" fill="#FFFFFF" fill-rule="nonzero"></path>
            <path d="M544.24882,60.8167664 C572.595512,59.4021644 600.668999,54.5517884 627.860628,46.3707976 C663.30744,36.0522485 690.795129,22.1841184 685.297591,11.9481177 C679.800053,1.71211695 646.486615,13.0212468 613.00907,27.137022 C595.777981,8.97637554 575.428886,0.804084628 556.474688,22.10157 C548.072393,32.8120042 543.42764,46.0177645 543.264186,59.6610889 L543.264186,59.6610889 C542.946971,59.9346302 542.910234,60.4150865 543.182134,60.734218 C543.454033,61.0533495 543.931604,61.0903077 544.24882,60.8167664 Z" id="Path"></path>
            <path d="M591,170.564885 C591,170.564885 591,170.564885 591,170.061069 L584.5,168.885496 C584.5,168.885496 584.5,168.885496 584.5,168.885496 L585.166667,162.251908 C585.166667,162.251908 585.166667,162.251908 584.666667,162.251908 L579.75,166.618321 L579.75,166.618321 L575.083333,162 C575.083333,162 574.583333,162 574.583333,162 L574.583333,168.633588 L568,169.473282 C568,169.473282 568,169.473282 568,169.977099 L573.333333,173.839695 L569.833333,179.549618 C569.833333,179.549618 569.833333,180.053435 569.833333,179.549618 L576.166667,177.78626 C576.166667,177.78626 576.166667,177.78626 576.166667,177.78626 L578.416667,184 L581,177.870229 C581,177.870229 581,177.870229 581,177.870229 L587.25,179.969466 L584.166667,174.175573 L591,170.564885 Z" id="Path"></path>
            <path d="M83.112751,941.013105 C82.7067216,941.00233 82.3493155,940.739798 82.2140658,940.352977 L78.2108316,922.52954 C78.0644334,922.206877 77.7452589,922 77.393845,922 C77.0424312,922 76.7232567,922.206877 76.5768585,922.52954 L66.2828277,937.46492 C66.0710734,937.840143 65.626871,938.012699 65.2207451,937.8775 L47.9823285,932.43145 C47.6277684,932.3452 47.2551109,932.464858 47.0149551,932.742068 C46.7747993,933.019277 46.7068424,933.408215 46.8385473,933.751704 L54.5182211,950.254887 C54.7636662,950.600064 54.7636662,951.064934 54.5182211,951.41011 L41.2830386,963.787497 C41.0204062,964.036963 40.9308045,964.420805 41.0554419,964.762491 C41.1800793,965.104177 41.4948267,965.337557 41.8549292,965.3553 L59.8286338,966.923102 C60.2475187,966.968708 60.6001114,967.260079 60.727319,967.665745 L64.6488545,985.489183 C64.8215186,985.804377 65.1500371,986 65.5066904,986 C65.8633438,986 66.1918623,985.804377 66.3645263,985.489183 L76.6585571,970.471287 C76.9747153,970.237395 77.4044815,970.237395 77.7206397,970.471287 L94.9590563,975.834821 C95.3136163,975.92107 95.6862739,975.801412 95.9264297,975.524203 C96.1665855,975.246994 96.2345424,974.858055 96.1028375,974.514566 L88.4231637,958.011383 C88.2147908,957.684782 88.2147908,957.265278 88.4231637,956.938676 L101.740045,944.561289 C101.985882,944.292253 102.064684,943.908167 101.944939,943.562618 C101.825195,943.217068 101.526446,942.966447 101.168154,942.910971 L83.112751,941.013105 Z" id="Path"></path>
            <path d="M597.44898,850.002667 C597.375462,849.845714 597.375462,849.663619 597.44898,849.506667 L598.346939,840.248 C598.346939,840.248 598.346939,839.752 597.77551,840.248 L590.836735,846.448 C590.665994,846.572177 590.436047,846.572177 590.265306,846.448 L583.734694,840 L584.142857,849.341333 L575,850.498667 L582.428571,855.954667 L577.693878,864.221333 C577.693878,864.221333 577.693878,864.882667 577.693878,864.8 L586.510204,862.32 L589.693878,871 C589.693878,871 590.265306,871 590.346939,871 L594.020408,862.733333 L602.755102,865.709333 C602.755102,865.709333 603.408163,865.709333 603.244898,865.213333 L598.836735,856.946667 C598.836735,856.946667 598.836735,856.946667 598.836735,856.450667 L607,851.408 C607,851.408 607,850.746667 607,850.746667 L597.44898,850.002667 Z" id="Path"></path>
            <path d="M130.721464,645.258027 C130.387204,645.260665 130.103866,645.011066 130.062092,644.67717 L126.847658,630.404683 C126.720435,630.156163 126.46599,630 126.188286,630 C125.910583,630 125.656138,630.156163 125.528915,630.404683 L117.286775,642.436721 C117.037317,642.604526 116.712019,642.604526 116.462561,642.436721 L102.615766,638.121783 C102.320426,638.005647 101.984421,638.091335 101.779613,638.33502 C101.574806,638.578705 101.546482,638.926502 101.70913,639.200518 L107.890735,652.39427 C108.05269,652.676684 108.05269,653.024632 107.890735,653.307046 L97.175953,663.181615 C96.9982471,663.40948 96.9514482,663.714155 97.0524872,663.985417 C97.1535262,664.256679 97.3877727,664.455249 97.6704814,664.509288 L112.094227,665.753982 C112.428487,665.751344 112.711824,666.000943 112.753598,666.334839 L115.968033,680.607326 C116.118319,680.851466 116.383323,681 116.668615,681 C116.953906,681 117.21891,680.851466 117.369196,680.607326 L125.611337,668.575288 C125.891851,668.412236 126.237458,668.412236 126.517972,668.575288 L140.364768,672.890226 C140.660107,673.006362 140.996112,672.920674 141.20092,672.676989 C141.405728,672.433304 141.434051,672.085507 141.271403,671.811491 L135.089798,658.617739 C134.883624,658.348882 134.883624,657.97382 135.089798,657.704963 L145.722159,647.830394 C145.960429,647.638082 146.057285,647.31841 145.966196,647.024951 C145.875107,646.731493 145.61469,646.524224 145.310052,646.50272 L130.721464,645.258027 Z" id="Path"></path>
            <path d="M371.652482,947.345452 C371.458407,947.105054 371.458407,946.76332 371.652482,946.522922 L375.965246,932.704423 C376.081324,932.409687 375.995679,932.074369 375.752117,931.86998 C375.508555,931.66559 375.160933,931.637325 374.887055,931.79964 L361.699949,937.968613 C361.408581,938.092059 361.079002,938.092059 360.787634,937.968613 L350.918039,927.275727 C350.716043,927.027217 350.376176,926.935098 350.074812,927.047177 C349.773447,927.159255 349.578458,927.450289 349.591035,927.769245 L348.346968,942.163515 C348.349605,942.497092 348.100131,942.77985 347.766404,942.821538 L333.501107,946.029404 C333.201073,946.132955 333,946.413495 333,946.728554 C333,947.043614 333.201073,947.324154 333.501107,947.427705 L345.527084,955.653002 C345.675238,955.907493 345.675238,956.22104 345.527084,956.475531 L341.21432,970.376283 C341.128658,970.649876 341.209858,970.947926 341.422796,971.141507 C341.635733,971.335088 341.942178,971.389445 342.209573,971.281066 L355.479616,965.112093 C355.722016,964.919621 356.066595,964.919621 356.308994,965.112093 L366.261527,975.722726 C366.453741,975.96051 366.773253,976.057168 367.066564,975.966265 C367.359874,975.875362 367.567038,975.615477 367.588531,975.311462 L368.832598,960.834939 C368.829961,960.501362 369.079435,960.218603 369.413162,960.176915 L383.595521,956.969049 C383.843916,956.842087 384,956.588162 384,956.311025 C384,956.033889 383.843916,955.779964 383.595521,955.653002 L371.652482,947.345452 Z" id="Path"></path>
            <path d="M826.47111,985.03183 C826.47111,985.03183 826.47111,985.03183 826.47111,984.62069 L827.466983,975.411141 C827.466983,975.411141 827.466983,974.835544 826.803068,975.411141 L819.748968,981.496021 C819.748968,981.496021 819.334021,981.496021 819.251032,981.496021 L812.52889,975 L812.52889,984.209549 L803.234076,985.360743 C803.090923,985.429439 803,985.57317 803,985.730769 C803,985.888369 803.090923,986.0321 803.234076,986.100796 L810.786112,991.527851 L805.889737,999.750663 L814.935583,997.28382 C814.935583,997.28382 814.935583,997.28382 814.935583,997.28382 L818.172169,1006 C818.172169,1006 818.753095,1006 818.919074,1006 L822.570608,997.777188 L831.367485,1000.7374 C831.52655,1000.78805 831.700755,1000.73923 831.809486,1000.61354 C831.918217,1000.48785 831.940263,1000.30981 831.865422,1000.1618 L827.466983,991.938992 L835.765924,986.923077 C835.909077,986.854381 836,986.71065 836,986.55305 C836,986.395451 835.909077,986.25172 835.765924,986.183024 L826.47111,985.03183 Z" id="Path"></path>
            <path d="M28.5426884,443.739877 L26.9183654,436.232686 C26.8505148,436.090383 26.7085526,436 26.5528927,436 C26.3972328,436 26.2552706,436.090383 26.18742,436.232686 L21.8829641,442.584924 C21.8829641,442.584924 21.8829641,442.584924 21.4768833,442.584924 L13.8425652,439.945033 C13.6868998,439.894221 13.5164169,439.943197 13.4100089,440.069297 C13.303601,440.195397 13.2820261,440.374021 13.3552683,440.522509 L16.5226982,447.452224 L11,452.64951 L18.5531019,453.309483 C18.5531019,453.309483 18.5531019,453.309483 18.5531019,453.309483 L20.2586411,460.816674 C20.2586411,460.816674 20.745938,461.229157 20.9083703,460.816674 L25.2128262,454.546932 C25.2128262,454.546932 25.2128262,454.546932 25.7001231,454.546932 L32.9283605,456.856837 C33.084026,456.907649 33.2545089,456.858673 33.3609168,456.732573 C33.4673248,456.606473 33.4888996,456.427849 33.4156574,456.279361 L30.1670114,449.349646 C30.0938687,449.193017 30.0938687,449.011296 30.1670114,448.854666 L35.7709257,443.65738 C35.9110197,443.58846 36,443.44426 36,443.286146 C36,443.128032 35.9110197,442.983831 35.7709257,442.914911 L28.5426884,443.739877 Z" id="Path"></path>
            <path d="M114.702107,280.35496 L115.111917,280.35496 C121.832808,243.670566 115.111917,221.462526 112.161283,215.458129 C110.685965,212.332553 106.997672,207.890945 102.98153,208.713465 C92.3264606,210.852017 102.98153,233.389066 101.916023,235.774374 C99.0432309,237.203495 96.3006832,238.882367 93.7198159,240.791746 L92.4084227,239.31121 C90.7691812,233.718074 61.2628344,209.864993 38.7232639,205.752393 C34.5431981,205.012125 25.1995216,203.120329 22.9865455,210.852017 L22.9865455,212.743813 C13.3969828,211.181025 5.6925478,212.743813 4.13526838,217.103169 C3.62348212,219.896621 4.58403794,222.757387 6.67609269,224.670354 L7.65963759,226.068638 C5.97801603,227.254541 4.97717357,229.187928 4.97717357,231.250514 C4.97717357,233.3131 5.97801603,235.246487 7.65963759,236.43239 C12.6593241,240.051478 21.5931903,243.259306 29.5435115,248.029923 C44.7884574,257.324399 62.3283413,274.926328 64.7052415,282 C65.083329,281.917642 65.4746231,281.917642 65.8527106,282 L114.702107,280.35496 Z" id="Path"></path>
            <path d="M19.6833856,57.5620915 C19.6833856,57.5620915 19.6833856,57.5620915 19.6833856,57.5620915 L16.4231975,64.4248366 C16.4231975,64.4248366 16.4231975,64.996732 16.4231975,64.9150327 L23.5141066,62.0555556 L23.9216301,62.0555556 L27.2633229,69 L29.5454545,61.7287582 C29.5454545,61.7287582 29.5454545,61.7287582 29.9529781,61.7287582 L37.369906,63.3627451 L33.0501567,57.0718954 L39,52.251634 L31.4200627,51.6797386 L31.4200627,44 L26.2037618,49.5555556 C26.2037618,49.5555556 26.2037618,49.5555556 25.7962382,49.5555556 L19.7648903,44.8169935 C19.7648903,44.8169935 19.2758621,44.8169935 19.2758621,44.8169935 L20.4169279,52.4150327 C20.4169279,52.4150327 20.4169279,52.4150327 20.4169279,52.4150327 L13,54.2124183 C13,54.2124183 13,54.2124183 13,54.7843137 L19.6833856,57.5620915 Z" id="Path"></path>
            <path d="M1186.32325,504.880637 L1177.18139,506.03183 C1177.18139,506.03183 1176.77327,506.525199 1177.18139,506.689655 L1184.60915,512.116711 C1184.60915,512.116711 1184.60915,512.116711 1184.60915,512.61008 L1179.79335,520.832891 L1188.69033,518.28382 C1188.69033,518.28382 1188.69033,518.28382 1188.69033,518.28382 L1191.87366,527 C1191.87366,527 1192.44503,527 1192.60827,527 L1196.19972,518.777188 L1204.85184,521.737401 C1205.25995,521.737401 1205.50483,521.737401 1205.34158,521.161804 L1201.01552,512.938992 L1208.76978,507.923077 C1208.91057,507.854381 1209,507.71065 1209,507.55305 C1209,507.395451 1208.91057,507.25172 1208.76978,507.183024 L1199.70954,505.538462 L1200.68903,496.328912 C1200.68903,496.328912 1200.28091,495.753316 1200.03604,496.328912 L1193.09802,502.413793 C1193.09802,502.413793 1192.6899,502.413793 1192.60827,502.413793 L1185.99675,496 L1186.40487,505.291777 C1186.30513,505.180053 1186.27383,505.022413 1186.32325,504.880637 L1186.32325,504.880637 Z" id="Path"></path>
            <path d="M1239.83333,849.75873 L1239.83333,842 L1234.5,847.612698 C1234.5,847.612698 1234.5,847.612698 1234.5,847.612698 L1228.41667,842.825397 L1229.58333,850.501587 C1229.58333,850.501587 1229.58333,850.501587 1229.58333,850.501587 L1222,852.234921 L1228.75,856.114286 C1228.75,856.114286 1228.75,856.114286 1228.75,856.526984 L1225.33333,863.460317 C1225.33333,863.460317 1225.33333,864.038095 1225.33333,863.955556 L1232.58333,861.066667 C1232.58333,861.066667 1232.58333,861.066667 1233,861.066667 L1236.41667,868 L1238.66667,860.571429 L1246.25,862.222222 L1241.91667,855.866667 L1248,850.996825 L1239.83333,849.75873 Z" id="Path"></path>
            <path d="M1200.09567,277.792692 C1200.36928,277.792692 1200.59108,278.013603 1200.59108,278.28611 L1201.25164,290.703778 C1201.33039,290.883685 1201.50871,291 1201.70577,291 C1201.90283,291 1202.08115,290.883685 1202.1599,290.703778 L1210.41683,281.164377 C1210.6049,280.99685 1210.88933,280.99685 1211.07739,281.164377 L1221.23342,288.4834 C1221.39394,288.645544 1221.64503,288.677223 1221.84108,288.560068 C1222.03712,288.442912 1222.12722,288.207354 1222.05911,287.989983 L1219.6646,275.736787 C1219.6646,275.736787 1219.6646,275.161133 1219.6646,275.161133 L1231.71972,271.789449 C1231.89362,271.685369 1232,271.498097 1232,271.296031 C1232,271.093965 1231.89362,270.906694 1231.71972,270.802614 L1220.57286,265.046079 C1220.57286,265.046079 1220.57286,265.046079 1220.57286,264.388189 L1225.44445,252.875119 C1225.48326,252.675572 1225.41354,252.470432 1225.26101,252.335396 C1225.10848,252.20036 1224.89575,252.155447 1224.70133,252.217229 L1213.30676,257.315875 C1213.1187,257.483402 1212.83427,257.483402 1212.64621,257.315875 L1206.61865,246.296222 C1206.53989,246.116315 1206.36157,246 1206.16451,246 C1205.96746,246 1205.78914,246.116315 1205.71038,246.296222 L1202.65532,258.878363 C1202.48262,259.001893 1202.25003,259.001893 1202.07733,258.878363 L1189.7745,256.740221 C1189.55625,256.67239 1189.31974,256.762118 1189.20211,256.957377 C1189.08448,257.152635 1189.11629,257.402706 1189.27909,257.562583 L1196.71033,267.513165 C1196.86287,267.736483 1196.86287,268.029974 1196.71033,268.253291 L1187.29742,276.476913 C1187.11679,276.555349 1187,276.732951 1187,276.929212 C1187,277.125474 1187.11679,277.303075 1187.29742,277.381511 L1200.09567,277.792692 Z" id="Path"></path>
            <path d="M932.623566,938.121056 L929.581853,934.995346 L978.906932,887.698417 C979.980903,887.00706 981.107947,886.401959 982.277479,885.888795 L790.402923,681.237038 C782.248951,672.915702 773.269316,665.446763 763.602964,658.94579 L763.602964,658.452256 C777.649017,652.991312 793.375644,653.922237 806.680199,661.002178 L1060.29331,766.9473 L1061.1154,766.9473 L1061.85527,765.960233 L1061.85527,765.960233 L1061.1976,766.9473 L1060.62215,766.536022 L1061.36202,765.548956 L1061.36202,765.548956 L1061.36202,765.548956 L1057.74485,762.999034 L1096.87608,707.14753 C1097.86097,706.230619 1098.90449,705.378843 1100,704.597608 C1078.54359,688.969058 928.513143,579.569204 871.789303,545.926692 C807.913326,508.089149 737.131838,501.508706 567.617984,561.96652 L567.617984,561.96652 C567.663662,562.349019 567.663662,562.735599 567.617984,563.118098 C567.696172,563.58093 567.696172,564.05361 567.617984,564.516442 C567.185959,565.470508 566.335417,566.169568 565.316147,566.408319 L290,646.278438 C298.076904,672.701509 310.61684,697.545355 327.076017,719.732626 C343.032333,741.856133 365.557899,758.378581 391.445245,766.9473 C445.291789,782.987128 559.232721,771.71812 642.920938,763.328056 C666.614831,761.196292 690.35948,766.825523 710.578504,779.367885 L932.870192,941 L934.02111,939.848423 L932.541358,938.121056 L932.623566,938.121056 Z" id="Path"></path>
            <path d="M825.422557,57.7999841 C825.528382,57.8937938 825.589007,58.0287842 825.589007,58.170611 C825.589007,58.3124379 825.528382,58.4474283 825.422557,58.5412379 L819.686775,70.6483826 C819.551471,70.8664281 819.576078,71.1481604 819.747109,71.3391741 C819.918141,71.5301878 820.194299,71.5843587 820.424233,71.4719979 L832.879073,66.5303062 C833.101585,66.3781436 833.394018,66.3781436 833.61653,66.5303062 L839.434252,78.6374508 C839.521321,78.8564077 839.732268,79 839.96686,79 C840.201452,79 840.412398,78.8564077 840.499468,78.6374508 L844.432576,65.7890524 C844.639072,65.6860739 844.881597,65.6860739 845.088093,65.7890524 L858.198451,68.7540674 C858.424721,68.9132719 858.73655,68.8579601 858.894939,68.630525 C859.053328,68.40309 858.9983,68.0896567 858.772029,67.9304521 L851.233574,56.8116458 C851.041834,56.5709309 851.041834,56.2287455 851.233574,55.9880305 L861.72186,47.7518777 C861.894435,47.6476391 862,47.4600826 862,47.2577085 C862,47.0553344 861.894435,46.8677779 861.72186,46.7635393 L848.283743,45.0339472 C847.996387,45.0369077 847.751203,44.825668 847.710165,44.5397781 L847.710165,31.279572 C847.60646,31.1061085 847.419864,31 847.218527,31 C847.017189,31 846.830593,31.1061085 846.726888,31.279572 L837.631577,41.1629554 C837.392095,41.3556816 837.051662,41.3556816 836.81218,41.1629554 L826.323894,32.9268026 C826.133253,32.7867129 825.876676,32.7783867 825.677442,32.9058245 C825.478208,33.0332622 825.377044,33.270414 825.422557,33.5033333 L827.38911,46.8459009 C827.545264,47.0060296 827.545264,47.2623028 827.38911,47.4224316 L814.360692,50.4698081 C814.142857,50.557326 814,50.7693583 814,51.005158 C814,51.2409577 814.142857,51.45299 814.360692,51.540508 L825.422557,57.7999841 Z" id="Path"></path>
            <path d="M929.692978,433.061884 C929.9452,433.134557 930.153406,433.315967 930.262632,433.558225 L932.948144,445.635857 C933.034618,445.855777 933.244121,446 933.477108,446 C933.710095,446 933.919598,445.855777 934.006072,445.635857 L940.923299,435.543589 C941.14429,435.390758 941.434721,435.390758 941.655712,435.543589 L953.21155,439.183423 C953.43991,439.296278 953.714179,439.241869 953.88404,439.050016 C954.053902,438.858163 954.078341,438.575192 953.943962,438.356188 L948.817076,427.188514 C948.666728,426.963873 948.666728,426.668643 948.817076,426.444003 L957.687402,418.171651 C957.94825,418.037507 958.06687,417.724426 957.96193,417.447075 C957.85699,417.169723 957.562556,417.018134 957.280507,417.096246 L945.236394,416.02084 C944.971232,415.974326 944.752514,415.783756 944.66674,415.524499 L941.899849,403.364143 C941.813375,403.144223 941.603872,403 941.370885,403 C941.137897,403 940.928394,403.144223 940.84192,403.364143 L933.924693,413.456411 C933.703703,413.609242 933.413271,413.609242 933.192281,413.456411 L921.636443,409.816577 C921.398296,409.765347 921.151927,409.853446 920.997783,410.044956 C920.843639,410.236467 920.807473,410.499392 920.904031,410.726535 L926.030917,421.894209 C926.181264,422.11885 926.181264,422.41408 926.030917,422.638721 L917.16059,430.911072 C917.01237,431.083672 916.962516,431.321923 917.0288,431.540903 C917.095083,431.759882 917.268072,431.928434 917.486107,431.986478 L929.692978,433.061884 Z" id="Path"></path>
            <path d="M1137.81267,44.0937677 C1138.22377,44.1573418 1138.56801,44.4391546 1138.71169,44.8297671 L1142.63471,62.493753 C1142.80744,62.8061267 1143.13609,63 1143.49288,63 C1143.84966,63 1144.17831,62.8061267 1144.35104,62.493753 L1154.64896,47.6102094 C1154.96524,47.3784099 1155.39517,47.3784099 1155.71145,47.6102094 L1172.95639,52.9257607 C1173.301,53.0642132 1173.69523,52.9764088 1173.94861,52.7047674 C1174.202,52.4331259 1174.26239,52.0335554 1174.10061,51.699095 L1166.41802,35.3435525 C1166.22823,35.014625 1166.22823,34.6093697 1166.41802,34.2804422 L1179.73995,22.0137854 C1179.98588,21.7471557 1180.06471,21.3665067 1179.94492,21.0240481 C1179.82513,20.6815895 1179.52627,20.4332108 1179.16784,20.3782311 L1161.18733,18.9062323 C1160.77623,18.8426582 1160.43199,18.5608454 1160.28831,18.1702329 L1156.36529,0.506246972 C1156.19256,0.193873295 1155.86391,0 1155.50712,0 C1155.15034,0 1154.82169,0.193873295 1154.64896,0.506246972 L1144.35104,15.3897906 C1144.03476,15.6215901 1143.60483,15.6215901 1143.28855,15.3897906 L1126.04361,10.0742393 C1125.699,9.93578683 1125.30477,10.0235912 1125.05139,10.2952326 C1124.798,10.5668741 1124.73761,10.9664446 1124.89939,11.300905 L1132.58198,27.6564475 C1132.78637,28.0106771 1132.78637,28.4471059 1132.58198,28.8013355 L1119.26005,41.0679924 C1119.01412,41.334622 1118.93529,41.715271 1119.05508,42.0577296 C1119.17487,42.4001882 1119.47373,42.6485669 1119.83216,42.7035466 L1137.81267,44.0937677 Z" id="Path"></path>
            <path d="M987.375796,219.369231 C987.375796,219.369231 987.375796,219.369231 987.375796,219.369231 L984.063694,226.347692 C984.063694,226.347692 984.063694,226.929231 984.477707,226.846154 L991.681529,223.938462 L991.681529,223.938462 L995.076433,231 L997.394904,223.606154 C997.394904,223.606154 997.394904,223.606154 997.808917,223.606154 L1005.34395,225.267692 L1000.95541,218.870769 L1007,213.969231 L999.299363,213.387692 L999.299363,204 L994,209.649231 L987.872611,204.830769 C987.872611,204.830769 987.375796,204.830769 987.375796,204.830769 L988.535032,212.556923 C988.535032,212.556923 988.535032,212.556923 988.535032,212.556923 L981,214.384615 C981,214.384615 981,214.384615 981,214.966154 L987.375796,219.369231 Z" id="Path"></path>
            <polygon id="Path" fill="#FFFFFF" fill-rule="nonzero" points="1060.4 767.28 1060.96 767.68 1061.6 766.72 1061.12 766.32"></polygon>
            <polygon id="Path" fill="#FFFFFF" fill-rule="nonzero" points="367.88 114.32 370.12 114.32 370.12 113.68"></polygon>
            <path d="M368.451206,253.787914 C368.451206,206.105171 365.971206,162.682743 369.891206,115 L369.891206,115 L367.651206,115 L366.371206,115 C364.15268,147.938504 363.565261,180.970976 364.611206,213.970366 C364.611206,227.734457 364.611206,241.662406 364.611206,256 L364.611206,256 C365.244137,255.386581 365.911972,254.812072 366.611206,254.279489 L368.451206,253.787914 Z" id="Path" fill="#FFFFFF" fill-rule="nonzero"></path>
            <path d="M453.613065,247.134199 L450.155779,247.134199 L450.718593,248.614719 L454.738693,249.354978 L456.829146,250.012987 C457.552764,250.012987 458.276382,250.670996 459,251 L459,251 C454.320136,238.973003 451.237406,226.3585 449.834171,213.493506 C448.788945,206.91342 447.663317,200.08658 446.296482,194 L446.296482,194 C445.22413,194.415324 444.122026,194.74531 443,194.987013 C446.698492,211.519481 447.984925,231.424242 453.613065,247.134199 Z" id="Path" fill="#FFFFFF" fill-rule="nonzero"></path>
            <path d="M1083.32594,774.100778 C1094.56541,783.243993 1108.5122,794.528861 1111.05543,796.258658 L1112.03991,797 L1215,645.354436 C1210.99056,641.874717 1205.8606,639.972475 1200.56098,640.000301 C1191.70739,641.097747 1183.68033,645.766892 1178.32816,652.932595 C1160.60754,673.443049 1129.10421,693.294533 1112.69623,704.002802 C1107.60976,707.297654 1102.7694,710.345392 1101.70288,711.333847 L1067,760.756628 C1069.8714,763.227767 1074.54767,767.016847 1083.32594,774.100778 Z" id="Path" fill="#FFFFFF" fill-rule="nonzero"></path>
            <polygon id="Path" fill="#FFFFFF" fill-rule="nonzero" points="982 984.820859 987.091241 990 1117 861.754601 1111.33394 856"></polygon>
            <polygon id="Path" fill="#FFFFFF" fill-rule="nonzero" points="1125.00982 806 1228 655.508197 1221.33157 651 1119 801.901639"></polygon>
            <path d="M292.628214,394.27715 C294.078443,395.087077 294.789931,396.781694 294.352741,398.384617 C294.352741,399.288259 270.455725,486.448697 289.836123,639 L558.944444,560.958138 C557.247291,557.507866 555.358523,553.893296 553.278142,550.114427 C537.675279,521.033564 516.241873,481.108991 519.608806,385.405023 L519.608806,385.405023 C519.667427,384.408566 520.144746,383.483434 520.922732,382.858394 C521.61638,382.235681 522.541811,381.937049 523.468462,382.0369 C524.415428,382.122837 525.295167,382.562862 525.932072,383.26914 C526.753275,384.254932 604.439107,476.26218 649.112567,473.222655 C651.938939,473.016977 654.712777,472.351021 657.3246,471.251071 C696.660238,454.821205 739.44493,302.105604 747,274.092683 L703.476225,272.613995 C671.859898,350.080812 640.325691,401.013395 633.099102,401.013395 L633.099102,401.013395 C630.635492,401.013395 630.635492,401.013395 614.950509,379.161674 C594.091946,350.162961 550.650291,289.783204 532.83018,281.650421 C518.787603,275.242773 469.843886,273.435488 469.351164,273.435488 C468.37615,273.438944 467.447515,273.019413 466.805434,272.285397 C466.170733,271.594686 465.844578,270.675198 465.902111,269.738768 C464.332643,263.72102 459.961215,258.828184 454.158903,256.594876 L452.844978,256.594876 C442.89627,254.633647 432.761184,253.779575 422.624697,254.048247 C405.334748,253.893725 388.101539,256.048637 371.381611,260.455894 C367.437744,263.296456 364.710397,267.520936 363.74442,272.285397 L362.758976,275.078475 C362.217575,276.465891 360.880895,277.379069 359.392043,277.378656 L355.860869,277.378656 C337.137433,277.378656 296.077268,279.925285 284.498302,293.808522 L280.885007,297.998137 C181.93001,411.610659 180.451844,411.610659 177.659753,411.692808 L177.659753,411.692808 C174.867661,411.692808 171.254367,408.078238 112.702572,287.811621 L70,288.961711 C77.47295,317.303229 121.160966,475.687135 161.482048,489.406073 C163.337797,490.011846 165.278432,490.31691 167.230471,490.309715 C198.354076,490.309715 263.886099,422.700818 288.029476,395.016494 C288.674417,394.229787 289.640288,393.776875 290.657327,393.784254 L290.657327,393.784254 C291.343566,393.793773 292.018231,393.962499 292.628214,394.27715 L292.628214,394.27715 Z" id="Path" fill="#FFFFFF" fill-rule="nonzero"></path>
            <path d="M1093.7942,842.088155 C1084.95159,841.437324 1076.22329,844.410633 1069.59725,850.330891 C1048.1891,866.816363 1013.90324,880.581732 995.776031,887.83534 C991.643964,889.325824 987.591976,891.031635 983.636542,892.945836 L940,935.148644 C942.29666,937.703893 946.151768,942.237397 953.287819,950.809843 C962.638507,961.937536 974.203831,975.538051 976.336444,978.093299 L977.238703,979 L1107,850.330891 C1103.7981,845.999171 1099.07734,843.052585 1093.7942,842.088155 Z" id="Path" fill="#FFFFFF" fill-rule="nonzero"></path>
            <polygon id="Path" fill="#FFFFFF" fill-rule="nonzero" points="1114.32 803.24 1114.32 803.24 1113.68 802.76"></polygon>
            <polygon id="Path" fill="#FFFFFF" fill-rule="nonzero" points="701 265.2 752 266.8 752 266.8"></polygon>
            <path d="M752.12,266.68 C752.760471,266.697232 753.37806,266.92181 753.88,267.32 C753.37806,266.92181 752.760471,266.697232 752.12,266.68 L752.12,266.68 Z" id="Path" fill="#FFFFFF" fill-rule="nonzero"></path>
            <path d="M420,246.64 C414.972973,246.64 409.864865,246.64 405,247.36 C409.864865,246.96 414.972973,246.72 420,246.64 Z" id="Path" fill="#FFFFFF" fill-rule="nonzero"></path>
            <path d="M438,247 L434,247 L438,247 Z" id="Path" fill="#FFFFFF" fill-rule="nonzero"></path>
            <path d="M444,248 L440,248 L444,248 Z" id="Path" fill="#FFFFFF" fill-rule="nonzero"></path>
            <path d="M421.92,247.030003 C423.305513,246.949995 424.694487,246.949995 426.08,247.030003 C424.72,247.030003 423.36,246.950003 421.92,247.030003 Z" id="Path" fill="#FFFFFF" fill-rule="nonzero"></path>
            <path d="M373,252.56 C378.257433,251.162813 383.602806,250.120465 389,249.44 C383.613177,250.148129 378.271158,251.163113 373,252.48 L373,252.56 Z" id="Path" fill="#FFFFFF" fill-rule="nonzero"></path>
            <path d="M393,248.76 L389,249.24 L393,248.76 Z" id="Path" fill="#FFFFFF" fill-rule="nonzero"></path>
            <path d="M404.12,247.8 L399.88,248.2 L404.12,247.8 Z" id="Path" fill="#FFFFFF" fill-rule="nonzero"></path>
            <path d="M399,248 L395,248 L399,248 Z" id="Path" fill="#FFFFFF" fill-rule="nonzero"></path>
            <path d="M369.28,253.6 L369.28,253.6 C370.399153,253.125105 371.548294,252.724242 372.72,252.4 L372.72,252.4 L369.28,253.6 Z" id="Path" fill="#FFFFFF" fill-rule="nonzero"></path>
            <path d="M65.1400651,281.64 L114,280.36 L114,280.36 L65.1400651,281.64 C64.7644172,281.559897 64.3756479,281.559897 64,281.64 L64,281.64 C64.3756479,281.559897 64.7644172,281.559897 65.1400651,281.64 Z" id="Path" fill="#FFFFFF" fill-rule="nonzero"></path>
            <path d="M566.983331,562.44 C567.027782,562.81201 567.027782,563.18799 566.983331,563.56 C567.027782,563.18799 567.027782,562.81201 566.983331,562.44 Z" id="Path" fill="#FFFFFF" fill-rule="nonzero"></path>
            <path d="M526,394 L526,394 C545.111411,415.478189 606.317353,480.653384 648,479.995049 C606.317353,480.571092 545.111411,415.478189 526,394 Z" id="Path" fill="#FFFFFF" fill-rule="nonzero"></path>
            <path d="M275.161021,292.482353 L278.863176,288.282353 C294.16542,270.576471 344.679278,269.917647 356.772987,269.835294 L356.772987,269.835294 C358.138229,264.531328 360.993253,259.730059 365,256 L365,256 C360.993253,259.730059 358.138229,264.531328 356.772987,269.835294 L356.772987,269.835294 C344.597008,269.835294 294.16542,270.576471 278.863176,288.282353 L275.161021,292.482353 C251.302684,319.905882 191.492301,389.329412 178,403 L178,403 C191.492301,389.329412 251.302684,319.905882 275.161021,292.482353 Z" id="Path" fill="#FFFFFF" fill-rule="nonzero"></path>
            <path d="M698.856448,268.222662 C699.244598,266.839367 700.555915,265.91479 702,266.006223 C700.555915,265.91479 699.244598,266.839367 698.856448,268.222662 C667.917275,343.992059 641.941606,383.80588 634,393 L634,393 C641.941606,383.887971 667.917275,343.992059 698.856448,268.222662 Z" id="Path" fill="#FFFFFF" fill-rule="nonzero"></path>
            <path d="M62.0298323,286.861292 C61.8998622,285.856202 62.1982896,284.842779 62.8523811,284.068017 C63.2422443,283.550754 63.7912771,283.175555 64.4152238,283 L64.4152238,283 C63.7912771,283.175555 63.2422443,283.550754 62.8523811,284.068017 C62.1855431,284.930416 61.9437746,286.04724 62.1943421,287.107757 C64.2507141,295.323271 111.54727,480.58311 159.584119,496.849828 C161.656501,497.538363 163.817234,497.925717 166,498 C163.817234,497.925717 161.656501,497.538363 159.584119,496.849828 C111.71178,480.336645 64.0862043,294.748185 62.0298323,286.861292 Z" id="Path" fill="#FFFFFF" fill-rule="nonzero"></path>
            <path d="M117.44,281.32 C117.936234,281.656323 118.325072,282.128484 118.56,282.68 C118.302292,282.142668 117.917945,281.67596 117.44,281.32 Z" id="Path" fill="#FFFFFF" fill-rule="nonzero"></path>
            <path d="M115.16,280.721165 C115.763165,280.736974 116.347983,280.931914 116.84,281.281165 C116.368,280.894109 115.769834,280.69472 115.16,280.721165 Z" id="Path" fill="#FFFFFF" fill-rule="nonzero"></path>
            <path d="M449.6,248.36 L444.4,247.64 L449.6,248.36 Z" id="Path" fill="#FFFFFF" fill-rule="nonzero"></path>
            <path d="M283.457235,643.881579 C267.008686,521.934903 278.649198,440.527701 284.638157,410 L284.638157,410 C278.564846,440.527701 267.008686,521.934903 283.457235,643.881579 C283.541555,644.930438 284.137517,645.876425 285.059915,646.425554 C285.646051,646.774048 286.313687,646.971731 287,647 L287,647 C286.313687,646.971731 285.646051,646.774048 285.059915,646.425554 C284.137517,645.876425 283.541555,644.930438 283.457235,643.881579 Z" id="Path" fill="#FFFFFF" fill-rule="nonzero"></path>
            <path d="M367.44,254.4 L368.56,253.92 L368.56,253.92 L367.44,254.4 C366.740766,254.920043 366.072931,255.481024 365.44,256.08 L365.44,256.08 C366.48,255.52 366.48,254.96 367.44,254.4 Z" id="Path" fill="#FFFFFF" fill-rule="nonzero"></path>
            <path d="M454.682917,256.594639 C460.497449,258.827744 464.878085,263.720134 466.450858,269.737334 C466.393204,270.673678 466.720046,271.593083 467.356084,272.283731 C467.999518,273.01768 468.930108,273.437173 469.907176,273.433717 C470.400936,273.433717 519.283151,275.32298 533.519891,281.647902 C551.295242,289.862086 594.828393,350.154199 615.813183,379.15027 C631.531201,401 631.531201,401 634,401 L634,401 C631.531201,401 631.531201,401 615.813183,379.15027 C594.910686,350.154199 551.377535,289.779944 533.519891,281.647902 C519.365445,275.240838 470.318643,273.433717 469.824883,273.433717 C468.847814,273.437173 467.917224,273.01768 467.273791,272.283731 C466.674614,271.571477 466.353171,270.66726 466.368565,269.737334 C464.800465,263.744622 460.457909,258.860606 454.682917,256.594639 L453.283931,256.594639 C443.314269,254.633589 433.157836,253.779595 423,254.048242 C433.157836,253.779595 443.314269,254.633589 453.283931,256.594639 L454.682917,256.594639 Z" id="Path" fill="#FFFFFF" fill-rule="nonzero"></path>
            <path d="M288.381238,395.238386 C264.321357,423.058786 199.015968,490.587234 168,491 C199.015968,491 264.321357,423.058786 288.381238,395.238386 C289.023948,394.447812 289.986479,393.992673 291,394 L291,394 C289.986479,393.992673 289.023948,394.447812 288.381238,395.238386 L288.381238,395.238386 Z" id="Path" fill="#FFFFFF" fill-rule="nonzero"></path>
            <path d="M657.221477,471.02457 C654.60665,472.126666 651.829623,472.793921 649,473 C651.829623,472.793921 654.60665,472.126666 657.221477,471.02457 C696.602349,454.562654 739.436242,301.54914 747,273.481572 L703.426174,272 L703.426174,272 L747,273.481572 C739.436242,301.54914 696.602349,454.480344 657.221477,471.02457 Z" id="Path" fill="#FFFFFF" fill-rule="nonzero"></path>
            <path d="M520.993592,382.840466 C520.215919,383.465551 519.738793,384.390747 519.680195,385.387274 L519.680195,385.387274 C516.314617,481.09794 537.739396,521.025308 553.335978,550.108205 C555.415522,553.887339 557.30353,557.502163 559,560.952676 L290,639 L290,639 L559,560.952676 C557.30353,557.502163 555.415522,553.887339 553.335978,550.108205 C537.739396,521.025308 516.314617,481.09794 519.680195,385.387274 L519.680195,385.387274 C519.738793,384.390747 520.215919,383.465551 520.993592,382.840466 C521.686961,382.21771 522.612019,381.919058 523.538297,382.018916 C522.612019,381.919058 521.686961,382.21771 520.993592,382.840466 L520.993592,382.840466 Z" id="Path" fill="#FFFFFF" fill-rule="nonzero"></path>
            <path d="M178,412 C175.206068,411.998777 171.590392,408.298549 113,288 L113,288 C171.508217,408.380776 175.123894,412.081005 178,412 Z" id="Path" fill="#FFFFFF" fill-rule="nonzero"></path>
            <path d="M704.364033,279.243815 L703.378231,279.243815 C702.577388,279.249886 701.797204,278.989988 701.160175,278.504927 C670.353841,352.968382 640.040408,401.652868 632.975488,401.652868 L632.975488,401.652868 C630.510982,401.652868 630.510982,401.652868 614.820289,379.814633 C593.954132,350.833818 550.496663,290.491327 532.670064,282.363563 C518.540226,275.95987 469.578692,274.1537 469.085791,274.1537 C468.110421,274.157154 467.181448,273.737882 466.539134,273.004319 C465.940998,272.29244 465.620114,271.388699 465.635481,270.459262 C464.070108,264.469702 459.735101,259.588256 453.970149,257.323481 L452.573595,257.323481 C425.419822,253.238316 397.726233,254.549587 371.080573,261.182117 C367.13527,264.020926 364.40693,268.242798 363.440602,273.004319 L362.454799,275.795673 C361.913201,277.182233 360.576034,278.094847 359.08664,278.094434 L359.08664,278.094434 C342.656595,278.094434 296.652469,279.736407 284.247785,294.021568 L280.633176,298.208598 C181.888606,411.915197 180.409902,411.915197 177.616794,411.997295 C174.823686,412.079394 172.852081,411.997295 115.018323,293.939469 C115.018323,293.939469 115.018323,294.842554 115.018323,295.253047 C114.480246,296.59446 113.178402,297.472653 111.732314,297.46971 C111.270075,297.547794 110.798,297.547794 110.33576,297.46971 C108.550283,296.714978 107.707062,294.663207 108.446305,292.872187 L109.925009,288.603058 L70,289.670341 C77.4756704,317.994367 121.17959,476.280521 161.51535,489.990991 C189.528577,499.596531 262.395826,425.133076 288.108846,395.659669 C288.754022,394.873447 289.720245,394.420814 290.737653,394.428189 C291.307164,394.315367 291.893297,394.315367 292.462808,394.428189 C293.913564,395.237616 294.625311,396.931188 294.187963,398.53312 C294.187963,399.436205 270.282247,486.542849 289.6697,639 L558.875986,561.006304 C557.178215,557.558162 555.288759,553.945822 553.20762,550.169285 C537.599078,521.106371 516.157869,481.206438 519.526028,385.561537 L519.526028,385.561537 C519.62522,384.105032 520.5919,382.851367 521.975921,382.384329 C523.359943,381.91729 524.889209,382.328697 525.851596,383.426973 C526.755248,384.494255 615.14889,489.087906 657.291955,471.354603 C696.641912,454.934877 739.442179,302.313529 747,274.317897 L706.58209,272.922221 C706.537638,273.413811 706.537638,273.908406 706.58209,274.399996 C706.951393,275.334931 706.923573,276.379886 706.505045,277.293872 C706.086517,278.207859 705.313416,278.911967 704.364033,279.243815 L704.364033,279.243815 Z" id="Path"></path>
            <path d="M62.8727827,283.428695 C63.5229089,282.571305 64.5262731,282.0544 65.6017855,282.022791 L68,282.022791 C68,282.022791 68,282.022791 68,281.52659 C65.5190884,273.256566 46.7468573,254.897112 30.869023,245.221184 C27.0664428,242.973615 23.146532,240.930766 19.1260414,239.101366 C15.5547546,237.651105 12.1225195,235.87956 8.8716068,233.80855 C8.0434247,233.115152 7.58495373,232.075911 7.631151,230.996742 C7.61842958,230.300991 8.00365504,229.658924 8.62351564,229.342737 C10.4608576,228.508244 12.5075685,228.248792 14.4950064,228.598435 C29.2712551,232.150017 43.0085086,239.118047 54.6030773,248.942695 C55.2590512,249.635618 56.1711848,250.028158 57.1253375,250.028158 C58.0794901,250.028158 58.9916238,249.635618 59.6475976,248.942695 C60.319261,248.27517 60.6969497,247.367309 60.6969497,246.420337 C60.6969497,245.473365 60.319261,244.565504 59.6475976,243.89798 C47.2287397,232.887155 32.2892042,225.104664 16.1489475,221.238114 C12.5076611,220.624367 8.76553681,221.204563 5.48102761,222.892118 C2.7943734,224.422495 1.10135884,227.244295 1.01538672,230.33514 C0.827110194,233.813886 2.37599714,237.15961 5.15023939,239.266766 C8.66954053,241.632283 12.4081069,243.653957 16.3143416,245.303884 C19.953012,247.123289 23.8397735,248.942695 27.3957468,251.092901 C43.273581,260.686129 59.8129917,277.970479 61.3842357,283.345995 C61.6211617,283.987901 62.0199806,284.557664 62.5419945,285 C62.5180329,284.45672 62.6318221,283.9162 62.8727827,283.428695 Z" id="Path" fill="#FFFFFF" fill-rule="nonzero"></path>
            <path d="M117.996467,282.259047 L118.406745,283 C124.478865,255.337766 118.406745,219.360396 115.206574,213.515103 C110.365289,205.282295 105.441949,204.376686 102.323833,205.282295 C99.8408863,205.752711 97.6681584,207.245821 96.3337691,209.398699 C93.0515422,214.750024 95.0208784,222.982832 97.4825486,231.62728 C97.6301708,232.414311 97.849919,233.185983 98.138994,233.932466 C95.6106819,234.982771 93.2796384,236.458431 91.2463174,238.295854 C86.3408219,242.621907 84.0917623,249.234781 85.3383089,255.667078 C85.5142029,256.931837 86.3492437,258.006372 87.5288796,258.485917 C88.7085156,258.965462 90.0535318,258.777162 91.0572737,257.991949 C92.0610157,257.206735 92.5709909,255.9439 92.3950968,254.679141 C91.5158962,250.592365 92.8950086,246.346951 96.0055465,243.564851 C97.7130608,242.09681 99.6548633,240.927861 101.749444,240.107072 C103.195276,239.663524 104.424179,238.694752 105.195782,237.390245 C105.934283,235.661356 105.195782,233.932466 104.293169,229.651406 C103.390557,225.370346 100.518608,216.231929 102.405889,213.18579 C102.652027,212.721113 103.114542,212.411747 103.636724,212.36251 C104.621392,212.36251 106.672784,213.350447 109.134454,217.46685 C114.651581,237.972131 115.631803,259.439998 112.006403,280.365502 L115.042463,280.365502 C116.321018,280.329054 117.492086,281.079721 117.996467,282.259047 L117.996467,282.259047 Z" id="Path" fill="#FFFFFF" fill-rule="nonzero"></path>
            <path d="M110.005343,296.943042 C110.455483,297.018986 110.915202,297.018986 111.365343,296.943042 C112.77358,296.945904 114.041349,296.09178 114.565343,294.78713 C114.565343,294.78713 114.565343,293.908796 114.565343,293.509553 L111.925343,288 L109.205343,288 L107.765343,292.152127 C107.32723,293.076022 107.324314,294.146709 107.757387,295.072968 C108.190461,295.999226 109.01449,296.684736 110.005343,296.943042 Z" id="Path" fill="#FFFFFF" fill-rule="nonzero"></path>
            <path d="M810.794534,210.988508 C807.988416,210.06004 805.00579,209.780591 802.074344,210.171492 C786.082748,213.646458 771.195287,220.968982 758.72019,231.495602 C757.289012,232.826717 757.215349,235.058038 758.555658,236.479398 C759.895968,237.900757 762.142703,237.973916 763.573881,236.642801 C775.045717,227.15167 788.598323,220.463829 803.143801,217.116125 C804.967873,216.878209 806.822383,217.045645 808.573354,217.606335 C809.971875,218.096544 810.218672,218.831858 810.218672,219.322068 C810.317831,220.467731 809.859155,221.59137 808.984683,222.345026 C805.760797,224.312379 802.375955,226.006855 798.865972,227.410523 C794.833155,229.112639 790.904984,231.049609 787.101942,233.211335 C772.426055,241.840013 759.77628,253.483762 750,267.362592 L751.809851,267.362592 C752.879756,267.393819 753.87789,267.904481 754.524627,268.751518 C755.198719,269.606854 755.413378,270.733696 755.100489,271.774476 L755.100489,273 C755.100489,273 755.67635,272.509791 755.758616,272.182984 C764.721312,258.81688 776.619121,247.643182 790.557111,239.502356 C794.177484,237.46568 797.913071,235.63798 801.74528,234.028351 C805.683689,232.464631 809.458502,230.521761 813.015715,228.227539 C815.973439,225.842649 817.443479,222.084042 816.882214,218.341649 C816.362718,214.96804 814.026983,212.146769 810.794534,210.988508 L810.794534,210.988508 Z" id="Path" fill="#FFFFFF" fill-rule="nonzero"></path>
            <path d="M702.198082,278.119949 C702.818438,278.592611 703.578201,278.845865 704.358082,278.839949 L705.158082,278.839949 C707.002542,278.331442 708.127032,276.469006 707.718082,274.599949 C707.674794,274.120925 707.674794,273.638973 707.718082,273.159949 L704.198082,273.159949 L702.198082,278.119949 Z" id="Path" fill="#FFFFFF" fill-rule="nonzero"></path>
            <path d="M701.9271,265.680353 L705.821243,265.680353 C701.275069,244.779655 702.593623,223.036699 709.632532,202.832187 C710.958198,200.275372 713.526675,197.636079 715.100903,198.048469 C715.63405,198.140476 716.109862,198.436509 716.426569,198.873248 C718.24936,202.089886 715.515174,211.079978 714.106654,215.368829 C712.698134,219.657681 712.283864,221.389717 713.029551,223.121753 C713.814668,224.423374 715.053235,225.392115 716.509423,225.843524 C718.244324,226.649986 719.883846,227.645829 721.397816,228.812728 C724.994721,231.6234 726.613635,236.264703 725.540521,240.689547 C725.37351,241.631895 725.596117,242.601436 726.157789,243.377994 C726.719461,244.154551 727.57253,244.672221 728.523269,244.813443 C729.460458,244.979091 730.424904,244.755357 731.19198,244.19435 C731.959056,243.633343 732.461801,242.784035 732.583121,241.844238 C734.079439,234.86665 731.480094,227.647086 725.871938,223.204231 C724.128854,221.86793 722.238666,220.733433 720.237858,219.822636 C720.237858,219.080335 720.734983,218.338034 720.983545,217.430777 C724.320796,210.506311 724.912515,202.583828 722.640627,195.24422 C721.336566,193.067791 719.170313,191.540329 716.675132,191.037846 C710.878979,190.604043 705.460948,193.933321 703.252766,199.285637 C695.416366,220.995881 693.894269,244.466965 698.861498,267 C699.48298,265.939501 700.725212,265.404759 701.9271,265.680353 L701.9271,265.680353 Z" id="Path" fill="#FFFFFF" fill-rule="nonzero"></path>
        </g>
    </g>
</svg>