<?xml version="1.0" encoding="UTF-8"?>
<svg width="106px" height="178px" viewBox="0 0 106 178" version="1.1" xmlns="http://www.w3.org/2000/svg" xmlns:xlink="http://www.w3.org/1999/xlink">
    <!-- Generator: Sketch 53.1 (72631) - https://sketchapp.com -->
    <title>Group 2</title>
    <desc>Created with Sketch.</desc>
    <g id="Page-1" stroke="none" stroke-width="1" fill="none" fill-rule="evenodd">
        <g id="Group-2" fill-rule="nonzero">
            <path d="M69.9002104,24.3199331 C70.044903,24.2877792 70.1614505,24.1808752 70.2059507,24.0394908 C70.2504509,23.8981064 70.2161431,23.7437213 70.1159507,23.6344908 C70.0157583,23.5252603 69.864903,23.4777792 69.7202104,23.5099331 C69.5755178,23.542087 69.4589703,23.648991 69.4144701,23.7903754 C69.3699699,23.9317598 69.4042777,24.0861449 69.5044701,24.1953754 C69.6046625,24.3046059 69.7555178,24.352087 69.9002104,24.3199331 L69.9002104,24.3199331 Z" id="Path" fill="#FFFFFF"></path>
            <path d="M74.8002104,22.4199331 C74.6493301,22.447764 74.5256311,22.5556521 74.4775521,22.7013498 C74.4294731,22.8470475 74.4646655,23.0073684 74.5693484,23.119533 C74.6740313,23.2316976 74.8315454,23.277856 74.9802104,23.2399331 C75.2032661,23.1854375 75.3441503,22.9653058 75.3002104,22.7399331 C75.2503881,22.5135777 75.0266221,22.3703675 74.8002104,22.4199331 L74.8002104,22.4199331 Z" id="Path" fill="#FFFFFF"></path>
            <path d="M24.6202104,165.739933 C24.7573089,165.742312 24.8873218,165.679163 24.9702104,165.569933 L26.2602104,163.849933 L26.2602104,163.849933 C26.500962,163.74962 26.6301586,163.48648 26.5623036,163.234647 C26.4944487,162.982814 26.2505364,162.820206 25.9919773,162.854429 C25.7334182,162.888653 25.5402104,163.109119 25.5402104,163.369933 L24.2602104,165.079933 C24.1901403,165.170554 24.1601246,165.285863 24.1771172,165.399147 C24.1941098,165.512431 24.256636,165.613859 24.3502104,165.679933 C24.429478,165.73314 24.5258688,165.75456 24.6202104,165.739933 L24.6202104,165.739933 Z" id="Path" fill="#000000"></path>
            <path d="M12.9702104,164.009933 L12.9702104,164.009933 L14.2802104,165.739933 C14.359947,165.84758 14.4862513,165.910732 14.6202104,165.909933 C14.7149327,165.912515 14.8073552,165.880523 14.8802104,165.819933 C14.9737848,165.753859 15.036311,165.652431 15.0533036,165.539147 C15.0702962,165.425863 15.0402805,165.310554 14.9702104,165.219933 L13.6902104,163.509933 C13.6976841,163.240472 13.501708,163.008327 13.2348128,162.970487 C12.9679175,162.932646 12.7151354,163.101168 12.6474126,163.362087 C12.5796899,163.623005 12.7186029,163.893193 12.9702104,163.989933 L12.9702104,164.009933 Z" id="Path" fill="#000000"></path>
            <path d="M30.8702104,13.6199331 C30.7145734,14.78017 30.4121518,15.915931 29.9702104,16.9999331 C29.8806671,17.2235968 29.9876501,17.4776814 30.2102104,17.5699331 C30.2631155,17.5794907 30.3173053,17.5794907 30.3702104,17.5699331 C30.5462401,17.5702915 30.7047112,17.4633235 30.7702104,17.2999331 C32.4656203,13.1495361 32.1785233,8.45292384 29.9902104,4.53993308 C29.8654505,4.33999644 29.6053119,4.27385952 29.4002104,4.38993308 C29.3002929,4.44652111 29.2271597,4.54072247 29.1971051,4.6515486 C29.1670506,4.76237473 29.1825717,4.88061796 29.2402104,4.97993308 C30.7302653,7.59815611 31.3039017,10.6387811 30.8702104,13.6199331 Z" id="Path" fill="#FFFFFF"></path>
            <path d="M33.7202104,14.6499331 C33.5021628,16.2563228 33.0821752,17.8287563 32.4702104,19.3299331 C32.4275502,19.4360008 32.4288851,19.5546904 32.47392,19.6597718 C32.5189549,19.7648532 32.603982,19.8476748 32.7102104,19.8899331 L32.8702104,19.8899331 C33.0490494,19.8916237 33.2111184,19.7848954 33.2802104,19.6199331 C33.9010985,18.0518584 34.3243534,16.4125854 34.5402104,14.7399331 C35.1461265,10.4356663 34.3129462,6.05180172 32.1702104,2.26993308 C32.0514692,2.06282632 31.7873172,1.9911919 31.5802104,2.10993312 C31.3731037,2.22867433 31.3014692,2.4928263 31.4202104,2.69993308 C33.4869491,6.31943789 34.2957847,10.5218659 33.7202104,14.6499331 L33.7202104,14.6499331 Z" id="Path" fill="#FFFFFF"></path>
            <path d="M36.8402104,15.5899331 C36.5709417,17.5983068 36.0467153,19.5641557 35.2802104,21.4399331 C35.2375502,21.5460008 35.2388851,21.6646904 35.28392,21.7697718 C35.3289549,21.8748532 35.413982,21.9576748 35.5202104,21.9999331 C35.5731155,22.0094907 35.6273053,22.0094907 35.6802104,21.9999331 C35.8562401,22.0002915 36.0147112,21.8933235 36.0802104,21.7299331 C36.8681592,19.8087267 37.4123943,17.7964007 37.7002104,15.7399331 C38.4636444,10.390254 37.4295677,4.93848916 34.7602104,0.239933077 C34.6355078,0.0407025895 34.3784825,-0.0289991927 34.1702104,0.0799330766 C33.9607727,0.201764917 33.889245,0.469993764 34.0102104,0.679933077 C36.5751149,5.20070176 37.5702764,10.4437609 36.8402104,15.5899331 Z" id="Path" fill="#FFFFFF"></path>
            <path d="M1.54021039,6.29993308 C2.00473796,4.32803191 2.71706925,2.42288172 3.66021039,0.629933077 C3.77032186,0.420033192 3.68981175,0.160611741 3.48021039,0.0499330766 C3.26736863,-0.0610453392 3.00485515,0.0190435201 2.89021039,0.229933077 C1.91484381,2.08714901 1.17576621,4.05914241 0.690210394,6.09993308 C-0.579966272,11.3250547 -0.0877806691,16.823471 2.09021039,21.7399331 C2.15834594,21.8939075 2.31185088,21.9923081 2.48021039,21.9899331 C2.53938957,22.0039687 2.60103122,22.0039687 2.66021039,21.9899331 C2.76546405,21.9442566 2.84744878,21.857508 2.88711412,21.749845 C2.92677946,21.6421819 2.92067182,21.5229783 2.87021039,21.4199331 C0.771069291,16.6646489 0.303458481,11.3486523 1.54021039,6.29993308 L1.54021039,6.29993308 Z" id="Path" fill="#FFFFFF"></path>
            <path d="M67.8102104,23.7399331 C67.9399894,23.7448728 68.0637126,23.6848859 68.1402104,23.5799331 C68.6491782,23.1060208 69.3386887,22.8761839 70.0302104,22.9499331 C70.1402776,22.9840459 70.2594311,22.972554 70.3609501,22.9180346 C70.4624691,22.8635151 70.537858,22.7705305 70.5702104,22.6599331 C70.6040933,22.551179 70.5923494,22.4333268 70.5376713,22.3333979 C70.4829932,22.2334689 70.3900711,22.160035 70.2802104,22.1299331 C69.2582766,21.9453051 68.2116201,22.2829363 67.4902104,23.0299331 C67.4095841,23.1089304 67.3641492,23.2170562 67.3641492,23.3299331 C67.3641492,23.44281 67.4095841,23.5509357 67.4902104,23.6299331 C67.5785042,23.7068348 67.6932951,23.7462941 67.8102104,23.7399331 L67.8102104,23.7399331 Z" id="Path" fill="#FFFFFF"></path>
            <path d="M73.6702104,26.4799331 C74.0902104,27.6199331 74.0002104,27.9699331 73.9202104,28.0699331 C73.8402104,28.1699331 73.6702104,28.1699331 73.4202104,28.1299331 C73.2665862,28.1067108 73.1122426,28.1672101 73.0153195,28.2886414 C72.9183963,28.4100727 72.8936184,28.5739878 72.9503194,28.7186414 C73.0070205,28.863295 73.1365862,28.9667108 73.2902104,28.9899331 C73.4066757,28.9996259 73.5237451,28.9996259 73.6402104,28.9899331 C74.0170289,29.0295217 74.3896893,28.8841841 74.6402104,28.5999331 C75.1202104,28.0199331 74.8502104,27.0399331 74.5302104,26.1699331 C74.4302104,25.8899331 74.3002104,25.5799331 74.1602104,25.2499331 C73.6621732,24.2859221 73.3822285,23.2241806 73.3402104,22.1399331 C73.847204,21.7394596 74.4741298,21.5210922 75.1202104,21.5199331 C75.2335989,21.5123569 75.3390777,21.459156 75.4125679,21.3724753 C75.486058,21.2857946 75.5212862,21.1730333 75.5102104,21.0599331 C75.5025257,20.9457857 75.4496696,20.8394065 75.3633384,20.7643359 C75.2770072,20.6892653 75.164319,20.6516929 75.0502104,20.6599331 C74.1911293,20.6789747 73.3648075,20.9932595 72.7102104,21.5499331 C72.674908,21.5794671 72.6474306,21.6172484 72.6302104,21.6599331 C72.5576671,21.7217332 72.5082975,21.8063668 72.4902104,21.8999331 C72.455016,23.1826223 72.7585455,24.4519276 73.3702104,25.5799331 L73.6702104,26.4799331 Z" id="Path" fill="#FFFFFF"></path>
            <path d="M69.0402104,30.3999331 C68.8293208,30.5145778 68.749232,30.7770913 68.8602104,30.9899331 C68.9150867,31.0915577 69.0085371,31.1668348 69.1195165,31.1988119 C69.2304959,31.230789 69.3496735,31.2167776 69.4502104,31.1599331 C70.0007524,30.8941945 70.6574798,30.989143 71.1102104,31.3999331 C71.1895329,31.4837204 71.2998311,31.5311858 71.4152104,31.5311858 C71.5305897,31.5311858 71.6408879,31.4837204 71.7202104,31.3999331 C71.8840296,31.2295957 71.8840296,30.9602704 71.7202104,30.7899331 C70.9991291,30.1064957 69.9261706,29.9503562 69.0402104,30.3999331 L69.0402104,30.3999331 Z" id="Path" fill="#FFFFFF"></path>
            <path d="M105.11021,42.9899331 C105.31021,38.6099331 86.1802104,28.2799331 84.0002104,27.1199331 C83.9445802,27.1046057 83.8858406,27.1046057 83.8302104,27.1199331 C83.7102104,27.0399331 83.1902104,26.6699331 82.9602104,26.4899331 C82.9602104,26.2199331 82.9602104,25.9199331 82.9602104,25.6199331 C83.0436931,24.7535219 82.8844181,23.8809722 82.5002104,23.0999331 C81.8902104,22.2699331 80.7502104,20.7399331 77.3502104,20.6199331 C76.0780072,18.5738726 74.5376645,16.7073 72.7702104,15.0699331 C71.7354071,14.0862124 70.5462976,13.278834 69.2502104,12.6799331 C69.275705,12.5663463 69.2540559,12.4472762 69.1902104,12.3499331 C68.6528514,11.6080983 67.8140523,11.1429128 66.9002104,11.0799331 C65.8366202,10.9714192 64.7792795,11.337281 64.0102104,12.0799331 C62.9202104,13.1399331 62.3802104,15.5399331 62.1102104,17.4799331 C54.9602104,19.4799331 54.2302104,20.8499331 54.4102104,21.7999331 C54.4689987,22.2351786 54.7435776,22.611314 55.1402104,22.7999331 C55.4787532,22.9536824 55.8487215,23.0256207 56.2202104,23.0099331 C58.1762974,22.7932001 60.0769661,22.2240159 61.8302104,21.3299331 C61.8302104,21.5499331 61.8302104,21.7699331 61.8302104,21.9799331 C60.8148526,22.5532232 60.1540889,23.5969295 60.0702104,24.7599331 C59.9901698,26.6877931 61.4646364,28.3265827 63.3902104,28.4499331 L63.2202104,31.5099331 C63.0202104,35.0499331 62.8502104,38.1699331 62.6302104,41.7699331 C62.1081303,42.1693669 61.7236132,42.7216733 61.5302104,43.3499331 C57.5302104,43.2699331 52.5302104,43.1699331 50.3502104,44.2299331 C47.7002104,45.5199331 45.1202104,46.8399331 42.8402104,48.0099331 C39.2902104,49.8299331 36.2202104,51.4099331 34.4902104,52.0799331 C33.4302104,51.9999331 26.0202104,45.4299331 23.3102104,42.3699331 C24.2825097,41.3632552 24.8426168,40.0289874 24.8802104,38.6299331 C25.099047,36.9085027 24.6161216,35.1714129 23.5402104,33.8099331 C23.1254017,33.423421 22.6488153,33.1090768 22.1302104,32.8799331 L22.1302104,30.2999331 C22.1329203,29.4594172 21.6271135,28.700707 20.8502104,28.3799331 L20.8502104,22.8299331 C25.2052879,21.6857476 28.393453,17.9595796 28.8502104,13.4799331 C29.6002104,7.47993308 25.7202104,2.09993308 20.2002104,1.39993308 C17.4905574,1.06839527 14.7668798,1.89639328 12.7002104,3.67993308 C10.5482883,5.52996501 9.17048939,8.12136912 8.84021039,10.9399331 L6.92021039,10.9399331 C7.06802938,9.05710966 7.59527383,7.2236596 8.47021039,5.54993308 C8.55146269,5.41330248 8.55070693,5.24299108 8.46824526,5.10708697 C8.38578358,4.97118286 8.23507044,4.89186015 8.07635881,4.90083095 C7.91764719,4.90980174 7.77683247,5.00560236 7.71021039,5.14993308 C7.13006438,6.2496668 6.6931759,7.41918364 6.41021039,8.62993308 C6.22601603,9.38854933 6.10559627,10.1612428 6.05021039,10.9399331 L4.05021039,10.9399331 C4.0988712,9.79301295 4.26303457,8.65392016 4.54021039,7.53993308 C4.91450506,5.96456809 5.48566359,4.44259858 6.24021039,3.00993308 C6.31738801,2.80323784 6.22955148,2.57134288 6.03480456,2.46764647 C5.84005764,2.36395006 5.59862343,2.42051904 5.47021039,2.59993308 C4.68359024,4.09937485 4.08891251,5.69190165 3.70021039,7.33993308 C3.37418681,8.64918865 3.19640344,9.99094996 3.17021039,11.3399331 C3.15536396,11.3956273 3.15536396,11.4542388 3.17021039,11.5099331 C2.98348009,11.7540835 2.88164545,12.0525643 2.88021039,12.3599331 C2.8794836,12.6737874 2.98131636,12.9792857 3.17021039,13.2299331 C3.16532866,13.2798139 3.16532866,13.3300522 3.17021039,13.3799331 C3.32267995,15.6746221 3.88488868,17.923457 4.83021039,20.0199331 C4.90383792,20.1737337 5.05969887,20.2711468 5.23021039,20.2699331 C5.28938957,20.2839687 5.35103122,20.2839687 5.41021039,20.2699331 C5.62539743,20.1703335 5.71934422,19.9153351 5.62021039,19.6999331 C4.77067208,17.8226733 4.24977096,15.8134833 4.08021039,13.7599331 L6.08021039,13.7599331 C6.24333256,15.2239743 6.63122313,16.65411 7.23021039,17.9999331 C7.30383792,18.1537337 7.45969887,18.2511468 7.63021039,18.2499331 C7.68938957,18.2639687 7.75103122,18.2639687 7.81021039,18.2499331 C8.02539743,18.1503335 8.11934422,17.8953351 8.02021039,17.6799331 C7.46871138,16.4287501 7.11450554,15.0996349 6.97021039,13.7399331 L8.82021039,13.7399331 C9.24705223,18.4723444 12.8442614,22.3046923 17.5402104,23.0299331 C17.8302104,23.0299331 18.1302104,23.0299331 18.4202104,23.0799331 L18.4202104,28.3799331 C17.635456,28.6944133 17.1208059,29.4545119 17.1202104,30.2999331 L17.1202104,31.2299331 C16.2025315,31.0699068 15.266787,31.3906257 14.6402104,32.0799331 C14.1854023,32.790017 14.1854023,33.6998492 14.6402104,34.4099331 C14.0046341,35.2787676 14.0375426,36.4675898 14.7202104,37.2999331 C14.2104346,38.3092155 14.2104346,39.5006507 14.7202104,40.5099331 C15.2059631,41.5317892 16.0869817,42.3117072 17.1602104,42.6699331 L17.1602104,46.1899331 C17.1602104,47.3331625 18.086981,48.2599331 19.2302104,48.2599331 L20.1702104,48.2599331 L20.3702104,48.2599331 C24.6402104,54.8999331 31.8402104,63.3199331 33.3802104,62.8899331 C40.6602104,60.8899331 48.1302104,57.9799331 50.3802104,57.0999331 C49.2602104,70.5399331 47.9702104,90.3599331 47.8102104,96.6499331 C42.8502104,98.7399331 29.5402104,105.099933 28.1402104,109.059933 C25.4702104,116.569933 29.3102104,133.749933 34.5302104,147.059933 L34.3902104,147.059933 L34.0702104,147.159933 L33.3502104,147.409933 L31.6102104,148.089933 L31.5202104,148.089933 L30.4202104,148.509933 C29.3263519,148.91911 28.2114326,149.269609 27.0802104,149.559933 L26.8002104,149.629933 L26.0002104,149.799933 L24.8102104,149.989933 C23.4805087,150.076823 22.2461069,150.710314 21.4002104,151.739933 C20.8482473,152.523828 20.6388705,153.498513 20.8202104,154.439933 C20.8106528,154.492838 20.8106528,154.547028 20.8202104,154.599933 L20.8202104,156.059933 L6.70021039,156.059933 L6.70021039,177.369933 L47.2002104,177.369933 C47.4393634,177.369995 47.6347751,177.179024 47.6402104,176.939933 L47.6402104,156.079933 L44.8002104,156.079933 L44.8002104,154.619933 C44.8002104,154.619933 44.8002104,154.619933 44.8002104,154.619933 L44.8002104,147.449933 L44.8002104,147.449933 C44.8200974,147.388161 44.8200974,147.321705 44.8002104,147.259933 L44.8002104,146.999933 C43.5202104,140.139933 42.8002104,122.069933 44.8002104,120.319933 C49.0302104,116.719933 56.7402104,114.319933 63.5702104,114.389933 C65.4702104,133.389933 71.1602104,151.799933 76.3902104,167.639933 L76.2502104,167.639933 L75.6902104,167.829933 L75.0802104,168.049933 L74.9102104,168.119933 L74.1802104,168.409933 C73.1202104,168.819933 71.8102104,169.329933 70.4402104,169.759933 L69.4402104,170.039933 L68.8502104,170.189933 L68.3002104,170.319933 L67.4902104,170.469933 L67.2902104,170.469933 C67.0983555,170.506398 66.904773,170.533099 66.7102104,170.549933 C66.3040592,170.600385 65.9027192,170.683998 65.5102104,170.799933 L65.2502104,170.889933 L65.0702104,170.949933 L64.8202104,171.059933 L64.4902104,171.229933 L64.1702104,171.419933 L63.9502104,171.579933 L63.7402104,171.759933 C62.8829082,172.577875 62.5053405,173.77854 62.7402104,174.939933 C62.729877,174.996129 62.729877,175.053737 62.7402104,175.109933 L62.7402104,177.009933 C62.7402104,177.123976 62.7855138,177.233348 62.8661545,177.313989 C62.9467951,177.39463 63.0561673,177.439933 63.1702104,177.439933 L86.3202104,177.439933 C86.5576928,177.439933 86.7502104,177.247416 86.7502104,177.009933 L86.7502104,175.109933 L86.7502104,167.829933 L86.7502104,167.829933 L86.7502104,167.629933 C86.7502104,166.739933 86.7502104,163.569933 86.8302104,158.769933 C86.9502104,147.299933 87.1602104,128.169933 87.0902104,110.119933 L87.6502104,110.119933 C88.4746342,110.118711 89.2975083,110.048466 90.1102104,109.909933 C90.224959,109.892811 90.3279194,109.830046 90.3957099,109.735893 C90.4635003,109.641739 90.4903676,109.524188 90.4702104,109.409933 C90.4246947,109.177849 90.2038555,109.023261 89.9702104,109.059933 C89.0187636,109.216735 88.0531709,109.270379 87.0902104,109.219933 C87.0902104,105.109933 87.0302104,101.089933 86.9802104,97.2199331 C87.0754308,97.2119113 87.1643924,97.1692098 87.2302104,97.0999331 C87.3089485,97.0121038 87.3517829,96.8978788 87.3502104,96.7799331 C87.3002104,95.9499331 86.8602104,60.3199331 86.8202104,56.8299331 C89.4802104,55.5099331 104.90021,47.5599331 105.11021,42.9899331 Z M61.8302104,20.2599331 C59.4202104,21.4199331 56.4602104,22.4099331 55.5002104,21.9299331 C55.3536514,21.8651503 55.2513654,21.7287689 55.2302104,21.5699331 C55.2302104,21.3599331 55.3602104,20.2499331 61.9802104,18.3399331 C61.9135437,18.9732664 61.8635437,19.6132664 61.8302104,20.2599331 Z M4.13021039,12.8199331 C3.93021039,12.8199331 3.75021039,12.5899331 3.75021039,12.3199331 C3.74783936,12.180237 3.79777399,12.0447001 3.89021039,11.9399331 C3.94580248,11.8618174 4.03441152,11.8138208 4.13021039,11.8099331 L17.3902104,11.8099331 C17.5902104,11.8099331 17.7702104,12.0399331 17.7702104,12.3199331 C17.7716304,12.4594662 17.7218173,12.594673 17.6302104,12.6999331 C17.572563,12.7742775 17.4842744,12.8184218 17.3902104,12.8199331 L4.13021039,12.8199331 Z M17.6002104,22.1699331 C13.3536236,21.4850668 10.1036797,18.021473 9.69021039,13.7399331 L17.3902104,13.7399331 C17.7387042,13.7353105 18.067654,13.5781456 18.2902104,13.3099331 C18.5129326,13.047703 18.6336463,12.7139651 18.6302104,12.3699331 C18.6492455,12.0233743 18.5289073,11.6835937 18.2959968,11.4262651 C18.0630862,11.1689366 17.7369454,11.0154298 17.3902104,10.9999331 L9.71021039,10.9999331 C10.0423109,8.42880667 11.3182697,6.07291608 13.2902104,4.38993308 C15.1713326,2.76381542 17.6520278,2.00834748 20.1202104,2.30993308 C25.1202104,2.94993308 28.7202104,7.93993308 28.0202104,13.4299331 C27.6006585,17.6756227 24.5109072,21.1762666 20.3502104,22.1199331 C19.4419115,22.2814678 18.513781,22.2983429 17.6002104,22.1699331 Z M20.0102104,28.1699331 L19.2402104,28.1699331 L19.2402104,23.0699331 C19.4902104,23.0699331 19.7502104,23.0699331 20.0002104,22.9999331 L20.0102104,28.1699331 Z M17.9402104,30.2999331 C17.9401877,29.6355544 18.4758544,29.0954238 19.1402104,29.0899331 L20.0802104,29.0899331 C20.7484749,29.0899331 21.2902104,29.6316685 21.2902104,30.2999331 L21.2902104,32.5499331 C20.7894294,32.3774582 20.2571111,32.3160369 19.7302104,32.3699331 C19.224098,31.8955089 18.6095477,31.5521846 17.9402104,31.3699331 L17.9402104,30.2999331 Z M15.2902104,32.5899331 C15.8505544,32.0743812 16.642636,31.8954012 17.3702104,32.1199331 C17.9145157,32.2209945 18.4279669,32.446913 18.8702104,32.7799331 C18.739428,32.8970409 18.6397785,33.044797 18.5802104,33.2099331 C18.5241525,33.3807535 18.5104257,33.562634 18.5402104,33.7399331 C17.4853726,33.2892878 16.2856362,33.3258651 15.2602104,33.8399331 C15.0578862,33.4450709 15.0691766,32.9746346 15.2902104,32.5899331 L15.2902104,32.5899331 Z M15.3802104,34.8099331 C16.4647228,34.0804842 17.8966916,34.1371157 18.9202104,34.9499331 C19.130501,35.099532 19.2655008,35.3330452 19.2902104,35.5899331 C19.2902104,35.7099331 19.0702104,35.8299331 18.7702104,35.9099331 C17.5933852,35.3549236 16.1959306,35.585842 15.2602104,36.4899331 L15.2602104,36.4899331 C14.8913283,35.9738493 14.9417213,35.2683475 15.3802104,34.8099331 L15.3802104,34.8099331 Z M17.4402104,37.6499331 C16.9565079,37.6971546 16.576791,38.0853096 16.5402104,38.5699331 C16.5402104,38.9399331 16.8702104,39.1699331 17.0702104,39.2899331 L17.0702104,41.7399331 C16.3442065,41.4260016 15.7551103,40.8617468 15.4102104,40.1499331 C14.9784732,39.3064922 15.0279922,38.2970667 15.5402104,37.4999331 C15.6326979,37.3589184 15.7399722,37.2281779 15.8602104,37.1099331 C16.5713565,36.4033211 17.6642068,36.2524425 18.5402104,36.7399331 C18.6844021,36.8322696 18.8184741,36.9395272 18.9402104,37.0599331 C19.0846374,37.2278399 19.1336306,37.4577309 19.0702104,37.6699331 C19.0481979,37.7565455 18.9898783,37.829445 18.9102104,37.8699331 C18.4496936,37.6630574 17.9411152,37.5869436 17.4402104,37.6499331 Z M21.3102104,46.1899331 C21.3081896,46.7349498 20.9449148,47.2125133 20.4202104,47.3599331 C20.3140936,47.3752497 20.2063272,47.3752497 20.1002104,47.3599331 L19.1602104,47.3599331 C18.4958544,47.3544423 17.9601877,46.8143118 17.9602104,46.1499331 L17.9602104,38.4699331 C18.1533397,38.4852799 18.3425801,38.53259 18.5202104,38.6099331 C18.9298622,38.8125479 19.4262467,38.6798934 19.6802104,38.2999331 C20.0613759,37.7330494 20.0205672,36.9821688 19.5802104,36.4599331 C19.8657846,36.3092173 20.0732388,36.0435303 20.1502104,35.7299331 C20.1502104,35.7299331 20.1502104,35.7299331 20.1502104,35.6799331 C20.4902104,35.9299331 20.8902104,36.1899331 21.3302104,36.4599331 L21.3102104,46.1899331 Z M22.4002104,41.8799331 C22.3267713,41.9258364 22.2498726,41.9659574 22.1702104,41.9999331 L22.1702104,36.1899331 L22.1702104,36.1899331 L22.2702104,36.0399331 L22.0102104,35.8799331 C21.2014824,35.4377299 20.4577748,34.8858383 19.8002104,34.2399331 C19.5202104,33.9299331 19.3902104,33.6599331 19.4402104,33.5099331 C19.4876762,33.3862596 19.5919706,33.2931397 19.7202104,33.2599331 C20.3650427,33.1604174 21.0248797,33.2616622 21.6102104,33.5499331 C22.1241054,33.7559448 22.5979348,34.0503959 23.0102104,34.4199331 C23.8222091,35.585784 24.1780441,37.009124 24.0102104,38.4199331 C23.9959156,39.7510909 23.409337,41.0116884 22.4002104,41.8799331 L22.4002104,41.8799331 Z M78.1402104,22.4699331 C78.8640876,22.7455131 79.4218449,23.337498 79.6538757,24.0764867 C79.8859064,24.8154754 79.7666418,25.6200345 79.3302104,26.2599331 C78.9846412,26.7603902 78.4865406,27.1357195 77.9102104,27.3299331 C78.3081207,25.7411725 78.3863019,24.0891711 78.1402104,22.4699331 L78.1402104,22.4699331 Z M77.6802104,28.2999331 L77.7702104,28.2999331 C78.7020024,28.0973397 79.5170878,27.5371929 80.0402104,26.7399331 C80.5673776,25.9643108 80.7518429,25.0058149 80.5502104,24.0899331 C80.251579,22.8068481 79.2521306,21.8035258 77.9702104,21.4999331 C79.5226804,21.54409 80.9559819,22.3428569 81.8102104,23.6399331 C82.0315239,24.2820059 82.1166656,24.9631392 82.0602104,25.6399331 C82.0602104,26.0199331 82.0602104,26.3999331 82.0602104,26.7399331 C82.0602104,27.0799331 82.6102104,27.3799331 83.0602104,27.6599331 L80.6602104,30.2699331 C80.4354573,30.0615377 80.1593741,29.9165941 79.8602104,29.8499331 L79.6402104,29.8499331 C78.849657,29.8752369 78.0706584,29.6551611 77.4102104,29.2199331 C77.5402104,28.8899331 77.6102104,28.5999331 77.6802104,28.2999331 L77.6802104,28.2999331 Z M72.3602104,15.8799331 C74.0414849,17.46316 75.5013342,19.2661075 76.7002104,21.2399331 C76.8302104,21.4699331 76.9502104,21.6799331 77.0402104,21.8699331 C77.1302104,22.0599331 77.0402104,21.9699331 77.1202104,22.0299331 C77.6002104,23.1999331 77.5302104,25.2599331 76.9202104,27.8199331 C76.8002104,28.3199331 76.6602104,28.8199331 76.5102104,29.3099331 C75.7102104,31.9699331 74.7502104,33.7499331 74.3702104,33.9999331 C73.7955266,34.3515515 73.1192148,34.4994947 72.4502104,34.4199331 C70.8657743,34.2704042 69.4003977,33.5144275 68.3602104,32.3099331 C68.2033348,32.1592285 67.9598757,32.1457828 67.7873587,32.2782959 C67.6148416,32.410809 67.5650542,32.6495019 67.6702104,32.8399331 C68.7804776,34.1470166 70.3319496,35.0010379 72.0302104,35.2399331 C72.1402104,35.8999331 72.2102104,36.5999331 72.2802104,37.3399331 C72.3820209,38.6715911 72.5927253,39.9926738 72.9102104,41.2899331 C69.7850453,40.7480135 66.5882344,40.7683322 63.4702104,41.3499331 C63.6902104,37.9099331 63.8502104,34.8699331 64.0402104,31.4599331 L64.2102104,28.3099331 C65.7784293,28.1396135 67.0282918,26.9216578 67.2390992,25.3583666 C67.4499067,23.7950753 66.5673002,22.2895595 65.1002104,21.7099331 C65.0843817,20.2908341 65.1478138,18.8719584 65.2902104,17.4599331 C67.8802104,16.8199331 70.2902104,16.3199331 71.5702104,16.0499331 L72.3602104,15.8799331 Z M71.5602104,15.1699331 L71.3902104,15.1699331 C70.1402104,15.4299331 67.8902104,15.8999331 65.3902104,16.5099331 C65.7402104,14.3999331 66.3902104,13.3199331 67.5502104,13.0399331 C69.0485195,13.3756101 70.4275746,14.1117974 71.5402104,15.1699331 L71.5602104,15.1699331 Z M62.6502104,22.1699331 C62.6502104,21.6699331 62.6502104,21.1699331 62.6502104,20.6099331 C62.6502104,19.6799331 62.7602104,18.7499331 62.8802104,17.8599331 C63.2002104,15.2799331 63.8202104,13.3799331 64.5602104,12.6499331 C65.1584423,12.1022306 65.9641559,11.8397357 66.7702104,11.9299331 C67.0795711,11.9650241 67.3806106,12.0529683 67.6602104,12.1899331 L67.4802104,12.1899331 C65.7702104,12.5399331 64.8302104,14.0399331 64.4802104,17.0499331 C64.3033572,18.6903571 64.2298787,20.3402822 64.2602104,21.9899331 C64.2602104,22.4199331 64.2602104,22.8699331 64.2602104,23.3199331 C64.0804116,23.2260711 63.8827028,23.1715307 63.6802104,23.1599331 C63.3258546,23.1334131 62.9730638,23.2286667 62.6802104,23.4299331 C62.6702104,23.0199331 62.6502104,22.5999331 62.6502104,22.1499331 L62.6502104,22.1699331 Z M62.8302104,24.7299331 C62.8565564,24.3408882 63.1802755,24.039042 63.5702104,24.0399331 L63.5702104,24.0399331 C63.9001613,24.0566537 64.1763943,24.2957808 64.2402104,24.6199331 C64.3041454,24.8810575 64.215113,25.1558969 64.0102104,25.3299331 C63.8654794,25.460626 63.6750107,25.5289073 63.4802104,25.5199331 C63.0961741,25.4640251 62.8159494,25.1277555 62.8302104,24.7399331 L62.8302104,24.7299331 Z M44.4202104,156.939933 L46.7702104,156.939933 L46.7702104,176.529933 L7.54021039,176.529933 L7.54021039,156.939933 L44.4202104,156.939933 Z M43.9302104,156.079933 L21.6502104,156.079933 L21.6502104,155.079933 L29.5402104,155.079933 L43.9802104,155.149933 L43.9302104,156.079933 Z M85.8002104,176.619933 L63.5402104,176.619933 L63.5402104,175.619933 L71.4202104,175.619933 L85.8302104,175.689933 L85.8002104,176.619933 Z M85.8702104,158.759933 C85.8202104,163.119933 85.7902104,166.119933 85.7902104,167.309933 L84.5402104,167.739933 C83.0975442,168.149 81.5980545,168.321239 80.1002104,168.249933 L79.8602104,168.249933 L79.3802104,168.199933 L79.1502104,168.199933 C78.8302104,168.149933 78.5202104,168.089933 78.1502104,168.019933 C77.7802104,167.949933 77.5102104,167.859933 77.1502104,167.769933 C71.8602104,151.769933 66.0802104,133.129933 64.2202104,113.959933 C63.9402104,111.109933 63.7602104,108.279933 63.6702104,105.539933 C63.654393,105.303192 63.4574791,105.119405 63.2202104,105.119933 C62.9811249,105.130744 62.7945268,105.330671 62.8002104,105.569933 C62.8902104,108.179933 63.0702104,110.879933 63.3202104,113.569933 C56.1802104,113.489933 48.4902104,115.939933 44.0702104,119.719933 C41.4502104,121.949933 42.7102104,140.879933 43.7302104,146.839933 L43.5202104,146.899933 L43.1602104,147.009933 C42.8902104,147.089933 42.6202104,147.169933 42.3602104,147.229933 L42.1302104,147.289933 L41.4802104,147.429933 L40.5502104,147.579933 L39.9602104,147.639933 L39.5402104,147.639933 L39.3902104,147.639933 C38.924025,147.669906 38.4563958,147.669906 37.9902104,147.639933 C37.7602104,147.639933 37.5202104,147.639933 37.2802104,147.559933 L37.0502104,147.559933 L36.8202104,147.559933 C36.6602104,147.559933 36.5002104,147.499933 36.3502104,147.469933 L35.8702104,147.359933 L35.6402104,147.299933 L35.3702104,147.219933 C30.2702104,134.329933 26.2702104,116.799933 28.8602104,109.509933 C29.9702104,106.389933 41.0902104,100.509933 48.2602104,97.5099331 L85.9402104,97.5099331 C85.9402104,101.309933 86.0202104,105.309933 86.0402104,109.379933 C82.2102104,108.949933 79.6602104,106.819933 79.0402104,103.459933 C78.9947293,103.223298 78.7673693,103.067266 78.5302104,103.109933 C78.4170392,103.13163 78.3173117,103.197842 78.2533923,103.293721 C78.1894729,103.3896 78.1667108,103.507122 78.1902104,103.619933 C78.9002104,107.409933 81.7702104,109.799933 86.0602104,110.259933 C86.2102104,128.109933 86.0002104,147.279933 85.8702104,158.739933 L85.8702104,158.759933 Z M84.0502104,42.7399331 C83.252374,42.9620829 82.4283899,43.0764317 81.6002104,43.0799331 L75.1002104,43.0799331 C74.8131721,42.5618518 74.425599,42.1062834 73.9602104,41.7399331 C73.5032706,40.279261 73.2278664,38.7678968 73.1402104,37.2399331 C73.0802104,36.5799331 73.0002104,35.9199331 72.9102104,35.2399331 C73.5982139,35.2402947 74.2717494,35.0424002 74.8502104,34.6699331 C75.5902104,34.1699331 76.5402104,32.0099331 77.1802104,30.0199331 C77.9302728,30.4121762 78.76378,30.6179805 79.6102104,30.6199331 L79.8202104,30.6199331 C79.9657019,30.6938054 80.0975798,30.7918685 80.2102104,30.9099331 C80.2191726,31.0156753 80.2652171,31.1148481 80.3402104,31.1899331 L90.5402104,40.9599331 L84.0502104,42.7399331 Z" id="Shape" fill="#FFFFFF"></path>
            <path d="M13.5402104,168.279933 C15.2883916,168.28398 16.8666868,167.234015 17.5384927,165.620066 C18.2102986,164.006118 17.8431702,162.146371 16.6084493,160.908785 C15.3737284,159.671199 13.5148374,159.299762 11.899336,159.967826 C10.2838346,160.635889 9.23021508,162.211747 9.23021039,163.959933 C9.2275542,165.104748 9.68046931,166.203584 10.4890392,167.01403 C11.297609,167.824476 12.3953926,168.279936 13.5402104,168.279933 L13.5402104,168.279933 Z M13.5402104,160.509933 C14.9414615,160.505889 16.2067998,161.347405 16.7449052,162.641223 C17.2830106,163.93504 16.9876238,165.42567 15.9967854,166.416508 C15.0059471,167.407346 13.5153174,167.702733 12.2214999,167.164628 C10.9276824,166.626522 10.0861664,165.361184 10.0902104,163.959933 C10.0957028,162.05683 11.6371077,160.515425 13.5402104,160.509933 L13.5402104,160.509933 Z" id="Shape" fill="#FFFFFF"></path>
            <path d="M25.6702104,168.279933 C28.054771,168.274413 29.983883,166.337846 29.9802053,163.953282 C29.9765275,161.568718 28.041451,159.63811 25.6568848,159.639946 C23.2723185,159.641782 21.3402168,161.575366 21.3402104,163.959933 C21.3375338,165.108222 21.7931906,166.210105 22.6060938,167.021131 C23.4189969,167.832157 24.5219309,168.285265 25.6702104,168.279933 Z M25.6702104,160.509933 C27.0705585,160.509939 28.3328281,161.354027 28.8677791,162.648168 C29.4027302,163.94231 29.1048698,165.431299 28.1132422,166.420061 C27.1216146,167.408822 25.6317697,167.702372 24.3391819,167.163677 C23.0465942,166.624983 22.2061631,165.360275 22.2102104,163.959933 C22.215722,162.052934 23.7632036,160.509925 25.6702104,160.509933 L25.6702104,160.509933 Z" id="Shape" fill="#FFFFFF"></path>
            <path d="M11.6502104,170.679933 C10.3412955,170.679933 9.28021039,171.741018 9.28021039,173.049933 C9.28021039,174.358848 10.3412955,175.419933 11.6502104,175.419933 C12.9591253,175.419933 14.0202104,174.358848 14.0202104,173.049933 C14.0147318,171.743294 12.9568492,170.685412 11.6502104,170.679933 L11.6502104,170.679933 Z M11.6502104,174.559933 C10.901807,174.564981 10.2641947,174.017587 10.1558842,173.277045 C10.0475737,172.536504 10.5017098,171.829432 11.2202104,171.619933 L11.2202104,172.619933 C11.2202104,172.857416 11.412728,173.049933 11.6502104,173.049933 C11.8876928,173.049933 12.0802104,172.857416 12.0802104,172.619933 L12.0802104,171.619933 C12.798711,171.829432 13.2528471,172.536504 13.1445366,173.277045 C13.0362261,174.017587 12.3986138,174.564981 11.6502104,174.559933 L11.6502104,174.559933 Z" id="Shape" fill="#FFFFFF"></path>
            <path d="M17.3002104,170.679933 C15.9912955,170.679933 14.9302104,171.741018 14.9302104,173.049933 C14.9302104,174.358848 15.9912955,175.419933 17.3002104,175.419933 C18.6091253,175.419933 19.6702104,174.358848 19.6702104,173.049933 C19.6647318,171.743294 18.6068492,170.685412 17.3002104,170.679933 L17.3002104,170.679933 Z M17.3002104,174.559933 C16.4701683,174.554436 15.8001922,173.879993 15.8002104,173.049933 C15.8017894,172.836668 15.8459888,172.62587 15.9302104,172.429933 L16.9302104,173.169933 C17.0046813,173.227599 17.0960259,173.259218 17.1902104,173.259933 C17.3262798,173.257828 17.4544335,173.195582 17.5402104,173.089933 C17.6837516,172.898648 17.6482222,172.627736 17.4602104,172.479933 L16.5402104,171.739933 C16.7811229,171.592222 17.0576339,171.512726 17.3402104,171.509933 C18.1019605,171.598039 18.6767169,172.243105 18.6767169,173.009933 C18.6767169,173.776761 18.1019605,174.421827 17.3402104,174.509933 L17.3002104,174.559933 Z" id="Shape" fill="#FFFFFF"></path>
            <path d="M22.8702104,170.679933 C21.5612955,170.679933 20.5002104,171.741018 20.5002104,173.049933 C20.5002104,174.358848 21.5612955,175.419933 22.8702104,175.419933 C24.1791253,175.419933 25.2402104,174.358848 25.2402104,173.049933 C25.2347318,171.743294 24.1768492,170.685412 22.8702104,170.679933 L22.8702104,170.679933 Z M24.2402104,173.679933 L23.3402104,172.979933 C23.2187401,172.885258 23.0559882,172.862578 22.9132617,172.920436 C22.7705353,172.978295 22.6695179,173.107902 22.6482617,173.260436 C22.6270056,173.41297 22.6887401,173.565258 22.8102104,173.659933 L23.6802104,174.329933 C23.4422454,174.494378 23.159462,174.581657 22.8702104,174.579933 C22.2585787,174.583984 21.7049162,174.218663 21.4680428,173.654748 C21.2311695,173.090832 21.3578786,172.439721 21.7889378,172.005788 C22.2199969,171.571855 22.8702519,171.440823 23.4357289,171.673944 C24.0012059,171.907065 24.370197,172.458288 24.3702104,173.069933 C24.3706579,173.273752 24.3262763,173.475176 24.2402104,173.659933 L24.2402104,173.679933 Z" id="Shape" fill="#FFFFFF"></path>
            <path d="M38.5402104,167.099933 C38.6831806,167.265606 38.891378,167.360573 39.1102104,167.359933 C39.318213,167.356478 39.5162174,167.270076 39.6602104,167.119933 L39.6602104,167.169933 L45.0402104,167.169933 L45.0402104,160.739933 L33.2402104,160.739933 L33.2402104,167.159933 L38.5402104,167.159933 L38.5402104,167.099933 Z M34.0602104,166.309933 L34.0602104,161.619933 L44.1702104,161.619933 L44.1702104,166.309933 L44.0302104,166.309933 C43.7534428,163.812615 41.6428186,161.92298 39.1302104,161.92298 C36.6176021,161.92298 34.506978,163.812615 34.2302104,166.309933 L34.0602104,166.309933 Z M38.3902104,166.309933 L35.0902104,166.309933 C35.3574226,164.285566 37.0832835,162.772545 39.1252104,162.772545 C41.1671373,162.772545 42.8929982,164.285566 43.1602104,166.309933 L39.9402104,166.309933 L41.5402104,164.859933 C41.6214301,164.779217 41.6671015,164.66944 41.6671015,164.554933 C41.6671015,164.440427 41.6214301,164.330649 41.5402104,164.249933 C41.369873,164.086114 41.1005478,164.086114 40.9302104,164.249933 L39.1102104,165.859933 L39.1102104,165.859933 C38.8162039,165.867756 38.5523341,166.042376 38.4302104,166.309933 L38.3902104,166.309933 Z" id="Shape" fill="#FFFFFF"></path>
            <path d="M40.6702104,175.569933 L44.9202104,175.569933 L44.9202104,170.569933 L40.6702104,170.569933 L40.6702104,175.569933 Z M41.5402104,171.399933 L44.0602104,171.399933 L44.0602104,172.539933 L41.5402104,172.539933 L41.5402104,171.399933 Z M41.5402104,173.399933 L44.0602104,173.399933 L44.0602104,174.739933 L41.5402104,174.739933 L41.5402104,173.399933 Z" id="Shape" fill="#FFFFFF"></path>
        </g>
    </g>
</svg>