<svg width="106" height="178" xmlns="http://www.w3.org/2000/svg"><g fill-rule="nonzero" fill="none"><path d="M69.9 24.32a.415.415 0 10-.18-.81.415.415 0 00.18.81zM74.8 22.42a.42.42 0 10.18.82.43.43 0 00.32-.5.42.42 0 00-.5-.32z" fill="#FFF"/><path d="M24.62 165.74a.43.43 0 00.35-.17l1.29-1.72a.52.52 0 10-.72-.48l-1.28 1.71a.42.42 0 00.09.6.38.38 0 00.27.06zM12.97 164.01l1.31 1.73a.42.42 0 00.34.17.39.39 0 00.26-.09.42.42 0 00.09-.6l-1.28-1.71a.53.53 0 10-.72.48v.02z" fill="#000"/><path d="M30.87 13.62a13.82 13.82 0 01-.9 3.38.44.44 0 00.24.57.45.45 0 00.16 0 .43.43 0 00.4-.27 14.73 14.73 0 00-.78-12.76.44.44 0 00-.59-.15.43.43 0 00-.16.59 13.53 13.53 0 011.63 8.64z" fill="#FFF"/><path d="M33.72 14.65a19.26 19.26 0 01-1.25 4.68.43.43 0 00.24.56h.16a.44.44 0 00.41-.27 20.32 20.32 0 001.26-4.88 19.72 19.72 0 00-2.37-12.47.432.432 0 00-.75.43 18.85 18.85 0 012.3 11.95z" fill="#FFF"/><path d="M36.84 15.59a23.84 23.84 0 01-1.56 5.85.43.43 0 00.24.56.45.45 0 00.16 0 .43.43 0 00.4-.27 24.87 24.87 0 001.62-5.99A24.4 24.4 0 0034.76.24a.45.45 0 00-.59-.16.44.44 0 00-.16.6 23.52 23.52 0 012.83 14.91zM1.54 6.3A24 24 0 013.66.63a.43.43 0 00-.18-.58.44.44 0 00-.59.18A25.14 25.14 0 00.69 6.1a24.39 24.39 0 001.4 15.64.42.42 0 00.39.25.39.39 0 00.18 0 .42.42 0 00.21-.57A23.56 23.56 0 011.54 6.3zM67.81 23.74a.39.39 0 00.33-.16 2.4 2.4 0 011.89-.63.43.43 0 00.54-.29.42.42 0 00-.29-.53 3.11 3.11 0 00-2.79.9.42.42 0 000 .6.45.45 0 00.32.11zM73.67 26.48c.42 1.14.33 1.49.25 1.59-.08.1-.25.1-.5.06a.435.435 0 10-.13.86c.117.01.234.01.35 0 .377.04.75-.106 1-.39.48-.58.21-1.56-.11-2.43-.1-.28-.23-.59-.37-.92a7.4 7.4 0 01-.82-3.11 2.88 2.88 0 011.78-.62.42.42 0 00.39-.46.43.43 0 00-.46-.4 3.74 3.74 0 00-2.34.89.28.28 0 00-.08.11.42.42 0 00-.14.24 7.3 7.3 0 00.88 3.68l.3.9zM69.04 30.4a.44.44 0 00-.18.59.43.43 0 00.59.17 1.5 1.5 0 011.66.24.42.42 0 00.61 0 .44.44 0 000-.61 2.35 2.35 0 00-2.68-.39z" fill="#FFF"/><path d="M105.11 42.99c.2-4.38-18.93-14.71-21.11-15.87a.32.32 0 00-.17 0c-.12-.08-.64-.45-.87-.63v-.87a4.69 4.69 0 00-.46-2.52c-.61-.83-1.75-2.36-5.15-2.48a27 27 0 00-4.58-5.55 13.06 13.06 0 00-3.52-2.39.43.43 0 00-.06-.33 3.09 3.09 0 00-2.29-1.27 3.63 3.63 0 00-2.89 1c-1.09 1.06-1.63 3.46-1.9 5.4-7.15 2-7.88 3.37-7.7 4.32a1.3 1.3 0 00.73 1 2.37 2.37 0 001.08.21 16.3 16.3 0 005.61-1.68v.65a3.48 3.48 0 00-1.76 2.78 3.55 3.55 0 003.32 3.69l-.17 3.06c-.2 3.54-.37 6.66-.59 10.26a3.16 3.16 0 00-1.1 1.58c-4-.08-9-.18-11.18.88a397.83 397.83 0 00-7.51 3.78c-3.55 1.82-6.62 3.4-8.35 4.07-1.06-.08-8.47-6.65-11.18-9.71a5.6 5.6 0 001.57-3.74 6.46 6.46 0 00-1.34-4.82 5.08 5.08 0 00-1.41-.93V30.3a2.07 2.07 0 00-1.28-1.92v-5.55a10.8 10.8 0 008-9.35c.75-6-3.13-11.38-8.65-12.08a9.68 9.68 0 00-7.5 2.28 11.31 11.31 0 00-3.86 7.26H6.92a14 14 0 011.55-5.39.43.43 0 10-.76-.4 14.56 14.56 0 00-1.3 3.48 14 14 0 00-.36 2.31h-2a17.08 17.08 0 01.49-3.4 19.29 19.29 0 011.7-4.53.44.44 0 00-.77-.41A20.17 20.17 0 003.7 7.34a18 18 0 00-.53 4 .33.33 0 000 .17 1.41 1.41 0 00-.29.85c0 .314.101.62.29.87a.77.77 0 000 .15 19.26 19.26 0 001.66 6.64.44.44 0 00.4.25.39.39 0 00.18 0 .43.43 0 00.21-.57 18 18 0 01-1.54-5.94h2A14.33 14.33 0 007.23 18a.44.44 0 00.4.25.39.39 0 00.18 0 .43.43 0 00.21-.57 13.23 13.23 0 01-1.05-3.94h1.85a10.34 10.34 0 008.72 9.29c.29 0 .59 0 .88.05v5.3a2.07 2.07 0 00-1.3 1.92v.93a2.72 2.72 0 00-2.48.85 2.16 2.16 0 000 2.33 2.36 2.36 0 00.08 2.89 3.56 3.56 0 000 3.21 4.16 4.16 0 002.44 2.16v3.52a2.07 2.07 0 002.07 2.07h1.14c4.27 6.64 11.47 15.06 13.01 14.63 7.28-2 14.75-4.91 17-5.79-1.12 13.44-2.41 33.26-2.57 39.55-4.96 2.09-18.27 8.45-19.67 12.41-2.67 7.51 1.17 24.69 6.39 38h-.14l-.32.1-.72.25-1.74.68h-.09l-1.1.42a32.82 32.82 0 01-3.34 1.05l-.28.07-.8.17-1.19.19a4.82 4.82 0 00-3.41 1.75 3.53 3.53 0 00-.58 2.7.45.45 0 000 .16v1.46H6.7v21.31h40.5a.44.44 0 00.44-.43v-20.86H44.8V147.45a.31.31 0 000-.19V147c-1.28-6.86-2-24.93 0-26.68 4.23-3.6 11.94-6 18.77-5.93 1.9 19 7.59 37.41 12.82 53.25h-.14l-.56.19-.61.22-.17.07-.73.29c-1.06.41-2.37.92-3.74 1.35l-1 .28-.59.15-.55.13-.81.15h-.2a5.77 5.77 0 01-.58.08 7.5 7.5 0 00-1.2.25l-.26.09-.18.06-.25.11-.33.17-.32.19-.22.16-.21.18a3.45 3.45 0 00-1 3.18.47.47 0 000 .17v1.9a.43.43 0 00.43.43h23.15a.43.43 0 00.43-.43V167.63c0-.89 0-4.06.08-8.86.12-11.47.33-30.6.26-48.65h.56a14.77 14.77 0 002.46-.21.43.43 0 00.36-.5.44.44 0 00-.5-.35 13.4 13.4 0 01-2.88.16c0-4.11-.06-8.13-.11-12a.39.39 0 00.25-.12.47.47 0 00.12-.32c-.05-.83-.49-36.46-.53-39.95 2.66-1.32 18.08-9.27 18.29-13.84zM61.83 20.26c-2.41 1.16-5.37 2.15-6.33 1.67a.46.46 0 01-.27-.36c0-.21.13-1.32 6.75-3.23a36.08 36.08 0 00-.15 1.92zm-57.7-7.44c-.2 0-.38-.23-.38-.5a.56.56 0 01.14-.38.31.31 0 01.24-.13h13.26c.2 0 .38.23.38.51a.57.57 0 01-.14.38.31.31 0 01-.24.12H4.13zm13.47 9.35a9.46 9.46 0 01-7.91-8.43h7.7a1.19 1.19 0 00.9-.43 1.43 1.43 0 00.34-.94A1.3 1.3 0 0017.39 11H9.71a10.45 10.45 0 013.58-6.61 8.81 8.81 0 016.83-2.08c5 .64 8.6 5.63 7.9 11.12a9.91 9.91 0 01-7.67 8.69 8.75 8.75 0 01-2.75.05zm2.41 6h-.77v-5.1c.25 0 .51 0 .76-.07l.01 5.17zm-2.07 2.13a1.21 1.21 0 011.2-1.21h.94c.668 0 1.21.542 1.21 1.21v2.25a3.65 3.65 0 00-1.56-.18 4.25 4.25 0 00-1.79-1V30.3zm-2.65 2.29a2.14 2.14 0 012.08-.47 3.58 3.58 0 011.5.66 1.06 1.06 0 00-.29.43 1.11 1.11 0 00-.04.53 3.9 3.9 0 00-3.28.1 1.31 1.31 0 01.03-1.25zm.09 2.22a3 3 0 013.54.14.89.89 0 01.37.64c0 .12-.22.24-.52.32a3.13 3.13 0 00-3.51.58 1.32 1.32 0 01.12-1.68zm2.06 2.84a1 1 0 00-.9.92c0 .37.33.6.53.72v2.45a3.3 3.3 0 01-1.66-1.59 2.66 2.66 0 01.13-2.65c.093-.141.2-.272.32-.39a2.25 2.25 0 012.68-.37c.144.092.278.2.4.32a.65.65 0 01.13.61.31.31 0 01-.16.2 2.75 2.75 0 00-1.47-.22zm3.87 8.54a1.22 1.22 0 01-.89 1.17 1.12 1.12 0 01-.32 0h-.94a1.21 1.21 0 01-1.2-1.21v-7.68c.193.015.383.063.56.14a.91.91 0 001.16-.31 1.53 1.53 0 00-.1-1.84 1.13 1.13 0 00.57-.73v-.05c.34.25.74.51 1.18.78l-.02 9.73zm1.09-4.31a1.67 1.67 0 01-.23.12v-5.81l.1-.15-.26-.16a10 10 0 01-2.21-1.64c-.28-.31-.41-.58-.36-.73a.41.41 0 01.28-.25 3.18 3.18 0 011.89.29c.514.206.988.5 1.4.87a5.8 5.8 0 011 4 4.63 4.63 0 01-1.61 3.46zm55.74-19.41a2.53 2.53 0 011.19 3.79 2.82 2.82 0 01-1.42 1.07 12.36 12.36 0 00.23-4.86zm-.46 5.83h.09a3.64 3.64 0 002.27-1.56 3.41 3.41 0 00.51-2.65 3.47 3.47 0 00-2.58-2.59 4.76 4.76 0 013.84 2.14 4.89 4.89 0 01.25 2v1.1c0 .34.55.64 1 .92l-2.4 2.61a1.73 1.73 0 00-.8-.42h-.22a3.83 3.83 0 01-2.23-.63c.13-.33.2-.62.27-.92zm-5.32-12.42a25.66 25.66 0 014.34 5.36c.13.23.25.44.34.63.09.19 0 .1.08.16.48 1.17.41 3.23-.2 5.79-.12.5-.26 1-.41 1.49-.8 2.66-1.76 4.44-2.14 4.69a3 3 0 01-1.92.42 6.17 6.17 0 01-4.09-2.11.44.44 0 00-.69.53 7 7 0 004.36 2.4c.11.66.18 1.36.25 2.1a24.46 24.46 0 00.63 3.95 26.65 26.65 0 00-9.44.06c.22-3.44.38-6.48.57-9.89l.17-3.15a3.43 3.43 0 00.89-6.6 38.12 38.12 0 01.19-4.25c2.59-.64 5-1.14 6.28-1.41l.79-.17zm-.8-.71h-.17c-1.25.26-3.5.73-6 1.34.35-2.11 1-3.19 2.16-3.47a8.48 8.48 0 013.99 2.13h.02zm-8.91 7v-1.56c0-.93.11-1.86.23-2.75.32-2.58.94-4.48 1.68-5.21a2.81 2.81 0 012.21-.72c.31.035.61.123.89.26h-.18c-1.71.35-2.65 1.85-3 4.86a39.34 39.34 0 00-.22 4.94v1.33a1.43 1.43 0 00-.58-.16 1.56 1.56 0 00-1 .27c-.01-.41-.03-.83-.03-1.28v.02zm.18 2.56a.74.74 0 01.74-.69.72.72 0 01.67.58.71.71 0 01-.23.71.74.74 0 01-.53.19.76.76 0 01-.65-.78v-.01zM44.42 156.94h2.35v19.59H7.54v-19.59h36.88zm-.49-.86H21.65v-1h7.89l14.44.07-.05.93zm41.87 20.54H63.54v-1h7.88l14.41.07-.03.93zm.07-17.86c-.05 4.36-.08 7.36-.08 8.55l-1.25.43a13.86 13.86 0 01-4.44.51h-.24l-.48-.05h-.23c-.32-.05-.63-.11-1-.18-.37-.07-.64-.16-1-.25-5.29-16-11.07-34.64-12.93-53.81-.28-2.85-.46-5.68-.55-8.42a.45.45 0 00-.45-.42.44.44 0 00-.42.45c.09 2.61.27 5.31.52 8-7.14-.08-14.83 2.37-19.25 6.15-2.62 2.23-1.36 21.16-.34 27.12l-.21.06-.36.11c-.27.08-.54.16-.8.22l-.23.06-.65.14-.93.15-.59.06h-.57c-.466.03-.934.03-1.4 0-.23 0-.47 0-.71-.08h-.46c-.16 0-.32-.06-.47-.09l-.48-.11-.23-.06-.27-.08c-5.1-12.89-9.1-30.42-6.51-37.71 1.11-3.12 12.23-9 19.4-12h37.68c0 3.8.08 7.8.1 11.87-3.83-.43-6.38-2.56-7-5.92a.44.44 0 00-.51-.35.43.43 0 00-.34.51c.71 3.79 3.58 6.18 7.87 6.64.15 17.85-.06 37.02-.19 48.48v.02zM84.05 42.74a9.28 9.28 0 01-2.45.34h-6.5a4.45 4.45 0 00-1.14-1.34 18.65 18.65 0 01-.82-4.5c-.06-.66-.14-1.32-.23-2a3.58 3.58 0 001.94-.57c.74-.5 1.69-2.66 2.33-4.65a5.27 5.27 0 002.43.6h.21c.146.074.278.172.39.29a.45.45 0 00.13.28l10.2 9.77-6.49 1.78z" fill="#FFF"/><path d="M13.54 168.28a4.32 4.32 0 10-4.31-4.32 4.31 4.31 0 004.31 4.32zm0-7.77a3.46 3.46 0 11.02 6.92 3.46 3.46 0 01-.02-6.92zM25.67 168.28a4.32 4.32 0 10-4.33-4.32 4.31 4.31 0 004.33 4.32zm0-7.77a3.46 3.46 0 110 6.92 3.46 3.46 0 010-6.92zM11.65 170.68a2.37 2.37 0 102.37 2.37 2.38 2.38 0 00-2.37-2.37zm0 3.88a1.5 1.5 0 01-.43-2.94v1a.43.43 0 10.86 0v-1a1.5 1.5 0 01-.43 2.94zM17.3 170.68a2.37 2.37 0 102.37 2.37 2.38 2.38 0 00-2.37-2.37zm0 3.88a1.51 1.51 0 01-1.5-1.51 1.6 1.6 0 01.13-.62l1 .74a.43.43 0 00.26.09.46.46 0 00.35-.17.44.44 0 00-.08-.61l-.92-.74a1.56 1.56 0 01.8-.23 1.51 1.51 0 010 3l-.04.05zM22.87 170.68a2.37 2.37 0 102.37 2.37 2.38 2.38 0 00-2.37-2.37zm1.37 3l-.9-.7a.431.431 0 00-.53.68l.87.67a1.41 1.41 0 01-.81.25 1.51 1.51 0 111.5-1.51c0 .204-.044.405-.13.59v.02zM38.54 167.1a.75.75 0 001.12.02v.05h5.38v-6.43h-11.8v6.42h5.3v-.06zm-4.48-.79v-4.69h10.11v4.69h-.14a4.93 4.93 0 00-9.8 0h-.17zm4.33 0h-3.3a4.07 4.07 0 018.07 0h-3.22l1.6-1.45a.43.43 0 000-.61.44.44 0 00-.61 0l-1.82 1.61a.77.77 0 00-.68.45h-.04zM40.67 175.57h4.25v-5h-4.25v5zm.87-4.17h2.52v1.14h-2.52v-1.14zm0 2h2.52v1.34h-2.52v-1.34z" fill="#FFF"/></g></svg>