<svg width="126" height="176" xmlns="http://www.w3.org/2000/svg"><g fill="#FFF" fill-rule="nonzero"><path d="M55.77 19.61a.421.421 0 10.45.39.43.43 0 00-.45-.39zM50.27 19.76a.41.41 0 00-.39.44.42.42 0 00.735.245.41.41 0 00.095-.305.4.4 0 00-.44-.38z"/><path d="M48 .7v7.09c-.42.281-.8.617-1.13 1a9.69 9.69 0 00-2 4.74c-.16.82-.27 1.61-.37 2.34a1.75 1.75 0 00-2.18.27c-1.1 1-1.53 3.32-.8 4.29a2.24 2.24 0 001.84.81 4 4 0 00.5 0c-.31 4-.26 7.78-.2 11.74v4.73a3.33 3.33 0 00-1 1.81c0 .14-.09.27-.13.4-1.18 0-5.85 0-8.63 1.47-3.47 1.81-17.62 12.75-21.42 19.56l-7.1 20.68a5.08 5.08 0 00-1.53 2.74 7.84 7.84 0 01-2.93 4.57 1.84 1.84 0 00-.87 2c.19.528.712.861 1.27.81h.08c-.054.3-.022.608.09.89a1.11 1.11 0 001.06.62 2.88 2.88 0 00.95-.22 1.8 1.8 0 001.45.72c1.27 0 2.73-1.17 3.73-2.88.206.087.426.138.65.15.18 0 .36-.03.53-.09A2 2 0 0011 89.71v-.12a8.41 8.41 0 00.6-2.76 9 9 0 00-.3-3.5c.54-.64 2.22-3.51 9.06-16.3l12.34-9.17c-.22 4.15-1 14.9-1.54 23.65-.41 5.93-.75 11-.83 12.54-.008.1.028.2.1.27a.35.35 0 00.26.11h.16c-.18 3.46-.53 7.63-1 12.41a13.51 13.51 0 01-4.3 0 .36.36 0 00-.42.3.36.36 0 00.3.42c.81.139 1.629.209 2.45.21a12.92 12.92 0 001.89-.15c-2.39 22.28-7.33 51.16-7.78 53.79a.37.37 0 00-.17.16L18.64 168l-1.07 2.05a.36.36 0 00.18.5l10.47 4.71h.15L41 175.2c.2 0 .365-.16.37-.36v-1.91a.61.61 0 000-.13.42.42 0 000-.16c-.28-1.84-2.93-4.42-6.44-4.26-.71 0-1.1-.37-1.85-1.23a11.49 11.49 0 00-3.19-2.71c2.37-2.79 11.11-17.7 18.11-34.05V175h78V.7H48zm77.3.73v6.51h-14V3.36L63.2 8.75a1.23 1.23 0 000-1.13c-.44-.86-1.89-1.46-9.14 1.52-1.85-1.83-3.68-2.43-5.34-1.74v-6l76.58.03zM55.77 11.2a17.26 17.26 0 00-1.19-1.49c6.77-2.75 7.8-2.05 8-1.76.06.13.22.44-.37 1-1.45 1.17-5.41 2.05-6.44 2.25zm-8.39-1.95a4.9 4.9 0 011.2-1c1.43-.82 3-.4 4.73 1.2-3.08 1.3-6 2.74-7.52 3.46a8.33 8.33 0 011.59-3.66zM42.12 20c-.47-.61-.16-2.5.71-3.32a1.13 1.13 0 011.69.09c.303.277.571.59.8.93a.35.35 0 00.5.1.36.36 0 00.1-.51 5.29 5.29 0 00-.74-.89v-.16c.1-.73.21-1.55.37-2.38l.54-.26c1.5-.74 4.6-2.25 7.76-3.57a16.43 16.43 0 011.44 1.8 24.61 24.61 0 013.37 6.91c.82 3.25-3.89 10.9-5.21 11.42a2.13 2.13 0 01-.45.13c-1.87.35-4.37-1.4-5.18-3.08a.37.37 0 10-.66.32A6.65 6.65 0 0052.51 31a2.4 2.4 0 00.28 0c.14.66.25 1.36.37 2.09a24 24 0 00.92 4.2 26.3 26.3 0 00-9.63 0v-4.43A119.32 119.32 0 0144.62 21l.34-.14a.37.37 0 00.14-.5.35.35 0 00-.49-.14 2.4 2.4 0 01-.48.19 1.9 1.9 0 01-2.01-.41zm60.09 58.51a.37.37 0 00.5-.14c.78-1.39 1.95-1.87 3.79-1.56l.32.06c.17 0 1.55.35 1.69 1.31a2.85 2.85 0 00-.37-.23 4 4 0 00-5.38 1.61.363.363 0 10.63.36 3.33 3.33 0 014.43-1.31c.217.1.422.224.61.37a1.79 1.79 0 01.82 2 2.93 2.93 0 00-1.52-1.42 3 3 0 00-3.9 3.88 3 3 0 001.17 1.29 2 2 0 01-1.05-.06 3.77 3.77 0 01-1.79-2 1.26 1.26 0 00-.84-.72c-.48-.12-1-.28-1.56-.45a5.65 5.65 0 00.76-2.55 6.77 6.77 0 000-1.7c.245.154.516.262.8.32.04.01.08.01.12 0h.15l.07-.15a3.69 3.69 0 012.84-1.75 2 2 0 011.49.43 3.74 3.74 0 00-3.83 2 .37.37 0 00.05.38v.03zM106 84.4a1.14 1.14 0 01-.26-.09 2.24 2.24 0 111.71-4.14A2.25 2.25 0 01106 84.4zm-95 2.38a7.87 7.87 0 01-.55 2.55v.12a1.28 1.28 0 01-.7.73.9.9 0 01-.58 0 9.7 9.7 0 00.81-2.58.37.37 0 00-.73-.12 8.63 8.63 0 01-.9 2.72C7.39 91.79 6 92.94 5 93c-.29.008-.57-.1-.78-.3A7.3 7.3 0 008 87.54a.37.37 0 00-.28-.44.36.36 0 00-.43.28 6.61 6.61 0 01-3.56 4.72l-.22.11c-.51.23-1.15.42-1.33 0a.81.81 0 01.28-.91.38.38 0 00.12-.09c1.37-.87 3.12-2.87 3.38-4.25a.37.37 0 10-.72-.14c-.22 1.21-2 3.17-3.2 3.87a1.41 1.41 0 01-.64.22c-.23 0-.55 0-.63-.3a1.16 1.16 0 01.59-1.14 8.61 8.61 0 003.22-4.94c.37-1.15.69-2 1.39-2.44 2.44.7 4 1.14 4.7 1.3a8.22 8.22 0 01.33 3.39zm57.84 7.59c10 34.09 17 63.22 16.73 67.26-.8.3-4.57 1.28-7.1 1.91-2-4.69-20.27-38.2-25.58-45.7a100.75 100.75 0 003.9-14.26.38.38 0 00-.3-.42.36.36 0 00-.42.29 100.7 100.7 0 01-4 14.42c-1.16 3.35-2.53 6.92-4.08 10.63-7.27 17.35-16.67 33.43-18.81 35.59l-6.49-2.58c.44-2.56 5.43-31.69 7.81-54.06 3.63-.76 6-3 6.62-6.41a.37.37 0 10-.72-.14 7.19 7.19 0 01-5.83 5.8c.5-4.72.84-8.84 1-12.27l37.27-.06zm33.51 71.29l.3 1.13-21.71 5.84-.3-1.14 21.71-5.83zm-61.71 8.82l-12.15.09-10-4.52.73-1.39 9.53 4.5c.05.01.1.01.15 0l11.79.1-.05 1.22zm8.11-45.82c1.45-3.46 2.73-6.8 3.84-10 5.64 8.22 23.26 40.59 25.2 45.13l2 7.31h.06a.37.37 0 000 .18v.05l.49 1.81a.36.36 0 00.35.27h.1l22.42-6a.34.34 0 00.22-.17.38.38 0 000-.28l-.5-1.84a.44.44 0 00-.12-.18 3.53 3.53 0 00-1.25-2.47 4.77 4.77 0 00-3.69-.74 40.26 40.26 0 01-8.52-.1 23.37 23.37 0 00-3.07-.15c0-4.76-6.62-32.59-16.71-67.1h.52a.34.34 0 00.26-.11.4.4 0 00.1-.26c-.1-5.36-2.07-20.18-3.94-32.71 2.45 2.83 9.57 11 11.14 11.93A202 202 0 0099 82c.76.24 1.47.45 2.12.62a.55.55 0 01.35.3 4.36 4.36 0 002.21 2.43c.29.109.6.163.91.16a3.33 3.33 0 001.44-.36c.187.043.378.066.57.07a3 3 0 002.75-1.83 2.87 2.87 0 00.2-1.58.81.81 0 00.1-.09 2.22 2.22 0 00-.41-3c.29-1.6-1.29-2.36-2.26-2.56a.36.36 0 000-.11 2.64 2.64 0 00-2.55-1.19 4.57 4.57 0 00-3.29 1.88c-.19-.08-.54-.25-1.14-.57-3.7-1.95-13.61-7.67-16.21-10.24-.27-.27-1.4-2.16-2.7-4.34-3.85-6.44-10.29-17.22-14-19.55-2.57-1.6-9-2.06-10.46-2.14A4.47 4.47 0 0055 37.7a19.35 19.35 0 01-1.12-4.7c-.11-.71-.23-1.43-.37-2.11l.23-.07c1.59-.63 6.58-8.63 5.64-12.28a24.75 24.75 0 00-3.16-6.67c1.38-.28 4.75-1.09 6.28-2.29l48.07-5.39v170.1H48.7l.05-45.63z"/><path d="M63.68 6.73a2 2 0 100-4 2 2 0 000 4zm0-3.23a1.25 1.25 0 11-.02 2.5 1.25 1.25 0 01.02-2.5zM58 6.73a2 2 0 100-4 2 2 0 000 4zm0-3.23a1.25 1.25 0 11-.02 2.5A1.25 1.25 0 0158 3.5zM52.27 6.73a2 2 0 100-4 2 2 0 000 4zm0-3.23a1.25 1.25 0 11-.04 2.5 1.25 1.25 0 01.04-2.5zM48.63 18.7a.36.36 0 00.24-.09 2.39 2.39 0 012-.37.37.37 0 00.3-.67 3.1 3.1 0 00-2.82.49.37.37 0 000 .52.36.36 0 00.28.12zM44.58 18a.37.37 0 00-.52 0 2.06 2.06 0 01-1.31.53.37.37 0 100 .73 2.75 2.75 0 001.81-.73.35.35 0 00.02-.53zM53.43 25.4a2 2 0 00.56.09 1 1 0 00.72-.26c.52-.49.4-1.45.21-2.32-.04-.2-.09-.42-.15-.66-.27-1.13-.67-2.84-.35-3.62 0-.09.15-.17.32-.24a2.46 2.46 0 011.61 0 .36.36 0 00.49-.18.37.37 0 00-.18-.48 3.22 3.22 0 00-2.19 0 1.24 1.24 0 00-.73.64c-.41 1 0 2.7.32 4.07 0 .23.1.45.15.64.24 1.12.13 1.51 0 1.63-.13.12-.42.05-.58 0a.36.36 0 10-.2.69zM51.24 27.44c.423.426 1 .664 1.6.66.156.015.314.015.47 0a1.66 1.66 0 001.26-.93.35.35 0 00-.2-.47.36.36 0 00-.48.2 1 1 0 01-.72.48 1.51 1.51 0 01-1.4-.41.37.37 0 00-.53.51v-.04z"/></g></svg>