<?xml version="1.0" encoding="UTF-8"?>
<svg width="126px" height="176px" viewBox="0 0 126 176" version="1.1" xmlns="http://www.w3.org/2000/svg" xmlns:xlink="http://www.w3.org/1999/xlink">
    <!-- Generator: Sketch 53.1 (72631) - https://sketchapp.com -->
    <title>Larry__Log in</title>
    <desc>Created with Sketch.</desc>
    <g id="Page-1" stroke="none" stroke-width="1" fill="none" fill-rule="evenodd">
        <g id="Larry__Log-in" fill="#FFFFFF" fill-rule="nonzero">
            <path d="M55.77,19.61 C55.5380404,19.6265685 55.3634315,19.8280404 55.38,20.06 C55.3965685,20.2919596 55.5980404,20.4665685 55.83,20.45 C55.9414982,20.4423217 56.045338,20.3905207 56.1185345,20.3060632 C56.191731,20.2216057 56.2282471,20.1114576 56.22,20 C56.1988451,19.7703651 56.0003103,19.5983017 55.77,19.61 Z" id="Path"></path>
            <path d="M50.27,19.76 C50.1593696,19.7650968 50.0555064,19.8147318 49.9820466,19.8976095 C49.9085868,19.9804872 49.8717792,20.0895578 49.88,20.2 C49.8876783,20.3114982 49.9394793,20.415338 50.0239368,20.4885345 C50.1083943,20.561731 50.2185424,20.5982471 50.33,20.59 C50.4407436,20.5824331 50.5436865,20.5302866 50.6153028,20.4454779 C50.686919,20.3606692 50.7210877,20.2504466 50.71,20.14 C50.7050629,20.0301183 50.655096,19.9271184 50.5718511,19.855225 C50.4886062,19.7833317 50.37943,19.7488899 50.27,19.76 L50.27,19.76 Z" id="Path"></path>
            <path d="M48,0.7 L48,7.79 C47.5801678,8.07111785 47.2000882,8.40747143 46.87,8.79 C45.7884186,10.16093 45.0973957,11.7986541 44.87,13.53 C44.71,14.35 44.6,15.14 44.5,15.87 C43.8003046,15.4359312 42.8926563,15.5483463 42.32,16.14 C41.22,17.14 40.79,19.46 41.52,20.43 C41.9709238,20.9755269 42.6531432,21.2758518 43.36,21.24 C43.5265036,21.2504269 43.6934964,21.2504269 43.86,21.24 C43.55,25.24 43.6,29.02 43.66,32.98 C43.66,34.53 43.66,36.1 43.66,37.71 C43.1430362,38.1919264 42.7928109,38.8258344 42.66,39.52 C42.66,39.66 42.57,39.79 42.53,39.92 C41.35,39.92 36.68,39.92 33.9,41.39 C30.43,43.2 16.28,54.14 12.48,60.95 L5.38,81.63 L5.38,81.63 C4.59360004,82.3589655 4.05803635,83.3180796 3.85,84.37 C3.44872266,86.1936493 2.40972789,87.8141975 0.92,88.94 C0.223558326,89.3444301 -0.128942861,90.1547776 0.05,90.94 C0.239167314,91.4679568 0.761510104,91.8011045 1.32,91.75 L1.4,91.75 C1.34641521,92.0492547 1.37758926,92.3575314 1.49,92.64 C1.6864294,93.0410936 2.1041127,93.2853989 2.55,93.26 C2.87686981,93.2411997 3.19814068,93.1668001 3.5,93.04 C3.84204421,93.4960772 4.37992048,93.7631606 4.95,93.76 L4.95,93.76 C6.22,93.76 7.68,92.59 8.68,90.88 C8.8863805,90.9671556 9.10629767,91.0179057 9.33,91.03 C9.51051072,91.0304959 9.68977158,91.0000554 9.86,90.94 C10.401848,90.7168136 10.8185501,90.2672139 11,89.71 L11,89.59 C11.3541637,88.7104034 11.557024,87.7772461 11.6,86.83 C11.7308646,85.6549534 11.6289231,84.4656362 11.3,83.33 C11.84,82.69 13.52,79.82 20.36,67.03 L32.7,57.86 C32.48,62.01 31.7,72.76 31.16,81.51 C30.75,87.44 30.41,92.51 30.33,94.05 C30.3216999,94.1503686 30.3583235,94.2492523 30.43,94.32 C30.4973794,94.3915436 30.5917334,94.4314626 30.69,94.43 L30.85,94.43 C30.67,97.89 30.32,102.06 29.85,106.84 C28.4258586,107.069565 26.9741414,107.069565 25.55,106.84 C25.4543419,106.822688 25.3557485,106.844798 25.2766439,106.901301 C25.1975392,106.957805 25.1446481,107.043898 25.13,107.14 C25.1126881,107.235658 25.1347981,107.334251 25.1913014,107.413356 C25.2478047,107.492461 25.333898,107.545352 25.43,107.56 C26.2393385,107.698536 27.0588913,107.768783 27.88,107.77 C28.5128234,107.766354 29.1445238,107.71622 29.77,107.62 C27.38,129.9 22.44,158.78 21.99,161.41 C21.9175519,161.44359 21.8579156,161.499719 21.82,161.57 L18.64,168 L18.64,168 L17.57,170.05 C17.522906,170.13944 17.5155832,170.244559 17.5498213,170.339664 C17.5840594,170.43477 17.6567037,170.5111 17.75,170.55 L28.22,175.26 L28.37,175.26 L28.37,175.26 L41,175.2 C41.200503,175.200073 41.364581,175.04043 41.37,174.84 L41.37,172.93 C41.3746307,172.88679 41.3746307,172.84321 41.37,172.8 C41.3802526,172.747159 41.3802526,172.692841 41.37,172.64 C41.09,170.8 38.44,168.22 34.93,168.38 C34.22,168.38 33.83,168.01 33.08,167.15 C32.191562,166.058971 31.1102907,165.140398 29.89,164.44 C32.26,161.65 41,146.74 48,130.39 L48,175 L126,175 L126,0.7 L48,0.7 Z M125.3,1.43 L125.3,7.94 L111.3,7.94 L111.3,3.36 L63.2,8.75 C63.3832609,8.39562396 63.3832609,7.97437604 63.2,7.62 C62.76,6.76 61.31,6.16 54.06,9.14 C52.21,7.31 50.38,6.71 48.72,7.4 L48.72,1.4 L125.3,1.43 Z M55.77,11.2 C55.4010932,10.6817842 55.0038204,10.1843586 54.58,9.71 C61.35,6.96 62.38,7.66 62.58,7.95 C62.64,8.08 62.8,8.39 62.21,8.95 C60.76,10.12 56.8,11 55.77,11.2 Z M47.38,9.25 C47.7239538,8.85464385 48.1291006,8.51702151 48.58,8.25 C50.01,7.43 51.58,7.85 53.31,9.45 C50.23,10.75 47.31,12.19 45.79,12.91 L45.79,12.91 C46.0156383,11.5791968 46.561294,10.323159 47.38,9.25 L47.38,9.25 Z M42.12,20 C41.65,19.39 41.96,17.5 42.83,16.68 C43.057064,16.4494034 43.3721,16.3272284 43.6952666,16.3444385 C44.0184332,16.3616485 44.3187114,16.5165918 44.52,16.77 C44.8226306,17.0471518 45.0911873,17.359349 45.32,17.7 C45.371069,17.7819341 45.4537146,17.8391339 45.5483863,17.8580683 C45.6430581,17.8770026 45.7413463,17.8559896 45.82,17.8 C45.9025548,17.7469983 45.9599033,17.6626007 45.9787801,17.5663294 C45.9976568,17.4700582 45.9764265,17.370253 45.92,17.29 C45.7066289,16.9671597 45.4584773,16.668707 45.18,16.4 L45.18,16.24 C45.28,15.51 45.39,14.69 45.55,13.86 L46.09,13.6 C47.59,12.86 50.69,11.35 53.85,10.03 C54.3715499,10.5955466 54.8527338,11.1970265 55.29,11.83 C56.7683904,13.9425667 57.9055966,16.2743456 58.66,18.74 C59.48,21.99 54.77,29.64 53.45,30.16 C53.3052353,30.2197447 53.154323,30.2633416 53,30.29 C51.13,30.64 48.63,28.89 47.82,27.21 C47.7748976,27.0732849 47.65459,26.9751434 47.5116018,26.9584225 C47.3686135,26.9417015 47.2289084,27.0094373 47.1534795,27.1320575 C47.0780505,27.2546777 47.0805942,27.4099169 47.16,27.53 C48.2363072,29.52203 50.2522208,30.8295478 52.51,31 C52.6032538,31.0054491 52.6967462,31.0054491 52.79,31 C52.93,31.66 53.04,32.36 53.16,33.09 C53.340392,34.5147053 53.6482939,35.9203445 54.08,37.29 C50.8973588,36.6973048 47.6326412,36.6973048 44.45,37.29 C44.45,35.78 44.45,34.29 44.45,32.86 C44.310016,28.906293 44.3667528,24.9480704 44.62,21 L44.96,20.86 C45.1354083,20.759554 45.1977434,20.5369285 45.1,20.36 C45.0557013,20.2743002 44.9779937,20.2106852 44.8852336,20.1841823 C44.7924735,20.1576794 44.6928875,20.1706391 44.61,20.22 C44.4572966,20.3004071 44.2963659,20.3641088 44.13,20.41 C43.4374452,20.6778413 42.6523217,20.5176917 42.12,20 L42.12,20 Z M102.21,78.51 C102.386928,78.6077434 102.609554,78.5454083 102.71,78.37 C103.49,76.98 104.66,76.5 106.5,76.81 L106.82,76.87 C106.99,76.87 108.37,77.22 108.51,78.18 C108.392716,78.0940053 108.269021,78.017114 108.14,77.95 C106.20805,76.9260108 103.811865,77.6430849 102.76,79.56 C102.660589,79.7339697 102.72103,79.9555887 102.895,80.055 C103.06897,80.1544113 103.290589,80.0939697 103.39,79.92 C104.274472,78.3635322 106.231268,77.7848858 107.82,78.61 C108.036895,78.7094465 108.241584,78.8336019 108.43,78.98 C109.120444,79.3877494 109.455484,80.20492 109.25,80.98 C108.934057,80.3366952 108.393286,79.8315007 107.73,79.56 C106.620134,79.1200771 105.355053,79.3801128 104.508689,80.2221363 C103.662326,81.0641598 103.395789,82.3278866 103.83,83.44 C104.083863,83.9762314 104.491023,84.4251509 105,84.73 C104.650915,84.8040309 104.28838,84.7833147 103.95,84.67 C103.128185,84.2454974 102.491111,83.5336826 102.16,82.67 C102.005975,82.3133335 101.696027,82.0476643 101.32,81.95 C100.84,81.83 100.32,81.67 99.76,81.5 C100.212727,80.7226249 100.473286,79.8483828 100.52,78.95 C100.59143,78.3855843 100.59143,77.8144157 100.52,77.25 C100.765279,77.4038572 101.036276,77.5122559 101.32,77.57 C101.359355,77.5801613 101.400645,77.5801613 101.44,77.57 L101.59,77.57 L101.66,77.42 C102.273908,76.417629 103.32864,75.7677058 104.5,75.67 C105.034285,75.6071044 105.571379,75.7621048 105.99,76.1 C104.418418,75.8871922 102.883494,76.6887189 102.16,78.1 C102.10465,78.2261012 102.123914,78.3725088 102.21,78.48 L102.21,78.51 Z M106,84.4 C105.910018,84.3806068 105.822715,84.3503867 105.74,84.31 C105.188238,84.0823246 104.750164,83.6438498 104.522993,83.0918804 C104.295822,82.539911 104.298344,81.9201023 104.53,81.37 C104.879337,80.5411657 105.690556,80.0016656 106.59,80 C106.885273,79.9972873 107.177967,80.0551453 107.45,80.17 C108.484685,80.6604022 108.986057,81.8496442 108.614765,82.9327919 C108.243474,84.0159396 107.117949,84.6474984 106,84.4 Z M11,86.78 C10.9597972,87.6546776 10.7739109,88.5165144 10.45,89.33 L10.45,89.45 C10.3267702,89.7791082 10.0736504,90.043076 9.75,90.18 C9.56196374,90.2440031 9.35803626,90.2440031 9.17,90.18 C9.5591389,89.3620383 9.83178769,88.4936014 9.98,87.6 C10.0098677,87.3985424 9.87131353,87.2108239 9.67,87.18 C9.47184956,87.1497213 9.28562302,87.2827403 9.25,87.48 C9.10364658,88.4304792 8.79945562,89.3498119 8.35,90.2 C7.39,91.79 6,92.94 5,93 C4.71046853,93.0076011 4.42981645,92.899658 4.22,92.7 C6.20659099,91.6529569 7.60072929,89.7498475 8,87.54 C8.0434699,87.3413034 7.91840651,87.1447752 7.72,87.1 C7.62577899,87.0793144 7.52719787,87.097308 7.44636039,87.1499463 C7.36552291,87.2025847 7.30919268,87.2854636 7.29,87.38 C6.91226772,89.4259121 5.59334683,91.1745938 3.73,92.1 L3.51,92.21 C3,92.44 2.36,92.63 2.18,92.21 C2.06639265,91.8780383 2.17942732,91.5106756 2.46,91.3 C2.50558255,91.2782711 2.54637719,91.2476752 2.58,91.21 C3.95,90.34 5.7,88.34 5.96,86.96 C6.00594709,86.8235665 5.96858598,86.6728688 5.86422793,86.573699 C5.75986987,86.4745293 5.60746431,86.4448949 5.47354904,86.4977337 C5.33963378,86.5505725 5.24852526,86.67629 5.24,86.82 C5.02,88.03 3.24,89.99 2.04,90.69 C1.84768989,90.8142018 1.6280298,90.88971 1.4,90.91 C1.17,90.91 0.85,90.91 0.77,90.61 C0.719341834,90.1458955 0.951846409,89.6966493 1.36,89.47 C2.98133354,88.2536705 4.12158292,86.5043438 4.58,84.53 C4.95,83.38 5.27,82.53 5.97,82.09 C8.41,82.79 9.97,83.23 10.67,83.39 C11.0154736,84.4845671 11.1278864,85.6393536 11,86.78 Z M68.84,94.37 C78.84,128.46 85.84,157.59 85.57,161.63 C84.77,161.93 81,162.91 78.47,163.54 C76.47,158.85 58.2,125.34 52.89,117.84 C54.53746,113.188588 55.8409683,108.422427 56.79,103.58 C56.8150016,103.383144 56.6843234,103.200195 56.49,103.16 C56.3958192,103.142511 56.2985519,103.163279 56.2197259,103.217707 C56.1409,103.272134 56.087016,103.355733 56.07,103.45 C55.0961533,108.349221 53.7591292,113.169193 52.07,117.87 C50.91,121.22 49.54,124.79 47.99,128.5 C40.72,145.85 31.32,161.93 29.18,164.09 L22.69,161.51 C23.13,158.95 28.12,129.82 30.5,107.45 C34.13,106.69 36.5,104.45 37.12,101.04 C37.1659471,100.903566 37.128586,100.752869 37.0242279,100.653699 C36.9198699,100.554529 36.7674643,100.524895 36.633549,100.577734 C36.4996338,100.630573 36.4085253,100.75629 36.4,100.9 C35.8632374,103.863565 33.5362948,106.178534 30.57,106.7 C31.07,101.98 31.41,97.86 31.57,94.43 L68.84,94.37 Z M102.35,165.66 L102.65,166.79 L80.94,172.63 L80.64,171.49 L102.35,165.66 Z M40.64,174.48 L28.49,174.57 L18.49,170.05 L19.22,168.66 L28.75,173.16 C28.7995526,173.169459 28.8504474,173.169459 28.9,173.16 L40.69,173.26 L40.64,174.48 Z M48.75,128.66 C50.2,125.2 51.48,121.86 52.59,118.66 C58.23,126.88 75.85,159.25 77.79,163.79 L77.79,163.79 L79.79,171.1 L79.85,171.1 C79.8351829,171.159085 79.8351829,171.220915 79.85,171.28 C79.85,171.28 79.85,171.28 79.85,171.33 L80.34,173.14 C80.381172,173.299464 80.5253079,173.410655 80.69,173.41 L80.79,173.41 L103.21,167.41 C103.30421,167.387277 103.384246,167.325431 103.43,167.24 C103.465639,167.150069 103.465639,167.049931 103.43,166.96 L102.93,165.12 C102.905603,165.050948 102.864357,164.989078 102.81,164.94 C102.747014,163.980815 102.295589,163.088799 101.56,162.47 C100.483406,161.728024 99.1494358,161.460506 97.87,161.73 C95.034458,161.998134 92.1784675,161.964613 89.35,161.63 C88.331067,161.512686 87.3055162,161.462578 86.28,161.48 C86.28,156.72 79.66,128.89 69.57,94.38 L70.09,94.38 C70.188513,94.3827475 70.2833713,94.3426152 70.35,94.27 C70.4134096,94.1981148 70.4488964,94.105849 70.45,94.01 C70.35,88.65 68.38,73.83 66.51,61.3 C68.96,64.13 76.08,72.3 77.65,73.23 C84.5936995,76.557861 91.7219996,79.485973 99,82 C99.76,82.24 100.47,82.45 101.12,82.62 C101.274967,82.6639254 101.40289,82.7735741 101.47,82.92 C101.861721,83.9871271 102.654723,84.8590706 103.68,85.35 C103.970941,85.4587396 104.279417,85.5129772 104.59,85.51 C105.090972,85.4998687 105.583198,85.376812 106.03,85.15 C106.217074,85.1929481 106.408093,85.2164066 106.6,85.22 C107.800202,85.2150169 108.881927,84.495178 109.35,83.39 C109.564386,82.892747 109.633722,82.3449882 109.55,81.81 C109.585771,81.7828249 109.61922,81.7527211 109.65,81.72 C110.322291,80.7674796 110.143219,79.4572007 109.24,78.72 L109.24,78.72 C109.53,77.12 107.95,76.36 106.98,76.16 L106.98,76.16 C106.985635,76.1235498 106.985635,76.0864502 106.98,76.05 C106.429862,75.1956261 105.438185,74.7328437 104.43,74.86 C103.112957,74.9810659 101.912955,75.6667813 101.14,76.74 C100.95,76.66 100.6,76.49 100,76.17 C96.3,74.22 86.39,68.5 83.79,65.93 C83.52,65.66 82.39,63.77 81.09,61.59 C77.24,55.15 70.8,44.37 67.09,42.04 C64.52,40.44 58.09,39.98 56.63,39.9 C56.3301698,39.0142176 55.7600838,38.2447763 55,37.7 C54.4317701,36.1862791 54.0555043,34.6073066 53.88,33 C53.77,32.29 53.65,31.57 53.51,30.89 L53.74,30.82 C55.33,30.19 60.32,22.19 59.38,18.54 C58.66596,16.1712236 57.6007857,13.9228969 56.22,11.87 C57.6,11.59 60.97,10.78 62.5,9.58 L110.57,4.19 L110.57,174.29 L48.7,174.29 L48.75,128.66 Z" id="Shape"></path>
            <path d="M63.68,6.73 C64.7845695,6.73 65.68,5.8345695 65.68,4.73 C65.68,3.6254305 64.7845695,2.73 63.68,2.73 C62.5754305,2.73 61.68,3.6254305 61.68,4.73 C61.68,5.8345695 62.5754305,6.73 63.68,6.73 Z M63.68,3.5 C64.3690273,3.50551239 64.9236499,4.0675738 64.9199823,4.75661337 C64.9163147,5.44565294 64.3557402,6.00177841 63.6666933,5.99995563 C62.9776464,5.99813284 62.420022,5.43904933 62.42,4.75 C62.4199893,4.41673948 62.5530572,4.09727218 62.789645,3.86256212 C63.0262327,3.62785205 63.3467501,3.49733392 63.68,3.5 Z" id="Shape"></path>
            <path d="M58,6.73 C59.1045695,6.73 60,5.8345695 60,4.73 C60,3.6254305 59.1045695,2.73 58,2.73 C56.8954305,2.73 56,3.6254305 56,4.73 C56,5.8345695 56.8954305,6.73 58,6.73 Z M58,3.5 C58.6890273,3.50551239 59.2436499,4.0675738 59.2399823,4.75661337 C59.2363147,5.44565294 58.6757402,6.00177841 57.9866933,5.99995563 C57.2976464,5.99813284 56.740022,5.43904933 56.74,4.75 C56.7399893,4.41673948 56.8730572,4.09727218 57.109645,3.86256212 C57.3462327,3.62785205 57.6667501,3.49733392 58,3.5 Z" id="Shape"></path>
            <path d="M52.27,6.73 C53.3745695,6.73 54.27,5.8345695 54.27,4.73 C54.27,3.6254305 53.3745695,2.73 52.27,2.73 C51.1654305,2.73 50.27,3.6254305 50.27,4.73 C50.27,5.8345695 51.1654305,6.73 52.27,6.73 Z M52.27,3.5 C52.9576449,3.51100373 53.5072361,4.07542617 53.4999294,4.76312031 C53.4926228,5.45081446 52.9311632,6.00343214 52.2434397,5.99982277 C51.5557163,5.99621341 51.000088,5.43773295 51,4.75 C50.9999571,4.41498489 51.134395,4.09397359 51.3731591,3.85896962 C51.6119231,3.62396566 51.9350278,3.49463976 52.27,3.5 Z" id="Shape"></path>
            <path d="M48.63,18.7 C48.7183324,18.7004605 48.803751,18.6684285 48.87,18.61 C49.4483059,18.1949934 50.1814982,18.0593528 50.87,18.24 C51.0482867,18.2940991 51.2389886,18.2071929 51.3151285,18.0371471 C51.3912684,17.8671013 51.3290925,17.6669662 51.17,17.57 C50.2063423,17.2636312 49.153825,17.4465154 48.35,18.06 C48.2076652,18.2041134 48.2076652,18.4358866 48.35,18.58 C48.4209768,18.659464 48.5235076,18.7034058 48.63,18.7 L48.63,18.7 Z" id="Path"></path>
            <path d="M44.58,18 C44.4358866,17.8576652 44.2041134,17.8576652 44.06,18 C43.6994845,18.3256014 43.2354992,18.5133206 42.75,18.53 L42.75,18.53 C42.6051804,18.5059473 42.4598379,18.5697886 42.3795752,18.6927079 C42.2993126,18.8156272 42.2993126,18.9743728 42.3795752,19.0972921 C42.4598379,19.2202114 42.6051804,19.2840527 42.75,19.26 L42.75,19.26 C43.4222923,19.2461428 44.0662087,18.9864417 44.56,18.53 C44.6396436,18.4664698 44.6876533,18.3713906 44.6914951,18.2695847 C44.6953368,18.1677789 44.6546292,18.0693518 44.58,18 L44.58,18 Z" id="Path"></path>
            <path d="M53.43,25.4 C53.6114433,25.4564508 53.8000057,25.4867554 53.99,25.49 C54.2549853,25.5022605 54.5139846,25.408733 54.71,25.23 C55.23,24.74 55.11,23.78 54.92,22.91 C54.88,22.71 54.83,22.49 54.77,22.25 C54.5,21.12 54.1,19.41 54.42,18.63 C54.42,18.54 54.57,18.46 54.74,18.39 C55.2614748,18.2094121 55.8285252,18.2094121 56.35,18.39 C56.4384689,18.433724 56.541008,18.4392139 56.6336397,18.4051859 C56.7262714,18.3711579 56.8008731,18.3005959 56.84,18.21 C56.9185173,18.0276209 56.8390774,17.8157811 56.66,17.73 C55.952421,17.4741301 55.177579,17.4741301 54.47,17.73 C54.1497973,17.8352524 53.8862375,18.0663185 53.74,18.37 C53.33,19.37 53.74,21.07 54.06,22.44 C54.06,22.67 54.16,22.89 54.21,23.08 C54.45,24.2 54.34,24.59 54.21,24.71 C54.08,24.83 53.79,24.76 53.63,24.71 C53.5385001,24.6819785 53.4396086,24.6915403 53.3551723,24.736573 C53.2707359,24.7816058 53.2077036,24.8584033 53.18,24.95 C53.152346,25.0428436 53.1632773,25.1429143 53.2103237,25.2275979 C53.2573702,25.3122815 53.3365609,25.3744304 53.43,25.4 L53.43,25.4 Z" id="Path"></path>
            <path d="M51.24,27.44 C51.662726,27.8664378 52.2395607,28.1043821 52.84,28.1 C52.9963162,28.1148189 53.1536838,28.1148189 53.31,28.1 C53.8590245,28.0200419 54.3318063,27.6710839 54.57,27.17 C54.6090655,27.0814652 54.6097319,26.9807073 54.5718409,26.8916634 C54.5339499,26.8026196 54.4608835,26.7332374 54.37,26.7 C54.280047,26.6606661 54.1779317,26.6597763 54.0873069,26.6975366 C53.9966821,26.7352969 53.9254103,26.8084314 53.89,26.9 C53.7352356,27.1609324 53.4703854,27.3374992 53.17,27.38 C52.6638915,27.4927719 52.1353182,27.3379754 51.77,26.97 C51.6250798,26.8492621 51.4125325,26.8568692 51.2766145,26.9876582 C51.1406965,27.1184473 51.1249232,27.3305449 51.24,27.48 L51.24,27.44 Z" id="Path"></path>
        </g>
    </g>
</svg>