<?xml version="1.0" encoding="UTF-8"?>
<svg width="14px" height="24px" viewBox="0 0 14 24" version="1.1" xmlns="http://www.w3.org/2000/svg" xmlns:xlink="http://www.w3.org/1999/xlink">
    <!-- Generator: Sketch 53.1 (72631) - https://sketchapp.com -->
    <title>icons8-key(1)</title>
    <desc>Created with Sketch.</desc>
    <g id="Page-1" stroke="none" stroke-width="1" fill="none" fill-rule="evenodd" opacity="0.1">
        <g id="Artboard" transform="translate(-1214.000000, -378.000000)" fill="#FFFFFF" fill-rule="nonzero">
            <g id="icons8-key(1)" transform="translate(1221.000000, 390.000000) rotate(-90.000000) translate(-1221.000000, -390.000000) translate(1209.000000, 383.000000)">
                <path d="M6.5625,0.0136719 C2.4595703,0.2668613 -0.68726562,4.0536406 0.13085938,8.369141 C0.65285938,11.124141 2.8748594,13.347141 5.6308594,13.869141 C9.378008,14.579519 12.720128,12.298793 13.703125,9 L18,9 L18,10 C18,11.105 18.895,12 20,12 C21.105,12 22,11.105 22,10 L22,9 C23.105,9 24,8.105 24,7 C24,5.895 23.105,5 22,5 L13.699219,5 C12.979424,2.5432523 10.909496,0.6120152 8.3691406,0.1308594 C7.7527656,0.0139844 7.1486328,-0.022498 6.5625,0.0136719 Z M7,4 C8.657,4 10,5.343 10,7 C10,8.657 8.657,10 7,10 C5.343,10 4,8.657 4,7 C4,5.343 5.343,4 7,4 Z" id="Shape"></path>
            </g>
        </g>
    </g>
</svg>