<?xml version="1.0" encoding="UTF-8"?>
<svg width="126px" height="169px" viewBox="0 0 126 169" version="1.1" xmlns="http://www.w3.org/2000/svg" xmlns:xlink="http://www.w3.org/1999/xlink">
    <!-- Generator: Sketch 53.1 (72631) - https://sketchapp.com -->
    <title>Group 3</title>
    <desc>Created with Sketch.</desc>
    <g id="Page-1" stroke="none" stroke-width="1" fill="none" fill-rule="evenodd">
        <g id="Group-3" transform="translate(0.375000, 1.000000)">
            <path d="M50.9559395,160.666225 C53.0482059,160.931126 55.0403638,162.160265 54.5498324,165 L38.3422762,165 C38.872851,162.202649 36.8706822,160.931126 34.7483833,160.666225 C33.6913285,160.521481 32.6468813,160.287626 31.625,159.966887 L31.625,159.829139 C31.625,159.627815 31.625,158.631788 31.625,157 L40.5746944,157 L40.5746944,157 C41.3655511,157.190728 46.5912116,160.083444 50.9559395,160.666225 Z" id="Path" fill="#FFFFFF" fill-rule="nonzero"></path>
            <path d="M38.5358413,164.895425 L14.6869987,165 C14.6869987,164.675817 14.6869987,161.726797 14.625,157 L24.1108048,157 L24.1108048,157 C24.7514583,157.135948 28.06839,158.871895 31.6126504,159.917647 C32.6674289,160.234193 33.7454997,160.464991 34.8365841,160.607843 C37.0168725,160.879739 39.0834967,162.134641 38.5358413,164.895425 Z" id="Path" fill="#FFFFFF" fill-rule="nonzero"></path>
            <path d="M24.5526249,74.9262158 C27.9980887,75.2481833 30.6688328,73.175517 32.1163354,71.8071548 L32.1774975,71.8675238 C35.2356014,72.038569 38.1204128,72.7529346 39.3130734,74.5740637 L39.3946228,74.5740637 C41.9124618,71.7467859 47.6107288,70.881498 50.2406983,73.1553941 L50.4037971,73.1553941 C50.6382518,72.3907211 51.0867737,70.8513136 51.6372324,69 L51.7697503,69 C52.7891182,76.6165456 53.5638379,83.5790945 53.625,86.8188932 L13.625,87 C13.7167431,85.1587479 14.1958461,79.333147 14.644368,72.803242 L14.6953364,72.6724427 C15.2050204,72.843488 15.7147044,73.0044718 16.2243884,73.1553941 C18.9474917,73.9665763 21.7326716,74.5587853 24.5526249,74.9262158 L24.5526249,74.9262158 Z" id="Path" fill="#FFFFFF" fill-rule="nonzero"></path>
            <path d="M15.8703391,54.5088767 C14.4657759,56.0866647 13.1431973,57.7344696 11.9077525,59.4458759 C11.0260516,60.9239592 12.6577049,62.723802 15.2622695,64.47337 L15.2622695,64.4130401 C15.5865733,59.9687353 15.7892632,56.4293794 15.8703391,54.5088767 Z M19.2653941,66.7055774 L19.2653941,66.8664572 C19.2653941,66.8664572 16.4176017,68.4350353 16.5493501,72.7385703 L16.4682742,73 C15.971684,72.8491752 15.4548249,72.6882954 14.9481003,72.5173606 C8.73565627,70.415868 1.70231836,66.5446976 0.688869099,59.6670856 C0.293623885,56.9321288 1.81379778,54.7602514 3.01980241,52.3068342 C4.52984182,49.2098979 13.2860435,37.9382561 15.4244214,36.2188531 C17.8465652,34.2078555 26.1264457,33.0414768 26.1264457,33.0414768 C26.3020109,32.2197661 26.769642,31.488133 27.4439297,30.9802042 L27.4439297,30.9802042 C28.457379,30.5277298 34.3353847,30.356795 37.6899018,30.7288295 C37.8849284,30.7503022 38.0740749,30.808307 38.2472989,30.8997643 C39.030544,31.3458821 39.5562452,32.1319733 39.6661279,33.0213668 L56.8947654,29.7635507 C53.5199793,23.2780833 51.148508,19.4370778 46.7602727,11.8958366 L46.7602727,11.8153967 L46.7602727,11.8153967 C47.4357607,10.2287232 48.9422797,9.14448456 50.6721869,9 L50.6721869,9 C52.5977405,11.0813826 69.4919398,29.492066 67.4549067,32.3879026 C65.0226285,35.8669285 48.1993707,43.3578947 48.1993707,43.3578947 C48.6351539,46.0928515 49.2128199,49.7528672 49.9120999,54.217282 L49.9120999,54.2876669 C46.2434136,54.2876669 42.4531133,55.4942655 41.3281847,58.1085625 L41.2268397,58.1085625 C39.3620931,52.4073841 24.8089616,52.6285939 24.0894126,54.6395915 L24.0894126,54.6395915 C23.8867228,55.1825609 23.8259158,60.8334643 23.8664538,65.6196386 L23.7955124,65.6196386 C22.581519,65.7004377 21.5329863,66.4915457 21.1301408,67.6306363 C20.5322057,67.3088767 19.8937327,67.007227 19.2653941,66.7055774 Z" id="Shape" fill="#FFFFFF" fill-rule="nonzero"></path>
            <rect id="Rectangle" stroke="#FFFFFF" stroke-width="0.86" stroke-linecap="round" stroke-linejoin="round" transform="translate(26.125000, 166.000000) rotate(-180.000000) translate(-26.125000, -166.000000) " x="14.625" y="165" width="23" height="2"></rect>
            <rect id="Rectangle" stroke="#FFFFFF" stroke-width="0.86" stroke-linecap="round" stroke-linejoin="round" x="38.625" y="165" width="16" height="2"></rect>
            <polyline id="Path" stroke="#FFFFFF" stroke-width="0.86" stroke-linecap="round" points="51.625 161 51.625 142 86.625 142 86.625 153.265761"></polyline>
            <polyline id="Path" stroke="#FFFFFF" stroke-width="0.86" stroke-linecap="round" points="86.625 163 86.625 167 51.625 167"></polyline>
            <path d="M115.625,148 C111.714467,144.616356 106.818084,142.517906 101.625,142" id="Path" stroke="#FFFFFF" stroke-width="0.86" stroke-linecap="round"></path>
            <path d="M116.625,160.160097 C117.428062,162.342849 117.83877,164.661612 117.836509,167 L124.625,167 C124.632491,162.426798 123.459968,157.935998 121.230736,154" id="Path" stroke="#FFFFFF" stroke-width="0.86" stroke-linecap="round"></path>
            <path d="M102.625,149 C106.430885,149.465981 109.961516,151.231297 112.625,154" id="Path" stroke="#FFFFFF" stroke-width="0.86" stroke-linecap="round"></path>
            <path d="M105.625,143 L104.625,149" id="Path" stroke="#FFFFFF" stroke-width="0.86" stroke-linecap="round"></path>
            <path d="M111.625,145 L108.625,151" id="Path" stroke="#FFFFFF" stroke-width="0.86" stroke-linecap="round"></path>
            <path d="M115.625,148 L111.625,153" id="Path" stroke="#FFFFFF" stroke-width="0.86" stroke-linecap="round"></path>
            <path d="M117.625,159 L122.625,158" id="Path" stroke="#FFFFFF" stroke-width="0.86" stroke-linecap="round"></path>
            <path d="M117.625,163.775 L124.625,163.225" id="Path" stroke="#FFFFFF" stroke-width="0.86" stroke-linecap="round"></path>
            <path d="M78.625,154.763668 C86.0014924,165.989779 101.181758,169.357728 112.765194,162.338134 C124.34863,155.318541 128.072051,140.494907 121.139115,129 L115.260695,132.557745 C118.830343,137.952028 119.144037,144.819019 116.080547,150.50487 C113.017057,156.190721 107.056273,159.804753 100.501826,159.95027 C93.9473793,160.095787 87.8260142,156.749995 84.5034194,151.205923 L78.625,154.763668 Z" id="Path" stroke="#FFFFFF" stroke-width="0.86" stroke-linecap="round"></path>
            <path d="M122.625,135 L116.625,137" id="Path" stroke="#FFFFFF" stroke-width="0.86" stroke-linecap="round"></path>
            <path d="M123.625,141.375 L117.625,141.625" id="Path" stroke="#FFFFFF" stroke-width="0.86" stroke-linecap="round"></path>
            <path d="M123.625,147 L116.625,145" id="Path" stroke="#FFFFFF" stroke-width="0.86" stroke-linecap="round"></path>
            <path d="M121.625,153 L115.625,150" id="Path" stroke="#FFFFFF" stroke-width="0.86" stroke-linecap="round"></path>
            <path d="M117.625,159 L112.625,154" id="Path" stroke="#FFFFFF" stroke-width="0.86" stroke-linecap="round"></path>
            <path d="M112.625,163 L109.625,157" id="Path" stroke="#FFFFFF" stroke-width="0.86" stroke-linecap="round"></path>
            <path d="M106.625,166 L104.625,160" id="Path" stroke="#FFFFFF" stroke-width="0.86" stroke-linecap="round"></path>
            <path d="M101.51,167 L100.74,160" id="Path" stroke="#FFFFFF" stroke-width="0.86" stroke-linecap="round"></path>
            <path d="M96.815,167 L97.435,160" id="Path" stroke="#FFFFFF" stroke-width="0.86" stroke-linecap="round"></path>
            <path d="M90.625,165 L92.625,159" id="Path" stroke="#FFFFFF" stroke-width="0.86" stroke-linecap="round"></path>
            <path d="M89.625,157 L84.625,162" id="Path" stroke="#FFFFFF" stroke-width="0.86" stroke-linecap="round"></path>
            <path d="M86.625,154 L81.625,158" id="Path" stroke="#FFFFFF" stroke-width="0.86" stroke-linecap="round"></path>
            <path d="M70.625,115 C61.814002,116.788708 53.977076,121.775843 48.625,129" id="Path" stroke="#FFFFFF" stroke-width="0.86" stroke-linecap="round"></path>
            <path d="M65.625,127 C67.2200888,126.171717 68.8950146,125.501747 70.625,125" id="Path" stroke="#FFFFFF" stroke-width="0.86" stroke-linecap="round"></path>
            <path d="M52.625,142 C54.3420602,137.213306 57.4751682,133.035828 61.625,130" id="Path" stroke="#FFFFFF" stroke-width="0.86" stroke-linecap="round"></path>
            <path d="M48.625,159.9 L51.625,159.1" id="Path" stroke="#FFFFFF" stroke-width="0.86" stroke-linecap="round"></path>
            <path d="M41.625,152.685 L50.625,152.315" id="Path" stroke="#FFFFFF" stroke-width="0.86" stroke-linecap="round"></path>
            <path d="M44.625,144 L51.625,146" id="Path" stroke="#FFFFFF" stroke-width="0.86" stroke-linecap="round"></path>
            <path d="M46.625,136 L53.625,139" id="Path" stroke="#FFFFFF" stroke-width="0.86" stroke-linecap="round"></path>
            <path d="M50.625,127 L57.625,134" id="Path" stroke="#FFFFFF" stroke-width="0.86" stroke-linecap="round"></path>
            <path d="M57.625,121 L61.625,128" id="Path" stroke="#FFFFFF" stroke-width="0.86" stroke-linecap="round"></path>
            <path d="M66.625,117 L69.625,126" id="Path" stroke="#FFFFFF" stroke-width="0.86" stroke-linecap="round"></path>
            <path d="M59.625,151 L56.625,154" id="Path" stroke="#FFFFFF" stroke-width="0.86" stroke-linecap="round"></path>
            <path d="M56.625,151 L59.625,154" id="Path" stroke="#FFFFFF" stroke-width="0.86" stroke-linecap="round"></path>
            <path d="M85.1250724,80.0000086 C82.8996823,80.000012 80.8936024,81.3410736 80.0428899,83.3974403 C79.1921774,85.4538071 79.6645046,87.8201767 81.2394788,89.3923772 C82.814453,90.9645776 85.1816527,91.432734 87.2365183,90.5783998 C89.291384,89.7240655 90.6289094,87.7156268 90.6249914,85.4902415 C90.6249937,84.0324619 90.0452308,82.6345303 89.0135166,81.6046331 C87.9818024,80.5747359 86.5828505,79.9974375 85.1250724,80.0000086 L85.1250724,80.0000086 Z M88.1558376,88.511322 C88.0773343,88.5929883 87.9689451,88.6391435 87.855666,88.6391435 C87.7423868,88.6391435 87.6339977,88.5929883 87.5554943,88.511322 L85.1250724,86.0712185 L82.6946504,88.5016391 C82.6209321,88.5841208 82.5147546,88.6301309 82.4041617,88.6275174 C82.2366437,88.6230523 82.0873012,88.520801 82.0225518,88.366238 C81.9578024,88.211675 81.9896732,88.0335101 82.1039901,87.9109791 L84.534412,85.4805585 L82.113673,83.0598209 C82.0047023,82.957769 81.9584533,82.8053341 81.9923475,82.6599368 C82.0262417,82.5145396 82.1351298,82.3982693 82.2779947,82.3549239 C82.4208596,82.3115785 82.5759967,82.3477432 82.6849674,82.449795 L85.1250724,84.8898985 L87.5651773,82.449795 C87.7301142,82.2911697 87.9909007,82.2911697 88.1558376,82.449795 C88.2344823,82.5279521 88.2787057,82.6342489 88.2787057,82.745125 C88.2787057,82.8560011 88.2344823,82.9622979 88.1558376,83.040455 L85.7254156,85.4611926 L88.1655206,87.8916132 C88.3237978,88.0688582 88.310875,88.340236 88.1364717,88.5016391 L88.1558376,88.511322 Z" id="Shape" fill="#FFFFFF" fill-rule="nonzero"></path>
            <path d="M74.625,151 C74.525,151.09 71.625,154 71.625,154" id="Path" stroke="#FFFFFF" stroke-width="0.86" stroke-linecap="round"></path>
            <path d="M71.625,151 L74.625,154" id="Path" stroke="#FFFFFF" stroke-width="0.86" stroke-linecap="round"></path>
            <polyline id="Path" stroke="#FFFFFF" stroke-width="0.86" stroke-linecap="round" points="70.625 142.675188 70.625 116 103.625 116 103.625 160"></polyline>
            <path d="M119.349911,129.980224 C120.590072,129.505593 122.71167,125.945862 120.959046,122.890426 C119.062932,119.56801 115.916407,119.736109 114.625,120.359062 C115.649927,122.653111 118.222492,127.963043 119.267917,130" id="Path" stroke="#FFFFFF" stroke-width="0.86" stroke-linecap="round"></path>
            <path d="M110.900089,122.009895 C109.659928,122.494747 107.53833,126.047029 109.290954,129.104565 C111.187068,132.429264 114.333593,132.26105 115.625,131.647564 C114.600073,129.351939 112.027508,124.028462 110.982083,122" id="Path" stroke="#FFFFFF" stroke-width="0.86" stroke-linecap="round"></path>
            <path d="M55.625,159 C56.5767241,159 56.5767241,165 57.5284483,165 C58.4801724,165 58.4801724,159 59.4422414,159 C60.4043103,159 60.3939655,165 61.3456897,165 C62.2974138,165 62.2974138,159 63.2491379,159 C64.2008621,159 64.2008621,165 65.1525862,165 C66.1043103,165 66.1146552,159 67.0663793,159 C68.0181034,159 68.0181034,165 68.9801724,165 C69.9422414,165 69.9318966,159 70.8836207,159 C71.8353448,159 71.8456897,165 72.7974138,165 C73.7491379,165 73.7594828,159 74.7112069,159 C75.662931,159 75.6732759,165 76.625,165" id="Path" stroke="#FFFFFF" stroke-width="0.86" stroke-linecap="round"></path>
            <path d="M76.625,142 L82.625,131" id="Path" stroke="#FFFFFF" stroke-width="0.86" stroke-linecap="round"></path>
            <circle id="Oval" stroke="#FFFFFF" stroke-width="0.86" stroke-linecap="round" cx="83.125" cy="129.5" r="2.5"></circle>
            <path d="M57.625,142 L63.625,131" id="Path" stroke="#FFFFFF" stroke-width="0.86" stroke-linecap="round"></path>
            <circle id="Oval" stroke="#FFFFFF" stroke-width="0.86" stroke-linecap="round" cx="64.125" cy="129.5" r="2.5"></circle>
            <polyline id="Path" stroke="#FFFFFF" stroke-width="0.86" stroke-linecap="round" points="89.625 156 89.625 127 103.625 127"></polyline>
            <path d="M82.625,116 C82.625,116 69.3155925,99.2809314 69.0494043,99.0431215 C68.6296461,98.5881808 63.3980251,101.741747 64.8927739,108.090237 C66.3875228,114.438726 70.216537,115.948302 70.216537,115.948302" id="Path" stroke="#FFFFFF" stroke-width="0.86" stroke-linecap="round"></path>
            <path d="M80.625,112.295867 C81.4604974,111.789441 82.5903601,111.947797 83.2136706,112.658683 C83.8369811,113.369569 83.7419778,114.39147 82.996005,115" id="Path" stroke="#FFFFFF" stroke-width="0.86" stroke-linecap="round"></path>
            <path d="M78.625,110.295867 C79.4604974,109.789441 80.5903601,109.947797 81.2136706,110.658683 C81.8369811,111.369569 81.7419778,112.39147 80.996005,113" id="Path" stroke="#FFFFFF" stroke-width="0.86" stroke-linecap="round"></path>
            <path d="M76.625,107.295867 C77.4604974,106.789441 78.5903601,106.947797 79.2136706,107.658683 C79.8369811,108.369569 79.7419778,109.39147 78.996005,110" id="Path" stroke="#FFFFFF" stroke-width="0.86" stroke-linecap="round"></path>
            <path d="M73.625,104.295867 C74.4604974,103.789441 75.5903601,103.947797 76.2136706,104.658683 C76.8369811,105.369569 76.7419778,106.39147 75.996005,107" id="Path" stroke="#FFFFFF" stroke-width="0.86" stroke-linecap="round"></path>
            <path d="M71.625,101.374941 C72.4163773,100.789251 73.5762595,100.902095 74.2156693,101.626985 C74.8550792,102.351875 74.7318854,103.41431 73.9405082,104" id="Path" stroke="#FFFFFF" stroke-width="0.86" stroke-linecap="round"></path>
            <path d="M69.625,98.325428 C70.4454552,97.7878788 71.5897387,97.9304303 72.2181566,98.6484758 C72.8465744,99.3665213 72.7351849,100.40418 71.9657274,101" id="Path" stroke="#FFFFFF" stroke-width="0.86" stroke-linecap="round"></path>
            <path d="M100.430888,113 C99.7672156,111.400291 95.5881533,104.441048 98.8650358,103.391557 C101.001231,102.69869 106.569858,109.922853 104.796608,110.992722 C103.417414,111.828239 100.047202,103.585153 101.09456,101.954876 C102.940399,99.0917031 108.353478,105.928675 108.581615,107.650655 C108.882342,109.545852 107.544627,108.669578 106.880954,107.57933 C105.429171,105.286754 104.008497,101.262009 106.155063,99" id="Path" stroke="#FFFFFF" stroke-width="0.86" stroke-linecap="round"></path>
            <path d="M62.625,113.448631 C61.3159091,113.586766 55.3431818,115.11687 55.2715909,112.386059 C55.2715909,110.643441 61.6840909,108.13577 62.0931818,109.687126 C62.4102273,110.909084 55.6704545,111.546627 54.7090909,110.399049 C53.0113636,108.380162 59.1477273,105.92562 60.4670455,106.14876 C61.7863636,106.3719 60.9477273,107.136952 60.0477273,107.39197 C58.0636364,107.955133 54.8215909,108.103893 53.625,106" id="Path" stroke="#FFFFFF" stroke-width="0.86" stroke-linecap="round"></path>
            <path d="M89.2011317,94.9964078 L76.9789095,94.9964078 C75.7486198,95.0663014 74.6952444,94.1078544 74.625,92.8546286 L74.625,77.1448317 C74.7006012,75.8942455 75.7505917,74.9388783 76.9789095,75.0030525 L94.2710905,75.0030525 C95.4994083,74.9388783 96.5493988,75.8942455 96.625,77.1448317 L96.625,92.8546286 C96.5547556,94.1078544 95.5013802,95.0663014 94.2710905,94.9964078 L91.9272405,94.9964078" id="Path" stroke="#FFFFFF" stroke-width="0.86" stroke-linecap="round" stroke-linejoin="round"></path>
            <path d="M91.625,93.9638148 C91.625,93.9638148 90.9089381,98.966988 89.6446414,99.9199733 C88.3803446,100.872959 88.6488678,93 88.6488678,93" id="Path" stroke="#FFFFFF" stroke-width="0.86" stroke-linecap="round" stroke-linejoin="round"></path>
            <path d="M39.1026318,12.0849389 C39.2131256,12.0849061 39.3189553,12.1294724 39.3961392,12.2085389 C39.4733232,12.2876054 39.5153268,12.3944781 39.5126318,12.5049389 C39.5126647,12.6154327 39.4680984,12.7212624 39.3890319,12.7984463 C39.3099654,12.8756303 39.2030927,12.9176339 39.0926318,12.9149389 C38.8880841,12.8830915 38.7372461,12.7069511 38.7372461,12.4999389 C38.7372461,12.2929268 38.8880841,12.1167864 39.0926318,12.0849389 L39.1026318,12.0849389 Z" id="Path" fill="#FFFFFF" fill-rule="nonzero"></path>
            <path d="M33.13,12.08 C33.2414014,12.0826208 33.347195,12.1294045 33.4240916,12.2100522 C33.5009882,12.2906998 33.542684,12.3986001 33.54,12.51 C33.5400329,12.6204938 33.4954666,12.7263234 33.4164001,12.8035074 C33.3373336,12.8806913 33.2304609,12.922695 33.12,12.92 C33.0085986,12.9173792 32.902805,12.8705955 32.8259084,12.7899478 C32.7490118,12.7093002 32.707316,12.6013999 32.71,12.49 C32.7099671,12.3795062 32.7545334,12.2736766 32.8335999,12.1964926 C32.9126664,12.1193087 33.0195391,12.077305 33.13,12.08 L33.13,12.08 Z" id="Path" fill="#FFFFFF" fill-rule="nonzero"></path>
            <path d="M30.99,133 C31.08,143.699628 31.21,152.933829 31.26,157.320074 C31.26,158.865799 31.26,159.809294 31.26,160" id="Path" stroke="#FFFFFF" stroke-width="0.86"></path>
            <path d="M21.6207956,90 C21.7550367,94.6066351 18.6571661,97.3684834 14.8364591,98.4668246 C13.7876739,98.763384 12.7109483,98.942145 11.625,99" id="Path" stroke="#FFFFFF" stroke-width="0.86" stroke-linecap="round"></path>
            <path d="M37.10185,95.3646922 C36.5370361,108.047465 34.6182675,120.635812 31.3774752,132.920248 C29.2282882,141.47619 26.722601,149.659698 24.318771,157.209059 L24.318771,157.309717 L24.318771,157.309717 C24.9502857,157.440573 28.2199019,159.111498 31.713604,160.11808 C32.7533362,160.422769 33.8160285,160.644923 34.8915487,160.782424 C37.03055,161.034069 39.0473226,162.201703 38.5482223,164.899342 L15.0395798,165 C15.0395798,164.68796 15.0395798,161.8494 14.9784655,157.299652 C14.8460512,144.767712 14.5506653,119.3012 14.6423367,98.2535811 C14.6423367,94.3077816 14.6423367,90.5230352 14.7340082,87" id="Path" stroke="#FFFFFF" stroke-width="0.86" stroke-linecap="round" stroke-linejoin="round"></path>
            <path d="M52.9780931,87 C52.3276258,114.875907 46.0913997,138.831606 40.1236204,157.381865 L40.1236204,157.381865 C40.9496106,157.553627 46.318547,160.352332 50.8408434,160.867617 C52.9987428,161.120207 55.0533935,162.292228 54.5474745,165 L37.625,165" id="Path" stroke="#FFFFFF" stroke-width="0.86" stroke-linecap="round" stroke-linejoin="round"></path>
            <polyline id="Path" stroke="#FFFFFF" stroke-width="0.86" points="40.625 157.5 40.2606674 157.5 31.625 157.5"></polyline>
            <polyline id="Path" stroke="#FFFFFF" stroke-width="0.86" points="23.625 157.5 23.6151424 157.5 14.625 157.5"></polyline>
            <path d="M42.5161423,11 C43.4252827,14.3624654 38.3836863,22.2730054 36.9063332,22.8075013 C36.7266313,22.8752255 36.5395411,22.9241112 36.3484517,22.9532729 C34.2202368,23.3128429 31.5341403,21.5344292 30.625,19.7754516" id="Path" stroke="#FFFFFF" stroke-width="0.86" stroke-linecap="round"></path>
            <path d="M28.625,9 C28.69751,8.50591322 28.7700199,7.99165964 28.863247,7.39673882 C28.9923681,6.50964349 29.1756945,5.63082892 29.412251,4.76497047 C29.699987,3.58576472 30.2596745,2.48577976 31.0489044,1.5483647 C34.063247,-1.72874148 37.3572709,0.711442201 39.7915339,4.08938242 C40.4683051,5.04116677 41.0807536,6.03479949 41.625,7.0639865" id="Path" stroke="#FFFFFF" stroke-width="0.86" stroke-linecap="round"></path>
            <path d="M28.0833581,31 C28.0833581,24.8828932 27.7733581,19.1067738 28.2633581,13" id="Path" stroke="#FFFFFF" stroke-width="0.86"></path>
            <path d="M36.625,23 L36.625,23.2439644 C36.8682859,25.9006654 37.541831,28.5126852 38.625,31" id="Path" stroke="#FFFFFF" stroke-width="0.86"></path>
            <path d="M29.625,10.5388597 C29.3884078,10.161966 29.1048108,9.81930052 28.7816092,9.51980496 C26.4868016,7.48169542 24.9667367,12.0062986 25.9081962,13.3004982 C26.518751,13.9594279 27.4488876,14.175994 28.2716519,13.8507877 C28.4540775,13.7920962 28.6312642,13.7170848 28.8012229,13.6265957" id="Path" stroke="#FFFFFF" stroke-width="0.86" stroke-linecap="round"></path>
            <path d="M29.1119423,6.89716771 L28.8948585,6.97193333 C27.5510065,7.36445282 20.7076986,9.07471634 20.625,6.97193333 C20.625,5.68222641 24.8943145,4.96260734 29.4117247,4.56074214 C34.1255441,4.13083983 39.0771219,4.04672851 39.625,4" id="Path" stroke="#FFFFFF" stroke-width="0.86"></path>
            <path d="M27.625,11.185 C27.0782604,11.577132 26.367525,11.8010136 25.625,11.815" id="Path" stroke="#FFFFFF" stroke-width="0.86" stroke-linecap="round"></path>
            <path d="M14.6433299,72.6751269 C14.2258147,79.2639594 13.7471996,85.142132 13.625,87 L53.625,86.9796954 C53.5639002,83.7106599 52.7696029,76.6852792 51.7716395,69" id="Path" stroke="#FFFFFF" stroke-width="0.86" stroke-linecap="round" stroke-linejoin="round"></path>
            <path d="M16.4,55 C16.32,56.9450102 16.12,60.5295316 15.85,65" id="Path" stroke="#FFFFFF" stroke-width="0.86" stroke-linecap="round" stroke-linejoin="round"></path>
            <path d="M21.2344529,68 L20.8887126,67.8356676 C20.2663801,67.5480859 19.6440476,67.2399627 19.0315934,66.9318394 C17.6881467,66.2424291 16.3852162,65.4707656 15.1296673,64.620915 C12.5909457,62.8646125 11.0005404,61.0261438 11.859952,59.4855275 C13.0641649,57.7373934 14.3533089,56.0542255 15.7223649,54.442577 C18.1488866,51.4260007 20.7905767,48.603819 23.625,46" id="Path" stroke="#FFFFFF" stroke-width="0.86" stroke-linejoin="round"></path>
            <path d="M46.625,4.81837207 C46.5545453,4.69728679 46.3834412,4.41475446 46.1519473,4.07167948 C45.5581152,3.21399205 44.6220748,1.93250612 44.4409057,1.68024511 C43.8068138,0.792286361 43.0720724,0.893190765 42.1360319,1.30689882 C41.5220699,1.57934071 39.4285602,2.19485757 39.6399241,3.18372073 C39.9318077,4.50556842 42.327266,3.18372073 42.7902537,3.25435381 C43.2532415,3.3249869 43.7061643,4.41475446 44.0584375,5" id="Path" stroke="#FFFFFF" stroke-width="0.86" stroke-linecap="round"></path>
            <path d="M45.625,5.32382843 C45.2961708,5.22621306 44.9620393,5.14565986 44.6240741,5.08252287 C42.897202,4.78875958 42.1492574,5.32382843 41.8192819,5.98479584 C41.6432949,6.32052532 41.4893063,6.6352717 41.3463169,6.93952654 C40.963181,7.58627567 40.7200621,8.29980899 40.6313699,9.03783578 C40.586666,9.39551034 40.7803023,9.74188163 41.1165847,9.90577472 C41.4528671,10.0696678 41.8605898,10.0163793 42.1382582,9.77224401" id="Path" stroke="#FFFFFF" stroke-width="0.86" stroke-linecap="round"></path>
            <path d="M49.5652953,54 C48.8935976,49.524706 48.2632351,45.8557712 47.8188813,43.1141497 C47.8188813,43.1141497 65.0040089,35.6049289 67.4531222,32.117425 C69.5198844,29.2145316 52.3037552,10.7589835 50.3403311,8.67252883 L50.1646563,8.48101851 C50.1646563,8.48101851 47.1368497,3.10864979 47.6535403,1.49593122 C48.2839027,-0.519966985 46.5271549,-0.519966985 45.9071262,1.6269646 C45.6378089,2.35592083 45.559657,3.13899599 45.6797824,3.90492958" id="Path" stroke="#FFFFFF" stroke-width="0.86" stroke-linecap="round"></path>
            <path d="M19.625,67 C19.625,67 16.4846047,68.6027397 16.6298899,73" id="Path" stroke="#FFFFFF" stroke-width="0.86" stroke-linecap="round"></path>
            <path d="M24.6627625,75 L24.6627625,75 C21.8618509,74.6251011 19.0959255,74.0221396 16.3923192,73.1970742 C15.8981098,73.0451422 15.3837286,72.8830815 14.8794333,72.7108919 C8.69677261,70.5939734 1.69715355,66.6943866 0.688562901,59.7662896 C0.29521255,57.0112569 1.80809852,54.8234368 3.00832138,52.3520103 C4.51112144,49.2323409 13.2253446,37.8779597 15.3534709,36.1459355 C17.7640025,34.1201761 26.0041881,32.9452357 26.0041881,32.9452357 C26.1789116,32.1174932 26.6443008,31.3804895 27.3153559,30.8688323 L27.3153559,30.8688323 C28.3239465,30.4130365 34.1737723,30.2408469 37.5122073,30.6156124 C37.706299,30.6372427 37.8945386,30.6956733 38.0669322,30.7878019 C38.8570433,31.2454358 39.3817894,32.0547229 39.4789591,32.9654933 L56.625,29.6837631 C53.2663932,23.1506892 50.9062911,19.2814888 46.5390936,11.6848912 L46.5390936,11.6038608 C46.3071177,11.1581937 45.1169808,8.89947205 45.0665512,8.87921445 C45.0161217,8.85895686 43.6141807,8.87921445 43.6141807,8.87921445 L43.2914317,9.78067737 C43.1582458,10.2235923 42.7431315,10.5195768 42.282841,10.4998219 C41.8693189,10.4998219 41.4961403,10.2769884 41.4961403,9.96299571 C41.4828,9.83843307 41.4828,9.71279287 41.4961403,9.58823023 C41.5921993,8.73376508 41.9438495,7.92859318 42.504731,7.27886456 C43.039284,6.86358389 44.007531,7.01551584 44.8043177,7.08641742" id="Path" stroke="#FFFFFF" stroke-width="0.86" stroke-linecap="round" stroke-linejoin="round"></path>
            <path d="M50.625,9 C48.8561399,9.1539583 47.3156981,10.3092896 46.625,12" id="Path" stroke="#FFFFFF" stroke-width="0.86" stroke-linecap="round"></path>
            <path d="M34.625,19.69082 C35.2132183,19.2088827 36.0103596,19.1809828 36.625,19.62082" id="Path" stroke="#FFFFFF" stroke-width="0.86" stroke-linecap="round" stroke-linejoin="round"></path>
            <path d="M33.625,9.62365651 C33.3462636,9.30426042 32.9697254,9.1437514 32.588599,9.18186404 C32.2074726,9.21997669 31.8573844,9.45314834 31.625,9.82365651" id="Path" stroke="#FFFFFF" stroke-width="0.86" stroke-linecap="round"></path>
            <path d="M39.625,9.62583726 C39.3477232,9.30383663 38.9702698,9.14143461 38.5880019,9.1796614 C38.205734,9.21788819 37.8552142,9.45308752 37.625,9.82583726" id="Path" stroke="#FFFFFF" stroke-width="0.86" stroke-linecap="round"></path>
            <path d="M37.4080152,10 C37.0086775,11.3107658 37.4080152,13.3736103 37.5724484,14.738096 C37.6585801,15.6728224 37.7838626,17.4670673 36.625,16.8868923" id="Path" stroke="#FFFFFF" stroke-width="0.86" stroke-linecap="round"></path>
            <path d="M41.625,59 C41.6378858,58.9575559 41.6553825,58.9165772 41.6771921,58.8777616 C42.8358559,56.2292628 46.7398225,55.0272518 50.5185282,55.0068788 C52.6264774,54.9396681 54.7202949,55.3657909 56.625,56.2496359" id="Path" stroke="#FFFFFF" stroke-width="0.86" stroke-linecap="round" stroke-linejoin="round"></path>
            <path d="M24.625,55.2984307 C25.343025,53.2610399 39.8653331,53.0674878 41.625,58.8333038 L39.9765764,75" id="Path" stroke="#FFFFFF" stroke-width="0.86" stroke-linecap="round" stroke-linejoin="round"></path>
            <path d="M55.625,56 C55.1958955,56.864 53.1343284,64.496 51.7537313,69.68 C51.25,71.5725714 50.8208955,73.1462857 50.625,73.928 C50.6305293,73.9516128 50.6305293,73.9763872 50.625,74" id="Path" stroke="#FFFFFF" stroke-width="0.86" stroke-linecap="round" stroke-linejoin="round"></path>
            <path d="M50.625,73.4333058 C47.9577068,70.9221506 42.1785714,71.8777229 39.625,75" id="Path" stroke="#FFFFFF" stroke-width="0.86" stroke-linecap="round" stroke-linejoin="round"></path>
            <path d="M24.015,70 L24.015,70 C24.015,69.3023256 24.015,68.5225718 24.015,67.7017784 C24.015,67.2195622 24.015,66.6757866 24.015,66.2038304 C24.015,61.3201094 24.015,55.5540356 24.235,55" id="Path" stroke="#FFFFFF" stroke-width="0.86" stroke-linecap="round" stroke-linejoin="round"></path>
            <path d="M39.625,75 C38.465,72.9814126 35.625,72.1895911 32.625,72" id="Path" stroke="#FFFFFF" stroke-width="0.86" stroke-linecap="round" stroke-linejoin="round"></path>
            <path d="M30.3183078,68.6888413 C31.1137444,67.7944449 30.2310038,66.3817051 29.1639547,67.2964287 C27.6409847,68.6075325 25.6426928,70.0101087 24.1973263,69.9999451 L23.8384098,69.9999451 L23.625,69.9491271" id="Path" stroke="#FFFFFF" stroke-width="0.86" stroke-linejoin="round"></path>
            <path d="M27.1892775,73 C29.0248302,71.905272 30.7235441,70.5917485 32.2489063,69.0876629 L32.3675756,68.9459906 C32.7667361,68.4119947 32.842253,66.7664156 31.5476784,67.0279646 C31.0454319,67.258069 30.5941609,67.5879204 30.2207396,67.9978755 C28.868207,69.2698919 27.3149437,70.3048859 25.625,71.0601783" id="Path" stroke="#FFFFFF" stroke-width="0.86" stroke-linecap="round" stroke-linejoin="round"></path>
            <path d="M24.625,74.9651686 L24.6969458,74.9651686 C28.1708988,75.3001693 30.8637262,73.1436029 32.3231976,71.7198503 C32.826818,71.2173494 33.165991,70.7985986 33.3509944,70.6729734 C33.9779504,69.8982845 33.4846079,68.6943761 32.3231976,69.0712518" id="Path" stroke="#FFFFFF" stroke-width="0.86" stroke-linejoin="round"></path>
            <path d="M24.0085083,70 C24.0028589,69.9394839 24.0028589,69.878698 24.0085083,69.8181818 C23.8050108,69.2006979 23.9247523,68.5409649 24.3385083,68 L24.3385083,68" id="Path" stroke="#FFFFFF" stroke-width="0.86" stroke-linejoin="round"></path>
            <path d="M21.625,68 C21.625,67.9391304 21.701087,67.8434783 21.7663043,67.7391304 C22.1983689,66.7540338 23.3229536,66.0698758 24.625,66" id="Path" stroke="#FFFFFF" stroke-width="0.86" stroke-linejoin="round"></path>
            <path d="M21.2344529,68 L20.8887126,67.8356676 C20.2663801,67.5480859 19.6440476,67.2399627 19.0315934,66.9318394 C17.6881467,66.2424291 16.3852162,65.4707656 15.1296673,64.620915 C12.5909457,62.8646125 11.0005404,61.0261438 11.859952,59.4855275 C13.0641649,57.7373934 14.3533089,56.0542255 15.7223649,54.442577 C18.1488866,51.4260007 20.7905767,48.603819 23.625,46" id="Path" stroke="#FFFFFF" stroke-width="0.86" stroke-linecap="round" stroke-linejoin="round"></path>
            <path d="M30.625,159 C31.7823604,159.560935 33.8331218,160.803005 35.0209391,160.903172 C37.1529188,161.083472 38.5843909,162.115192 38.625,165" id="Path" stroke="#FFFFFF" stroke-width="0.86" stroke-linecap="square" stroke-linejoin="round"></path>
        </g>
    </g>
</svg>