<?xml version="1.0" encoding="UTF-8"?>
<svg width="101px" height="106px" viewBox="0 0 101 106" version="1.1" xmlns="http://www.w3.org/2000/svg" xmlns:xlink="http://www.w3.org/1999/xlink">
    <!-- Generator: Sketch 53.1 (72631) - https://sketchapp.com -->
    <title>Group</title>
    <desc>Created with Sketch.</desc>
    <g id="Page-1" stroke="none" stroke-width="1" fill="none" fill-rule="evenodd">
        <g id="Group" fill-rule="nonzero">
            <rect id="Rectangle" fill="#181818" x="0" y="0" width="101" height="106" rx="8"></rect>
            <path d="M69.996425,30.0039523 C69.2922037,30.0339141 68.6360758,30.2317279 68.0584582,30.4568942 C67.5173802,30.6667878 65.450039,31.5218636 62.1937784,32.868504 C58.9346842,34.2163168 54.6192776,36.0030204 50.0158985,37.9120732 C40.8091382,41.7301794 30.4583212,46.0280357 25.1566016,48.227723 C24.9572406,48.3104069 24.2616139,48.5247134 23.523293,49.0805593 C22.7849722,49.6364073 22,50.7882063 22,52.0716089 C22,53.1064959 22.5114313,54.134622 23.1551638,54.7484549 C23.7988964,55.3622878 24.48005,55.6655125 25.0635115,55.8950914 C27.1805036,56.7281007 33.7462218,59.3191748 34.9860731,59.8083466 C35.42241,61.0973756 37.7988967,68.1079291 38.3500119,69.8261163 C38.7133123,70.9599582 39.0591445,71.6700782 39.5094066,72.2336459 C39.7345388,72.5154287 39.9962364,72.7623797 40.3133674,72.9559044 C40.440127,73.0332483 40.5791142,73.0928273 40.7195788,73.1476909 L40.728041,73.1517712 C40.760408,73.1643066 40.7883098,73.1855835 40.8211317,73.1966565 C40.8830535,73.2175469 40.9244762,73.2200561 41.0073131,73.2374616 C41.3373171,73.3402378 41.6704907,73.4047642 41.9678331,73.4047642 C43.2355661,73.4047684 44.0115838,72.7314734 44.0115838,72.7314734 L44.0581302,72.698829 L50.5786693,67.2594446 L58.4870998,74.4738709 C58.5984472,74.625713 59.6369383,76 61.9272041,76 C63.2870874,76 64.3658399,75.341942 65.0584164,74.6411735 C65.7509929,73.940405 66.1824805,73.2041862 66.3659104,72.2785313 L66.3659104,72.274451 C66.5374725,71.3997507 73.8258141,35.3168384 73.8258141,35.3168386 L73.8131208,35.3658051 C74.0264739,34.4266623 74.0823838,33.552046 73.8469718,32.6889592 C73.6115468,31.825873 72.9912348,30.9995102 72.2221259,30.5548276 C71.4530928,30.1102439 70.7006462,29.9739902 69.996425,30.0039523 Z M70,34 C69.9895401,34.0620301 70.0078319,34.0308378 69.9914882,34.1037797 L69.9872323,34.1286868 L69.9829743,34.153594 C69.9829743,34.153594 62.7427372,70.3915877 62.4751065,71.7716842 C62.4946883,71.6674584 62.4051578,71.8746901 62.3133718,72 C62.1835987,71.9127626 61.9175479,71.8007428 61.9175479,71.8007428 L61.8749869,71.7550805 L51.0090068,61.7299546 L43.3266345,68.2058122 L45.6121951,59.2807515 C45.6121951,59.2807515 59.8991059,44.8563592 60.759872,44.0168224 C61.4528454,43.3451929 61.5983366,43.1110663 61.5983366,42.8793966 C61.5983366,42.5690868 61.432516,42.3438933 61.0620597,42.3438933 C60.7286491,42.3438933 60.280288,42.660048 60.040581,42.8088267 C56.9176322,44.750484 43.2073497,52.544034 37.0615658,56.0303689 C36.0849001,55.6405284 29.2996371,52.931562 27,52.0161672 C27.0174114,52.0087283 27.0116801,52.0113659 27.0297932,52.0037144 C32.3639725,49.7653648 42.7710982,45.3931484 52.0304856,41.509504 C56.6601803,39.5676815 61.0041705,37.7486698 64.2797189,36.3786322 C67.504833,35.0296889 69.7457537,34.1013196 70,34 Z" id="Shape" fill="#C3C3C3"></path>
        </g>
    </g>
</svg>