<?xml version="1.0" encoding="UTF-8"?>
<svg width="101px" height="106px" viewBox="0 0 101 106" version="1.1" xmlns="http://www.w3.org/2000/svg" xmlns:xlink="http://www.w3.org/1999/xlink">
    <!-- Generator: Sketch 53.1 (72631) - https://sketchapp.com -->
    <title>Group 7</title>
    <desc>Created with Sketch.</desc>
    <g id="Page-1" stroke="none" stroke-width="1" fill="none" fill-rule="evenodd">
        <g id="Group-7" fill-rule="nonzero">
            <rect id="Rectangle" fill="#181818" x="0" y="0" width="101" height="106" rx="8"></rect>
            <g id="icons8-telegram-app(2)" transform="translate(20.000000, 23.000000)">
                <path d="M30.5,0 C13.6553151,4.06341627e-15 1.35447209e-15,13.6553151 0,30.5 C-1.35447209e-15,47.3446849 13.6553151,61 30.5,61 C47.3446849,61 61,47.3446849 61,30.5 C61,13.6553151 47.3446849,6.77236045e-15 30.5,0 Z" id="Path" fill="#29B6F6"></path>
                <path d="M45.9229167,16.5238142 L40.1478333,45.6681907 C40.1478333,45.6681907 39.899625,47 38.2284583,47 C37.3404583,47 36.8825833,46.5824763 36.8825833,46.5824763 L24.3735,36.3226683 L18.2530833,33.2735259 L10.3982917,31.2087643 C10.3982917,31.2087643 9,30.8095263 9,29.6666693 C9,28.7142885 10.438375,28.2601933 10.438375,28.2601933 L43.3005417,15.3565762 C43.299,15.3550524 44.3041667,14.9984811 45.0364583,15.0000049 C45.486625,15.0000049 46,15.190481 46,15.7619095 C46,16.1428618 45.9229167,16.5238142 45.9229167,16.5238142 Z" id="Path" fill="#FFFFFF"></path>
                <path d="M29,40.7658368 L23.851991,45.8199073 C23.851991,45.8199073 23.6280992,45.9921711 23.3290759,45.9996609 C23.2253944,46.0026567 23.1141998,45.9861793 23,45.9352492 L24.4485349,37 L29,40.7658368 Z" id="Path" fill="#B0BEC5"></path>
                <path d="M38.8462134,22.2946335 C38.5927047,21.963742 38.1246887,21.90358 37.7946774,22.1547567 L18,34.0322568 C18,34.0322568 21.1591081,42.8941322 21.6406246,44.4282655 C22.1236411,45.9639027 22.5106544,46 22.5106544,46 L23.9567038,37.0283287 L38.7052085,23.3474701 C39.0352198,23.0962933 39.0967219,22.625525 38.8462134,22.2946335 Z" id="Path" fill="#CFD8DC"></path>
            </g>
        </g>
    </g>
</svg>