<?xml version="1.0" encoding="UTF-8"?>
<svg width="101px" height="106px" viewBox="0 0 101 106" version="1.1" xmlns="http://www.w3.org/2000/svg" xmlns:xlink="http://www.w3.org/1999/xlink">
    <!-- Generator: Sketch 53.1 (72631) - https://sketchapp.com -->
    <title>Group 6</title>
    <desc>Created with Sketch.</desc>
    <g id="Page-1" stroke="none" stroke-width="1" fill="none" fill-rule="evenodd">
        <g id="Group-6">
            <rect id="Rectangle" fill="#181818" fill-rule="nonzero" x="0" y="0" width="101" height="106" rx="8"></rect>
            <g id="icons8-whatsapp(2)" transform="translate(20.000000, 23.000000)">
                <path d="M2.0754717,60 L6.17313229,45.1074328 C3.64517687,40.7494452 2.31579478,35.8039318 2.31731581,30.7387933 C2.32492097,14.8922539 15.2780307,2 31.1971531,2 C38.9224754,2.00302848 46.1717146,4.99668433 51.6246148,10.4282693 C57.075994,15.8613686 60.0785115,23.081273 60.0754694,30.7615069 C60.0693853,46.6080464 47.1132335,59.5018145 31.1971531,59.5018145 C31.1956321,59.5018145 31.1971531,59.5018145 31.1971531,59.5018145 L31.1849849,59.5018145 C26.3526657,59.5003002 21.6024824,58.2934496 17.3846602,56.0024019 L2.0754717,60 Z" id="Path" fill="#FFFFFF" fill-rule="nonzero"></path>
                <path d="M1.84144621,61 C1.63905205,61 1.44279105,60.9206167 1.29712859,60.774063 C1.10546746,60.5801847 1.03033629,60.2977635 1.10240088,60.0367148 L5.14875072,45.3263873 C2.64028981,40.8900847 1.31706135,35.8523014 1.32012792,30.7381879 C1.32626108,14.3394397 14.7287408,1 31.1977987,1 C39.1862347,1.0030532 46.6916847,4.10052668 52.3326552,9.72147164 C57.9736256,15.3439432 61.078536,22.8151286 61.0754694,30.7595603 C61.0693363,47.1567819 47.6653233,60.4977483 31.1977987,60.4977483 C26.3081398,60.4962217 21.4706128,59.2947867 17.1774035,57.0216777 L2.03617392,60.9740478 C1.97177578,60.992367 1.90737764,61 1.84144621,61 Z" id="Path" fill="#FFFFFF" fill-rule="nonzero"></path>
                <path d="M30.6966178,1.51349742 C38.416345,1.51652441 45.660334,4.50870881 51.109285,9.93762406 C56.556716,15.3680528 59.5570589,22.5844085 59.554019,30.2608674 C59.5479393,46.0996179 46.601171,58.9870484 30.6966178,58.9870484 L30.6844583,58.9870484 C25.855639,58.9855349 21.1088959,57.7792775 16.8941286,55.4893559 L1.59602766,59.4849891 L5.69072054,44.599742 C3.16459598,40.2438964 1.83617669,35.3008138 1.83769662,30.2381649 C1.84529627,14.3994145 14.7890248,1.51349742 30.6966178,1.51349742 L30.6966178,1.51349742 Z M30.6966178,0 C30.6966178,0 30.6966178,0 30.6966178,0 C13.953063,0 0.325365729,13.5639639 0.317766076,30.2381649 C0.316246146,35.3341108 1.60818711,40.3558952 4.05831514,44.8010371 L0.129294689,59.0869393 C-0.0135787814,59.6090959 0.13233455,60.1660629 0.515357047,60.5504913 C0.804143849,60.8410828 1.194766,61 1.59602766,61 C1.72522176,61 1.85441585,60.9833515 1.98209002,60.9500546 L16.7056572,57.1057711 C21.0040207,59.3275854 25.8222005,60.5005459 30.6844583,60.5020593 C47.4401726,60.5020593 61.0678699,46.936582 61.0754695,30.2623809 C61.0785094,22.1818182 57.9216136,14.5840611 52.1869157,8.86909488 C46.4491779,3.15261513 38.8176067,0.00302699484 30.6966178,0 L30.6966178,0 Z" id="Shape" fill="#CFD8DC" fill-rule="nonzero"></path>
                <path d="M48.0523422,13.0350727 C43.5203102,8.50014257 37.4963576,6.00152077 31.0845969,6 C17.8474135,6 7.08155633,16.7609543 7.07547306,29.9885942 C7.07395225,34.5220036 8.34231288,38.9352723 10.7452023,42.7569623 L11.3170292,43.6648608 L8.89132749,52.5172512 L17.9751621,50.1357285 L18.852673,50.6558312 C22.5360896,52.8426956 26.7609167,53.9984792 31.067868,54 L31.0769928,54 C44.3050513,54 55.0709086,43.237525 55.075471,30.0083642 C55.0769918,23.5983272 52.5843742,17.5700029 48.0523422,13.0350727 Z" id="Path" fill="#40C351" fill-rule="nonzero"></path>
                <path d="M24.4496788,18.3011921 C23.9157519,17.0642288 23.3532487,17.0391764 22.8433861,17.0172555 C22.4267727,16.9984662 21.9515026,17.000032 21.4762325,17.000032 C21.0009623,17.000032 20.2278964,17.1863593 19.5736479,17.9301031 C18.9193995,18.6738468 17.0754717,20.4697923 17.0754717,24.1243142 C17.0754717,27.7788362 19.6323047,31.3112275 19.9887573,31.8060129 C20.3452099,32.3007982 24.924949,40.0404305 32.1773305,43.0185371 C38.2039363,45.4924637 39.4312161,45.0008099 40.739713,44.8771136 C42.0482099,44.7534173 44.9614955,43.0811682 45.5555831,41.346288 C46.1496708,39.6114078 46.1496708,38.1254861 45.9721965,37.8154624 C45.7932182,37.5054387 45.3179481,37.3206771 44.6050429,36.9480223 C43.8921377,36.5753675 40.3832604,34.7794221 39.729012,34.5320294 C39.0747635,34.2846368 38.5994934,34.1609404 38.1227192,34.9046842 C37.6474491,35.6468622 36.2802955,37.3206771 35.8636821,37.8154624 C35.4470687,38.3118135 35.0304553,38.3744445 34.3175501,38.0017898 C33.6046449,37.629135 31.3065033,36.8462468 28.5797161,34.3159523 C26.4590488,32.3477715 25.0272223,29.9161208 24.6106089,29.1723771 C24.1939955,28.4301991 24.5654883,28.0277946 24.9234449,27.6567056 C25.2438011,27.3231952 25.6363501,26.7892655 25.9943068,26.3555455 C26.3507594,25.9218254 26.4695769,25.6118017 26.707212,25.1170164 C26.944847,24.6206653 26.8260295,24.1869453 26.6470512,23.8158563 C26.4710809,23.4432015 25.084375,19.7698903 24.4496788,18.3011921 Z" id="Path" fill="#FFFFFF"></path>
            </g>
        </g>
    </g>
</svg>