<?xml version="1.0" encoding="UTF-8"?>
<svg width="101px" height="106px" viewBox="0 0 101 106" version="1.1" xmlns="http://www.w3.org/2000/svg" xmlns:xlink="http://www.w3.org/1999/xlink">
    <!-- Generator: Sketch 53.1 (72631) - https://sketchapp.com -->
    <title>Group</title>
    <desc>Created with Sketch.</desc>
    <g id="Page-1" stroke="none" stroke-width="1" fill="none" fill-rule="evenodd">
        <g id="Group" fill-rule="nonzero">
            <rect id="Rectangle" fill="#181818" x="0" y="0" width="101" height="106" rx="8"></rect>
            <path d="M51.0330078,27 C36.716011,27 25.0610654,38.643775 25.0558649,52.959375 C25.0532646,57.535375 26.2519407,62.0026638 28.5245625,65.9390612 L25,79 L38.6056236,75.7855472 C42.3993935,77.8551472 46.6701464,78.9415416 51.0177703,78.9441416 L51.0279295,78.9441416 C65.3423252,78.9441416 76.9921917,67.2977666 76.9999925,52.9847666 C77.005193,46.0453656 74.3064549,39.5209094 69.4023767,34.6121094 C64.4982985,29.7059094 57.9808852,27.0026 51.0330078,27 Z M50.9999987,32 C56.6152221,32.0026285 61.8922256,34.1916597 65.8591601,38.1554821 C69.8260946,42.1245616 72.0052482,47.3984184 71.9999905,53.0077016 C71.9947328,64.5837427 62.5775746,74 50.9948619,74 C47.490605,73.9973715 44.0194563,73.1175921 40.9621039,71.4484759 L39.1907109,70.4833141 L37.234477,70.9453596 L32.0589287,72.1672158 L33.3220088,67.4748806 L33.8919353,65.3700016 L32.8034272,63.480746 C30.9684899,60.3054824 29.9973765,56.6749917 30.0000053,52.9871649 C30.005263,41.4163782 39.4251715,32 50.9999987,32 Z M41.9492596,41.0000007 C41.521278,41.0000007 40.8292917,41.1594644 40.2424187,41.797319 C39.6555457,42.4326222 38,43.9713267 38,47.1044685 C38,50.2376101 40.2924726,53.2662229 40.6128181,53.6923097 C40.9306008,54.1158452 45.0378711,60.7485763 51.5396039,63.2999947 C56.9419109,65.4202234 58.0391353,65.0017908 59.2128813,64.8946312 C60.3866273,64.7900231 62.9994859,63.3572817 63.5325409,61.8698073 C64.0655933,60.3823278 64.0668362,59.1027915 63.9079448,58.839998 C63.7490535,58.5746504 63.3223122,58.4164217 62.6816212,58.0974944 C62.0434929,57.7785671 58.8987813,56.2412176 58.3119083,56.0294498 C57.7250352,55.8176821 57.2957722,55.7105225 56.8703534,56.3483771 C56.4449345,56.9862317 55.2223371,58.41646 54.8481735,58.839998 C54.4740099,59.2660848 54.1023681,59.3233718 53.4616771,59.0044445 C52.820986,58.6829658 50.7610054,58.0087918 48.3161283,55.8400861 C46.4145547,54.1535985 45.1314519,52.0727586 44.7572884,51.434904 C44.3856875,50.7996008 44.7222508,50.4506535 45.0425963,50.1342777 C45.3296259,49.8485188 45.6782817,49.3905392 45.9986283,49.0180321 C46.3164111,48.645525 46.4266099,48.3801367 46.6393194,47.9566012 C46.8520288,47.533067 46.7431497,47.1592842 46.5842584,46.8403569 C46.425367,46.5214296 45.1810655,43.376647 44.6121319,42.1162463 C44.1328949,41.0574076 43.626749,41.0328104 43.170577,41.0149505 C42.7989762,40.999642 42.3746785,41.0000007 41.9492596,41.0000007 Z" id="Shape" fill="#C3C3C3"></path>
        </g>
    </g>
</svg>