<svg width="92" height="160" xmlns="http://www.w3.org/2000/svg"><g fill="#FFF" fill-rule="nonzero"><path d="M47.42 13.92a.73.73 0 10.966 1.095.73.73 0 00-.966-1.095zM41.8 14.13a.42.42 0 00-.14-.759.41.41 0 00-.31.059.42.42 0 00-.13.58.43.43 0 00.58.12z"/><path d="M92 149.61l-.62-1.8a.43.43 0 00-.14-.19 3.57 3.57 0 00-1.44-2.41 4.8 4.8 0 00-3.74-.49 39.53 39.53 0 01-8.41.48 20 20 0 00-3 .06c-.16-3.36-2.7-17.35-5.37-32.13l-.64-3.52c-.2-1.1-6.47-14.45-11.46-24h1a.41.41 0 00.31-.14.41.41 0 00.12-.32c-.22-3.47-4.7-31.14-5.64-36.94 4.69 3.3 13.82 9.36 15.34 7.75 3.58-3.78 1.68-23 .88-29.83.1.046.21.074.32.08a1 1 0 00.91-.57l.43-.86a1 1 0 00-.46-1.38l-1.15-.56-.54-.24a3.6 3.6 0 00-1.86-3.12 1.78 1.78 0 00-1.18-.14 1.05 1.05 0 00-.18-.44 1.63 1.63 0 00-1.57-.5 1.88 1.88 0 00-1.3-.7 2.38 2.38 0 00-1.79.63 2.81 2.81 0 00-.26.3l-1.5-.75a1 1 0 00-.86 0 .55.55 0 00-.17-.13L56.48 17a6.26 6.26 0 00-.24-4.91 6.33 6.33 0 00-4.57-3.43 6.27 6.27 0 00-1.73 0 31 31 0 00-1.62-3.65 17 17 0 00-1.38-2.24c-1.46-2-3-2.88-4.47-2.65-1.91.3-3.49 1.7-4.7 4.15-7.88-.05-9 1-9.11 1.85-.055.396.07.796.34 1.09a5.57 5.57 0 003.4.76 27.34 27.34 0 004-.35c-.047.187-.087.357-.12.51a1.79 1.79 0 00-2.18.1c-1.23.94-1.89 3.22-1.24 4.27a2.43 2.43 0 002.15 1h.07c-.74 4.06-1.08 7.74-1.43 11.63-.12 1.31-.25 2.64-.39 4a2.67 2.67 0 00-1.52 2.15L24 32.67a.19.19 0 00-.1 0C4.58 41.29-1.33 63.15 4.14 79.31a.49.49 0 00.26.27 6.81 6.81 0 00.13 2.66 7.73 7.73 0 01-.43 5.35 1.91 1.91 0 00.18 2.22c.218.216.513.335.82.33a1.62 1.62 0 00.76-.21 1.7 1.7 0 00.49.7c.195.143.428.223.67.23a1.93 1.93 0 001.35-.8c.226.104.471.161.72.17a2 2 0 001.26-.47A5.58 5.58 0 0012 85.69a1.69 1.69 0 001-.51 2.07 2.07 0 00.48-1.61v-.13a8.6 8.6 0 00-.77-2.73 9.13 9.13 0 00-1.89-2.92c.51-.27.48-.46.46-.65-2.56-19.5 9-29.16 12.15-31.39-2.26 14.8-4.9 33.34-5 39.69a.42.42 0 00.12.31.43.43 0 00.31.12h.91v8.69a13.86 13.86 0 01-3.89-.45.41.41 0 00-.52.3.42.42 0 00.3.53 14.73 14.73 0 003.73.5h.37c-.18 10.26-.86 16.48-2.08 19-3.9 8-12.81 30.47-13.23 31.53 0 0 0 .05-.06.09l-3.22 6.41-1.09 2a.45.45 0 000 .34.42.42 0 00.23.26l10.4 4.81a.48.48 0 00.18 0h12.56a.43.43 0 00.43-.43v-1.9a.27.27 0 000-.12.32.32 0 000-.17c-.27-1.87-2.92-4.5-6.45-4.38-.68 0-1.05-.38-1.78-1.23a11.55 11.55 0 00-2.77-2.5C16 146.5 30 131.16 35.78 123.32c2.18-2.94 4.15-10.35 6-17.87 2.44 3.19 10.59 14.11 10.93 14.78 1.27 2.73 4.92 10.31 8.14 17 2.71 5.61 5 10.46 5.45 11.36l.12.19 2.28 6.67a.41.41 0 000 .19l.6 1.76a.49.49 0 00.22.25.58.58 0 00.19 0 .35.35 0 00.14 0l21.74-7.53a.45.45 0 00.41-.51zM47.7 20.34a6 6 0 001.56.57 6.2 6.2 0 006-2.01.79.79 0 00.17.14l1.54.78a.65.65 0 00.2 0 1 1 0 00.52.71l1.45.74a2.07 2.07 0 00.24 1.95 3.22 3.22 0 00.92 2.59 3.38 3.38 0 002.3.74h.65c.08 7.18-.12 13.9-.28 16.21-.38-.49-.91-1.21-1.43-1.92-1.65-2.26-3.9-5.35-6.08-7.76-1.95-2.18-8.07-2-9.56-1.95v-.05a3.36 3.36 0 00-1.37-1.92 1.36 1.36 0 00-.35-.13 9 9 0 01-.39-4.14v-.78h.24c.87-.28 2.44-2.05 3.67-3.77zm14.45.6h.11c.15 0 .29.1.3.38a1.88 1.88 0 01-.33.38 4 4 0 00-.81 1 2.49 2.49 0 00-.24 1.27.43.43 0 00.45.41.42.42 0 00.32-.18c.23.177.51.276.8.28h.19c.196.322.526.54.9.59h.2c.519.001.991-.3 1.21-.77l1.37.62a6.41 6.41 0 01-1.85.39h-.14a7.24 7.24 0 01-1 .26 3.4 3.4 0 01-2.7-.43 2.47 2.47 0 01-.63-2.09 2.82 2.82 0 011.08-1.92c.232-.139.5-.205.77-.19zM70 24.17c.08 0 .11.13 0 .28l-.4.8a.2.2 0 01-.09.08.17.17 0 01-.12 0l-3.94-1.81c.1-.41.24-.88.47-1 0 0 .13-.07.39 0l1.7.73 1.99.92zm-3.53-3.91a2.7 2.7 0 011.33 2l-1.21-.53a1.31 1.31 0 00-1 0c-.62.34-.81 1.18-1 1.86l-.08.36a.49.49 0 01-.54.29c-.23 0-.34-.21-.34-.51a9.58 9.58 0 011.47-3c.53-.67.9-.68 1.36-.47h.01zm-1.7-.85c.1.13 0 .32-.11.47l-.24.34a10.06 10.06 0 00-1.63 3.39.93.93 0 01-.3-.11.52.52 0 01-.17-.53 3.62 3.62 0 01.57-.7 1.46 1.46 0 00.57-1 1.2 1.2 0 00-.64-1.09c.206-.372.51-.68.88-.89l.15-.06a.88.88 0 01.91.18h.01zm-3.35-.48a1.51 1.51 0 011.1-.38c.18.02.352.086.5.19a3.3 3.3 0 00-1.12 1.35 2.2 2.2 0 00-1.06.41 3 3 0 00-.8.86 7.44 7.44 0 011-1.93 5 5 0 01.37-.5h.01zm-2.76-.28l1.39.68a9 9 0 00-.61 1.16l-1.35-.69c-.07 0-.11-.14 0-.29v-.06l.3-.59.05-.12a.15.15 0 01.21-.09h.01zm-1.06-.16l-.27.54-1.49-.72.25-.57 1.51.75zm-2.18-6.07a5.37 5.37 0 01-.08 4.89 5.31 5.31 0 01-2.4 2.33 5.39 5.39 0 01-2.91.5c1.17-1.74 3.24-5.22 2.87-7.62a18.82 18.82 0 00-.75-2.89 5.39 5.39 0 013.26 2.79h.01zm-4.85-3a4.3 4.3 0 01.61.05 20 20 0 01.87 3.21c.24 1.58-.86 4.31-3 7.31a5.29 5.29 0 01-3.38-2.8 5.39 5.39 0 012.48-7.22 5.73 5.73 0 011.2-.43h.23a4.9 4.9 0 01.98-.15l.01.03zm-8-8.49c1.17-.18 2.39.6 3.65 2.31.331.464.639.944.92 1.44-3.35-.25-6.19-.4-8.44-.45 1-1.98 2.3-3.1 3.82-3.33l.05.03zM29.61 6.56a.45.45 0 01-.17-.43c0-.05.21-1.07 7.87-1.07-.09.21-.19.43-.27.64-.08.21-.24.69-.34 1-1.51.3-6.03.82-7.09-.14zM36 13.38a2.45 2.45 0 00.32-.09.43.43 0 00.23-.57.44.44 0 00-.57-.23 2 2 0 01-.48.14 1.81 1.81 0 01-1.88-.58c-.39-.63.1-2.42 1-3.13.52-.4 1-.32 1.57.25a5.4 5.4 0 01.69 1 .42.42 0 00.58.17.43.43 0 00.18-.58 5.8 5.8 0 00-.64-1V8.7c.07-.29.19-.85.39-1.55.11-.37.24-.78.4-1.2.16-.42.25-.62.39-.94 2.413 0 5.53.167 9.35.5a29.27 29.27 0 011.4 3.17 6.17 6.17 0 00-1.18.43 6.27 6.27 0 00-3.41 6.75c0 1.17-.23 1.46-.35 1.52-.12.06-.27 0-.5-.13a.42.42 0 00-.59.15.43.43 0 00.16.59c.254.164.548.257.85.27.174 0 .345-.04.5-.12a1.21 1.21 0 00.5-.59 6.17 6.17 0 002 2.28c-1.51 2.1-2.76 3.24-3.15 3.35a2.36 2.36 0 01-.45.08c-1.87.15-4.13-1.81-4.76-3.53a.42.42 0 00-.55-.25.43.43 0 00-.26.55 6.64 6.64 0 005.15 4.08v.67a10.51 10.51 0 00.27 4 44.69 44.69 0 00-9 .11c.127-1.273.247-2.513.36-3.72.39-3.9.73-7.65 1.48-11.79zM10 78.21a8.2 8.2 0 011.89 2.86c.373.78.61 1.62.7 2.48v.13a1.19 1.19 0 01-.25.91.79.79 0 01-.42.23 10 10 0 00-.5-2.6.43.43 0 00-.55-.27.44.44 0 00-.27.55c1 2.87.33 5.65-.84 6.58a1.06 1.06 0 01-.89.25 7.33 7.33 0 00.87-6.24.43.43 0 00-.83.23A6.52 6.52 0 018 89.09l-.14.19c-.26.34-.74.87-1 .65-.09-.06-.41-.5-.17-.84a.35.35 0 000-.13c.85-1.46 1.41-4.07 1-5.4a.44.44 0 00-.54-.28.43.43 0 00-.28.55c.48 1.51-.69 5-1.43 5.32-.19.11-.45.2-.61 0a1.11 1.11 0 010-1.2 8.65 8.65 0 00.52-5.9 4.28 4.28 0 010-2.67A46.89 46.89 0 0010 78.15v.06zm13 80.92H11l-9.89-4.57.68-1.27 9.39 4.56a.39.39 0 00.18 0l11.69.23-.05 1.05zm30.5-39.27c-.36-.77-9.84-13.42-11.45-15.48l.63-2.6c.91-3.79 1.77-7.36 2.61-10.33a.432.432 0 10-.83-.24c-.85 3-1.71 6.57-2.62 10.36l-.57 2.37a.25.25 0 00-.12.08.43.43 0 000 .56c-1.78 7.33-3.85 15.32-6 18.23-6.32 8.54-20.89 24.29-23 26l-.24-.13L5.35 146c1.12-2.81 9.39-23.56 13.1-31.2 1.29-2.68 2-8.86 2.16-19.44C24.38 95 27 93 28 89.58a.43.43 0 00-.29-.54.45.45 0 00-.54.3 7.17 7.17 0 01-6.51 5.19v-8.64l35.49-.25c5 9.59 11.42 23.23 11.59 24.16l.64 3.52c2.62 14.46 5.32 29.4 5.36 32.24-.77.34-3.81 1.37-6.83 2.35-.68-1.46-2.83-5.93-5.29-11-3.22-6.74-6.87-14.32-8.14-17.05h.02zm16.6 36.88l-.34-1 20.92-7.26.34 1-20.92 7.26z"/><path d="M46.61 11.35a.61.61 0 00-.31.81.62.62 0 00.82.31 2.2 2.2 0 011.77.2.61.61 0 00.42.16.65.65 0 00.46-.2.63.63 0 000-.87 3.29 3.29 0 00-3.16-.41zM35.67 10.29a2 2 0 01-1.31.38.42.42 0 00-.48.38.43.43 0 00.39.47h.24a2.92 2.92 0 001.68-.52.43.43 0 00.08-.61.42.42 0 00-.6-.1zM40.21 11.4a2.35 2.35 0 012 0 .38.38 0 00.25.08.43.43 0 00.25-.78 3.15 3.15 0 00-2.94 0 .433.433 0 10.45.74l-.01-.04zM41.53 20a.43.43 0 00-.6-.12.44.44 0 00-.12.6 2.34 2.34 0 002 1 1.73 1.73 0 001.46-.7.45.45 0 00-.14-.6.42.42 0 00-.59.14.93.93 0 01-.74.3 1.46 1.46 0 01-1.27-.62z"/></g></svg>