<svg width="53" height="50" xmlns="http://www.w3.org/2000/svg"><g fill-rule="nonzero" fill="none"><rect fill="#04E887" width="53" height="44" rx="22"/><path d="M23.6 43v5.382a1 1 0 001.447.894L37.6 43h-14z" fill="#04E887"/><path d="M39 29c-1.29 0-2.456-.307-3.5-.921a7.15 7.15 0 01-2.533-2.533A6.763 6.763 0 0132 22c0-1.29.322-2.471.967-3.546A7.15 7.15 0 0135.5 15.92C36.544 15.307 37.71 15 39 15s2.456.307 3.5.921a7.15 7.15 0 012.533 2.533A6.763 6.763 0 0146 22c0 1.29-.322 2.471-.967 3.546A7.15 7.15 0 0142.5 28.08c-1.044.614-2.21.921-3.5.921z" fill="#333"/></g></svg>